<?xml version="1.0" encoding="UTF-8" standalone="no"?>
<!-- Created with Inkscape (http://www.inkscape.org/) -->
<svg
   xmlns:dc="http://purl.org/dc/elements/1.1/"
   xmlns:cc="http://creativecommons.org/ns#"
   xmlns:rdf="http://www.w3.org/1999/02/22-rdf-syntax-ns#"
   xmlns:svg="http://www.w3.org/2000/svg"
   xmlns="http://www.w3.org/2000/svg"
   xmlns:sodipodi="http://sodipodi.sourceforge.net/DTD/sodipodi-0.dtd"
   xmlns:inkscape="http://www.inkscape.org/namespaces/inkscape"
   width="256"
   height="256"
   id="svg2"
   sodipodi:version="0.32"
   inkscape:version="0.46"
   version="1.0"
   sodipodi:docname="38.svg"
   inkscape:output_extension="org.inkscape.output.svg.inkscape">
  <defs
     id="defs4">
    <inkscape:perspective
       sodipodi:type="inkscape:persp3d"
       inkscape:vp_x="0 : 526.18109 : 1"
       inkscape:vp_y="0 : 1000 : 0"
       inkscape:vp_z="744.09448 : 526.18109 : 1"
       inkscape:persp3d-origin="372.04724 : 350.78739 : 1"
       id="perspective10" />
  </defs>
  <sodipodi:namedview
     id="base"
     pagecolor="#ffffff"
     bordercolor="#666666"
     borderopacity="1.0"
     gridtolerance="10000"
     guidetolerance="10"
     objecttolerance="10"
     inkscape:pageopacity="0.0"
     inkscape:pageshadow="2"
     inkscape:zoom="1.8398438"
     inkscape:cx="128"
     inkscape:cy="128"
     inkscape:document-units="px"
     inkscape:current-layer="layer1"
     showgrid="false"
     inkscape:window-width="923"
     inkscape:window-height="681"
     inkscape:window-x="290"
     inkscape:window-y="144" />
  <metadata
     id="metadata7">
    <rdf:RDF>
      <cc:Work
         rdf:about="">
        <dc:format>image/svg+xml</dc:format>
        <dc:type
           rdf:resource="http://purl.org/dc/dcmitype/StillImage" />
      </cc:Work>
    </rdf:RDF>
  </metadata>
  <g
     inkscape:label="Layer 1"
     inkscape:groupmode="layer"
     id="layer1">
    <g
       id="g2402"
       transform="matrix(0.9946648,0,0,0.9946648,1.6944731,-4.1806087)">
      <path
         inkscape:transform-center-x="1.1038625"
         id="path3275"
         d="M 27.330836,164.60235 L 50.539442,164.27089 L 38.805081,143.57158 L 27.330836,164.60235 z"
         style="fill:#000000;fill-opacity:1;stroke:#ffffff;stroke-width:3.17136574;stroke-miterlimit:4;stroke-dasharray:none;stroke-opacity:1"
         inkscape:transform-center-y="-4.5124414" />
      <path
         id="path3157"
         d="M 43.027277,130.78968 C 51.677374,169.91863 90.460262,194.64259 129.5892,185.99249 C 168.71815,177.34239 193.44626,138.57825 184.79617,99.449322 C 176.14607,60.320374 137.37781,35.573503 98.248853,44.223603 L 97.836244,44.314815 C 58.895297,53.151908 34.407956,91.799948 43.027277,130.78968 z M 48.18548,129.11823 C 40.18755,92.939396 62.928919,57.082938 99.062498,48.88294 L 99.418834,48.804166 C 135.72687,40.777677 171.70642,63.729486 179.73292,100.0375 C 187.7594,136.34552 164.80759,172.32509 128.49956,180.35157 C 92.191533,188.37807 56.211967,165.42625 48.18548,129.11823 z"
         style="fill:#fbffff;fill-opacity:1;stroke:#fffff8;stroke-width:1.22929883;stroke-miterlimit:4;stroke-dasharray:none;stroke-opacity:1" />
      <path
         inkscape:transform-center-x="-8.1528662"
         id="path3263"
         d="M 211.12695,85.516387 L 188.15372,82.202569 L 196.49532,104.48655 L 211.12695,85.516387 z"
         style="fill:#000000;fill-opacity:1;stroke:#ffffff;stroke-width:3.17136574;stroke-miterlimit:4;stroke-dasharray:none;stroke-opacity:1" />
      <path
         inkscape:transform-center-y="-0.556717"
         inkscape:transform-center-x="2.4284015"
         style="fill:#000000;fill-opacity:1;stroke:#ffffff;stroke-width:3.17136574;stroke-miterlimit:4;stroke-dasharray:none;stroke-opacity:1"
         d="M 13.562674,122.26758 L 34.163379,132.96151 L 33.625037,109.17356 L 13.562674,122.26758 z"
         id="path3273" />
      <path
         id="path3242"
         d="M 159.2102,25.601011 L 139.86075,38.420874 L 160.91951,49.497237 L 159.2102,25.601011 z"
         style="fill:#000000;fill-opacity:1;stroke:#ffffff;stroke-width:3.17136574;stroke-miterlimit:4;stroke-dasharray:none;stroke-opacity:1" />
      <path
         style="fill:#000000;fill-opacity:1;stroke:#ffffff;stroke-width:3.17136574;stroke-miterlimit:4;stroke-dasharray:none;stroke-opacity:1"
         d="M 190.15248,48.724942 L 167.67574,54.516903 L 183.95802,71.867548 L 190.15248,48.724942 z"
         id="path3261" />
      <path
         style="fill:#000000;fill-opacity:1;stroke:#ffffff;stroke-width:3.17136574;stroke-miterlimit:4;stroke-dasharray:none;stroke-opacity:1"
         d="M 116.64289,14.589727 L 105.10039,34.72727 L 128.89014,35.179924 L 116.64289,14.589727 z"
         id="path3265" />
      <path
         id="path3267"
         d="M 75.05393,22.481381 L 73.196112,45.617897 L 94.909415,35.887027 L 75.05393,22.481381 z"
         style="fill:#000000;fill-opacity:1;stroke:#ffffff;stroke-width:3.17136574;stroke-miterlimit:4;stroke-dasharray:none;stroke-opacity:1" />
      <path
         inkscape:transform-center-y="2.1324745"
         inkscape:transform-center-x="-1.946815"
         style="fill:#000000;fill-opacity:1;stroke:#ffffff;stroke-width:3.17136574;stroke-miterlimit:4;stroke-dasharray:none;stroke-opacity:1"
         d="M 41.300126,46.357705 L 48.35093,68.471865 L 64.755349,51.236655 L 41.300126,46.357705 z"
         id="path3269" />
      <path
         id="path3271"
         d="M 19.023481,79.962888 L 34.192247,97.531552 L 42.510392,75.238834 L 19.023481,79.962888 z"
         style="fill:#000000;fill-opacity:1;stroke:#ffffff;stroke-width:3.17136574;stroke-miterlimit:4;stroke-dasharray:none;stroke-opacity:1"
         inkscape:transform-center-x="0.465673"
         inkscape:transform-center-y="1.981888" />
      <path
         inkscape:transform-center-y="-1.8899264"
         style="fill:#000000;fill-opacity:1;stroke:#ffffff;stroke-width:3.17136574;stroke-miterlimit:4;stroke-dasharray:none;stroke-opacity:1"
         d="M 50.762574,193.0039 L 72.4925,184.84549 L 54.450995,169.33226 L 50.762574,193.0039 z"
         id="path2484"
         inkscape:transform-center-x="-0.9346075" />
      <path
         inkscape:transform-center-y="0.39066"
         style="fill:#000000;fill-opacity:1;stroke:#ffffff;stroke-width:3.17136574;stroke-miterlimit:4;stroke-dasharray:none;stroke-opacity:1"
         d="M 214.14089,130.91637 L 195.36978,117.26367 L 192.34691,140.86495 L 214.14089,130.91637 z"
         id="path2486"
         inkscape:transform-center-x="-10.125851" />
      <path
         inkscape:transform-center-x="-5.445831"
         id="path2394"
         d="M 199.64269,172.75821 L 189.67823,151.7949 L 175.74411,171.08216 L 199.64269,172.75821 z"
         style="fill:#000000;fill-opacity:1;stroke:#ffffff;stroke-width:3.17136574;stroke-miterlimit:4;stroke-dasharray:none;stroke-opacity:1"
         inkscape:transform-center-y="1.534965" />
      <path
         inkscape:transform-center-y="6.042745"
         style="fill:#000000;fill-opacity:1;stroke:#ffffff;stroke-width:3.17136574;stroke-miterlimit:4;stroke-dasharray:none;stroke-opacity:1"
         d="M 166.20382,202.28223 L 164.75354,179.11658 L 144.64418,191.83552 L 166.20382,202.28223 z"
         id="path2396"
         inkscape:transform-center-x="-0.896181" />
      <path
         inkscape:transform-center-x="0.281594"
         id="path2398"
         d="M 121.59411,216.11191 L 132.44339,195.59256 L 108.65202,195.95121 L 121.59411,216.11191 z"
         style="fill:#000000;fill-opacity:1;stroke:#ffffff;stroke-width:3.17136574;stroke-miterlimit:4;stroke-dasharray:none;stroke-opacity:1"
         inkscape:transform-center-y="10.868615" />
      <path
         inkscape:transform-center-y="8.49391"
         style="fill:#000000;fill-opacity:1;stroke:#ffffff;stroke-width:3.17136574;stroke-miterlimit:4;stroke-dasharray:none;stroke-opacity:1"
         d="M 86.199623,214.05739 L 103.30303,198.36586 L 80.769656,190.72357 L 86.199623,214.05739 z"
         id="path2400"
         inkscape:transform-center-x="0.529681" />
    </g>
    <g
       id="g2490"
       transform="matrix(0.7074762,0,0,0.7074762,61.953841,62.986806)">
      <path
         id="path3183"
         d="M 118.25,19.09375 C 109.65307,19.296085 101.40271,22.347306 93.822991,26.218059 C 88.147466,29.281077 83.545847,34.030351 79.95594,39.336038 C 74.782195,46.59561 70.684992,54.563293 65.447573,61.77898 C 63.505202,64.363321 60.945892,66.561268 57.858095,67.629331 C 51.844452,70.213124 45.530859,72.019974 39.540336,74.663439 C 33.389223,77.340956 27.33831,80.739728 22.949835,85.928308 C 18.495813,91.04138 15.44055,97.578512 15.28125,104.42811 C 15.325489,109.45138 17.523127,114.70724 21.844256,117.5003 C 25.226892,119.67739 29.383476,119.98105 33.298419,119.8109 C 62.15366,119.71174 91.008723,119.95061 119.86401,119.9375 C 150.64893,119.93895 181.43835,119.85413 212.21434,119.04653 C 219.52182,118.78442 226.83878,118.59612 234.12825,118.0028 C 237.01413,117.72184 239.93307,117.42044 242.72601,116.637 C 245.52219,115.36363 246.66669,112.18397 247.13038,109.35215 C 248.54533,102.27664 248.90361,94.741146 246.54269,87.824468 C 244.04698,80.325531 238.34995,74.070658 231.3185,70.538616 C 226.59091,67.929584 221.07279,66.632712 217.00027,62.928858 C 214.55294,60.426601 214.30874,56.737902 213.92724,53.449251 C 213.58326,50.260792 212.74389,47.058569 210.86735,44.410395 C 207.48077,39.236294 201.76379,35.996814 195.87501,34.488786 C 189.69787,32.857058 183.15078,33.455306 177.04619,35.108819 C 173.68212,35.882617 170.29974,36.937123 166.82074,36.870399 C 163.2284,36.304876 160.7151,33.426989 157.8132,31.509728 C 151.84538,27.078491 145.06401,23.819202 137.9709,21.634532 C 131.5843,19.754143 124.90271,18.925875 118.25,19.09375 z"
         style="fill:#000000;fill-opacity:1;stroke:#ffffff;stroke-width:3;stroke-miterlimit:4;stroke-dasharray:none;stroke-opacity:1" />
      <path
         sodipodi:nodetypes="ccccccccccsc"
         id="path2470"
         d="M 101.95147,127.12895 C 106.34501,127.02201 171.72139,127.26744 171.72139,127.26744 L 184.87418,148.37854 L 192.36319,141.66839 L 189.50787,178.54343 L 197.54526,172.85179 L 212.82964,252.47621 L 182.98262,206.12406 L 172.17188,211.28004 L 164.07054,174.16277 C 164.07054,174.16277 148.29097,180.59156 148.2776,180.04237 C 148.26424,179.49318 102.5274,128.21397 101.95147,127.12895 z"
         style="fill:#000000;fill-opacity:1;fill-rule:evenodd;stroke:#fdffff;stroke-width:3;stroke-linecap:butt;stroke-linejoin:miter;stroke-miterlimit:4;stroke-dasharray:none;stroke-opacity:1" />
    </g>
  </g>
</svg>
