<?xml version="1.0" encoding="UTF-8" standalone="no"?>
<!-- Created with Inkscape (http://www.inkscape.org/) -->
<svg
   xmlns:dc="http://purl.org/dc/elements/1.1/"
   xmlns:cc="http://creativecommons.org/ns#"
   xmlns:rdf="http://www.w3.org/1999/02/22-rdf-syntax-ns#"
   xmlns:svg="http://www.w3.org/2000/svg"
   xmlns="http://www.w3.org/2000/svg"
   xmlns:sodipodi="http://sodipodi.sourceforge.net/DTD/sodipodi-0.dtd"
   xmlns:inkscape="http://www.inkscape.org/namespaces/inkscape"
   width="256"
   height="256"
   id="svg2"
   sodipodi:version="0.32"
   inkscape:version="0.46"
   version="1.0"
   sodipodi:docname="40.svg"
   inkscape:output_extension="org.inkscape.output.svg.inkscape">
  <defs
     id="defs4">
    <inkscape:perspective
       sodipodi:type="inkscape:persp3d"
       inkscape:vp_x="0 : 526.18109 : 1"
       inkscape:vp_y="0 : 1000 : 0"
       inkscape:vp_z="744.09448 : 526.18109 : 1"
       inkscape:persp3d-origin="372.04724 : 350.78739 : 1"
       id="perspective10" />
  </defs>
  <sodipodi:namedview
     id="base"
     pagecolor="#ffffff"
     bordercolor="#666666"
     borderopacity="1.0"
     gridtolerance="10000"
     guidetolerance="10"
     objecttolerance="10"
     inkscape:pageopacity="0.0"
     inkscape:pageshadow="2"
     inkscape:zoom="1.8203125"
     inkscape:cx="106.35001"
     inkscape:cy="128"
     inkscape:document-units="px"
     inkscape:current-layer="layer1"
     showgrid="false"
     inkscape:window-width="923"
     inkscape:window-height="681"
     inkscape:window-x="242"
     inkscape:window-y="96" />
  <metadata
     id="metadata7">
    <rdf:RDF>
      <cc:Work
         rdf:about="">
        <dc:format>image/svg+xml</dc:format>
        <dc:type
           rdf:resource="http://purl.org/dc/dcmitype/StillImage" />
      </cc:Work>
    </rdf:RDF>
  </metadata>
  <g
     inkscape:label="Layer 1"
     inkscape:groupmode="layer"
     id="layer1">
    <rect
       style="opacity:1;fill:#ffffff;fill-opacity:1;stroke:#ffffff;stroke-width:3;stroke-miterlimit:4;stroke-dasharray:none;stroke-opacity:1"
       id="rect3189"
       width="6.5922747"
       height="26.369099"
       x="-50.957355"
       y="148.67801"
       transform="matrix(0.8916997,-0.4526275,0.4526275,0.8916997,0,0)" />
    <rect
       style="opacity:1;fill:#ffffff;fill-opacity:1;stroke:#ffffff;stroke-width:3;stroke-miterlimit:4;stroke-dasharray:none;stroke-opacity:1"
       id="rect3191"
       width="6.5922747"
       height="26.369099"
       x="4.0485344"
       y="153.18811"
       transform="matrix(0.8916997,-0.4526275,0.4526275,0.8916997,0,0)" />
    <rect
       style="opacity:1;fill:#ffffff;fill-opacity:1;stroke:#ffffff;stroke-width:3;stroke-miterlimit:4;stroke-dasharray:none;stroke-opacity:1"
       id="rect3193"
       width="6.5922747"
       height="26.369099"
       x="12.575607"
       y="205.57051"
       transform="matrix(0.8916997,-0.4526275,0.4526275,0.8916997,0,0)" />
    <path
       style="fill:#000000;fill-opacity:1;stroke:#ffffff;stroke-width:3;stroke-miterlimit:4;stroke-opacity:1;stroke-dasharray:none"
       d="M 118.25 19.09375 C 109.65307 19.296085 101.40271 22.347306 93.822991 26.218059 C 88.147466 29.281077 83.545847 34.030351 79.95594 39.336038 C 74.782195 46.59561 70.684992 54.563293 65.447573 61.77898 C 63.505202 64.363321 60.945892 66.561268 57.858095 67.629331 C 51.844452 70.213124 45.530859 72.019974 39.540336 74.663439 C 33.389223 77.340956 27.33831 80.739728 22.949835 85.928308 C 18.495813 91.04138 15.44055 97.578512 15.28125 104.42811 C 15.325489 109.45138 17.523127 114.70724 21.844256 117.5003 C 25.226892 119.67739 29.383476 119.98105 33.298419 119.8109 C 62.15366 119.71174 91.008723 119.95061 119.86401 119.9375 C 150.64893 119.93895 181.43835 119.85413 212.21434 119.04653 C 219.52182 118.78442 226.83878 118.59612 234.12825 118.0028 C 237.01413 117.72184 239.93307 117.42044 242.72601 116.637 C 245.52219 115.36363 246.66669 112.18397 247.13038 109.35215 C 248.54533 102.27664 248.90361 94.741146 246.54269 87.824468 C 244.04698 80.325531 238.34995 74.070658 231.3185 70.538616 C 226.59091 67.929584 221.07279 66.632712 217.00027 62.928858 C 214.55294 60.426601 214.30874 56.737902 213.92724 53.449251 C 213.58326 50.260792 212.74389 47.058569 210.86735 44.410395 C 207.48077 39.236294 201.76379 35.996814 195.87501 34.488786 C 189.69787 32.857058 183.15078 33.455306 177.04619 35.108819 C 173.68212 35.882617 170.29974 36.937123 166.82074 36.870399 C 163.2284 36.304876 160.7151 33.426989 157.8132 31.509728 C 151.84538 27.078491 145.06401 23.819202 137.9709 21.634532 C 131.5843 19.754143 124.90271 18.925875 118.25 19.09375 z "
       id="path3183" />
    <rect
       transform="matrix(0.8916997,-0.4526275,0.4526275,0.8916997,0,0)"
       y="209.17989"
       x="121.63746"
       height="26.369099"
       width="6.5922747"
       id="rect3242"
       style="opacity:1;fill:#ffffff;fill-opacity:1;stroke:#ffffff;stroke-width:3;stroke-miterlimit:4;stroke-dasharray:none;stroke-opacity:1" />
    <rect
       style="opacity:1;fill:#ffffff;fill-opacity:1;stroke:#ffffff;stroke-width:3;stroke-miterlimit:4;stroke-dasharray:none;stroke-opacity:1"
       id="rect3244"
       width="6.5922747"
       height="26.369099"
       x="134.9113"
       y="248.56981"
       transform="matrix(0.8916997,-0.4526275,0.4526275,0.8916997,0,0)" />
    <rect
       transform="matrix(0.8916997,-0.4526275,0.4526275,0.8916997,0,0)"
       y="288.86044"
       x="94.129173"
       height="26.369099"
       width="6.5922747"
       id="rect3246"
       style="opacity:1;fill:#ffffff;fill-opacity:1;stroke:#ffffff;stroke-width:3;stroke-miterlimit:4;stroke-dasharray:none;stroke-opacity:1" />
    <rect
       transform="matrix(0.8916997,-0.4526275,0.4526275,0.8916997,0,0)"
       y="257.53006"
       x="32.406712"
       height="26.369099"
       width="6.5922747"
       id="rect3248"
       style="opacity:1;fill:#ffffff;fill-opacity:1;stroke:#ffffff;stroke-width:3;stroke-miterlimit:4;stroke-dasharray:none;stroke-opacity:1" />
    <rect
       style="opacity:1;fill:#ffffff;fill-opacity:1;stroke:#ffffff;stroke-width:3;stroke-miterlimit:4;stroke-dasharray:none;stroke-opacity:1"
       id="rect3250"
       width="6.5922747"
       height="26.369099"
       x="-17.020014"
       y="183.77089"
       transform="matrix(0.8916997,-0.4526275,0.4526275,0.8916997,0,0)" />
    <rect
       transform="matrix(0.8916997,-0.4526275,0.4526275,0.8916997,0,0)"
       y="241.75319"
       x="-16.880148"
       height="26.369099"
       width="6.5922747"
       id="rect3252"
       style="opacity:1;fill:#ffffff;fill-opacity:1;stroke:#ffffff;stroke-width:3;stroke-miterlimit:4;stroke-dasharray:none;stroke-opacity:1" />
    <rect
       style="opacity:1;fill:#ffffff;fill-opacity:1;stroke:#ffffff;stroke-width:3;stroke-miterlimit:4;stroke-dasharray:none;stroke-opacity:1"
       id="rect3254"
       width="6.5922747"
       height="26.369099"
       x="-43.024403"
       y="218.00902"
       transform="matrix(0.8916997,-0.4526275,0.4526275,0.8916997,0,0)" />
    <rect
       transform="matrix(0.8916997,-0.4526275,0.4526275,0.8916997,0,0)"
       y="189.83377"
       x="-70.615898"
       height="26.369099"
       width="6.5922747"
       id="rect3256"
       style="opacity:1;fill:#ffffff;fill-opacity:1;stroke:#ffffff;stroke-width:3;stroke-miterlimit:4;stroke-dasharray:none;stroke-opacity:1" />
    <rect
       transform="matrix(0.8916997,-0.4526275,0.4526275,0.8916997,0,0)"
       y="190.00667"
       x="38.958157"
       height="26.369099"
       width="6.5922747"
       id="rect2394"
       style="opacity:1;fill:#ffffff;fill-opacity:1;stroke:#ffffff;stroke-width:3;stroke-miterlimit:4;stroke-dasharray:none;stroke-opacity:1" />
    <rect
       style="opacity:1;fill:#ffffff;fill-opacity:1;stroke:#ffffff;stroke-width:3;stroke-miterlimit:4;stroke-dasharray:none;stroke-opacity:1"
       id="rect2396"
       width="6.5922747"
       height="26.369099"
       x="75.31955"
       y="189.98141"
       transform="matrix(0.8916997,-0.4526275,0.4526275,0.8916997,0,0)" />
    <rect
       transform="matrix(0.8916997,-0.4526275,0.4526275,0.8916997,0,0)"
       y="238.7755"
       x="99.837845"
       height="26.369099"
       width="6.5922747"
       id="rect2398"
       style="opacity:1;fill:#ffffff;fill-opacity:1;stroke:#ffffff;stroke-width:3;stroke-miterlimit:4;stroke-dasharray:none;stroke-opacity:1" />
    <rect
       style="opacity:1;fill:#ffffff;fill-opacity:1;stroke:#ffffff;stroke-width:3;stroke-miterlimit:4;stroke-dasharray:none;stroke-opacity:1"
       id="rect2400"
       width="6.5922747"
       height="26.369099"
       x="63.053608"
       y="227.49672"
       transform="matrix(0.8916997,-0.4526275,0.4526275,0.8916997,0,0)" />
    <rect
       transform="matrix(0.8916997,-0.4526275,0.4526275,0.8916997,0,0)"
       y="269.8407"
       x="77.292267"
       height="26.369099"
       width="6.5922747"
       id="rect2402"
       style="opacity:1;fill:#ffffff;fill-opacity:1;stroke:#ffffff;stroke-width:3;stroke-miterlimit:4;stroke-dasharray:none;stroke-opacity:1" />
    <rect
       style="opacity:1;fill:#ffffff;fill-opacity:1;stroke:#ffffff;stroke-width:3;stroke-miterlimit:4;stroke-dasharray:none;stroke-opacity:1"
       id="rect2404"
       width="6.5922747"
       height="26.369099"
       x="-28.7498"
       y="132.84319"
       transform="matrix(0.8916997,-0.4526275,0.4526275,0.8916997,0,0)" />
  </g>
</svg>
