<?xml version="1.0" encoding="UTF-8" standalone="no"?>
<!-- Created with Inkscape (http://www.inkscape.org/) -->
<svg
   xmlns:dc="http://purl.org/dc/elements/1.1/"
   xmlns:cc="http://creativecommons.org/ns#"
   xmlns:rdf="http://www.w3.org/1999/02/22-rdf-syntax-ns#"
   xmlns:svg="http://www.w3.org/2000/svg"
   xmlns="http://www.w3.org/2000/svg"
   xmlns:sodipodi="http://sodipodi.sourceforge.net/DTD/sodipodi-0.dtd"
   xmlns:inkscape="http://www.inkscape.org/namespaces/inkscape"
   width="256"
   height="256"
   id="svg2"
   sodipodi:version="0.32"
   inkscape:version="0.46"
   version="1.0"
   sodipodi:docname="45_1.svg"
   inkscape:output_extension="org.inkscape.output.svg.inkscape">
  <defs
     id="defs4">
    <inkscape:perspective
       sodipodi:type="inkscape:persp3d"
       inkscape:vp_x="0 : 526.18109 : 1"
       inkscape:vp_y="0 : 1000 : 0"
       inkscape:vp_z="744.09448 : 526.18109 : 1"
       inkscape:persp3d-origin="372.04724 : 350.78739 : 1"
       id="perspective10" />
  </defs>
  <sodipodi:namedview
     id="base"
     pagecolor="#ffffff"
     bordercolor="#666666"
     borderopacity="1.0"
     gridtolerance="10000"
     guidetolerance="10"
     objecttolerance="10"
     inkscape:pageopacity="0.0"
     inkscape:pageshadow="2"
     inkscape:zoom="1.8203125"
     inkscape:cx="106.35001"
     inkscape:cy="128"
     inkscape:document-units="px"
     inkscape:current-layer="layer1"
     showgrid="false"
     inkscape:window-width="923"
     inkscape:window-height="681"
     inkscape:window-x="302"
     inkscape:window-y="88" />
  <metadata
     id="metadata7">
    <rdf:RDF>
      <cc:Work
         rdf:about="">
        <dc:format>image/svg+xml</dc:format>
        <dc:type
           rdf:resource="http://purl.org/dc/dcmitype/StillImage" />
      </cc:Work>
    </rdf:RDF>
  </metadata>
  <g
     inkscape:label="Layer 1"
     inkscape:groupmode="layer"
     id="layer1">
    <rect
       style="opacity:1;fill:#ffffff;fill-opacity:1;stroke:#ffffff;stroke-width:3;stroke-miterlimit:4;stroke-dasharray:none;stroke-opacity:1"
       id="rect3189"
       width="6.5922747"
       height="26.369099"
       x="48.476936"
       y="200.38309"
       transform="matrix(0.8916997,-0.4526275,0.4526275,0.8916997,0,0)" />
    <rect
       style="opacity:1;fill:#ffffff;fill-opacity:1;stroke:#ffffff;stroke-width:3;stroke-miterlimit:4;stroke-dasharray:none;stroke-opacity:1"
       id="rect3191"
       width="6.5922747"
       height="26.369099"
       x="2.6861188"
       y="175.29141"
       transform="matrix(0.8916997,-0.4526275,0.4526275,0.8916997,0,0)" />
    <path
       style="opacity:1;fill:#fbffff;fill-opacity:1;stroke:none;stroke-width:1.73710454000000003;stroke-miterlimit:4;stroke-dasharray:none;stroke-opacity:1"
       d="M 134.85338,20.746303 C 78.225861,20.746303 32.282781,66.716519 32.282781,123.34404 C 32.282781,179.97156 78.22586,225.91464 134.85338,225.91464 C 191.4809,225.91464 237.45112,179.97156 237.45112,123.34404 L 237.45112,122.74691 C 237.13577,66.321752 191.27941,20.746303 134.85338,20.746303 z M 135.58622,28.373274 C 187.94434,28.373274 230.4815,70.688174 230.77413,123.04547 L 230.77413,123.56119 C 230.77413,176.10624 188.13131,218.74908 135.58622,218.74908 C 83.041151,218.7491 40.398325,176.10625 40.398325,123.56119 C 40.398325,71.016097 83.04115,28.373274 135.58622,28.373274 z"
       id="path3157" />
    <rect
       style="opacity:1;fill:#ffffff;fill-opacity:1;stroke:#ffffff;stroke-width:3;stroke-miterlimit:4;stroke-dasharray:none;stroke-opacity:1"
       id="rect3193"
       width="6.5922747"
       height="26.369099"
       x="53.318882"
       y="252.74316"
       transform="matrix(0.8916997,-0.4526275,0.4526275,0.8916997,0,0)" />
    <path
       style="fill:#000000;fill-opacity:1;stroke:#ffffff;stroke-width:2.55571437;stroke-miterlimit:4;stroke-dasharray:none;stroke-opacity:1"
       d="M 104.9761,58.971474 C 97.652337,59.143844 90.623818,61.743194 84.166619,65.040707 C 79.331612,67.650107 75.411471,71.696036 72.353212,76.215976 C 67.945673,82.400441 64.455246,89.188148 59.993464,95.335226 C 58.338749,97.536839 56.15846,99.409281 53.527951,100.31917 C 48.4049,102.52031 43.02632,104.05958 37.922964,106.31156 C 32.682801,108.59255 27.528,111.48798 23.789437,115.90815 C 19.995034,120.264 17.392241,125.83302 17.256532,131.66822 C 17.29422,135.94757 19.166398,140.42506 22.847589,142.80448 C 25.729272,144.65916 29.270286,144.91785 32.605445,144.77289 C 57.187364,144.68842 81.769131,144.89191 106.35108,144.88075 C 132.57691,144.88198 158.80656,144.80972 185.02477,144.12172 C 191.25005,143.89843 197.4834,143.73802 203.69334,143.23257 C 206.15183,142.99321 208.63849,142.73645 211.01781,142.06903 C 213.39989,140.98424 214.3749,138.27548 214.76992,135.86304 C 215.97532,129.83537 216.28054,123.41585 214.26926,117.5235 C 212.14315,111.13512 207.28983,105.80657 201.2997,102.7976 C 197.27224,100.57496 192.57133,99.470144 189.10193,96.314813 C 187.01704,94.183128 186.809,91.040708 186.484,88.23909 C 186.19096,85.522827 185.4759,82.794838 183.87727,80.538845 C 180.99222,76.131004 176.1219,73.371275 171.10522,72.086579 C 165.84288,70.696502 160.26539,71.206152 155.06486,72.614788 C 152.19899,73.27399 149.31752,74.172329 146.35375,74.115487 C 143.29342,73.633715 141.15232,71.182029 138.68018,69.548705 C 133.59617,65.773713 127.81908,62.997109 121.77643,61.135978 C 116.33566,59.534066 110.64358,58.82846 104.9761,58.971474 z"
       id="path3183" />
    <rect
       transform="matrix(0.8916997,-0.4526275,0.4526275,0.8916997,0,0)"
       y="221.81946"
       x="99.20359"
       height="26.369099"
       width="6.5922747"
       id="rect3246"
       style="opacity:1;fill:#ffffff;fill-opacity:1;stroke:#ffffff;stroke-width:3;stroke-miterlimit:4;stroke-dasharray:none;stroke-opacity:1" />
    <rect
       transform="matrix(0.8916997,-0.4526275,0.4526275,0.8916997,0,0)"
       y="283.00446"
       x="100.79815"
       height="26.369099"
       width="6.5922747"
       id="rect3248"
       style="opacity:1;fill:#ffffff;fill-opacity:1;stroke:#ffffff;stroke-width:3;stroke-miterlimit:4;stroke-dasharray:none;stroke-opacity:1" />
    <rect
       style="opacity:1;fill:#ffffff;fill-opacity:1;stroke:#ffffff;stroke-width:3;stroke-miterlimit:4;stroke-dasharray:none;stroke-opacity:1"
       id="rect3250"
       width="6.5922747"
       height="26.369099"
       x="-52.468712"
       y="195.34885"
       transform="matrix(0.8916997,-0.4526275,0.4526275,0.8916997,0,0)" />
  </g>
</svg>
