<?xml version="1.0" encoding="UTF-8" standalone="no"?>
<!-- Created with Inkscape (http://www.inkscape.org/) -->
<svg
   xmlns:dc="http://purl.org/dc/elements/1.1/"
   xmlns:cc="http://creativecommons.org/ns#"
   xmlns:rdf="http://www.w3.org/1999/02/22-rdf-syntax-ns#"
   xmlns:svg="http://www.w3.org/2000/svg"
   xmlns="http://www.w3.org/2000/svg"
   xmlns:sodipodi="http://sodipodi.sourceforge.net/DTD/sodipodi-0.dtd"
   xmlns:inkscape="http://www.inkscape.org/namespaces/inkscape"
   width="256"
   height="256"
   id="svg2"
   sodipodi:version="0.32"
   inkscape:version="0.46"
   version="1.0"
   sodipodi:docname="47_8.svg"
   inkscape:output_extension="org.inkscape.output.svg.inkscape">
  <defs
     id="defs4">
    <inkscape:perspective
       sodipodi:type="inkscape:persp3d"
       inkscape:vp_x="0 : 526.18109 : 1"
       inkscape:vp_y="0 : 1000 : 0"
       inkscape:vp_z="744.09448 : 526.18109 : 1"
       inkscape:persp3d-origin="372.04724 : 350.78739 : 1"
       id="perspective10" />
  </defs>
  <sodipodi:namedview
     id="base"
     pagecolor="#ffffff"
     bordercolor="#666666"
     borderopacity="1.0"
     gridtolerance="10000"
     guidetolerance="10"
     objecttolerance="10"
     inkscape:pageopacity="0.0"
     inkscape:pageshadow="2"
     inkscape:zoom="1.8398438"
     inkscape:cx="128.51168"
     inkscape:cy="129.82917"
     inkscape:document-units="px"
     inkscape:current-layer="layer1"
     showgrid="false"
     inkscape:window-width="923"
     inkscape:window-height="681"
     inkscape:window-x="320"
     inkscape:window-y="110" />
  <metadata
     id="metadata7">
    <rdf:RDF>
      <cc:Work
         rdf:about="">
        <dc:format>image/svg+xml</dc:format>
        <dc:type
           rdf:resource="http://purl.org/dc/dcmitype/StillImage" />
      </cc:Work>
    </rdf:RDF>
  </metadata>
  <g
     inkscape:label="Layer 1"
     inkscape:groupmode="layer"
     id="layer1">
    <g
       id="g3980">
      <path
         id="path3307"
         d="M 129.59499,11.302001 C 139.1676,11.302001 148.42244,12.622545 157.207,15.097466 C 111.92191,24.453891 77.622083,63.820335 76.268711,111.8502 L 76.205453,114.72842 C 76.205453,161.33203 107.6034,200.64533 150.37517,212.68305 C 143.66466,214.07763 136.71717,214.80218 129.59499,214.80218 C 73.428418,214.80218 27.844913,169.21867 27.844903,113.05209 L 27.876532,110.17387 C 29.430173,55.036447 74.435694,11.302001 129.59499,11.302001 z"
         style="fill:#000000;fill-opacity:1;stroke:#ffffff;stroke-width:2.02424788;stroke-miterlimit:4;stroke-dasharray:none;stroke-opacity:1" />
      <path
         id="path3973"
         d="M 129.32711,11.713181 C 185.72942,11.713181 231.48978,57.251415 231.48978,113.34679 C 231.48978,169.44218 185.72942,214.95353 129.32711,214.95353 C 72.924785,214.95353 27.137398,169.44218 27.137398,113.34679 L 27.137398,112.75528 C 27.451501,56.860356 73.125479,11.713181 129.32711,11.713181 z M 128.59718,19.268486 C 76.44728,19.268486 34.079304,61.185748 33.787842,113.05104 L 33.787842,113.56189 C 33.787842,165.61319 76.26108,207.85531 128.59718,207.85531 C 180.93328,207.85532 223.40652,165.6132 223.40652,113.56189 C 223.40652,61.510591 180.93328,19.268486 128.59718,19.268486 z"
         style="fill:#fbffff;fill-opacity:1;stroke:none;stroke-width:1.72548210999999996;stroke-miterlimit:4;stroke-dasharray:none;stroke-opacity:1" />
    </g>
    <g
       id="g2392"
       transform="translate(-20.110403,-0.5435244)">
      <path
         transform="matrix(0.9277598,-0.3218542,0.3218542,0.9277598,-34.649754,144.16017)"
         d="M 203.27813,68.484078 L 186.8413,65.195661 L 175.42527,77.469923 L 173.47348,60.821391 L 158.27222,53.757063 L 173.50278,46.756121 L 175.52391,30.115865 L 186.8887,42.437577 L 203.33909,39.217661 L 195.13236,53.83384 L 203.27813,68.484078 z"
         inkscape:randomized="0"
         inkscape:rounded="0"
         inkscape:flatsided="false"
         sodipodi:arg2="1.25872"
         sodipodi:arg1="0.63040143"
         sodipodi:r2="11.964659"
         sodipodi:r1="24.895555"
         sodipodi:cy="53.808918"
         sodipodi:cx="183.16772"
         sodipodi:sides="5"
         id="path3163"
         style="opacity:1;fill:#000000;fill-opacity:1;stroke:#ffffff;stroke-width:3;stroke-miterlimit:4;stroke-dasharray:none;stroke-opacity:1"
         sodipodi:type="star" />
      <g
         transform="matrix(0.7420262,0,0,0.7420262,52.237782,49.863715)"
         id="g2619">
        <path
           style="fill:#000000;fill-opacity:1;stroke:#ffffff;stroke-width:3;stroke-miterlimit:4;stroke-dasharray:none;stroke-opacity:1"
           d="M 118.25,19.09375 C 109.65307,19.296085 101.40271,22.347306 93.822991,26.218059 C 88.147466,29.281077 83.545847,34.030351 79.95594,39.336038 C 74.782195,46.59561 70.684992,54.563293 65.447573,61.77898 C 63.505202,64.363321 60.945892,66.561268 57.858095,67.629331 C 51.844452,70.213124 45.530859,72.019974 39.540336,74.663439 C 33.389223,77.340956 27.33831,80.739728 22.949835,85.928308 C 18.495813,91.04138 15.44055,97.578512 15.28125,104.42811 C 15.325489,109.45138 17.523127,114.70724 21.844256,117.5003 C 25.226892,119.67739 29.383476,119.98105 33.298419,119.8109 C 62.15366,119.71174 91.008723,119.95061 119.86401,119.9375 C 150.64893,119.93895 181.43835,119.85413 212.21434,119.04653 C 219.52182,118.78442 226.83878,118.59612 234.12825,118.0028 C 237.01413,117.72184 239.93307,117.42044 242.72601,116.637 C 245.52219,115.36363 246.66669,112.18397 247.13038,109.35215 C 248.54533,102.27664 248.90361,94.741146 246.54269,87.824468 C 244.04698,80.325531 238.34995,74.070658 231.3185,70.538616 C 226.59091,67.929584 221.07279,66.632712 217.00027,62.928858 C 214.55294,60.426601 214.30874,56.737902 213.92724,53.449251 C 213.58326,50.260792 212.74389,47.058569 210.86735,44.410395 C 207.48077,39.236294 201.76379,35.996814 195.87501,34.488786 C 189.69787,32.857058 183.15078,33.455306 177.04619,35.108819 C 173.68212,35.882617 170.29974,36.937123 166.82074,36.870399 C 163.2284,36.304876 160.7151,33.426989 157.8132,31.509728 C 151.84538,27.078491 145.06401,23.819202 137.9709,21.634532 C 131.5843,19.754143 124.90271,18.925875 118.25,19.09375 z"
           id="path3183" />
        <path
           style="fill:#000000;fill-opacity:1;fill-rule:evenodd;stroke:#fdffff;stroke-width:3;stroke-linecap:butt;stroke-linejoin:miter;stroke-miterlimit:4;stroke-dasharray:none;stroke-opacity:1"
           d="M 101.95147,127.12895 C 106.34501,127.02201 171.72139,127.26744 171.72139,127.26744 L 184.87418,148.37854 L 192.36319,141.66839 L 189.50787,178.54343 L 197.54526,172.85179 L 212.82964,252.47621 L 182.98262,206.12406 L 172.17188,211.28004 L 164.07054,174.16277 C 164.07054,174.16277 148.29097,180.59156 148.2776,180.04237 C 148.26424,179.49318 102.5274,128.21397 101.95147,127.12895 z"
           id="path2470"
           sodipodi:nodetypes="ccccccccccsc" />
      </g>
      <rect
         style="opacity:1;fill:#ffffff;fill-opacity:1;stroke:#ffffff;stroke-width:3;stroke-miterlimit:4;stroke-dasharray:none;stroke-opacity:1"
         id="rect3242"
         width="6.5922747"
         height="26.369099"
         x="122.60188"
         y="229.92543"
         transform="matrix(0.8916997,-0.4526275,0.4526275,0.8916997,0,0)" />
      <rect
         transform="matrix(0.8916997,-0.4526275,0.4526275,0.8916997,0,0)"
         y="278.93509"
         x="107.47715"
         height="26.369099"
         width="6.5922747"
         id="rect2631"
         style="opacity:1;fill:#ffffff;fill-opacity:1;stroke:#ffffff;stroke-width:3;stroke-miterlimit:4;stroke-dasharray:none;stroke-opacity:1" />
      <rect
         style="opacity:1;fill:#ffffff;fill-opacity:1;stroke:#ffffff;stroke-width:3;stroke-miterlimit:4;stroke-dasharray:none;stroke-opacity:1"
         id="rect2635"
         width="6.5922747"
         height="26.369099"
         x="47.731285"
         y="270.55139"
         transform="matrix(0.8916997,-0.4526275,0.4526275,0.8916997,0,0)" />
      <rect
         transform="matrix(0.8916997,-0.4526275,0.4526275,0.8916997,0,0)"
         y="226.24675"
         x="-43.153622"
         height="26.369099"
         width="6.5922747"
         id="rect2637"
         style="opacity:1;fill:#ffffff;fill-opacity:1;stroke:#ffffff;stroke-width:3;stroke-miterlimit:4;stroke-dasharray:none;stroke-opacity:1" />
    </g>
  </g>
</svg>
