<?xml version="1.0" encoding="UTF-8" standalone="no"?>
<!-- Created with Inkscape (http://www.inkscape.org/) -->
<svg
   xmlns:dc="http://purl.org/dc/elements/1.1/"
   xmlns:cc="http://creativecommons.org/ns#"
   xmlns:rdf="http://www.w3.org/1999/02/22-rdf-syntax-ns#"
   xmlns:svg="http://www.w3.org/2000/svg"
   xmlns="http://www.w3.org/2000/svg"
   xmlns:sodipodi="http://sodipodi.sourceforge.net/DTD/sodipodi-0.dtd"
   xmlns:inkscape="http://www.inkscape.org/namespaces/inkscape"
   width="256"
   height="256"
   id="svg2"
   sodipodi:version="0.32"
   inkscape:version="0.46"
   version="1.0"
   sodipodi:docname="2.svg"
   inkscape:output_extension="org.inkscape.output.svg.inkscape">
  <defs
     id="defs4">
    <inkscape:perspective
       sodipodi:type="inkscape:persp3d"
       inkscape:vp_x="0 : 526.18109 : 1"
       inkscape:vp_y="0 : 1000 : 0"
       inkscape:vp_z="744.09448 : 526.18109 : 1"
       inkscape:persp3d-origin="372.04724 : 350.78739 : 1"
       id="perspective10" />
  </defs>
  <sodipodi:namedview
     id="base"
     pagecolor="#ffffff"
     bordercolor="#666666"
     borderopacity="1.0"
     gridtolerance="10000"
     guidetolerance="10"
     objecttolerance="10"
     inkscape:pageopacity="0.0"
     inkscape:pageshadow="2"
     inkscape:zoom="1.8203125"
     inkscape:cx="128"
     inkscape:cy="128"
     inkscape:document-units="px"
     inkscape:current-layer="layer1"
     showgrid="false"
     inkscape:window-width="923"
     inkscape:window-height="681"
     inkscape:window-x="242"
     inkscape:window-y="96" />
  <metadata
     id="metadata7">
    <rdf:RDF>
      <cc:Work
         rdf:about="">
        <dc:format>image/svg+xml</dc:format>
        <dc:type
           rdf:resource="http://purl.org/dc/dcmitype/StillImage" />
      </cc:Work>
    </rdf:RDF>
  </metadata>
  <g
     inkscape:label="Layer 1"
     inkscape:groupmode="layer"
     id="layer1">
    <path
       style="fill:#000000;fill-opacity:1;stroke:#ffffff;stroke-width:3;stroke-miterlimit:4;stroke-opacity:1;stroke-dasharray:none"
       d="M 118.25 19.09375 C 109.65307 19.296085 101.40271 22.347306 93.822991 26.218059 C 88.147466 29.281077 83.545847 34.030351 79.95594 39.336038 C 74.782195 46.59561 70.684992 54.563293 65.447573 61.77898 C 63.505202 64.363321 60.945892 66.561268 57.858095 67.629331 C 51.844452 70.213124 45.530859 72.019974 39.540336 74.663439 C 33.389223 77.340956 27.33831 80.739728 22.949835 85.928308 C 18.495813 91.04138 15.44055 97.578512 15.28125 104.42811 C 15.325489 109.45138 17.523127 114.70724 21.844256 117.5003 C 25.226892 119.67739 29.383476 119.98105 33.298419 119.8109 C 62.15366 119.71174 91.008723 119.95061 119.86401 119.9375 C 150.64893 119.93895 181.43835 119.85413 212.21434 119.04653 C 219.52182 118.78442 226.83878 118.59612 234.12825 118.0028 C 237.01413 117.72184 239.93307 117.42044 242.72601 116.637 C 245.52219 115.36363 246.66669 112.18397 247.13038 109.35215 C 248.54533 102.27664 248.90361 94.741146 246.54269 87.824468 C 244.04698 80.325531 238.34995 74.070658 231.3185 70.538616 C 226.59091 67.929584 221.07279 66.632712 217.00027 62.928858 C 214.55294 60.426601 214.30874 56.737902 213.92724 53.449251 C 213.58326 50.260792 212.74389 47.058569 210.86735 44.410395 C 207.48077 39.236294 201.76379 35.996814 195.87501 34.488786 C 189.69787 32.857058 183.15078 33.455306 177.04619 35.108819 C 173.68212 35.882617 170.29974 36.937123 166.82074 36.870399 C 163.2284 36.304876 160.7151 33.426989 157.8132 31.509728 C 151.84538 27.078491 145.06401 23.819202 137.9709 21.634532 C 131.5843 19.754143 124.90271 18.925875 118.25 19.09375 z "
       id="path3183" />
    <rect
       style="opacity:1;fill:#ffffff;fill-opacity:1;stroke:#ffffff;stroke-width:3;stroke-miterlimit:4;stroke-dasharray:none;stroke-opacity:1"
       id="rect3189"
       width="6.5922747"
       height="26.369099"
       x="-12.417646"
       y="154.07101"
       transform="matrix(0.8916997,-0.4526275,0.4526275,0.8916997,0,0)" />
    <rect
       style="opacity:1;fill:#ffffff;fill-opacity:1;stroke:#ffffff;stroke-width:3;stroke-miterlimit:4;stroke-dasharray:none;stroke-opacity:1"
       id="rect3191"
       width="6.5922747"
       height="26.369099"
       x="25.690147"
       y="230.70979"
       transform="matrix(0.8916997,-0.4526275,0.4526275,0.8916997,0,0)" />
    <rect
       style="opacity:1;fill:#ffffff;fill-opacity:1;stroke:#ffffff;stroke-width:3;stroke-miterlimit:4;stroke-dasharray:none;stroke-opacity:1"
       id="rect3193"
       width="6.5922747"
       height="26.369099"
       x="69.396545"
       y="194.36781"
       transform="matrix(0.8916997,-0.4526275,0.4526275,0.8916997,0,0)" />
    <g
       id="g3331"
       transform="matrix(0.3879031,0,0,0.3879031,4.0600052,160.49379)">
      <rect
         y="23.622316"
         x="138.98712"
         height="211.50215"
         width="2.7467811"
         id="rect2385"
         style="fill:#000000;fill-opacity:1;stroke:#ffffff;stroke-width:3;stroke-miterlimit:4;stroke-dasharray:none;stroke-opacity:1" />
      <rect
         transform="matrix(2.0187519e-4,1,-1,2.0187519e-4,0,0)"
         style="fill:#000000;fill-opacity:1;stroke:#ffffff;stroke-width:3;stroke-miterlimit:4;stroke-dasharray:none;stroke-opacity:1"
         id="rect2533"
         width="2.7467811"
         height="211.50215"
         x="128.02834"
         y="-246.08546" />
      <rect
         y="-98.465561"
         x="189.37637"
         height="211.50215"
         width="2.7467811"
         id="rect2393"
         style="fill:#000000;fill-opacity:1;stroke:#ffffff;stroke-width:3;stroke-miterlimit:4;stroke-dasharray:none;stroke-opacity:1"
         transform="matrix(0.7606309,0.6491846,-0.6491846,0.7606309,0,0)" />
      <rect
         transform="matrix(-0.7236363,0.6901815,-0.6901815,-0.7236363,0,0)"
         style="fill:#000000;fill-opacity:1;stroke:#ffffff;stroke-width:3;stroke-miterlimit:4;stroke-dasharray:none;stroke-opacity:1"
         id="rect2395"
         width="2.7467811"
         height="211.50215"
         x="-13.652242"
         y="-296.2446" />
      <g
         id="g2403">
        <rect
           style="opacity:1;fill:#000000;fill-opacity:1;stroke:#ffffff;stroke-width:3;stroke-miterlimit:4;stroke-dasharray:none;stroke-opacity:1"
           id="rect2397"
           width="2.1974249"
           height="26.369099"
           x="94.586372"
           y="0.56534284"
           transform="matrix(0.9181369,0.3962633,-0.3962633,0.9181369,0,0)" />
        <rect
           transform="matrix(0.1888058,0.9820144,-0.9820144,0.1888058,0,0)"
           y="-59.872833"
           x="76.126709"
           height="26.369095"
           width="2.1974249"
           id="rect2401"
           style="opacity:1;fill:#000000;fill-opacity:1;stroke:#ffffff;stroke-width:2.99999952;stroke-miterlimit:4;stroke-dasharray:none;stroke-opacity:1"
           inkscape:transform-center-y="-5.0682708" />
      </g>
      <g
         transform="matrix(0.2201562,0.9754646,-0.9754646,0.2201562,240.00042,-24.495999)"
         id="g2407">
        <rect
           transform="matrix(0.9181369,0.3962633,-0.3962633,0.9181369,0,0)"
           y="0.56534284"
           x="94.586372"
           height="26.369099"
           width="2.1974249"
           id="rect2409"
           style="opacity:1;fill:#000000;fill-opacity:1;stroke:#ffffff;stroke-width:3;stroke-miterlimit:4;stroke-dasharray:none;stroke-opacity:1" />
        <rect
           inkscape:transform-center-y="-5.0682708"
           style="opacity:1;fill:#000000;fill-opacity:1;stroke:#ffffff;stroke-width:2.99999952;stroke-miterlimit:4;stroke-dasharray:none;stroke-opacity:1"
           id="rect2411"
           width="2.1974249"
           height="26.369095"
           x="76.126709"
           y="-59.872833"
           transform="matrix(0.1888058,0.9820144,-0.9820144,0.1888058,0,0)" />
      </g>
      <g
         id="g2413"
         transform="matrix(-0.6089531,0.7932062,-0.7932062,-0.6089531,321.98295,106.56345)">
        <rect
           style="opacity:1;fill:#000000;fill-opacity:1;stroke:#ffffff;stroke-width:3;stroke-miterlimit:4;stroke-dasharray:none;stroke-opacity:1"
           id="rect2415"
           width="2.1974249"
           height="26.369099"
           x="94.586372"
           y="0.56534284"
           transform="matrix(0.9181369,0.3962633,-0.3962633,0.9181369,0,0)" />
        <rect
           transform="matrix(0.1888058,0.9820144,-0.9820144,0.1888058,0,0)"
           y="-59.872833"
           x="76.126709"
           height="26.369095"
           width="2.1974249"
           id="rect2417"
           style="opacity:1;fill:#000000;fill-opacity:1;stroke:#ffffff;stroke-width:2.99999952;stroke-miterlimit:4;stroke-dasharray:none;stroke-opacity:1"
           inkscape:transform-center-y="-5.0682708" />
      </g>
      <g
         transform="matrix(-0.9928704,0.1191985,-0.1191985,-0.9928704,279.43958,242.71518)"
         id="g2419">
        <rect
           transform="matrix(0.9181369,0.3962633,-0.3962633,0.9181369,0,0)"
           y="0.56534284"
           x="94.586372"
           height="26.369099"
           width="2.1974249"
           id="rect2421"
           style="opacity:1;fill:#000000;fill-opacity:1;stroke:#ffffff;stroke-width:3;stroke-miterlimit:4;stroke-dasharray:none;stroke-opacity:1" />
        <rect
           inkscape:transform-center-y="-5.0682708"
           style="opacity:1;fill:#000000;fill-opacity:1;stroke:#ffffff;stroke-width:2.99999952;stroke-miterlimit:4;stroke-dasharray:none;stroke-opacity:1"
           id="rect2423"
           width="2.1974249"
           height="26.369095"
           x="76.126709"
           y="-59.872833"
           transform="matrix(0.1888058,0.9820144,-0.9820144,0.1888058,0,0)" />
      </g>
      <g
         id="g2425"
         transform="matrix(-0.8259252,-0.5637796,0.5637796,-0.8259252,166.82486,306.35803)">
        <rect
           style="opacity:1;fill:#000000;fill-opacity:1;stroke:#ffffff;stroke-width:3;stroke-miterlimit:4;stroke-dasharray:none;stroke-opacity:1"
           id="rect2427"
           width="2.1974249"
           height="26.369099"
           x="94.586372"
           y="0.56534284"
           transform="matrix(0.9181369,0.3962633,-0.3962633,0.9181369,0,0)" />
        <rect
           transform="matrix(0.1888058,0.9820144,-0.9820144,0.1888058,0,0)"
           y="-59.872833"
           x="76.126709"
           height="26.369095"
           width="2.1974249"
           id="rect2429"
           style="opacity:1;fill:#000000;fill-opacity:1;stroke:#ffffff;stroke-width:2.99999952;stroke-miterlimit:4;stroke-dasharray:none;stroke-opacity:1"
           inkscape:transform-center-y="-5.0682708" />
      </g>
      <g
         transform="matrix(-0.3350413,-0.9422034,0.9422034,-0.3350413,50.630968,285.18132)"
         id="g2431">
        <rect
           transform="matrix(0.9181369,0.3962633,-0.3962633,0.9181369,0,0)"
           y="0.56534284"
           x="94.586372"
           height="26.369099"
           width="2.1974249"
           id="rect2433"
           style="opacity:1;fill:#000000;fill-opacity:1;stroke:#ffffff;stroke-width:3;stroke-miterlimit:4;stroke-dasharray:none;stroke-opacity:1" />
        <rect
           inkscape:transform-center-y="-5.0682708"
           style="opacity:1;fill:#000000;fill-opacity:1;stroke:#ffffff;stroke-width:2.99999952;stroke-miterlimit:4;stroke-dasharray:none;stroke-opacity:1"
           id="rect2435"
           width="2.1974249"
           height="26.369095"
           x="76.126709"
           y="-59.872833"
           transform="matrix(0.1888058,0.9820144,-0.9820144,0.1888058,0,0)" />
      </g>
      <g
         id="g2437"
         transform="matrix(0.549491,-0.8354996,0.8354996,0.549491,-35.817885,157.81033)">
        <rect
           style="opacity:1;fill:#000000;fill-opacity:1;stroke:#ffffff;stroke-width:3;stroke-miterlimit:4;stroke-dasharray:none;stroke-opacity:1"
           id="rect2439"
           width="2.1974249"
           height="26.369099"
           x="94.586372"
           y="0.56534284"
           transform="matrix(0.9181369,0.3962633,-0.3962633,0.9181369,0,0)" />
        <rect
           transform="matrix(0.1888058,0.9820144,-0.9820144,0.1888058,0,0)"
           y="-59.872833"
           x="76.126709"
           height="26.369095"
           width="2.1974249"
           id="rect2441"
           style="opacity:1;fill:#000000;fill-opacity:1;stroke:#ffffff;stroke-width:2.99999952;stroke-miterlimit:4;stroke-dasharray:none;stroke-opacity:1"
           inkscape:transform-center-y="-5.0682708" />
      </g>
      <g
         transform="matrix(0.8086818,0.5882462,-0.5882462,0.8086818,117.14266,-53.879188)"
         id="g2443">
        <rect
           transform="matrix(0.9181369,0.3962633,-0.3962633,0.9181369,0,0)"
           y="0.56534284"
           x="94.586372"
           height="26.369099"
           width="2.1974249"
           id="rect2445"
           style="opacity:1;fill:#000000;fill-opacity:1;stroke:#ffffff;stroke-width:3;stroke-miterlimit:4;stroke-dasharray:none;stroke-opacity:1" />
        <rect
           inkscape:transform-center-y="-5.0682708"
           style="opacity:1;fill:#000000;fill-opacity:1;stroke:#ffffff;stroke-width:2.99999952;stroke-miterlimit:4;stroke-dasharray:none;stroke-opacity:1"
           id="rect2447"
           width="2.1974249"
           height="26.369095"
           x="76.126709"
           y="-59.872833"
           transform="matrix(0.1888058,0.9820144,-0.9820144,0.1888058,0,0)" />
      </g>
      <g
         style="fill:none"
         id="g2457">
        <rect
           style="opacity:1;fill:none;fill-opacity:1;stroke:#ffffff;stroke-width:3;stroke-miterlimit:4;stroke-dasharray:none;stroke-opacity:1"
           id="rect2453"
           width="3.2961373"
           height="62.077251"
           x="138.68309"
           y="-42.011841"
           transform="matrix(0.8359321,0.5488329,-0.5488329,0.8359321,0,0)" />
        <rect
           transform="matrix(0.5395431,0.841958,-0.841958,0.5395431,0,0)"
           y="-41.704521"
           x="136.98015"
           height="62.077251"
           width="3.2961373"
           id="rect2455"
           style="opacity:1;fill:none;fill-opacity:1;stroke:#ffffff;stroke-width:3;stroke-miterlimit:4;stroke-dasharray:none;stroke-opacity:1" />
      </g>
      <g
         style="fill:none"
         transform="matrix(-0.9993254,-3.6724474e-2,3.6724474e-2,-0.9993254,276.37497,261.48952)"
         id="g2461">
        <rect
           transform="matrix(0.8359321,0.5488329,-0.5488329,0.8359321,0,0)"
           y="-42.011841"
           x="138.68309"
           height="62.077251"
           width="3.2961373"
           id="rect2463"
           style="opacity:1;fill:none;fill-opacity:1;stroke:#ffffff;stroke-width:3;stroke-miterlimit:4;stroke-dasharray:none;stroke-opacity:1" />
        <rect
           style="opacity:1;fill:none;fill-opacity:1;stroke:#ffffff;stroke-width:3;stroke-miterlimit:4;stroke-dasharray:none;stroke-opacity:1"
           id="rect2465"
           width="3.2961373"
           height="62.077251"
           x="136.98015"
           y="-41.704521"
           transform="matrix(0.5395431,0.841958,-0.841958,0.5395431,0,0)" />
      </g>
      <g
         style="fill:none"
         id="g2467"
         transform="matrix(-1.541633e-2,0.9998811,-0.9998811,-1.541633e-2,266.84776,-11.388735)">
        <rect
           style="opacity:1;fill:none;fill-opacity:1;stroke:#ffffff;stroke-width:3;stroke-miterlimit:4;stroke-dasharray:none;stroke-opacity:1"
           id="rect2469"
           width="3.2961373"
           height="62.077251"
           x="138.68309"
           y="-42.011841"
           transform="matrix(0.8359321,0.5488329,-0.5488329,0.8359321,0,0)" />
        <rect
           transform="matrix(0.5395431,0.841958,-0.841958,0.5395431,0,0)"
           y="-41.704521"
           x="136.98015"
           height="62.077251"
           width="3.2961373"
           id="rect2471"
           style="opacity:1;fill:none;fill-opacity:1;stroke:#ffffff;stroke-width:3;stroke-miterlimit:4;stroke-dasharray:none;stroke-opacity:1" />
      </g>
      <g
         style="fill:none"
         transform="matrix(8.2351184e-4,-0.9999996,0.9999996,8.2351184e-4,14.412435,270.80588)"
         id="g2473">
        <rect
           transform="matrix(0.8359321,0.5488329,-0.5488329,0.8359321,0,0)"
           y="-42.011841"
           x="138.68309"
           height="62.077251"
           width="3.2961373"
           id="rect2475"
           style="opacity:1;fill:none;fill-opacity:1;stroke:#ffffff;stroke-width:3;stroke-miterlimit:4;stroke-dasharray:none;stroke-opacity:1" />
        <rect
           style="opacity:1;fill:none;fill-opacity:1;stroke:#ffffff;stroke-width:3;stroke-miterlimit:4;stroke-dasharray:none;stroke-opacity:1"
           id="rect2477"
           width="3.2961373"
           height="62.077251"
           x="136.98015"
           y="-41.704521"
           transform="matrix(0.5395431,0.841958,-0.841958,0.5395431,0,0)" />
      </g>
    </g>
    <g
       id="g2655"
       transform="matrix(0.3879031,0,0,0.3879031,155.4078,145.38647)">
      <rect
         y="23.622316"
         x="138.98712"
         height="211.50215"
         width="2.7467811"
         id="rect2657"
         style="fill:#000000;fill-opacity:1;stroke:#ffffff;stroke-width:3;stroke-miterlimit:4;stroke-dasharray:none;stroke-opacity:1" />
      <rect
         transform="matrix(2.0187519e-4,1,-1,2.0187519e-4,0,0)"
         style="fill:#000000;fill-opacity:1;stroke:#ffffff;stroke-width:3;stroke-miterlimit:4;stroke-dasharray:none;stroke-opacity:1"
         id="rect2659"
         width="2.7467811"
         height="211.50215"
         x="128.02834"
         y="-246.08546" />
      <rect
         y="-98.465561"
         x="189.37637"
         height="211.50215"
         width="2.7467811"
         id="rect2661"
         style="fill:#000000;fill-opacity:1;stroke:#ffffff;stroke-width:3;stroke-miterlimit:4;stroke-dasharray:none;stroke-opacity:1"
         transform="matrix(0.7606309,0.6491846,-0.6491846,0.7606309,0,0)" />
      <rect
         transform="matrix(-0.7236363,0.6901815,-0.6901815,-0.7236363,0,0)"
         style="fill:#000000;fill-opacity:1;stroke:#ffffff;stroke-width:3;stroke-miterlimit:4;stroke-dasharray:none;stroke-opacity:1"
         id="rect2663"
         width="2.7467811"
         height="211.50215"
         x="-13.652242"
         y="-296.2446" />
      <g
         id="g2665">
        <rect
           style="opacity:1;fill:#000000;fill-opacity:1;stroke:#ffffff;stroke-width:3;stroke-miterlimit:4;stroke-dasharray:none;stroke-opacity:1"
           id="rect2667"
           width="2.1974249"
           height="26.369099"
           x="94.586372"
           y="0.56534284"
           transform="matrix(0.9181369,0.3962633,-0.3962633,0.9181369,0,0)" />
        <rect
           transform="matrix(0.1888058,0.9820144,-0.9820144,0.1888058,0,0)"
           y="-59.872833"
           x="76.126709"
           height="26.369095"
           width="2.1974249"
           id="rect2669"
           style="opacity:1;fill:#000000;fill-opacity:1;stroke:#ffffff;stroke-width:2.99999952;stroke-miterlimit:4;stroke-dasharray:none;stroke-opacity:1"
           inkscape:transform-center-y="-5.0682708" />
      </g>
      <g
         transform="matrix(0.2201562,0.9754646,-0.9754646,0.2201562,240.00042,-24.495999)"
         id="g2671">
        <rect
           transform="matrix(0.9181369,0.3962633,-0.3962633,0.9181369,0,0)"
           y="0.56534284"
           x="94.586372"
           height="26.369099"
           width="2.1974249"
           id="rect2673"
           style="opacity:1;fill:#000000;fill-opacity:1;stroke:#ffffff;stroke-width:3;stroke-miterlimit:4;stroke-dasharray:none;stroke-opacity:1" />
        <rect
           inkscape:transform-center-y="-5.0682708"
           style="opacity:1;fill:#000000;fill-opacity:1;stroke:#ffffff;stroke-width:2.99999952;stroke-miterlimit:4;stroke-dasharray:none;stroke-opacity:1"
           id="rect2675"
           width="2.1974249"
           height="26.369095"
           x="76.126709"
           y="-59.872833"
           transform="matrix(0.1888058,0.9820144,-0.9820144,0.1888058,0,0)" />
      </g>
      <g
         id="g2677"
         transform="matrix(-0.6089531,0.7932062,-0.7932062,-0.6089531,321.98295,106.56345)">
        <rect
           style="opacity:1;fill:#000000;fill-opacity:1;stroke:#ffffff;stroke-width:3;stroke-miterlimit:4;stroke-dasharray:none;stroke-opacity:1"
           id="rect2679"
           width="2.1974249"
           height="26.369099"
           x="94.586372"
           y="0.56534284"
           transform="matrix(0.9181369,0.3962633,-0.3962633,0.9181369,0,0)" />
        <rect
           transform="matrix(0.1888058,0.9820144,-0.9820144,0.1888058,0,0)"
           y="-59.872833"
           x="76.126709"
           height="26.369095"
           width="2.1974249"
           id="rect2681"
           style="opacity:1;fill:#000000;fill-opacity:1;stroke:#ffffff;stroke-width:2.99999952;stroke-miterlimit:4;stroke-dasharray:none;stroke-opacity:1"
           inkscape:transform-center-y="-5.0682708" />
      </g>
      <g
         transform="matrix(-0.9928704,0.1191985,-0.1191985,-0.9928704,279.43958,242.71518)"
         id="g2683">
        <rect
           transform="matrix(0.9181369,0.3962633,-0.3962633,0.9181369,0,0)"
           y="0.56534284"
           x="94.586372"
           height="26.369099"
           width="2.1974249"
           id="rect2685"
           style="opacity:1;fill:#000000;fill-opacity:1;stroke:#ffffff;stroke-width:3;stroke-miterlimit:4;stroke-dasharray:none;stroke-opacity:1" />
        <rect
           inkscape:transform-center-y="-5.0682708"
           style="opacity:1;fill:#000000;fill-opacity:1;stroke:#ffffff;stroke-width:2.99999952;stroke-miterlimit:4;stroke-dasharray:none;stroke-opacity:1"
           id="rect2687"
           width="2.1974249"
           height="26.369095"
           x="76.126709"
           y="-59.872833"
           transform="matrix(0.1888058,0.9820144,-0.9820144,0.1888058,0,0)" />
      </g>
      <g
         id="g2689"
         transform="matrix(-0.8259252,-0.5637796,0.5637796,-0.8259252,166.82486,306.35803)">
        <rect
           style="opacity:1;fill:#000000;fill-opacity:1;stroke:#ffffff;stroke-width:3;stroke-miterlimit:4;stroke-dasharray:none;stroke-opacity:1"
           id="rect2691"
           width="2.1974249"
           height="26.369099"
           x="94.586372"
           y="0.56534284"
           transform="matrix(0.9181369,0.3962633,-0.3962633,0.9181369,0,0)" />
        <rect
           transform="matrix(0.1888058,0.9820144,-0.9820144,0.1888058,0,0)"
           y="-59.872833"
           x="76.126709"
           height="26.369095"
           width="2.1974249"
           id="rect2693"
           style="opacity:1;fill:#000000;fill-opacity:1;stroke:#ffffff;stroke-width:2.99999952;stroke-miterlimit:4;stroke-dasharray:none;stroke-opacity:1"
           inkscape:transform-center-y="-5.0682708" />
      </g>
      <g
         transform="matrix(-0.3350413,-0.9422034,0.9422034,-0.3350413,50.630968,285.18132)"
         id="g2695">
        <rect
           transform="matrix(0.9181369,0.3962633,-0.3962633,0.9181369,0,0)"
           y="0.56534284"
           x="94.586372"
           height="26.369099"
           width="2.1974249"
           id="rect2697"
           style="opacity:1;fill:#000000;fill-opacity:1;stroke:#ffffff;stroke-width:3;stroke-miterlimit:4;stroke-dasharray:none;stroke-opacity:1" />
        <rect
           inkscape:transform-center-y="-5.0682708"
           style="opacity:1;fill:#000000;fill-opacity:1;stroke:#ffffff;stroke-width:2.99999952;stroke-miterlimit:4;stroke-dasharray:none;stroke-opacity:1"
           id="rect2699"
           width="2.1974249"
           height="26.369095"
           x="76.126709"
           y="-59.872833"
           transform="matrix(0.1888058,0.9820144,-0.9820144,0.1888058,0,0)" />
      </g>
      <g
         id="g2701"
         transform="matrix(0.549491,-0.8354996,0.8354996,0.549491,-35.817885,157.81033)">
        <rect
           style="opacity:1;fill:#000000;fill-opacity:1;stroke:#ffffff;stroke-width:3;stroke-miterlimit:4;stroke-dasharray:none;stroke-opacity:1"
           id="rect2703"
           width="2.1974249"
           height="26.369099"
           x="94.586372"
           y="0.56534284"
           transform="matrix(0.9181369,0.3962633,-0.3962633,0.9181369,0,0)" />
        <rect
           transform="matrix(0.1888058,0.9820144,-0.9820144,0.1888058,0,0)"
           y="-59.872833"
           x="76.126709"
           height="26.369095"
           width="2.1974249"
           id="rect2705"
           style="opacity:1;fill:#000000;fill-opacity:1;stroke:#ffffff;stroke-width:2.99999952;stroke-miterlimit:4;stroke-dasharray:none;stroke-opacity:1"
           inkscape:transform-center-y="-5.0682708" />
      </g>
      <g
         transform="matrix(0.8086818,0.5882462,-0.5882462,0.8086818,117.14266,-53.879188)"
         id="g2707">
        <rect
           transform="matrix(0.9181369,0.3962633,-0.3962633,0.9181369,0,0)"
           y="0.56534284"
           x="94.586372"
           height="26.369099"
           width="2.1974249"
           id="rect2709"
           style="opacity:1;fill:#000000;fill-opacity:1;stroke:#ffffff;stroke-width:3;stroke-miterlimit:4;stroke-dasharray:none;stroke-opacity:1" />
        <rect
           inkscape:transform-center-y="-5.0682708"
           style="opacity:1;fill:#000000;fill-opacity:1;stroke:#ffffff;stroke-width:2.99999952;stroke-miterlimit:4;stroke-dasharray:none;stroke-opacity:1"
           id="rect2711"
           width="2.1974249"
           height="26.369095"
           x="76.126709"
           y="-59.872833"
           transform="matrix(0.1888058,0.9820144,-0.9820144,0.1888058,0,0)" />
      </g>
      <g
         style="fill:none"
         id="g2713">
        <rect
           style="opacity:1;fill:none;fill-opacity:1;stroke:#ffffff;stroke-width:3;stroke-miterlimit:4;stroke-dasharray:none;stroke-opacity:1"
           id="rect2715"
           width="3.2961373"
           height="62.077251"
           x="138.68309"
           y="-42.011841"
           transform="matrix(0.8359321,0.5488329,-0.5488329,0.8359321,0,0)" />
        <rect
           transform="matrix(0.5395431,0.841958,-0.841958,0.5395431,0,0)"
           y="-41.704521"
           x="136.98015"
           height="62.077251"
           width="3.2961373"
           id="rect2717"
           style="opacity:1;fill:none;fill-opacity:1;stroke:#ffffff;stroke-width:3;stroke-miterlimit:4;stroke-dasharray:none;stroke-opacity:1" />
      </g>
      <g
         style="fill:none"
         transform="matrix(-0.9993254,-3.6724474e-2,3.6724474e-2,-0.9993254,276.37497,261.48952)"
         id="g2719">
        <rect
           transform="matrix(0.8359321,0.5488329,-0.5488329,0.8359321,0,0)"
           y="-42.011841"
           x="138.68309"
           height="62.077251"
           width="3.2961373"
           id="rect2721"
           style="opacity:1;fill:none;fill-opacity:1;stroke:#ffffff;stroke-width:3;stroke-miterlimit:4;stroke-dasharray:none;stroke-opacity:1" />
        <rect
           style="opacity:1;fill:none;fill-opacity:1;stroke:#ffffff;stroke-width:3;stroke-miterlimit:4;stroke-dasharray:none;stroke-opacity:1"
           id="rect2723"
           width="3.2961373"
           height="62.077251"
           x="136.98015"
           y="-41.704521"
           transform="matrix(0.5395431,0.841958,-0.841958,0.5395431,0,0)" />
      </g>
      <g
         style="fill:none"
         id="g2725"
         transform="matrix(-1.541633e-2,0.9998811,-0.9998811,-1.541633e-2,266.84776,-11.388735)">
        <rect
           style="opacity:1;fill:none;fill-opacity:1;stroke:#ffffff;stroke-width:3;stroke-miterlimit:4;stroke-dasharray:none;stroke-opacity:1"
           id="rect2727"
           width="3.2961373"
           height="62.077251"
           x="138.68309"
           y="-42.011841"
           transform="matrix(0.8359321,0.5488329,-0.5488329,0.8359321,0,0)" />
        <rect
           transform="matrix(0.5395431,0.841958,-0.841958,0.5395431,0,0)"
           y="-41.704521"
           x="136.98015"
           height="62.077251"
           width="3.2961373"
           id="rect2729"
           style="opacity:1;fill:none;fill-opacity:1;stroke:#ffffff;stroke-width:3;stroke-miterlimit:4;stroke-dasharray:none;stroke-opacity:1" />
      </g>
      <g
         style="fill:none"
         transform="matrix(8.2351184e-4,-0.9999996,0.9999996,8.2351184e-4,14.412435,270.80588)"
         id="g2731">
        <rect
           transform="matrix(0.8359321,0.5488329,-0.5488329,0.8359321,0,0)"
           y="-42.011841"
           x="138.68309"
           height="62.077251"
           width="3.2961373"
           id="rect2733"
           style="opacity:1;fill:none;fill-opacity:1;stroke:#ffffff;stroke-width:3;stroke-miterlimit:4;stroke-dasharray:none;stroke-opacity:1" />
        <rect
           style="opacity:1;fill:none;fill-opacity:1;stroke:#ffffff;stroke-width:3;stroke-miterlimit:4;stroke-dasharray:none;stroke-opacity:1"
           id="rect2735"
           width="3.2961373"
           height="62.077251"
           x="136.98015"
           y="-41.704521"
           transform="matrix(0.5395431,0.841958,-0.841958,0.5395431,0,0)" />
      </g>
    </g>
  </g>
</svg>
