<?xml version="1.0" encoding="UTF-8" standalone="no"?>
<!-- Created with Inkscape (http://www.inkscape.org/) -->
<svg
   xmlns:dc="http://purl.org/dc/elements/1.1/"
   xmlns:cc="http://creativecommons.org/ns#"
   xmlns:rdf="http://www.w3.org/1999/02/22-rdf-syntax-ns#"
   xmlns:svg="http://www.w3.org/2000/svg"
   xmlns="http://www.w3.org/2000/svg"
   xmlns:sodipodi="http://sodipodi.sourceforge.net/DTD/sodipodi-0.dtd"
   xmlns:inkscape="http://www.inkscape.org/namespaces/inkscape"
   width="256"
   height="256"
   id="svg2"
   sodipodi:version="0.32"
   inkscape:version="0.46"
   version="1.0"
   sodipodi:docname="8.svg"
   inkscape:output_extension="org.inkscape.output.svg.inkscape">
  <defs
     id="defs4">
    <inkscape:perspective
       sodipodi:type="inkscape:persp3d"
       inkscape:vp_x="0 : 526.18109 : 1"
       inkscape:vp_y="0 : 1000 : 0"
       inkscape:vp_z="744.09448 : 526.18109 : 1"
       inkscape:persp3d-origin="372.04724 : 350.78739 : 1"
       id="perspective10" />
  </defs>
  <sodipodi:namedview
     id="base"
     pagecolor="#ffffff"
     bordercolor="#666666"
     borderopacity="1.0"
     gridtolerance="10000"
     guidetolerance="10"
     objecttolerance="10"
     inkscape:pageopacity="0.0"
     inkscape:pageshadow="2"
     inkscape:zoom="1.8203125"
     inkscape:cx="106.35001"
     inkscape:cy="128"
     inkscape:document-units="px"
     inkscape:current-layer="layer1"
     showgrid="false"
     inkscape:window-width="923"
     inkscape:window-height="681"
     inkscape:window-x="242"
     inkscape:window-y="96" />
  <metadata
     id="metadata7">
    <rdf:RDF>
      <cc:Work
         rdf:about="">
        <dc:format>image/svg+xml</dc:format>
        <dc:type
           rdf:resource="http://purl.org/dc/dcmitype/StillImage" />
      </cc:Work>
    </rdf:RDF>
  </metadata>
  <g
     inkscape:label="Layer 1"
     inkscape:groupmode="layer"
     id="layer1">
    <path
       style="fill:#000000;fill-opacity:1;stroke:#ffffff;stroke-width:3;stroke-miterlimit:4;stroke-opacity:1;stroke-dasharray:none"
       d="M 118.25 19.09375 C 109.65307 19.296085 101.40271 22.347306 93.822991 26.218059 C 88.147466 29.281077 83.545847 34.030351 79.95594 39.336038 C 74.782195 46.59561 70.684992 54.563293 65.447573 61.77898 C 63.505202 64.363321 60.945892 66.561268 57.858095 67.629331 C 51.844452 70.213124 45.530859 72.019974 39.540336 74.663439 C 33.389223 77.340956 27.33831 80.739728 22.949835 85.928308 C 18.495813 91.04138 15.44055 97.578512 15.28125 104.42811 C 15.325489 109.45138 17.523127 114.70724 21.844256 117.5003 C 25.226892 119.67739 29.383476 119.98105 33.298419 119.8109 C 62.15366 119.71174 91.008723 119.95061 119.86401 119.9375 C 150.64893 119.93895 181.43835 119.85413 212.21434 119.04653 C 219.52182 118.78442 226.83878 118.59612 234.12825 118.0028 C 237.01413 117.72184 239.93307 117.42044 242.72601 116.637 C 245.52219 115.36363 246.66669 112.18397 247.13038 109.35215 C 248.54533 102.27664 248.90361 94.741146 246.54269 87.824468 C 244.04698 80.325531 238.34995 74.070658 231.3185 70.538616 C 226.59091 67.929584 221.07279 66.632712 217.00027 62.928858 C 214.55294 60.426601 214.30874 56.737902 213.92724 53.449251 C 213.58326 50.260792 212.74389 47.058569 210.86735 44.410395 C 207.48077 39.236294 201.76379 35.996814 195.87501 34.488786 C 189.69787 32.857058 183.15078 33.455306 177.04619 35.108819 C 173.68212 35.882617 170.29974 36.937123 166.82074 36.870399 C 163.2284 36.304876 160.7151 33.426989 157.8132 31.509728 C 151.84538 27.078491 145.06401 23.819202 137.9709 21.634532 C 131.5843 19.754143 124.90271 18.925875 118.25 19.09375 z "
       id="path3183" />
    <rect
       transform="matrix(0.8916997,-0.4526275,0.4526275,0.8916997,0,0)"
       y="176.98441"
       x="38.791416"
       height="26.369099"
       width="6.5922747"
       id="rect3242"
       style="opacity:1;fill:#ffffff;fill-opacity:1;stroke:#ffffff;stroke-width:3;stroke-miterlimit:4;stroke-dasharray:none;stroke-opacity:1" />
    <rect
       style="opacity:1;fill:#ffffff;fill-opacity:1;stroke:#ffffff;stroke-width:3;stroke-miterlimit:4;stroke-dasharray:none;stroke-opacity:1"
       id="rect3244"
       width="6.5922747"
       height="26.369099"
       x="72.880615"
       y="227.5563"
       transform="matrix(0.8916997,-0.4526275,0.4526275,0.8916997,0,0)" />
    <rect
       transform="matrix(0.8916997,-0.4526275,0.4526275,0.8916997,0,0)"
       y="211.47862"
       x="14.505268"
       height="26.369099"
       width="6.5922747"
       id="rect3246"
       style="opacity:1;fill:#ffffff;fill-opacity:1;stroke:#ffffff;stroke-width:3;stroke-miterlimit:4;stroke-dasharray:none;stroke-opacity:1" />
    <rect
       transform="matrix(0.8916997,-0.4526275,0.4526275,0.8916997,0,0)"
       y="196.49982"
       x="-24.713385"
       height="26.369099"
       width="6.5922747"
       id="rect3248"
       style="opacity:1;fill:#ffffff;fill-opacity:1;stroke:#ffffff;stroke-width:3;stroke-miterlimit:4;stroke-dasharray:none;stroke-opacity:1" />
    <path
       style="opacity:1;fill:#0000ff;fill-opacity:1;stroke:#fdffff;stroke-width:3;stroke-miterlimit:4;stroke-dasharray:none;stroke-opacity:1"
       id="path2396"
       d="M 15.923835,238.12145 C 16.928042,237.74057 17.98195,237.5209 18.951302,237.05541 C 20.035724,236.57033 20.885624,235.93657 21.91528,235.34083 C 23.233996,234.598 24.584191,233.92672 25.956572,233.29109 C 27.33488,232.54125 28.765863,231.90049 30.231362,231.34266 C 31.672266,230.78165 33.138901,230.29014 34.585535,229.74573 C 35.883309,229.21328 37.201356,228.80462 38.585387,228.57886 C 40.093728,228.23805 41.624181,228.03777 43.163987,227.91476 C 44.70283,227.90095 46.222844,227.75096 47.749029,227.56837 C 49.378851,227.37775 51.019359,227.32572 52.658474,227.29242 C 54.074027,227.27584 55.475205,227.16908 56.892055,227.19075 C 58.524314,227.22702 60.156769,227.25085 61.789358,227.265 C 62.973,227.27433 64.156682,227.27517 65.340353,227.27528 C 66.183169,227.29256 66.998837,227.55779 67.834441,227.67609 C 69.199706,227.94306 70.553064,228.2617 71.918609,228.52751 C 73.237445,228.88516 74.573756,229.16009 75.890874,229.52203 C 77.18514,229.88574 78.480141,230.24505 79.789578,230.55503 C 81.344132,230.98111 82.893208,231.43799 84.465483,231.79498 C 86.005478,232.08481 87.537684,232.41333 89.063204,232.77124 C 90.650691,233.13522 92.256237,233.41483 93.847807,233.75734 C 95.537743,234.03081 97.194271,234.44991 98.855489,234.85516 C 100.81942,235.21786 102.74728,235.74288 104.70486,236.1331 C 106.68776,236.57619 108.69084,236.91399 110.66994,237.375 C 112.60549,237.85191 114.57163,238.18359 116.52062,238.59501 C 118.55741,239.04451 120.59479,239.48607 122.64682,239.86303 C 125.09518,240.28055 127.5817,240.37276 130.05965,240.43593 C 132.44922,240.47952 134.83933,240.47387 137.22919,240.47017 C 139.2617,240.48714 141.2858,240.49624 143.31007,240.30446 C 145.30495,240.05752 147.31903,240.07074 149.31724,239.88042 C 150.91894,239.67973 152.5246,239.54692 154.11337,239.25952 C 155.67044,238.90025 157.24992,238.66653 158.8205,238.37679 C 160.53845,238.13917 162.22135,237.75199 163.88768,237.27866 C 165.47551,236.86232 167.06494,236.45508 168.66653,236.09272 C 170.31802,235.67283 171.93012,235.12125 173.55153,234.6016 C 175.13314,234.03092 176.76897,233.64021 178.3705,233.13128 C 179.77198,232.75588 181.08067,232.12239 182.44147,231.63366 C 183.62666,231.17988 184.77639,230.64247 185.96031,230.18539 C 187.04074,229.65085 188.10346,229.10225 189.22204,228.6513 C 190.42021,228.24795 191.64962,227.92739 192.87868,227.6284 C 194.00625,227.30335 195.11073,226.90623 196.23727,226.57926 C 197.60038,226.07264 199.03084,225.86768 200.47052,225.73665 C 201.93904,225.51292 203.40606,225.29106 204.88691,225.16792 C 205.967,225.07625 207.05153,225.07712 208.13457,225.07328 C 209.45468,225.04071 210.75971,225.06228 212.06844,225.23603 C 213.52593,225.43434 214.98899,225.52964 216.44319,225.75239 C 218.15334,225.96536 219.86146,226.19214 221.57293,226.39855 C 223.51939,226.73133 225.45658,227.12735 227.38202,227.56588 C 228.944,227.83729 230.44383,228.31718 231.94593,228.80651 C 233.56418,229.43092 235.17045,230.08665 236.79246,230.7017 C 238.18568,231.21256 239.51845,231.86651 240.89581,232.41478 C 241.59029,232.71139 242.22427,233.10781 242.87479,233.48519 C 243.42231,233.842 243.95043,234.2223 244.50573,234.56735 C 244.73643,234.70716 244.97048,234.84159 245.21117,234.96343 C 245.22182,234.97061 245.23432,234.97335 245.2459,234.9783 L 244.78881,235.28259 C 244.77682,235.27666 244.76467,235.27105 244.75283,235.26481 C 244.51351,235.13882 244.27935,235.00331 244.04884,234.86183 C 243.49558,234.51496 242.96678,234.13585 242.41885,233.78104 C 241.77228,233.40302 241.13854,233.01071 240.4472,232.71527 C 239.07426,232.16103 237.74311,231.50842 236.35152,230.99823 C 234.72989,230.38178 233.12243,229.72886 231.50279,229.1076 C 230.00319,228.61801 228.50418,228.14336 226.94562,227.86829 C 225.02099,227.43229 223.08593,227.03287 221.13988,226.7053 C 219.42712,226.49853 217.71683,226.27693 216.00584,226.06012 C 214.55156,225.83863 213.08762,225.74677 211.63059,225.54548 C 210.32276,225.37516 209.01783,225.35913 207.69927,225.38979 C 206.61729,225.39429 205.53399,225.39695 204.45493,225.48732 C 202.97504,225.61196 201.50912,225.83559 200.04081,226.05492 C 198.60143,226.18886 197.17383,226.40312 195.81075,226.90806 C 194.68524,227.23882 193.57967,227.63293 192.45111,227.955 C 191.22392,228.25659 189.99398,228.57174 188.79973,228.98364 C 187.68255,229.43649 186.62308,229.99255 185.53827,230.51654 C 184.35538,230.97697 183.20466,231.51344 182.01794,231.96438 C 180.65961,232.45707 179.34865,233.08222 177.94845,233.45817 C 176.3464,233.96457 174.71127,234.35795 173.1298,234.92848 C 171.50841,235.44912 169.89527,235.99886 168.24262,236.41542 C 166.64162,236.78064 165.05161,237.18601 163.46418,237.60459 C 161.7972,238.07622 160.11253,238.45619 158.39532,238.69766 C 156.82329,238.98502 155.24468,239.22763 153.68567,239.58205 C 152.09726,239.86638 150.49168,239.99759 148.89073,240.19644 C 146.89202,240.38148 144.87835,240.37427 142.88342,240.6206 C 140.85878,240.80968 138.83373,240.79655 136.80122,240.78118 C 134.41204,240.78268 132.02262,240.78862 129.63375,240.7437 C 127.15344,240.68006 124.66469,240.58431 122.21422,240.16548 C 120.16121,239.78852 118.12276,239.34734 116.08491,238.89795 C 114.13547,238.4881 112.16963,238.15427 110.23416,237.67667 C 108.25479,237.21866 106.25251,236.87786 104.26965,236.43636 C 102.31167,236.04361 100.38223,235.52127 98.417573,235.15758 C 96.756188,234.75223 95.098377,234.33804 93.408772,234.06238 C 91.816046,233.72338 90.212039,233.43603 88.623473,233.07549 C 87.098176,232.71726 85.565457,232.39193 84.02616,232.09936 C 82.454474,231.73951 80.905437,231.28313 79.350276,230.85886 C 78.039668,230.54848 76.742857,230.19116 75.447442,229.82637 C 74.132188,229.46465 72.797538,229.18884 71.48014,228.83334 C 70.114286,228.56586 68.7599,228.24853 67.392754,227.98751 C 66.559707,227.8672 65.745232,227.60366 64.90311,227.59292 C 63.720727,227.59171 62.538333,227.58928 61.355987,227.57926 C 59.723357,227.5636 58.09087,227.53863 56.458512,227.5048 C 55.043021,227.48599 53.641475,227.59453 52.227055,227.60722 C 50.588793,227.64089 48.94918,227.69518 47.320437,227.88762 C 45.793576,228.07006 44.272117,228.21369 42.733004,228.2332 C 41.193922,228.35761 39.665228,228.56265 38.157109,228.90085 C 36.775484,229.13135 35.460044,229.54729 34.163042,230.07645 C 32.715338,230.61601 31.251707,231.11302 29.810935,231.6722 C 28.346734,232.23331 26.918191,232.8778 25.538033,233.62382 C 24.164889,234.25897 22.816498,234.93588 21.497614,235.67901 C 20.500719,236.23095 19.598897,236.96681 18.52956,237.39132 C 17.555001,237.84738 16.500119,238.06929 15.497238,238.45691 L 15.923835,238.12145 z" />
    <path
       d="M 16.473191,246.91115 C 17.477398,246.53027 18.531306,246.3106 19.500658,245.84511 C 20.58508,245.36003 21.43498,244.72627 22.464636,244.13053 C 23.783352,243.3877 25.133547,242.71642 26.505928,242.08079 C 27.884236,241.33095 29.315219,240.69019 30.780718,240.13236 C 32.221622,239.57135 33.688257,239.07984 35.134891,238.53543 C 36.432665,238.00298 37.750712,237.59432 39.134743,237.36856 C 40.643084,237.02775 42.173537,236.82747 43.713343,236.70446 C 45.252186,236.69065 46.7722,236.54066 48.298385,236.35807 C 49.928207,236.16745 51.568715,236.11542 53.20783,236.08212 C 54.623383,236.06554 56.024561,235.95878 57.441411,235.98045 C 59.07367,236.01672 60.706125,236.04055 62.338714,236.0547 C 63.522356,236.06403 64.706038,236.06487 65.889709,236.06498 C 66.732525,236.08226 67.548193,236.34749 68.383797,236.46579 C 69.749062,236.73276 71.10242,237.0514 72.467965,237.31721 C 73.786801,237.67486 75.123112,237.94979 76.44023,238.31173 C 77.734496,238.67544 79.029497,239.03475 80.338934,239.34473 C 81.893488,239.77081 83.442564,240.22769 85.014839,240.58468 C 86.554834,240.87451 88.08704,241.20303 89.61256,241.56094 C 91.200047,241.92492 92.805593,242.20453 94.397163,242.54704 C 96.087099,242.82051 97.743627,243.23961 99.404845,243.64486 C 101.36878,244.00756 103.29664,244.53258 105.25422,244.9228 C 107.23712,245.36589 109.2402,245.70369 111.2193,246.1647 C 113.15485,246.64161 115.12099,246.97329 117.06998,247.38471 C 119.10677,247.83421 121.14415,248.27577 123.19618,248.65273 C 125.64454,249.07025 128.13106,249.16246 130.60901,249.22563 C 132.99858,249.26922 135.38869,249.26357 137.77855,249.25987 C 139.81106,249.27684 141.83516,249.28594 143.85943,249.09416 C 145.85431,248.84722 147.86839,248.86044 149.8666,248.67012 C 151.4683,248.46943 153.07396,248.33662 154.66273,248.04922 C 156.2198,247.68995 157.79928,247.45623 159.36986,247.16649 C 161.08781,246.92887 162.77071,246.54169 164.43704,246.06836 C 166.02487,245.65202 167.6143,245.24478 169.21589,244.88242 C 170.86738,244.46253 172.47948,243.91095 174.10089,243.3913 C 175.6825,242.82062 177.31833,242.42991 178.91986,241.92098 C 180.32134,241.54558 181.63003,240.91209 182.99083,240.42336 C 184.17602,239.96958 185.32575,239.43217 186.50967,238.97509 C 187.5901,238.44055 188.65282,237.89195 189.7714,237.441 C 190.96957,237.03765 192.19898,236.71709 193.42804,236.4181 C 194.55561,236.09305 195.66009,235.69593 196.78663,235.36896 C 198.14974,234.86234 199.5802,234.65738 201.01988,234.52635 C 202.4884,234.30262 203.95542,234.08076 205.43627,233.95762 C 206.51636,233.86595 207.60089,233.86682 208.68393,233.86298 C 210.00404,233.83041 211.30907,233.85198 212.6178,234.02573 C 214.07529,234.22404 215.53835,234.31934 216.99255,234.54209 C 218.7027,234.75506 220.41082,234.98184 222.12229,235.18825 C 224.06875,235.52103 226.00594,235.91705 227.93138,236.35558 C 229.49336,236.62699 230.99319,237.10688 232.49529,237.59621 C 234.11354,238.22062 235.71981,238.87635 237.34182,239.4914 C 238.73504,240.00226 240.06781,240.65621 241.44517,241.20448 C 242.13965,241.50109 242.77363,241.89751 243.42415,242.27489 C 243.97167,242.6317 244.49979,243.012 245.05509,243.35705 C 245.28579,243.49686 245.51984,243.63129 245.76053,243.75313 C 245.77118,243.76031 245.78368,243.76305 245.79526,243.768 L 245.33817,244.07229 C 245.32618,244.06636 245.31403,244.06075 245.30219,244.05451 C 245.06287,243.92852 244.82871,243.79301 244.5982,243.65153 C 244.04494,243.30466 243.51614,242.92555 242.96821,242.57074 C 242.32164,242.19272 241.6879,241.80041 240.99656,241.50497 C 239.62362,240.95073 238.29247,240.29812 236.90088,239.78793 C 235.27925,239.17148 233.67179,238.51856 232.05215,237.8973 C 230.55255,237.40771 229.05354,236.93306 227.49498,236.65799 C 225.57035,236.22199 223.63529,235.82257 221.68924,235.495 C 219.97648,235.28823 218.26619,235.06663 216.5552,234.84982 C 215.10092,234.62833 213.63698,234.53647 212.17995,234.33518 C 210.87212,234.16486 209.56719,234.14883 208.24863,234.17949 C 207.16665,234.18399 206.08335,234.18665 205.00429,234.27702 C 203.5244,234.40166 202.05848,234.62529 200.59017,234.84462 C 199.15079,234.97856 197.72319,235.19282 196.36011,235.69776 C 195.2346,236.02852 194.12903,236.42263 193.00047,236.7447 C 191.77328,237.04629 190.54334,237.36144 189.34909,237.77334 C 188.23191,238.22619 187.17244,238.78225 186.08763,239.30624 C 184.90474,239.76667 183.75402,240.30314 182.5673,240.75408 C 181.20897,241.24677 179.89801,241.87192 178.49781,242.24787 C 176.89576,242.75427 175.26063,243.14765 173.67916,243.71818 C 172.05777,244.23882 170.44463,244.78856 168.79198,245.20512 C 167.19098,245.57034 165.60097,245.97571 164.01354,246.39429 C 162.34656,246.86592 160.66189,247.24589 158.94468,247.48736 C 157.37265,247.77472 155.79404,248.01733 154.23503,248.37175 C 152.64662,248.65608 151.04104,248.78729 149.44009,248.98614 C 147.44138,249.17118 145.42771,249.16397 143.43278,249.4103 C 141.40814,249.59938 139.38309,249.58625 137.35058,249.57088 C 134.9614,249.57238 132.57198,249.57832 130.18311,249.5334 C 127.7028,249.46976 125.21405,249.37401 122.76358,248.95518 C 120.71057,248.57822 118.67212,248.13704 116.63427,247.68765 C 114.68483,247.2778 112.71899,246.94397 110.78352,246.46637 C 108.80415,246.00836 106.80187,245.66756 104.81901,245.22606 C 102.86103,244.83331 100.93159,244.31097 98.966929,243.94728 C 97.305544,243.54193 95.647733,243.12774 93.958128,242.85208 C 92.365402,242.51308 90.761395,242.22573 89.172829,241.86519 C 87.647532,241.50696 86.114813,241.18163 84.575516,240.88906 C 83.00383,240.52921 81.454793,240.07283 79.899632,239.64856 C 78.589024,239.33818 77.292213,238.98086 75.996798,238.61607 C 74.681544,238.25435 73.346894,237.97854 72.029496,237.62304 C 70.663642,237.35556 69.309256,237.03823 67.94211,236.77721 C 67.109063,236.6569 66.294588,236.39336 65.452466,236.38262 C 64.270083,236.38141 63.087689,236.37898 61.905343,236.36896 C 60.272713,236.3533 58.640226,236.32833 57.007868,236.2945 C 55.592377,236.27569 54.190831,236.38423 52.776411,236.39692 C 51.138149,236.43059 49.498536,236.48488 47.869793,236.67732 C 46.342932,236.85976 44.821473,237.00339 43.28236,237.0229 C 41.743278,237.14731 40.214584,237.35235 38.706465,237.69055 C 37.32484,237.92105 36.0094,238.33699 34.712398,238.86615 C 33.264694,239.40571 31.801063,239.90272 30.360291,240.4619 C 28.89609,241.02301 27.467547,241.6675 26.087389,242.41352 C 24.714245,243.04867 23.365854,243.72558 22.04697,244.46871 C 21.050075,245.02065 20.148253,245.75651 19.078916,246.18102 C 18.104357,246.63708 17.049475,246.85899 16.046594,247.24661 L 16.473191,246.91115 z"
       id="path2398"
       style="opacity:1;fill:#0000ff;fill-opacity:1;stroke:#fdffff;stroke-width:3;stroke-miterlimit:4;stroke-dasharray:none;stroke-opacity:1" />
    <path
       style="opacity:1;fill:#0000ff;fill-opacity:1;stroke:#fdffff;stroke-width:3;stroke-miterlimit:4;stroke-dasharray:none;stroke-opacity:1"
       id="path2400"
       d="M 16.473191,228.78239 C 17.477398,228.40151 18.531306,228.18184 19.500658,227.71635 C 20.58508,227.23127 21.43498,226.59751 22.464636,226.00177 C 23.783352,225.25894 25.133547,224.58766 26.505928,223.95203 C 27.884236,223.20219 29.315219,222.56143 30.780718,222.0036 C 32.221622,221.44259 33.688257,220.95108 35.134891,220.40667 C 36.432665,219.87422 37.750712,219.46556 39.134743,219.2398 C 40.643084,218.89899 42.173537,218.69871 43.713343,218.5757 C 45.252186,218.56189 46.7722,218.4119 48.298385,218.22931 C 49.928207,218.03869 51.568715,217.98666 53.20783,217.95336 C 54.623383,217.93678 56.024561,217.83002 57.441411,217.85169 C 59.07367,217.88796 60.706125,217.91179 62.338714,217.92594 C 63.522356,217.93527 64.706038,217.93611 65.889709,217.93622 C 66.732525,217.9535 67.548193,218.21873 68.383797,218.33703 C 69.749062,218.604 71.10242,218.92264 72.467965,219.18845 C 73.786801,219.5461 75.123112,219.82103 76.44023,220.18297 C 77.734496,220.54668 79.029497,220.90599 80.338934,221.21597 C 81.893488,221.64205 83.442564,222.09893 85.014839,222.45592 C 86.554834,222.74575 88.08704,223.07427 89.61256,223.43218 C 91.200047,223.79616 92.805593,224.07577 94.397163,224.41828 C 96.087099,224.69175 97.743627,225.11085 99.404845,225.5161 C 101.36878,225.8788 103.29664,226.40382 105.25422,226.79404 C 107.23712,227.23713 109.2402,227.57493 111.2193,228.03594 C 113.15485,228.51285 115.12099,228.84453 117.06998,229.25595 C 119.10677,229.70545 121.14415,230.14701 123.19618,230.52397 C 125.64454,230.94149 128.13106,231.0337 130.60901,231.09687 C 132.99858,231.14046 135.38869,231.13481 137.77855,231.13111 C 139.81106,231.14808 141.83516,231.15718 143.85943,230.9654 C 145.85431,230.71846 147.86839,230.73168 149.8666,230.54136 C 151.4683,230.34067 153.07396,230.20786 154.66273,229.92046 C 156.2198,229.56119 157.79928,229.32747 159.36986,229.03773 C 161.08781,228.80011 162.77071,228.41293 164.43704,227.9396 C 166.02487,227.52326 167.6143,227.11602 169.21589,226.75366 C 170.86738,226.33377 172.47948,225.78219 174.10089,225.26254 C 175.6825,224.69186 177.31833,224.30115 178.91986,223.79222 C 180.32134,223.41682 181.63003,222.78333 182.99083,222.2946 C 184.17602,221.84082 185.32575,221.30341 186.50967,220.84633 C 187.5901,220.31179 188.65282,219.76319 189.7714,219.31224 C 190.96957,218.90889 192.19898,218.58833 193.42804,218.28934 C 194.55561,217.96429 195.66009,217.56717 196.78663,217.2402 C 198.14974,216.73358 199.5802,216.52862 201.01988,216.39759 C 202.4884,216.17386 203.95542,215.952 205.43627,215.82886 C 206.51636,215.73719 207.60089,215.73806 208.68393,215.73422 C 210.00404,215.70165 211.30907,215.72322 212.6178,215.89697 C 214.07529,216.09528 215.53835,216.19058 216.99255,216.41333 C 218.7027,216.6263 220.41082,216.85308 222.12229,217.05949 C 224.06875,217.39227 226.00594,217.78829 227.93138,218.22682 C 229.49336,218.49823 230.99319,218.97812 232.49529,219.46745 C 234.11354,220.09186 235.71981,220.74759 237.34182,221.36264 C 238.73504,221.8735 240.06781,222.52745 241.44517,223.07572 C 242.13965,223.37233 242.77363,223.76875 243.42415,224.14613 C 243.97167,224.50294 244.49979,224.88324 245.05509,225.22829 C 245.28579,225.3681 245.51984,225.50253 245.76053,225.62437 C 245.77118,225.63155 245.78368,225.63429 245.79526,225.63924 L 245.33817,225.94353 C 245.32618,225.9376 245.31403,225.93199 245.30219,225.92575 C 245.06287,225.79976 244.82871,225.66425 244.5982,225.52277 C 244.04494,225.1759 243.51614,224.79679 242.96821,224.44198 C 242.32164,224.06396 241.6879,223.67165 240.99656,223.37621 C 239.62362,222.82197 238.29247,222.16936 236.90088,221.65917 C 235.27925,221.04272 233.67179,220.3898 232.05215,219.76854 C 230.55255,219.27895 229.05354,218.8043 227.49498,218.52923 C 225.57035,218.09323 223.63529,217.69381 221.68924,217.36624 C 219.97648,217.15947 218.26619,216.93787 216.5552,216.72106 C 215.10092,216.49957 213.63698,216.40771 212.17995,216.20642 C 210.87212,216.0361 209.56719,216.02007 208.24863,216.05073 C 207.16665,216.05523 206.08335,216.05789 205.00429,216.14826 C 203.5244,216.2729 202.05848,216.49653 200.59017,216.71586 C 199.15079,216.8498 197.72319,217.06406 196.36011,217.569 C 195.2346,217.89976 194.12903,218.29387 193.00047,218.61594 C 191.77328,218.91753 190.54334,219.23268 189.34909,219.64458 C 188.23191,220.09743 187.17244,220.65349 186.08763,221.17748 C 184.90474,221.63791 183.75402,222.17438 182.5673,222.62532 C 181.20897,223.11801 179.89801,223.74316 178.49781,224.11911 C 176.89576,224.62551 175.26063,225.01889 173.67916,225.58942 C 172.05777,226.11006 170.44463,226.6598 168.79198,227.07636 C 167.19098,227.44158 165.60097,227.84695 164.01354,228.26553 C 162.34656,228.73716 160.66189,229.11713 158.94468,229.3586 C 157.37265,229.64596 155.79404,229.88857 154.23503,230.24299 C 152.64662,230.52732 151.04104,230.65853 149.44009,230.85738 C 147.44138,231.04242 145.42771,231.03521 143.43278,231.28154 C 141.40814,231.47062 139.38309,231.45749 137.35058,231.44212 C 134.9614,231.44362 132.57198,231.44956 130.18311,231.40464 C 127.7028,231.341 125.21405,231.24525 122.76358,230.82642 C 120.71057,230.44946 118.67212,230.00828 116.63427,229.55889 C 114.68483,229.14904 112.71899,228.81521 110.78352,228.33761 C 108.80415,227.8796 106.80187,227.5388 104.81901,227.0973 C 102.86103,226.70455 100.93159,226.18221 98.966929,225.81852 C 97.305544,225.41317 95.647733,224.99898 93.958128,224.72332 C 92.365402,224.38432 90.761395,224.09697 89.172829,223.73643 C 87.647532,223.3782 86.114813,223.05287 84.575516,222.7603 C 83.00383,222.40045 81.454793,221.94407 79.899632,221.5198 C 78.589024,221.20942 77.292213,220.8521 75.996798,220.48731 C 74.681544,220.12559 73.346894,219.84978 72.029496,219.49428 C 70.663642,219.2268 69.309256,218.90947 67.94211,218.64845 C 67.109063,218.52814 66.294588,218.2646 65.452466,218.25386 C 64.270083,218.25265 63.087689,218.25022 61.905343,218.2402 C 60.272713,218.22454 58.640226,218.19957 57.007868,218.16574 C 55.592377,218.14693 54.190831,218.25547 52.776411,218.26816 C 51.138149,218.30183 49.498536,218.35612 47.869793,218.54856 C 46.342932,218.731 44.821473,218.87463 43.28236,218.89414 C 41.743278,219.01855 40.214584,219.22359 38.706465,219.56179 C 37.32484,219.79229 36.0094,220.20823 34.712398,220.73739 C 33.264694,221.27695 31.801063,221.77396 30.360291,222.33314 C 28.89609,222.89425 27.467547,223.53874 26.087389,224.28476 C 24.714245,224.91991 23.365854,225.59682 22.04697,226.33995 C 21.050075,226.89189 20.148253,227.62775 19.078916,228.05226 C 18.104357,228.50832 17.049475,228.73023 16.046594,229.11785 L 16.473191,228.78239 z" />
  </g>
</svg>
