<?xml version="1.0" encoding="UTF-8" standalone="no"?>
<!-- Created with Inkscape (http://www.inkscape.org/) -->

<svg
   xmlns:dc="http://purl.org/dc/elements/1.1/"
   xmlns:cc="http://creativecommons.org/ns#"
   xmlns:rdf="http://www.w3.org/1999/02/22-rdf-syntax-ns#"
   xmlns:svg="http://www.w3.org/2000/svg"
   xmlns="http://www.w3.org/2000/svg"
   xmlns:xlink="http://www.w3.org/1999/xlink"
   xmlns:sodipodi="http://sodipodi.sourceforge.net/DTD/sodipodi-0.dtd"
   xmlns:inkscape="http://www.inkscape.org/namespaces/inkscape"
   id="svg2"
   sodipodi:version="0.32"
   inkscape:version="0.47pre4 r22446"
   width="256"
   height="256"
   version="1.0"
   sodipodi:docname="cadega.svg"
   inkscape:output_extension="org.inkscape.output.svg.inkscape">
  <sodipodi:namedview
     inkscape:window-height="718"
     inkscape:window-width="911"
     inkscape:pageshadow="2"
     inkscape:pageopacity="0.0"
     guidetolerance="10.0"
     gridtolerance="10.0"
     objecttolerance="10.0"
     borderopacity="1.0"
     bordercolor="#666666"
     pagecolor="#ffffff"
     id="base"
     width="48px"
     height="48px"
     inkscape:zoom="1.8203125"
     inkscape:cx="128"
     inkscape:cy="128"
     inkscape:window-x="180"
     inkscape:window-y="143"
     inkscape:current-layer="svg2"
     showgrid="false"
     inkscape:window-maximized="0" />
  <metadata
     id="metadata7">
    <rdf:RDF>
      <cc:Work
         rdf:about="">
        <dc:format>image/svg+xml</dc:format>
        <dc:type
           rdf:resource="http://purl.org/dc/dcmitype/StillImage" />
        <dc:title />
      </cc:Work>
    </rdf:RDF>
  </metadata>
  <defs
     id="defs5">
    <linearGradient
       inkscape:collect="always"
       id="linearGradient1242">
      <stop
         style="stop-color:#ffffff;stop-opacity:1;"
         offset="0"
         id="stop1244" />
      <stop
         style="stop-color:#ffffff;stop-opacity:0;"
         offset="1"
         id="stop1246" />
    </linearGradient>
    <mask
       maskUnits="userSpaceOnUse"
       x="122.963"
       y="97.149"
       width="576.609"
       height="587.491"
       id="XMLID_23_">
      <g
         id="g31"
         style="filter:url(#Adobe_OpacityMaskFilter)">
        <radialGradient
           id="XMLID_24_"
           cx="88.977501"
           cy="-20.899401"
           r="673.11609"
           fx="88.977501"
           fy="-20.899401"
           gradientUnits="userSpaceOnUse">
          <stop
             offset="0.309"
             style="stop-color:#FFFFFF"
             id="stop34" />
          <stop
             offset="1"
             style="stop-color:#000000"
             id="stop3816" />
        </radialGradient>
        <ellipse
           sodipodi:ry="349.10599"
           sodipodi:rx="512.93402"
           sodipodi:cy="286.172"
           sodipodi:cx="295.89499"
           cx="295.89499"
           cy="286.172"
           rx="512.93402"
           ry="349.10599"
           id="ellipse38"
           style="fill:url(#XMLID_24_)" />
      </g>
    </mask>
    <radialGradient
       inkscape:collect="always"
       xlink:href="#linearGradient1242"
       id="radialGradient3933"
       gradientUnits="userSpaceOnUse"
       gradientTransform="matrix(0.95257037,0,0,0.95646038,6.02155,5.4548672)"
       cx="-0.45053065"
       cy="125.28513"
       fx="-0.45053065"
       fy="125.28513"
       r="127.40815" />
    <radialGradient
       inkscape:collect="always"
       xlink:href="#linearGradient1242"
       id="radialGradient3935"
       gradientUnits="userSpaceOnUse"
       gradientTransform="matrix(0.95257037,0,0,0.95646038,-247.89368,5.4548672)"
       cx="-0.45053065"
       cy="125.28513"
       fx="-0.45053065"
       fy="125.28513"
       r="127.40815" />
    <radialGradient
       inkscape:collect="always"
       xlink:href="#linearGradient1242"
       id="radialGradient3937"
       gradientUnits="userSpaceOnUse"
       gradientTransform="matrix(0.95257037,0,0,0.95646038,4.3490721,-246.7879)"
       cx="-0.45053065"
       cy="125.28513"
       fx="-0.45053065"
       fy="125.28513"
       r="127.40815" />
    <radialGradient
       inkscape:collect="always"
       xlink:href="#linearGradient1242"
       id="radialGradient3939"
       gradientUnits="userSpaceOnUse"
       gradientTransform="matrix(0.95257037,0,0,0.95646038,-246.22119,-246.7879)"
       cx="-0.45053065"
       cy="125.28513"
       fx="-0.45053065"
       fy="125.28513"
       r="127.40815" />
    <radialGradient
       inkscape:collect="always"
       xlink:href="#linearGradient1242"
       id="radialGradient3941"
       gradientUnits="userSpaceOnUse"
       gradientTransform="matrix(0.95257037,0,0,0.95646038,6.02155,5.4548672)"
       cx="-0.45053065"
       cy="125.28513"
       fx="-0.45053065"
       fy="125.28513"
       r="127.40815" />
    <radialGradient
       inkscape:collect="always"
       xlink:href="#linearGradient1242"
       id="radialGradient3943"
       gradientUnits="userSpaceOnUse"
       gradientTransform="matrix(0.95257037,0,0,0.95646038,-247.89368,5.4548672)"
       cx="-0.45053065"
       cy="125.28513"
       fx="-0.45053065"
       fy="125.28513"
       r="127.40815" />
    <radialGradient
       inkscape:collect="always"
       xlink:href="#linearGradient1242"
       id="radialGradient3945"
       gradientUnits="userSpaceOnUse"
       gradientTransform="matrix(0.95257037,0,0,0.95646038,4.3490721,-246.7879)"
       cx="-0.45053065"
       cy="125.28513"
       fx="-0.45053065"
       fy="125.28513"
       r="127.40815" />
    <radialGradient
       inkscape:collect="always"
       xlink:href="#linearGradient1242"
       id="radialGradient3947"
       gradientUnits="userSpaceOnUse"
       gradientTransform="matrix(0.95257037,0,0,0.95646038,-246.22119,-246.7879)"
       cx="-0.45053065"
       cy="125.28513"
       fx="-0.45053065"
       fy="125.28513"
       r="127.40815" />
    <radialGradient
       inkscape:collect="always"
       xlink:href="#linearGradient7774"
       id="radialGradient9741"
       gradientUnits="userSpaceOnUse"
       gradientTransform="matrix(1,0,0,1.181868,20,-0.818355)"
       cx="14.893086"
       cy="3.5636892"
       fx="14.893086"
       fy="3.5636892"
       r="5.5" />
    <linearGradient
       inkscape:collect="always"
       id="linearGradient7774">
      <stop
         style="stop-color:#ffffff;stop-opacity:1;"
         offset="0"
         id="stop7776" />
      <stop
         style="stop-color:#ffffff;stop-opacity:0;"
         offset="1"
         id="stop7778" />
    </linearGradient>
    <radialGradient
       inkscape:collect="always"
       xlink:href="#linearGradient9686"
       id="radialGradient9743"
       gradientUnits="userSpaceOnUse"
       gradientTransform="matrix(0.741224,0,0,0.856531,-8.40312,3.628545)"
       cx="44.814384"
       cy="20.096273"
       fx="44.814384"
       fy="20.096273"
       r="11.375441" />
    <linearGradient
       id="linearGradient9686">
      <stop
         style="stop-color:#ffffff;stop-opacity:0.74901962;"
         offset="0"
         id="stop9688" />
      <stop
         style="stop-color:#ffffff;stop-opacity:0;"
         offset="1"
         id="stop9690" />
    </linearGradient>
    <radialGradient
       inkscape:collect="always"
       xlink:href="#linearGradient9686"
       id="radialGradient2903"
       gradientUnits="userSpaceOnUse"
       gradientTransform="matrix(0.741224,0,0,0.856531,-8.40312,3.628545)"
       cx="44.814384"
       cy="20.096273"
       fx="44.814384"
       fy="20.096273"
       r="11.375441" />
    <radialGradient
       inkscape:collect="always"
       xlink:href="#linearGradient9686"
       id="radialGradient2906"
       gradientUnits="userSpaceOnUse"
       gradientTransform="matrix(1.93221,-0.70326632,0.81266851,2.2327903,44.292693,63.488977)"
       cx="44.814384"
       cy="20.096273"
       fx="44.814384"
       fy="20.096273"
       r="11.375441" />
  </defs>
  <g
     id="g3916"
     transform="matrix(0.95130219,0,0,0.95130219,6.182558,0.101112)">
    <rect
       ry="41.623531"
       rx="38.038826"
       y="0.67469877"
       x="2.8674698"
       height="249.22089"
       width="248.1803"
       id="rect2380"
       style="fill:#000000;fill-opacity:1;stroke:none" />
    <g
       id="g1282">
      <rect
         ry="39.649345"
         rx="36.234657"
         y="6.5849228"
         x="8.7530165"
         height="237.40044"
         width="236.40919"
         id="rect468"
         style="fill:none;stroke:url(#radialGradient3933);stroke-width:6.32125711;stroke-miterlimit:4;stroke-opacity:1;stroke-dasharray:none" />
      <g
         id="g1270">
        <rect
           transform="scale(-1,1)"
           ry="39.649345"
           rx="36.234657"
           y="6.5849228"
           x="-245.16222"
           height="237.40044"
           width="236.40919"
           id="rect1250"
           style="fill:none;stroke:url(#radialGradient3935);stroke-width:6.32125711;stroke-miterlimit:4;stroke-opacity:1;stroke-dasharray:none" />
        <g
           id="g1262">
          <rect
             transform="matrix(0,1,-1,0,0,0)"
             ry="39.649345"
             rx="36.234657"
             y="-245.65784"
             x="7.0805359"
             height="237.40044"
             width="236.40919"
             id="rect1254"
             style="fill:none;stroke:url(#radialGradient3937);stroke-width:6.32125711;stroke-miterlimit:4;stroke-opacity:1;stroke-dasharray:none" />
          <rect
             style="fill:none;stroke:url(#radialGradient3939);stroke-width:6.32125711;stroke-miterlimit:4;stroke-opacity:1;stroke-dasharray:none"
             id="rect1258"
             width="236.40919"
             height="237.40044"
             x="-243.48973"
             y="-245.65784"
             rx="36.234657"
             ry="39.649345"
             transform="matrix(0,-1,-1,0,0,0)" />
        </g>
      </g>
    </g>
    <g
       transform="matrix(0.93688713,0,0,0.93688713,8.012659,7.9071041)"
       id="g1298">
      <rect
         style="fill:none;stroke:url(#radialGradient3941);stroke-width:6.32125711;stroke-miterlimit:4;stroke-opacity:1;stroke-dasharray:none"
         id="rect1300"
         width="236.40919"
         height="237.40044"
         x="8.7530165"
         y="6.5849228"
         rx="36.234657"
         ry="39.649345" />
      <g
         id="g1302">
        <rect
           style="fill:none;stroke:url(#radialGradient3943);stroke-width:6.32125711;stroke-miterlimit:4;stroke-opacity:1;stroke-dasharray:none"
           id="rect1304"
           width="236.40919"
           height="237.40044"
           x="-245.16222"
           y="6.5849228"
           rx="36.234657"
           ry="39.649345"
           transform="scale(-1,1)" />
        <g
           id="g1306">
          <rect
             style="fill:none;stroke:url(#radialGradient3945);stroke-width:6.32125711;stroke-miterlimit:4;stroke-opacity:1;stroke-dasharray:none"
             id="rect1308"
             width="236.40919"
             height="237.40044"
             x="7.0805359"
             y="-245.65784"
             rx="36.234657"
             ry="39.649345"
             transform="matrix(0,1,-1,0,0,0)" />
          <rect
             transform="matrix(0,-1,-1,0,0,0)"
             ry="39.649345"
             rx="36.234657"
             y="-245.65784"
             x="-243.48973"
             height="237.40044"
             width="236.40919"
             id="rect1310"
             style="fill:none;stroke:url(#radialGradient3947);stroke-width:6.32125711;stroke-miterlimit:4;stroke-opacity:1;stroke-dasharray:none" />
        </g>
      </g>
    </g>
  </g>
  <g
     id="g7786"
     transform="matrix(2.6067828,-0.94879054,0.94879054,2.6067828,10.619417,65.033159)">
    <path
       sodipodi:type="arc"
       style="fill:#92cf44;fill-opacity:1;fill-rule:nonzero;stroke:none"
       id="path7763"
       sodipodi:cx="24.336786"
       sodipodi:cy="4.0272045"
       sodipodi:rx="6.7795334"
       sodipodi:ry="6.7795334"
       d="m 31.11632,4.0272045 c 0,3.7442329 -3.035301,6.7795335 -6.779534,6.7795335 -3.744233,0 -6.779533,-3.0353006 -6.779533,-6.7795335 0,-3.74423289 3.0353,-6.7795334 6.779533,-6.7795334 3.744233,0 6.779534,3.03530051 6.779534,6.7795334 z"
       transform="matrix(1.327525,0,0,1.327525,-2.30769,0.653785)" />
    <path
       style="fill:url(#radialGradient9741);fill-opacity:1;fill-rule:nonzero;stroke:none"
       d="M 34.09375,-2 C 30.699935,-1.7846653 28,1.0521567 28,4.5 c 0,3.5879997 2.912,6.5 6.5,6.5 1.338492,0 2.590739,-0.39934 3.625,-1.09375 0.0047,-0.00984 -0.0047,-0.021394 0,-0.03125 C 38.685118,8.7021842 39,7.3856063 39,6 c 0,-3.4698375 -1.964843,-6.49818479 -4.84375,-8 -0.02768,0.0014 -0.03491,-0.00175 -0.0625,0 z"
       id="path7782" />
  </g>
  <path
     id="path8810"
     d="m 119.64305,68.526503 4.655,12.789528 L 93.016661,92.701517 88.598855,80.563685 C 69.019518,94.638091 58.45423,118.51126 61.361478,142.60053 l 12.545142,-4.56605 11.385487,31.28139 -11.811985,4.29921 c 14.064087,19.51316 37.822948,30.08547 61.844278,27.21521 l -4.65501,-12.78952 31.2814,-11.38549 4.38815,12.05637 c 19.53813,-14.04486 30.06951,-37.80421 27.21522,-61.84428 l -26.31222,9.57686 c -0.7094,15.57766 -10.60303,29.96694 -26.149,35.62521 -20.62057,7.50527 -43.49499,-3.16126 -51.000256,-23.78183 -7.446634,-20.45946 2.988742,-43.13926 23.293056,-50.822354 0.15986,-0.06049 0.32767,-0.119263 0.48877,-0.177898 13.4517,-4.896013 27.86721,-2.041649 38.34491,6.247132 L 179.83503,93.483243 C 165.60526,75.404534 142.73777,65.762495 119.64305,68.526503 z"
     style="fill:#3c77ba;fill-opacity:1;fill-rule:nonzero;stroke:none"
     sodipodi:nodetypes="ccccccccccccccssssccc" />
  <path
     id="path9694"
     d="m 119.64305,68.526503 4.655,12.789528 -14.09292,5.129399 c 0.2955,1.015123 0.64817,2.034291 1.01558,3.043742 0.96184,2.642631 2.12356,5.134695 3.46842,7.501689 13.22405,-4.504418 27.25723,-1.583263 37.53029,6.543629 l 27.61561,-10.051247 c -0.0165,-0.02114 -0.0131,-0.06025 -0.0296,-0.08146 -0.12622,-0.159674 -0.2429,-0.352586 -0.37047,-0.510934 -0.0394,-0.04896 -0.10126,-0.08442 -0.14077,-0.133274 -0.26245,-0.324147 -0.5247,-0.592241 -0.79275,-0.910757 -0.0577,-0.06855 -0.1125,-0.146456 -0.17041,-0.214736 -0.0487,-0.0575 -0.12143,-0.157462 -0.17041,-0.214737 -0.0407,-0.04764 -0.0999,-0.08579 -0.14076,-0.133274 -0.0838,-0.09748 -0.11578,-0.199257 -0.20007,-0.296198 -0.0782,-0.08999 -0.20285,-0.17701 -0.28152,-0.266548 -0.27143,-0.308501 -0.51607,-0.607861 -0.79275,-0.910757 -0.0642,-0.07031 -0.18743,-0.11508 -0.25188,-0.185087 -0.0335,-0.03618 -0.0258,-0.126771 -0.0593,-0.162924 -0.0606,-0.06549 -0.10959,-0.149518 -0.17041,-0.214736 -0.0874,-0.09366 -0.19364,-0.173452 -0.28152,-0.266548 -0.0935,-0.09916 -0.18744,-0.168006 -0.28152,-0.266549 -0.0266,-0.02774 -0.0846,-0.0241 -0.11111,-0.05181 -0.13967,-0.145748 -0.22957,-0.366562 -0.37048,-0.510934 -0.11615,-0.118879 -0.27564,-0.200428 -0.39263,-0.318361 -0.0734,-0.07412 -0.0967,-0.140981 -0.17041,-0.214736 -0.0451,-0.0452 -0.0955,-0.08824 -0.14076,-0.133275 -0.0421,-0.04178 -0.0986,-0.0916 -0.14076,-0.133274 -0.0908,-0.08975 -0.19023,-0.177354 -0.28153,-0.266548 -0.0971,-0.09505 -0.18384,-0.17215 -0.28152,-0.266549 -0.0274,-0.02663 -0.0835,-0.02527 -0.11111,-0.05181 -0.064,-0.06159 -0.1062,-0.153411 -0.17041,-0.214736 -0.0646,-0.06167 -0.10562,-0.153357 -0.17041,-0.214736 -0.0302,-0.02876 -0.0808,-0.02316 -0.11112,-0.05181 -0.0927,-0.0875 -0.18832,-0.179609 -0.28152,-0.266548 -0.0865,-0.08066 -0.19463,-0.186378 -0.28152,-0.266548 -0.18731,-0.172748 -0.34424,-0.281184 -0.5334,-0.451635 -0.28243,-0.255022 -0.55809,-0.549755 -0.84457,-0.799646 -0.24723,-0.215657 -0.53507,-0.424911 -0.78526,-0.636721 -0.0317,-0.02694 -0.0793,-0.02499 -0.11112,-0.05181 -0.0973,-0.08177 -0.1838,-0.185358 -0.28152,-0.266549 -0.10392,-0.08655 -0.17713,-0.180643 -0.28152,-0.266548 -0.0295,-0.02417 -0.0816,-0.02768 -0.11111,-0.05181 -0.0724,-0.05933 -0.0978,-0.155729 -0.17041,-0.214737 -0.0552,-0.04479 -0.1669,-0.05899 -0.22223,-0.103624 -0.0458,-0.03698 -0.0948,-0.09642 -0.14076,-0.133274 -0.39603,-0.317713 -0.74548,-0.565337 -1.14825,-0.873621 -0.10707,-0.08222 -0.17401,-0.185028 -0.28152,-0.266548 -0.0282,-0.02145 -0.0828,-0.03045 -0.11112,-0.05181 -0.0538,-0.04066 -0.0868,-0.09277 -0.14076,-0.133274 -0.0908,-0.06809 -0.16075,-0.117468 -0.25187,-0.185087 -0.0311,-0.02306 -0.08,-0.02877 -0.11111,-0.05181 -0.10192,-0.07529 -0.26064,-0.162206 -0.36299,-0.236899 -0.19682,-0.143809 -0.33508,-0.310041 -0.53339,-0.451635 -0.12376,-0.08818 -0.2683,-0.231035 -0.39264,-0.318361 -0.095,-0.06672 -0.23805,-0.08921 -0.33333,-0.155436 -0.0681,-0.04731 -0.15397,-0.05658 -0.22223,-0.103625 -0.22587,-0.15552 -0.41682,-0.350756 -0.6445,-0.503447 -0.23649,-0.158864 -0.48756,-0.318041 -0.72597,-0.473797 -0.0466,-0.03039 -0.0941,-0.103001 -0.14076,-0.133275 -0.0325,-0.02102 -0.0787,-0.03082 -0.11112,-0.05181 -0.12746,-0.08238 -0.23498,-0.155395 -0.36298,-0.236899 -0.0832,-0.0531 -0.16842,-0.13236 -0.25187,-0.185086 -0.0713,-0.04496 -0.15077,-0.05896 -0.22223,-0.103625 -0.0351,-0.02195 -0.076,-0.02988 -0.11111,-0.05181 -0.10732,-0.0668 -0.25529,-0.170706 -0.36298,-0.236899 -0.1436,-0.08826 -0.21877,-0.149756 -0.36299,-0.236898 -0.0661,-0.03999 -0.156,-0.06387 -0.22222,-0.103625 -0.0781,-0.04675 -0.17363,-0.138642 -0.25187,-0.185086 -0.0332,-0.01973 -0.0779,-0.03214 -0.11112,-0.05181 -0.12617,-0.07461 -0.23634,-0.163106 -0.36298,-0.236898 -0.11389,-0.06651 -0.21905,-0.08964 -0.33334,-0.155437 -0.0421,-0.02426 -0.069,-0.02765 -0.11111,-0.05181 -0.0521,-0.02987 -0.0886,-0.103555 -0.14076,-0.133275 -0.10982,-0.06247 -0.22318,-0.09359 -0.33333,-0.155436 -0.11959,-0.0673 -0.24302,-0.170331 -0.36299,-0.236899 -0.0369,-0.02036 -0.0743,-0.03149 -0.11111,-0.05181 -0.0769,-0.0425 -0.14513,-0.06142 -0.22222,-0.103625 -0.0739,-0.04039 -0.14821,-0.06352 -0.22223,-0.103624 -0.0339,-0.01841 -0.0772,-0.03347 -0.11111,-0.05181 -0.42613,-0.22979 -0.85059,-0.51238 -1.28153,-0.732858 -0.0196,-0.01 -0.0619,0.03965 -0.0815,0.02965 -0.13122,-0.06699 -0.23134,-0.170772 -0.36298,-0.236899 -0.20688,-0.103894 -0.45874,-0.209135 -0.66667,-0.310873 -0.26464,-0.129486 -0.51147,-0.236697 -0.77778,-0.362686 -0.0697,-0.03299 -0.15239,-0.07089 -0.22223,-0.103624 -0.0953,-0.04465 -0.15638,-0.140904 -0.25187,-0.185087 -0.0199,-0.0093 -0.0615,0.03892 -0.0815,0.02965 -0.13374,-0.06173 -0.22884,-0.176054 -0.36299,-0.236899 -0.0897,-0.04075 -0.21374,-0.03361 -0.30368,-0.07397 -0.0768,-0.03442 -0.14527,-0.06949 -0.22223,-0.103624 -0.0401,-0.01783 -0.0709,-0.03405 -0.11111,-0.05181 -0.11553,-0.05097 -0.21751,-0.105131 -0.33333,-0.155437 -0.12575,-0.05472 -0.28871,-0.07184 -0.4148,-0.125787 -0.21284,-0.09107 -0.37143,-0.251655 -0.58521,-0.340524 -0.0198,-0.0081 -0.0617,0.03781 -0.0815,0.02965 -0.15555,-0.06448 -0.2884,-0.143922 -0.44445,-0.207249 -0.0814,-0.03314 -0.14072,-0.07079 -0.22222,-0.103624 -0.0656,-0.02635 -0.1565,-0.07748 -0.22222,-0.103625 -0.0558,-0.02221 -0.13676,-1.16e-4 -0.19258,-0.02216 -0.11749,-0.04639 -0.21558,-0.109703 -0.33333,-0.155436 -0.12285,-0.04781 -0.21019,-0.108359 -0.33334,-0.155437 -0.0354,-0.0134 -0.0757,-0.03834 -0.11111,-0.05181 -0.18109,-0.0688 -0.34421,-0.110354 -0.52591,-0.1776 -0.0201,-0.0074 -0.0614,0.0371 -0.0815,0.02965 -0.15172,-0.05599 -0.2923,-0.152363 -0.44445,-0.207249 -0.10333,-0.03743 -0.20015,-0.03706 -0.30368,-0.07398 -0.0595,-0.0212 -0.0812,-0.112243 -0.14076,-0.133274 -0.0634,-0.02238 -0.12911,5.2e-5 -0.19258,-0.02216 -0.11928,-0.04175 -0.18414,-0.03291 -0.30368,-0.07397 -0.12979,-0.04472 -0.28472,-0.08188 -0.4148,-0.125787 -0.04,-0.0135 -0.0712,-0.03842 -0.11111,-0.05181 -0.0834,-0.02798 -0.13871,-0.07598 -0.22222,-0.103624 -0.0672,-0.02223 -0.15493,-0.08159 -0.22223,-0.103625 -0.0571,-0.01866 -0.13541,-0.0036 -0.19257,-0.02216 -0.24053,-0.0781 -0.47702,-0.124382 -0.71848,-0.199762 -0.0402,-0.01252 -0.0709,-0.03934 -0.11111,-0.05181 -0.0738,-0.02285 -0.14832,-0.08105 -0.22223,-0.103625 -0.0968,-0.02961 -0.20677,-0.0448 -0.30368,-0.07398 -0.0205,-0.0061 -0.0609,0.03575 -0.0815,0.02965 -0.15754,-0.04723 -0.28654,-0.161165 -0.44445,-0.207249 -0.0895,-0.02615 -0.18444,0.03327 -0.27404,0.0075 -0.0811,-0.0233 -0.14105,-0.08062 -0.22222,-0.103624 -0.0372,-0.01055 -0.0739,-0.04133 -0.11111,-0.05181 -0.12185,-0.03427 -0.29275,-0.09219 -0.4148,-0.125787 -0.10491,-0.02886 -0.19863,-0.04561 -0.30368,-0.07398 -0.0538,-0.01448 -0.13873,-0.0078 -0.19258,-0.02216 -0.0747,-0.01994 -0.1474,-0.08395 -0.22222,-0.103625 -0.098,-0.02577 -0.20558,-0.04863 -0.30369,-0.07397 -0.0251,-0.0065 -0.0563,0.03615 -0.0815,0.02965 -0.0613,-0.01576 -0.0794,-0.11768 -0.14076,-0.133274 -0.0653,-0.01661 -0.1272,-0.0057 -0.19257,-0.02216 -0.0246,-0.0061 -0.0569,0.03576 -0.0815,0.02965 -0.0584,-0.01458 -0.13412,-0.0077 -0.19257,-0.02216 -0.13155,-0.03245 -0.20157,-0.123776 -0.33333,-0.155437 -0.0253,-0.0062 -0.0562,0.0358 -0.0815,0.02965 -0.12328,-0.02946 -0.29132,-0.09704 -0.41479,-0.125788 -0.13139,-0.03062 -0.25355,-0.01449 -0.38515,-0.04433 -0.0346,-0.0078 -0.0765,-0.04402 -0.11111,-0.05181 -0.0966,-0.02169 -0.20697,-0.0527 -0.30369,-0.07398 -0.0953,-0.02106 -0.12685,-0.08298 -0.22222,-0.103624 -0.0253,-0.0055 -0.056,0.03516 -0.0815,0.02965 -0.24808,-0.05333 -0.55116,-0.119592 -0.79995,-0.170112 -0.0765,-0.01554 -0.11595,-0.0069 -0.19257,-0.02216 -0.0408,-0.0082 -0.0703,-0.04375 -0.11111,-0.05181 -0.12458,-0.02456 -0.26042,-0.02047 -0.38515,-0.04433 -0.13273,-0.0254 -0.25221,-0.01973 -0.38515,-0.04433 -0.035,-0.0065 -0.0761,-0.04539 -0.11111,-0.05181 -0.10741,-0.01968 -0.19614,-0.05484 -0.30368,-0.07397 -0.0625,-0.01122 -0.12999,-0.01111 -0.19258,-0.02216 -0.0581,-0.01016 -0.13447,-0.01217 -0.19257,-0.02216 -0.15028,-0.02607 -0.23463,-0.01929 -0.38515,-0.04433 -0.1078,-0.01798 -0.19576,-0.05655 -0.30368,-0.07398 -0.0628,-0.01016 -0.12976,-0.0122 -0.19258,-0.02216 -0.0668,-0.01059 -0.12567,-0.01177 -0.19257,-0.02216 -0.10056,-0.01568 -0.20303,-0.05874 -0.30369,-0.07398 -0.0234,-0.0036 -0.0581,0.03324 -0.0815,0.02965 -0.1611,-0.02417 -0.33491,-0.07315 -0.49626,-0.09614 -0.10836,-0.01538 -0.19521,-0.05911 -0.30368,-0.07398 -0.0631,-0.0087 -0.12946,-0.01364 -0.19258,-0.02216 -0.0586,-0.0079 -0.13397,-0.01447 -0.19257,-0.02216 -0.1263,-0.01673 -0.2587,-0.02832 -0.38515,-0.04433 -0.10871,-0.01366 -0.19487,-0.06085 -0.30368,-0.07397 -0.0633,-0.0076 -0.12926,-0.01471 -0.19258,-0.02216 -0.0617,-0.0072 -0.13086,-0.01507 -0.19257,-0.02216 -0.22354,-0.02565 -0.43524,-0.01346 -0.65918,-0.03684 -0.026,-0.0026 -0.0555,0.0323 -0.0815,0.02965 -0.0381,-0.0039 -0.073,-0.04794 -0.11112,-0.05181 -0.0825,-0.0084 -0.19149,0.01553 -0.27403,0.0075 -0.10167,-0.0099 -0.20195,-0.06454 -0.30369,-0.07398 -0.0305,-0.0028 -0.051,0.03242 -0.0815,0.02965 -0.1272,-0.01165 -0.25783,-0.03339 -0.38515,-0.04433 -0.11814,-0.01005 -0.26688,-0.03491 -0.38514,-0.04433 -0.0637,-0.0051 -0.12883,-0.01726 -0.19258,-0.02216 -0.0591,-0.0045 -0.13341,-0.01778 -0.19257,-0.02216 -0.12755,-0.0095 -0.25748,-0.03559 -0.38515,-0.04433 -0.13477,-0.0093 -0.2206,0.0456 -0.3555,0.03714 -0.0309,-0.002 -0.0802,-0.04994 -0.11111,-0.05181 -0.11561,-0.007 -0.2398,0.04356 -0.35549,0.03714 -0.0639,-0.0036 -0.12862,-0.01872 -0.19258,-0.02216 -0.0594,-0.0032 -0.13318,-0.01919 -0.19257,-0.02216 -0.12798,-0.0065 -0.25709,-0.03857 -0.38515,-0.04433 -0.13524,-0.006 -0.22014,0.04234 -0.3555,0.03714 -0.0385,-0.0016 -0.0726,-0.05037 -0.11111,-0.05181 -0.0892,-0.0032 -0.18478,0.01037 -0.27403,0.0075 -0.0898,-0.003 -0.18422,0.01013 -0.27404,0.0075 -0.0357,-8.85e-4 -0.0754,-0.05086 -0.11111,-0.05181 -0.0679,-0.0018 -0.1246,-0.02048 -0.19257,-0.02216 -0.0477,-0.0012 -0.11529,0.06026 -0.16293,0.0593 -0.0385,-7.47e-4 -0.0726,-0.05105 -0.11111,-0.05181 -0.0894,-0.0018 -0.1846,0.0089 -0.27404,0.0075 -0.0983,-0.0016 -0.17569,0.0086 -0.27403,0.0075 -0.0308,-2.9e-4 -0.0506,0.02994 -0.0815,0.02965 -0.10641,-0.0011 -0.27867,-0.04376 -0.38515,-0.04433 -0.0268,3.2e-5 -0.0546,0.02963 -0.0815,0.02965 -0.0643,-2.09e-4 -0.12821,-0.02206 -0.19258,-0.02216 -0.0627,9e-5 -0.12985,-0.02235 -0.19257,-0.02216 -0.0303,9.9e-5 -0.0512,0.02955 -0.0815,0.02965 -0.0896,3.87e-4 -0.18439,0.0067 -0.27404,0.0075 -0.0902,6.73e-4 -0.18384,0.0065 -0.27403,0.0075 -0.0359,3.75e-4 -0.0752,-0.05233 -0.11111,-0.05181 -0.15366,0.002 -0.28321,0.0637 -0.43696,0.06679 -0.11668,0.0024 -0.23875,0.03411 -0.3555,0.03714 -0.0645,0.0016 -0.12804,-0.02395 -0.19258,-0.02216 -0.0628,0.0019 -0.12968,-0.02415 -0.19257,-0.02216 -0.12907,0.004 -0.22638,0.03242 -0.3555,0.03714 -0.12584,0.0046 -0.25927,-0.04969 -0.38514,-0.04433 -0.0497,0.0021 -0.1132,0.05714 -0.16293,0.0593 -0.0899,0.0041 -0.18407,0.0031 -0.27403,0.0075 -0.0988,0.0048 -0.17518,0.0023 -0.27404,0.0075 -0.0269,0.0015 -0.0545,0.0281 -0.0815,0.02965 -0.0647,0.0035 -0.12794,-0.02585 -0.19257,-0.02216 -0.063,0.0037 -0.12958,-0.02596 -0.19258,-0.02216 -0.0249,0.0014 -0.0566,0.028 -0.0815,0.02965 -0.11703,0.0072 -0.23843,0.0293 -0.3555,0.03714 -0.0685,0.0045 -0.12409,-0.02689 -0.19257,-0.02216 -0.0584,0.0041 -0.10448,0.05515 -0.16293,0.0593 -0.12939,0.0093 -0.22608,0.02706 -0.35549,0.03714 -0.14416,0.01126 -0.29277,0.05457 -0.43696,0.06679 -0.0389,0.0032 -0.0723,-0.05515 -0.11111,-0.05181 -0.0926,0.008 -0.18147,-9.04e-4 -0.27404,0.0075 -0.12377,0.01122 -0.23172,0.02521 -0.3555,0.03714 -0.12951,0.01239 -0.30743,0.05362 -0.43696,0.06679 -0.11723,0.01208 -0.23826,0.02443 -0.35549,0.03714 -0.0686,0.0073 -0.12399,-0.02977 -0.19258,-0.02216 -0.0585,0.0065 -0.10437,0.05275 -0.16292,0.0593 -0.10469,0.01183 -0.25085,0.02473 -0.3555,0.03714 z"
     style="fill:url(#radialGradient2906);fill-opacity:1;fill-rule:nonzero;stroke:none" />
</svg>
