<?xml version="1.0" encoding="UTF-8" standalone="no"?>
<!-- Created with Inkscape (http://www.inkscape.org/) -->

<svg
   xmlns:dc="http://purl.org/dc/elements/1.1/"
   xmlns:cc="http://creativecommons.org/ns#"
   xmlns:rdf="http://www.w3.org/1999/02/22-rdf-syntax-ns#"
   xmlns:svg="http://www.w3.org/2000/svg"
   xmlns="http://www.w3.org/2000/svg"
   xmlns:xlink="http://www.w3.org/1999/xlink"
   xmlns:sodipodi="http://sodipodi.sourceforge.net/DTD/sodipodi-0.dtd"
   xmlns:inkscape="http://www.inkscape.org/namespaces/inkscape"
   id="svg2"
   sodipodi:version="0.32"
   inkscape:version="0.47pre0 r21549"
   width="256"
   height="256"
   version="1.0"
   sodipodi:docname="firefox-3.0.svg"
   inkscape:output_extension="org.inkscape.output.svg.inkscape">
  <sodipodi:namedview
     inkscape:window-height="718"
     inkscape:window-width="911"
     inkscape:pageshadow="2"
     inkscape:pageopacity="0.0"
     guidetolerance="10.0"
     gridtolerance="10.0"
     objecttolerance="10.0"
     borderopacity="1.0"
     bordercolor="#666666"
     pagecolor="#ffffff"
     id="base"
     width="48px"
     height="48px"
     inkscape:zoom="1.8203125"
     inkscape:cx="128"
     inkscape:cy="128"
     inkscape:window-x="180"
     inkscape:window-y="143"
     inkscape:current-layer="svg2"
     showgrid="false" />
  <metadata
     id="metadata7">
    <rdf:RDF>
      <cc:Work
         rdf:about="">
        <dc:format>image/svg+xml</dc:format>
        <dc:type
           rdf:resource="http://purl.org/dc/dcmitype/StillImage" />
        <dc:title />
      </cc:Work>
    </rdf:RDF>
  </metadata>
  <defs
     id="defs5">
    <linearGradient
       inkscape:collect="always"
       id="linearGradient1242">
      <stop
         style="stop-color:#ffffff;stop-opacity:1;"
         offset="0"
         id="stop1244" />
      <stop
         style="stop-color:#ffffff;stop-opacity:0;"
         offset="1"
         id="stop1246" />
    </linearGradient>
    <mask
       maskUnits="userSpaceOnUse"
       x="122.963"
       y="97.149"
       width="576.609"
       height="587.491"
       id="XMLID_23_">
      <g
         id="g31"
         style="filter:url(#Adobe_OpacityMaskFilter)">
        <radialGradient
           id="XMLID_24_"
           cx="88.977501"
           cy="-20.899401"
           r="673.11609"
           fx="88.977501"
           fy="-20.899401"
           gradientUnits="userSpaceOnUse">
          <stop
             offset="0.309"
             style="stop-color:#FFFFFF"
             id="stop34" />
          <stop
             offset="1"
             style="stop-color:#000000"
             id="stop3816" />
        </radialGradient>
        <ellipse
           sodipodi:ry="349.10599"
           sodipodi:rx="512.93402"
           sodipodi:cy="286.172"
           sodipodi:cx="295.89499"
           cx="295.89499"
           cy="286.172"
           rx="512.93402"
           ry="349.10599"
           id="ellipse38"
           style="fill:url(#XMLID_24_)" />
      </g>
    </mask>
    <radialGradient
       inkscape:collect="always"
       xlink:href="#linearGradient1242"
       id="radialGradient3933"
       gradientUnits="userSpaceOnUse"
       gradientTransform="matrix(0.95257037,0,0,0.95646038,6.02155,5.4548672)"
       cx="-0.45053065"
       cy="125.28513"
       fx="-0.45053065"
       fy="125.28513"
       r="127.40815" />
    <radialGradient
       inkscape:collect="always"
       xlink:href="#linearGradient1242"
       id="radialGradient3935"
       gradientUnits="userSpaceOnUse"
       gradientTransform="matrix(0.95257037,0,0,0.95646038,-247.89368,5.4548672)"
       cx="-0.45053065"
       cy="125.28513"
       fx="-0.45053065"
       fy="125.28513"
       r="127.40815" />
    <radialGradient
       inkscape:collect="always"
       xlink:href="#linearGradient1242"
       id="radialGradient3937"
       gradientUnits="userSpaceOnUse"
       gradientTransform="matrix(0.95257037,0,0,0.95646038,4.3490721,-246.7879)"
       cx="-0.45053065"
       cy="125.28513"
       fx="-0.45053065"
       fy="125.28513"
       r="127.40815" />
    <radialGradient
       inkscape:collect="always"
       xlink:href="#linearGradient1242"
       id="radialGradient3939"
       gradientUnits="userSpaceOnUse"
       gradientTransform="matrix(0.95257037,0,0,0.95646038,-246.22119,-246.7879)"
       cx="-0.45053065"
       cy="125.28513"
       fx="-0.45053065"
       fy="125.28513"
       r="127.40815" />
    <radialGradient
       inkscape:collect="always"
       xlink:href="#linearGradient1242"
       id="radialGradient3941"
       gradientUnits="userSpaceOnUse"
       gradientTransform="matrix(0.95257037,0,0,0.95646038,6.02155,5.4548672)"
       cx="-0.45053065"
       cy="125.28513"
       fx="-0.45053065"
       fy="125.28513"
       r="127.40815" />
    <radialGradient
       inkscape:collect="always"
       xlink:href="#linearGradient1242"
       id="radialGradient3943"
       gradientUnits="userSpaceOnUse"
       gradientTransform="matrix(0.95257037,0,0,0.95646038,-247.89368,5.4548672)"
       cx="-0.45053065"
       cy="125.28513"
       fx="-0.45053065"
       fy="125.28513"
       r="127.40815" />
    <radialGradient
       inkscape:collect="always"
       xlink:href="#linearGradient1242"
       id="radialGradient3945"
       gradientUnits="userSpaceOnUse"
       gradientTransform="matrix(0.95257037,0,0,0.95646038,4.3490721,-246.7879)"
       cx="-0.45053065"
       cy="125.28513"
       fx="-0.45053065"
       fy="125.28513"
       r="127.40815" />
    <radialGradient
       inkscape:collect="always"
       xlink:href="#linearGradient1242"
       id="radialGradient3947"
       gradientUnits="userSpaceOnUse"
       gradientTransform="matrix(0.95257037,0,0,0.95646038,-246.22119,-246.7879)"
       cx="-0.45053065"
       cy="125.28513"
       fx="-0.45053065"
       fy="125.28513"
       r="127.40815" />
    <radialGradient
       inkscape:collect="always"
       xlink:href="#linearGradient3244"
       id="radialGradient17296"
       gradientUnits="userSpaceOnUse"
       gradientTransform="matrix(-1.3155658,0.25838577,-0.2707777,-1.3786589,1893.2336,1014.0029)"
       cx="215.88316"
       cy="400.11893"
       fx="215.88316"
       fy="400.11893"
       r="347.04944" />
    <linearGradient
       inkscape:collect="always"
       id="linearGradient3244">
      <stop
         style="stop-color:#f73924;stop-opacity:1;"
         offset="0"
         id="stop3246" />
      <stop
         style="stop-color:#f73924;stop-opacity:0;"
         offset="1"
         id="stop3248" />
    </linearGradient>
    <linearGradient
       inkscape:collect="always"
       xlink:href="#linearGradient3254"
       id="linearGradient17298"
       gradientUnits="userSpaceOnUse"
       x1="414.02133"
       y1="27.532812"
       x2="389.64221"
       y2="593.24713" />
    <linearGradient
       inkscape:collect="always"
       id="linearGradient3254">
      <stop
         style="stop-color:#fffd00;stop-opacity:1;"
         offset="0"
         id="stop3256" />
      <stop
         style="stop-color:#fffd00;stop-opacity:0;"
         offset="1"
         id="stop3258" />
    </linearGradient>
    <filter
       inkscape:collect="always"
       id="filter3410">
      <feGaussianBlur
         inkscape:collect="always"
         stdDeviation="6.2623725"
         id="feGaussianBlur3412" />
    </filter>
    <linearGradient
       inkscape:collect="always"
       xlink:href="#linearGradient3432"
       id="linearGradient17300"
       gradientUnits="userSpaceOnUse"
       gradientTransform="matrix(0.62470127,0,0,0.62382726,1247.3984,345.83038)"
       x1="438.63504"
       y1="161.81172"
       x2="415.89233"
       y2="732.50494" />
    <linearGradient
       inkscape:collect="always"
       id="linearGradient3432">
      <stop
         style="stop-color:#fef4f4;stop-opacity:1;"
         offset="0"
         id="stop3434" />
      <stop
         style="stop-color:#fef4f4;stop-opacity:0;"
         offset="1"
         id="stop3436" />
    </linearGradient>
    <filter
       inkscape:collect="always"
       id="filter3997"
       x="-0.29494259"
       width="1.5898852"
       y="-0.28522035"
       height="1.5704406">
      <feGaussianBlur
         inkscape:collect="always"
         stdDeviation="8.9388823"
         id="feGaussianBlur3999" />
    </filter>
  </defs>
  <g
     id="g3916"
     transform="matrix(0.95130219,0,0,0.95130219,6.182558,0.101112)">
    <rect
       ry="41.623531"
       rx="38.038826"
       y="0.67469877"
       x="2.8674698"
       height="249.22089"
       width="248.1803"
       id="rect2380"
       style="fill:#000000;fill-opacity:1;stroke:none" />
    <g
       id="g1282">
      <rect
         ry="39.649345"
         rx="36.234657"
         y="6.5849228"
         x="8.7530165"
         height="237.40044"
         width="236.40919"
         id="rect468"
         style="fill:none;stroke:url(#radialGradient3933);stroke-width:6.32125711;stroke-miterlimit:4;stroke-opacity:1;stroke-dasharray:none" />
      <g
         id="g1270">
        <rect
           transform="scale(-1,1)"
           ry="39.649345"
           rx="36.234657"
           y="6.5849228"
           x="-245.16222"
           height="237.40044"
           width="236.40919"
           id="rect1250"
           style="fill:none;stroke:url(#radialGradient3935);stroke-width:6.32125711;stroke-miterlimit:4;stroke-opacity:1;stroke-dasharray:none" />
        <g
           id="g1262">
          <rect
             transform="matrix(0,1,-1,0,0,0)"
             ry="39.649345"
             rx="36.234657"
             y="-245.65784"
             x="7.0805359"
             height="237.40044"
             width="236.40919"
             id="rect1254"
             style="fill:none;stroke:url(#radialGradient3937);stroke-width:6.32125711;stroke-miterlimit:4;stroke-opacity:1;stroke-dasharray:none" />
          <rect
             style="fill:none;stroke:url(#radialGradient3939);stroke-width:6.32125711;stroke-miterlimit:4;stroke-opacity:1;stroke-dasharray:none"
             id="rect1258"
             width="236.40919"
             height="237.40044"
             x="-243.48973"
             y="-245.65784"
             rx="36.234657"
             ry="39.649345"
             transform="matrix(0,-1,-1,0,0,0)" />
        </g>
      </g>
    </g>
    <g
       transform="matrix(0.93688713,0,0,0.93688713,8.012659,7.9071041)"
       id="g1298">
      <rect
         style="fill:none;stroke:url(#radialGradient3941);stroke-width:6.32125711;stroke-miterlimit:4;stroke-opacity:1;stroke-dasharray:none"
         id="rect1300"
         width="236.40919"
         height="237.40044"
         x="8.7530165"
         y="6.5849228"
         rx="36.234657"
         ry="39.649345" />
      <g
         id="g1302">
        <rect
           style="fill:none;stroke:url(#radialGradient3943);stroke-width:6.32125711;stroke-miterlimit:4;stroke-opacity:1;stroke-dasharray:none"
           id="rect1304"
           width="236.40919"
           height="237.40044"
           x="-245.16222"
           y="6.5849228"
           rx="36.234657"
           ry="39.649345"
           transform="scale(-1,1)" />
        <g
           id="g1306">
          <rect
             style="fill:none;stroke:url(#radialGradient3945);stroke-width:6.32125711;stroke-miterlimit:4;stroke-opacity:1;stroke-dasharray:none"
             id="rect1308"
             width="236.40919"
             height="237.40044"
             x="7.0805359"
             y="-245.65784"
             rx="36.234657"
             ry="39.649345"
             transform="matrix(0,1,-1,0,0,0)" />
          <rect
             transform="matrix(0,-1,-1,0,0,0)"
             ry="39.649345"
             rx="36.234657"
             y="-245.65784"
             x="-243.48973"
             height="237.40044"
             width="236.40919"
             id="rect1310"
             style="fill:none;stroke:url(#radialGradient3947);stroke-width:6.32125711;stroke-miterlimit:4;stroke-opacity:1;stroke-dasharray:none" />
        </g>
      </g>
    </g>
  </g>
  <g
     transform="matrix(0.37398867,0,0,0.37398867,-424.99098,-97.638632)"
     id="g3295">
    <path
       style="fill:#000000"
       d="m 1450.0255,772.18538 c -11.2058,-1.08539 -28.1693,-5.0353 -44.4215,-10.3434 -9.4224,-3.07749 -39.2873,-17.53084 -40.9103,-19.79895 -0.3785,-0.52891 -3.1656,-2.44463 -6.1935,-4.25715 -3.0279,-1.81252 -5.8149,-3.63786 -6.1934,-4.05631 -0.3785,-0.41845 -4.0946,-3.6234 -8.2579,-7.12212 -12.089,-10.15904 -18.1644,-16.33773 -26.9015,-27.35853 -4.5009,-5.67732 -8.516,-10.63207 -8.9224,-11.01056 -0.4064,-0.37848 -2.866,-4.09455 -5.4657,-8.25792 -2.5998,-4.16337 -5.0694,-7.87943 -5.4882,-8.25792 -0.4187,-0.37849 -1.5008,-2.23652 -2.4046,-4.12896 -0.9038,-1.89244 -3.3954,-6.53752 -5.5369,-10.3224 -9.2324,-16.31729 -18.5507,-42.25142 -21.759,-60.55808 -1.4437,-8.23795 -3.2376,-14.37057 -4.4685,-15.27611 -1.7045,-1.2539 -1.9233,-4.3173 -1.2783,-17.89217 0.4281,-9.00858 1.5589,-20.55648 2.5131,-25.66199 1.3972,-7.47619 1.3961,-9.91549 -0.01,-12.53402 -1.4649,-2.73721 -1.2612,-4.95792 1.2888,-14.04528 3.5454,-12.63525 12.3457,-33.45921 17.3124,-40.96619 3.1884,-4.81907 3.5148,-6.72115 3.8966,-22.70928 0.2293,-9.59732 1.21,-20.54639 2.1794,-24.33127 3.6427,-14.222 15.309,-35.71474 17.8062,-32.80402 0.542,0.63176 1.7646,3.9357 2.7168,7.3421 1.8163,6.49697 6.9925,15.28511 13.7812,23.39744 l 4.0312,4.81711 23.8359,0.0252 c 13.1097,0.0138 26.0773,0.53206 28.8168,1.15159 4.6292,1.04689 5.5037,0.67729 12.3868,-5.23557 4.0733,-3.49909 8.0536,-6.86535 8.8451,-7.48058 3.1233,-2.4277 23.7223,-9.59574 30.2163,-10.51464 l 6.8816,-0.97375 -7.889,7.73326 c -8.6625,8.49154 -15.6868,21.51349 -17.0774,31.65892 -0.7813,5.70039 -0.4856,6.41832 5.1873,12.59158 7.8479,8.54006 12.2875,10.24764 26.9606,10.36961 30.297,0.25185 35.5455,4.34144 22.9092,17.85065 -3.51,3.75245 -6.9227,6.82264 -7.5839,6.82264 -0.6611,0 -4.4473,2.28716 -8.4136,5.08257 -3.9664,2.79541 -9.8697,6.88254 -13.1186,9.0825 -9.4715,6.41358 -10.5896,9.0008 -8.7373,20.21688 1.859,11.25654 2.012,17.9182 0.4117,17.9182 -0.6367,0 -4.1979,-0.92231 -7.9139,-2.04958 -9.0402,-2.74244 -12.7717,-2.59712 -18.1937,0.70854 -8.179,4.98663 -10.7054,16.46145 -5.9012,26.80296 5.6373,12.13464 24.8714,25.43909 39.7319,27.48292 6.6553,0.91536 23.0817,-1.21935 25.778,-3.35002 3.4971,-2.76347 23.1568,-8.30522 29.4632,-8.30522 9.2542,0 19.2037,3.9429 26.137,10.35778 8.6308,7.98554 6.6672,14.38788 -4.4306,14.44621 -6.2506,0.0328 -15.6904,3.73809 -19.7745,7.76177 -3.2713,3.2228 -11.9077,8.87928 -19.368,12.68528 -8.2507,4.2092 -24.9626,7.16213 -40.5857,7.1714 -16.9651,0.01 -17.355,1.56444 -2.7527,10.97561 28.8544,18.5966 49.6649,25.37158 74.6654,24.3077 18.1186,-0.77104 27.3905,-2.81075 37.7115,-8.29616 10.1765,-5.40859 27.8702,-21.91156 37.6582,-35.12399 4.1068,-5.54347 7.7501,-9.79578 8.0963,-9.44955 0.3462,0.34623 -0.6407,5.60432 -2.1931,11.68468 -3.3118,12.97096 -3.522,16.78999 -0.924,16.78999 2.7652,0 10.8796,-10.6082 14.2124,-18.58032 6.713,-16.0578 11.0021,-46.17646 9.2608,-65.03111 -0.7576,-8.20315 -0.5682,-9.97833 1.0647,-9.97833 2.5379,0 7.369,5.25116 8.619,9.36843 1.3233,4.35878 5.0773,3.31686 6.4805,-1.79867 3.8419,-14.00569 5.2883,-49.94884 2.7416,-68.12784 -0.6892,-4.92034 -0.9778,-9.25056 -0.6411,-9.62271 0.3366,-0.37215 3.3867,2.26006 6.778,5.84935 3.3912,3.5893 6.7512,6.52601 7.4666,6.52601 2.4351,0 1.3091,-6.22517 -2.9922,-16.54191 -10.2905,-24.68194 -29.7979,-45.97474 -53.7079,-58.62345 -2.542,-1.34478 -11.4006,-4.7245 -19.6858,-7.51048 l -15.0638,-5.06542 7.4941,-1.6073 c 4.1218,-0.88402 13.2501,-1.98545 20.2852,-2.44763 10.6982,-0.70282 12.7229,-1.19982 12.3737,-3.03735 -0.7503,-3.94815 -14.4649,-9.84693 -34.4538,-14.81898 -10.7876,-2.68329 -20.2021,-5.4313 -20.9212,-6.1067 -2.429,-2.28129 12.3287,-1.27471 30.4333,2.07578 23.9929,4.4402 44.2413,10.87377 55.3196,17.57686 15.4238,9.33235 30.005,25.24297 38.5695,42.08601 5.9996,11.79897 8.9985,5.37754 5.142,-11.01055 -1.0242,-4.35262 -1.4682,-7.91384 -0.9865,-7.91384 1.193,0 10.7083,20.31318 14.0502,29.99415 2.9152,8.44485 9.6502,40.83094 12.2236,58.77849 2.4073,16.78939 2.541,17.20399 5.547,17.20399 2.3734,0 2.7264,0.94085 2.7264,7.26678 0,9.98055 -3.6707,38.85772 -6.949,54.66762 -10.4681,50.48324 -31.0699,91.79066 -60.4372,121.17917 -15.3892,15.40035 -18.1957,17.76731 -31.2239,26.33416 -41.1673,27.07011 -96.5125,39.5153 -151.8802,34.15241 z"
       id="path3297" />
    <path
       id="path3299"
       d="m 1450.0255,772.18538 c -11.2058,-1.08539 -28.1693,-5.0353 -44.4215,-10.3434 -9.4224,-3.07749 -39.2873,-17.53084 -40.9103,-19.79895 -0.3785,-0.52891 -3.1656,-2.44463 -6.1935,-4.25715 -3.0279,-1.81252 -5.8149,-3.63786 -6.1934,-4.05631 -0.3785,-0.41845 -4.0946,-3.6234 -8.2579,-7.12212 -12.089,-10.15904 -18.1644,-16.33773 -26.9015,-27.35853 -4.5009,-5.67732 -8.516,-10.63207 -8.9224,-11.01056 -0.4064,-0.37848 -2.866,-4.09455 -5.4657,-8.25792 -2.5998,-4.16337 -5.0694,-7.87943 -5.4882,-8.25792 -0.4187,-0.37849 -1.5008,-2.23652 -2.4046,-4.12896 -0.9038,-1.89244 -3.3954,-6.53752 -5.5369,-10.3224 -9.2324,-16.31729 -18.5507,-42.25142 -21.759,-60.55808 -1.4437,-8.23795 -3.2376,-14.37057 -4.4685,-15.27611 -1.7045,-1.2539 -1.9233,-4.3173 -1.2783,-17.89217 0.4281,-9.00858 1.5589,-20.55648 2.5131,-25.66199 1.3972,-7.47619 1.3961,-9.91549 -0.01,-12.53402 -1.4649,-2.73721 -1.2612,-4.95792 1.2888,-14.04528 3.5454,-12.63525 12.3457,-33.45921 17.3124,-40.96619 3.1884,-4.81907 3.5148,-6.72115 3.8966,-22.70928 0.2293,-9.59732 1.21,-20.54639 2.1794,-24.33127 3.6427,-14.222 15.309,-35.71474 17.8062,-32.80402 0.542,0.63176 1.7646,3.9357 2.7168,7.3421 1.8163,6.49697 6.9925,15.28511 13.7812,23.39744 l 4.0312,4.81711 23.8359,0.0252 c 13.1097,0.0138 26.0773,0.53206 28.8168,1.15159 4.6292,1.04689 5.5037,0.67729 12.3868,-5.23557 4.0733,-3.49909 8.0536,-6.86535 8.8451,-7.48058 3.1233,-2.4277 23.7223,-9.59574 30.2163,-10.51464 l 6.8816,-0.97375 -7.889,7.73326 c -8.6625,8.49154 -15.6868,21.51349 -17.0774,31.65892 -0.7813,5.70039 -0.4856,6.41832 5.1873,12.59158 7.8479,8.54006 12.2875,10.24764 26.9606,10.36961 30.297,0.25185 35.5455,4.34144 22.9092,17.85065 -3.51,3.75245 -6.9227,6.82264 -7.5839,6.82264 -0.6611,0 -4.4473,2.28716 -8.4136,5.08257 -3.9664,2.79541 -9.8697,6.88254 -13.1186,9.0825 -9.4715,6.41358 -10.5896,9.0008 -8.7373,20.21688 1.859,11.25654 2.012,17.9182 0.4117,17.9182 -0.6367,0 -4.1979,-0.92231 -7.9139,-2.04958 -9.0402,-2.74244 -12.7717,-2.59712 -18.1937,0.70854 -8.179,4.98663 -10.7054,16.46145 -5.9012,26.80296 5.6373,12.13464 24.8714,25.43909 39.7319,27.48292 6.6553,0.91536 23.0817,-1.21935 25.778,-3.35002 3.4971,-2.76347 23.1568,-8.30522 29.4632,-8.30522 9.2542,0 19.2037,3.9429 26.137,10.35778 8.6308,7.98554 6.6672,14.38788 -4.4306,14.44621 -6.2506,0.0328 -15.6904,3.73809 -19.7745,7.76177 -3.2713,3.2228 -11.9077,8.87928 -19.368,12.68528 -8.2507,4.2092 -24.9626,7.16213 -40.5857,7.1714 -16.9651,0.01 -17.355,1.56444 -2.7527,10.97561 28.8544,18.5966 49.6649,25.37158 74.6654,24.3077 18.1186,-0.77104 27.3905,-2.81075 37.7115,-8.29616 10.1765,-5.40859 27.8702,-21.91156 37.6582,-35.12399 4.1068,-5.54347 7.7501,-9.79578 8.0963,-9.44955 0.3462,0.34623 -0.6407,5.60432 -2.1931,11.68468 -3.3118,12.97096 -3.522,16.78999 -0.924,16.78999 2.7652,0 10.8796,-10.6082 14.2124,-18.58032 6.713,-16.0578 11.0021,-46.17646 9.2608,-65.03111 -0.7576,-8.20315 -0.5682,-9.97833 1.0647,-9.97833 2.5379,0 7.369,5.25116 8.619,9.36843 1.3233,4.35878 5.0773,3.31686 6.4805,-1.79867 3.8419,-14.00569 5.2883,-49.94884 2.7416,-68.12784 -0.6892,-4.92034 -0.9778,-9.25056 -0.6411,-9.62271 0.3366,-0.37215 3.3867,2.26006 6.778,5.84935 3.3912,3.5893 6.7512,6.52601 7.4666,6.52601 2.4351,0 1.3091,-6.22517 -2.9922,-16.54191 -10.2905,-24.68194 -29.7979,-45.97474 -53.7079,-58.62345 -2.542,-1.34478 -11.4006,-4.7245 -19.6858,-7.51048 l -15.0638,-5.06542 7.4941,-1.6073 c 4.1218,-0.88402 13.2501,-1.98545 20.2852,-2.44763 10.6982,-0.70282 12.7229,-1.19982 12.3737,-3.03735 -0.7503,-3.94815 -14.4649,-9.84693 -34.4538,-14.81898 -10.7876,-2.68329 -20.2021,-5.4313 -20.9212,-6.1067 -2.429,-2.28129 12.3287,-1.27471 30.4333,2.07578 23.9929,4.4402 44.2413,10.87377 55.3196,17.57686 15.4238,9.33235 30.005,25.24297 38.5695,42.08601 5.9996,11.79897 8.9985,5.37754 5.142,-11.01055 -1.0242,-4.35262 -1.4682,-7.91384 -0.9865,-7.91384 1.193,0 10.7083,20.31318 14.0502,29.99415 2.9152,8.44485 9.6502,40.83094 12.2236,58.77849 2.4073,16.78939 2.541,17.20399 5.547,17.20399 2.3734,0 2.7264,0.94085 2.7264,7.26678 0,9.98055 -3.6707,38.85772 -6.949,54.66762 -10.4681,50.48324 -31.0699,91.79066 -60.4372,121.17917 -15.3892,15.40035 -18.1957,17.76731 -31.2239,26.33416 -41.1673,27.07011 -96.5125,39.5153 -151.8802,34.15241 z"
       style="fill:url(#radialGradient17296);fill-opacity:1" />
    <path
       style="fill:url(#linearGradient17298);fill-opacity:1;stroke:none;filter:url(#filter3410)"
       d="m 323.52439,680.58044 c -17.71641,-1.716 -44.53559,-7.9608 -70.23022,-16.3529 -14.89687,-4.8655 -62.11312,-27.71621 -64.67918,-31.30208 -0.59839,-0.8362 -5.00471,-3.86496 -9.79182,-6.73054 -4.7871,-2.86559 -9.19342,-5.75145 -9.79181,-6.41301 -0.59839,-0.66158 -6.47347,-5.7286 -13.05575,-11.26006 -19.11257,-16.06142 -28.71787,-25.82991 -42.53119,-43.25376 -7.11587,-8.97583 -13.463682,-16.80928 -14.106232,-17.40767 -0.64256,-0.59838 -4.531149,-6.47347 -8.641323,-13.05574 -4.110174,-6.58228 -8.014698,-12.45736 -8.676718,-13.05575 -0.66202,-0.59839 -2.372798,-3.53593 -3.801726,-6.52788 -1.42893,-2.99194 -5.368171,-10.3358 -8.753873,-16.31968 -14.596359,-25.7976 -29.328573,-66.79939 -34.400784,-95.74216 -2.282482,-13.02418 -5.118648,-22.71983 -7.064785,-24.1515 -2.694735,-1.98241 -3.040754,-6.82564 -2.020965,-28.28746 0.676755,-14.24254 2.464686,-32.49974 3.973182,-40.57154 2.208946,-11.81983 2.207338,-15.67637 -0.0083,-19.81626 -2.316023,-4.32752 -1.993866,-7.83845 2.037548,-22.20554 5.605355,-19.9763 19.518574,-52.89892 27.370949,-64.76744 5.040796,-7.61894 5.556792,-10.62611 6.160568,-35.90331 0.362432,-15.17333 1.912948,-32.48379 3.445587,-38.46767 5.759019,-22.48494 24.203465,-56.464897 28.151463,-51.863067 0.85691,0.99881 2.7898,6.22234 4.295319,11.60784 2.87146,10.2717 11.05512,24.165717 21.78807,36.991287 l 6.37326,7.61585 37.68449,0.0398 c 20.72646,0.0219 41.22813,0.84119 45.55925,1.82066 7.31884,1.65513 8.70134,1.07079 19.58362,-8.27742 6.43986,-5.53205 12.73269,-10.8541 13.98404,-11.82677 4.93784,-3.8382 37.50482,-15.170837 47.77186,-16.623627 l 10.87979,-1.53949 -12.47248,12.226257 c -13.69546,13.4251 -24.80084,34.01277 -26.99934,50.05267 -1.23527,9.0123 -0.76767,10.14734 8.20115,19.90725 12.4074,13.50181 19.42645,16.20149 42.62456,16.39433 47.89948,0.39818 56.19736,6.8638 36.21943,28.22183 -5.54926,5.93261 -10.94481,10.78657 -11.99009,10.78657 -1.04529,0 -7.03118,3.61599 -13.30198,8.03553 -6.27081,4.41954 -15.604,10.88128 -20.74043,14.35941 -14.97436,10.13985 -16.74213,14.23024 -13.81366,31.96284 2.93905,17.79655 3.18103,28.32862 0.65089,28.32862 -1.00657,0 -6.63686,-1.45817 -12.51176,-3.24039 -14.29254,-4.33579 -20.19215,-4.10603 -28.76423,1.12021 -12.93102,7.88384 -16.92527,26.0255 -9.32976,42.37541 8.9125,19.18483 39.32161,40.21913 62.81593,43.45042 10.5221,1.44717 36.49214,-1.92779 40.75498,-5.29637 5.52893,-4.36904 36.6108,-13.13053 46.58128,-13.13053 14.63081,0 30.36103,6.2337 41.32247,16.37561 13.64532,12.62512 10.54092,22.7472 -7.00474,22.83942 -9.88214,0.0519 -24.80642,5.90992 -31.26349,12.27134 -5.17186,5.09524 -18.82591,14.03812 -30.6207,20.05539 -13.04437,6.65473 -39.46579,11.32331 -64.16596,11.33796 -26.82177,0.0159 -27.43809,2.47339 -4.35191,17.35242 45.61863,29.40117 78.52001,40.11239 118.04573,38.4304 28.64551,-1.219 43.30435,-4.44379 59.62182,-13.1162 16.08899,-8.55097 44.06263,-34.64212 59.53754,-55.53093 6.49274,-8.76421 12.25283,-15.4871 12.80019,-14.93971 0.54738,0.54738 -1.01293,8.86041 -3.46735,18.47344 -5.23592,20.50706 -5.56819,26.54493 -1.46076,26.54493 4.37176,0 17.20056,-16.77154 22.46968,-29.37543 10.61328,-25.38734 17.39433,-73.00486 14.64137,-102.81402 -1.19773,-12.96915 -0.89826,-15.7757 1.68337,-15.7757 4.01235,0 11.65023,8.30206 13.6265,14.81146 2.09221,6.89122 8.0272,5.24395 10.24569,-2.84369 6.07397,-22.14296 8.3608,-78.96898 4.33454,-107.70993 -1.08975,-7.77905 -1.54594,-14.62512 -1.01372,-15.21349 0.5322,-0.58837 5.3544,3.57315 10.71601,9.24782 5.3616,5.67467 10.6737,10.31759 11.80466,10.31759 3.84999,0 2.06973,-9.84197 -4.7306,-26.15271 -16.26925,-39.02208 -47.11037,-72.68594 -84.91198,-92.68351 -4.01897,-2.1261 -18.0244,-7.46942 -31.12317,-11.87405 l -23.81592,-8.00841 11.84815,-2.54115 c 6.5165,-1.39763 20.94841,-3.138987 32.07093,-3.869687 16.91368,-1.11116 20.11473,-1.89692 19.56265,-4.80204 -1.18623,-6.24202 -22.86887,-15.56798 -54.47133,-23.42877 -17.05507,-4.24227 -31.93943,-8.58687 -33.07637,-9.65467 -3.84026,-3.60672 19.49162,-2.01532 48.11498,3.28179 37.93278,7.01995 69.94539,17.1914 87.46023,27.78898 24.38489,14.754407 47.43769,39.909057 60.97816,66.537867 9.48541,18.65413 14.22663,8.50187 8.12957,-17.40766 -1.61935,-6.88147 -2.32122,-12.51176 -1.55968,-12.51176 1.88605,0 16.92976,32.11509 22.21327,47.42067 4.60892,13.35129 15.25697,64.55361 19.32549,92.92863 3.80597,26.54399 4.01732,27.19947 8.76976,27.19947 3.75238,0 4.31047,1.48747 4.31047,11.48876 0,15.77922 -5.80333,61.43395 -10.98633,86.42936 -16.55003,79.81386 -49.12136,145.12078 -95.551,191.58393 -24.33035,24.34792 -28.76737,28.09007 -49.36486,41.63424 -65.08547,42.79777 -152.58606,62.47357 -240.12221,53.99487 z"
       id="path3301"
       transform="matrix(0.62470127,0,0,0.62382726,1247.3984,345.83038)" />
    <path
       id="path3303"
       d="m 1449.5045,770.39501 c -11.0675,-1.07049 -27.8215,-4.96616 -43.873,-10.20138 -9.306,-3.03524 -38.8021,-17.29013 -40.4051,-19.52709 -0.3738,-0.52165 -3.1265,-2.41107 -6.117,-4.1987 -2.9905,-1.78763 -5.7431,-3.58791 -6.1169,-4.00061 -0.3739,-0.41271 -4.044,-3.57366 -8.156,-7.02433 -11.9396,-10.01955 -17.9401,-16.1134 -26.5693,-26.98288 -4.4453,-5.59936 -8.4108,-10.48608 -8.8122,-10.85938 -0.4014,-0.37328 -2.8306,-4.03832 -5.3982,-8.14452 -2.5676,-4.10621 -5.0068,-7.77124 -5.4204,-8.14453 -0.4135,-0.3733 -1.4823,-2.20581 -2.3749,-4.07227 -0.8927,-1.86646 -3.3535,-6.44776 -5.4686,-10.18067 -9.1183,-16.09324 -18.3216,-41.67128 -21.4902,-59.72656 -1.4258,-8.12484 -3.1976,-14.17325 -4.4133,-15.06637 -1.6835,-1.23668 -1.8996,-4.25802 -1.2626,-17.64649 0.4228,-8.88488 1.5397,-20.27422 2.4821,-25.30963 1.3799,-7.37353 1.3789,-9.77935 0,-12.36192 -1.4468,-2.69963 -1.2456,-4.88984 1.2729,-13.85242 3.5016,-12.46176 12.1932,-32.99979 17.0986,-40.4037 3.149,-4.7529 3.4714,-6.62886 3.8485,-22.39746 0.2265,-9.46554 1.1951,-20.26428 2.1525,-23.99718 3.5977,-14.02672 15.1199,-35.22435 17.5863,-32.3536 0.5353,0.62309 1.7427,3.88167 2.6832,7.24129 1.7939,6.40776 6.9062,15.07523 13.6111,23.07617 l 3.9814,4.75098 23.5415,0.0248 c 12.9479,0.0137 25.7553,0.52476 28.4609,1.13578 4.5721,1.03252 5.4358,0.66799 12.2339,-5.16368 4.023,-3.45104 7.9542,-6.77108 8.7359,-7.37786 3.0847,-2.39437 23.4293,-9.46398 29.8431,-10.37027 l 6.7967,-0.96038 -7.7916,7.62708 c -8.5556,8.37494 -15.4931,21.21809 -16.8665,31.22422 -0.7717,5.62211 -0.4796,6.33018 5.1232,12.41868 7.7509,8.4228 12.1358,10.10693 26.6276,10.22723 29.9229,0.2484 35.1066,4.28183 22.6264,17.60555 -3.4667,3.70092 -6.8373,6.72895 -7.4903,6.72895 -0.653,0 -4.3923,2.25576 -8.3097,5.01279 -3.9174,2.75703 -9.7479,6.78804 -12.9566,8.95779 -9.3545,6.32551 -10.4588,8.87721 -8.6294,19.93929 1.836,11.10197 1.9872,17.67216 0.4066,17.67216 -0.6288,0 -4.146,-0.90964 -7.8161,-2.02144 -8.9286,-2.70478 -12.6141,-2.56145 -17.9691,0.69882 -8.078,4.91815 -10.5732,16.23541 -5.8283,26.43493 5.5677,11.96802 24.5643,25.08979 39.2412,27.10556 6.5732,0.90278 22.7967,-1.20261 25.4597,-3.30402 3.4539,-2.72553 22.8708,-8.19118 29.0994,-8.19118 9.1399,0 18.9666,3.88875 25.8142,10.21555 8.5242,7.87589 6.5849,14.19032 -4.3759,14.24785 -6.1734,0.0324 -15.4966,3.68677 -19.5303,7.6552 -3.2309,3.17855 -11.7606,8.75736 -19.1288,12.5111 -8.1488,4.1514 -24.6543,7.06379 -40.0846,7.07293 -16.7556,0.01 -17.1406,1.54296 -2.7186,10.82491 28.498,18.34125 49.0515,25.0232 73.7433,23.97393 17.8949,-0.76045 27.0523,-2.77216 37.2458,-8.18224 10.0509,-5.33433 27.526,-21.6107 37.1932,-34.64171 4.056,-5.46735 7.6544,-9.66128 7.9963,-9.3198 0.342,0.34147 -0.6328,5.52737 -2.166,11.52424 -3.2709,12.79286 -3.4785,16.55945 -0.9126,16.55945 2.7311,0 10.7452,-10.46255 14.0369,-18.3252 6.6301,-15.83731 10.8662,-45.54242 9.1464,-64.13819 -0.7482,-8.0905 -0.5611,-9.84131 1.0516,-9.84131 2.5066,0 7.2779,5.17905 8.5125,9.2398 1.307,4.29893 5.0146,3.27131 6.4005,-1.77398 3.7944,-13.81338 5.223,-49.263 2.7078,-67.19239 -0.6808,-4.85278 -0.9657,-9.12354 -0.6333,-9.49059 0.3325,-0.36704 3.3449,2.22903 6.6943,5.76905 3.3494,3.54001 6.6679,6.43639 7.3744,6.43639 2.4051,0 1.293,-6.13969 -2.9552,-16.31477 -10.1634,-24.34304 -29.4299,-45.34347 -53.0446,-57.8185 -2.5107,-1.32632 -11.2599,-4.65963 -19.4427,-7.40736 l -14.8778,-4.99586 7.4015,-1.58524 c 4.0709,-0.87188 13.0865,-1.95819 20.0348,-2.41402 10.566,-0.69317 12.5657,-1.18335 12.2208,-2.99564 -0.741,-3.89394 -14.2862,-9.71173 -34.0283,-14.61551 -10.6543,-2.64644 -19.9526,-5.35672 -20.6629,-6.02284 -2.399,-2.24997 12.1765,-1.25722 30.0575,2.04727 23.6967,4.37923 43.695,10.72446 54.6365,17.33552 15.2333,9.2042 29.6344,24.89636 38.0932,41.50813 5.9255,11.63696 8.8874,5.3037 5.0785,-10.85937 -1.0116,-4.29285 -1.45,-7.80518 -0.9743,-7.80518 1.1782,0 10.576,20.03427 13.8766,29.58231 2.8793,8.3289 9.5311,40.2703 12.0727,57.97141 2.3776,16.55887 2.5096,16.96777 5.4785,16.96777 2.3441,0 2.6928,0.92793 2.6928,7.16701 0,9.8435 -3.6254,38.32417 -6.8632,53.91699 -10.3389,49.79006 -30.6862,90.5303 -59.6909,119.51528 -15.1992,15.18889 -17.971,17.52335 -30.8383,25.97257 -40.6589,26.69841 -95.3207,38.97272 -150.0046,33.68347 z"
       style="fill:none;stroke:url(#linearGradient17300);stroke-width:4.22960901;stroke-miterlimit:4;stroke-opacity:1;stroke-dasharray:none" />
    <path
       style="fill:#ac2f14;fill-opacity:1;stroke:none;filter:url(#filter3997)"
       d="m 252.06557,309.75191 c -31.54663,-6.23787 -50.81328,5.34537 -43.02377,25.85193 7.49526,19.73188 37.32376,40.57218 67.67248,47.67602 -13.19043,-9.68503 -23.22832,-20.92132 -27.38806,-31.87218 -7.36085,-19.37803 5.91765,-31.93383 30.72399,-32.23534 -8.91719,-4.24325 -18.46218,-7.5375 -27.98464,-9.42043 z"
       id="path3305"
       transform="matrix(0.63251216,0,0,0.63251216,1245.3924,341.70998)" />
  </g>
</svg>
