<?xml version="1.0" encoding="UTF-8" standalone="no"?>
<!-- Created with Inkscape (http://www.inkscape.org/) -->

<svg
   xmlns:dc="http://purl.org/dc/elements/1.1/"
   xmlns:cc="http://creativecommons.org/ns#"
   xmlns:rdf="http://www.w3.org/1999/02/22-rdf-syntax-ns#"
   xmlns:svg="http://www.w3.org/2000/svg"
   xmlns="http://www.w3.org/2000/svg"
   xmlns:xlink="http://www.w3.org/1999/xlink"
   xmlns:sodipodi="http://sodipodi.sourceforge.net/DTD/sodipodi-0.dtd"
   xmlns:inkscape="http://www.inkscape.org/namespaces/inkscape"
   id="svg2"
   sodipodi:version="0.32"
   inkscape:version="0.47pre0 r21549"
   width="256"
   height="256"
   version="1.0"
   sodipodi:docname="foxit.svg"
   inkscape:output_extension="org.inkscape.output.svg.inkscape">
  <sodipodi:namedview
     inkscape:window-height="718"
     inkscape:window-width="911"
     inkscape:pageshadow="2"
     inkscape:pageopacity="0.0"
     guidetolerance="10.0"
     gridtolerance="10.0"
     objecttolerance="10.0"
     borderopacity="1.0"
     bordercolor="#666666"
     pagecolor="#ffffff"
     id="base"
     width="48px"
     height="48px"
     inkscape:zoom="1.8203125"
     inkscape:cx="128"
     inkscape:cy="128"
     inkscape:window-x="180"
     inkscape:window-y="143"
     inkscape:current-layer="svg2"
     showgrid="false" />
  <metadata
     id="metadata7">
    <rdf:RDF>
      <cc:Work
         rdf:about="">
        <dc:format>image/svg+xml</dc:format>
        <dc:type
           rdf:resource="http://purl.org/dc/dcmitype/StillImage" />
        <dc:title />
      </cc:Work>
    </rdf:RDF>
  </metadata>
  <defs
     id="defs5">
    <linearGradient
       inkscape:collect="always"
       id="linearGradient1242">
      <stop
         style="stop-color:#ffffff;stop-opacity:1;"
         offset="0"
         id="stop1244" />
      <stop
         style="stop-color:#ffffff;stop-opacity:0;"
         offset="1"
         id="stop1246" />
    </linearGradient>
    <mask
       maskUnits="userSpaceOnUse"
       x="122.963"
       y="97.149"
       width="576.609"
       height="587.491"
       id="XMLID_23_">
      <g
         id="g31"
         style="filter:url(#Adobe_OpacityMaskFilter)">
        <radialGradient
           id="XMLID_24_"
           cx="88.977501"
           cy="-20.899401"
           r="673.11609"
           fx="88.977501"
           fy="-20.899401"
           gradientUnits="userSpaceOnUse">
          <stop
             offset="0.309"
             style="stop-color:#FFFFFF"
             id="stop34" />
          <stop
             offset="1"
             style="stop-color:#000000"
             id="stop3816" />
        </radialGradient>
        <ellipse
           sodipodi:ry="349.10599"
           sodipodi:rx="512.93402"
           sodipodi:cy="286.172"
           sodipodi:cx="295.89499"
           cx="295.89499"
           cy="286.172"
           rx="512.93402"
           ry="349.10599"
           id="ellipse38"
           style="fill:url(#XMLID_24_)" />
      </g>
    </mask>
    <radialGradient
       inkscape:collect="always"
       xlink:href="#linearGradient1242"
       id="radialGradient3933"
       gradientUnits="userSpaceOnUse"
       gradientTransform="matrix(0.95257037,0,0,0.95646038,6.02155,5.4548672)"
       cx="-0.45053065"
       cy="125.28513"
       fx="-0.45053065"
       fy="125.28513"
       r="127.40815" />
    <radialGradient
       inkscape:collect="always"
       xlink:href="#linearGradient1242"
       id="radialGradient3935"
       gradientUnits="userSpaceOnUse"
       gradientTransform="matrix(0.95257037,0,0,0.95646038,-247.89368,5.4548672)"
       cx="-0.45053065"
       cy="125.28513"
       fx="-0.45053065"
       fy="125.28513"
       r="127.40815" />
    <radialGradient
       inkscape:collect="always"
       xlink:href="#linearGradient1242"
       id="radialGradient3937"
       gradientUnits="userSpaceOnUse"
       gradientTransform="matrix(0.95257037,0,0,0.95646038,4.3490721,-246.7879)"
       cx="-0.45053065"
       cy="125.28513"
       fx="-0.45053065"
       fy="125.28513"
       r="127.40815" />
    <radialGradient
       inkscape:collect="always"
       xlink:href="#linearGradient1242"
       id="radialGradient3939"
       gradientUnits="userSpaceOnUse"
       gradientTransform="matrix(0.95257037,0,0,0.95646038,-246.22119,-246.7879)"
       cx="-0.45053065"
       cy="125.28513"
       fx="-0.45053065"
       fy="125.28513"
       r="127.40815" />
    <radialGradient
       inkscape:collect="always"
       xlink:href="#linearGradient1242"
       id="radialGradient3941"
       gradientUnits="userSpaceOnUse"
       gradientTransform="matrix(0.95257037,0,0,0.95646038,6.02155,5.4548672)"
       cx="-0.45053065"
       cy="125.28513"
       fx="-0.45053065"
       fy="125.28513"
       r="127.40815" />
    <radialGradient
       inkscape:collect="always"
       xlink:href="#linearGradient1242"
       id="radialGradient3943"
       gradientUnits="userSpaceOnUse"
       gradientTransform="matrix(0.95257037,0,0,0.95646038,-247.89368,5.4548672)"
       cx="-0.45053065"
       cy="125.28513"
       fx="-0.45053065"
       fy="125.28513"
       r="127.40815" />
    <radialGradient
       inkscape:collect="always"
       xlink:href="#linearGradient1242"
       id="radialGradient3945"
       gradientUnits="userSpaceOnUse"
       gradientTransform="matrix(0.95257037,0,0,0.95646038,4.3490721,-246.7879)"
       cx="-0.45053065"
       cy="125.28513"
       fx="-0.45053065"
       fy="125.28513"
       r="127.40815" />
    <radialGradient
       inkscape:collect="always"
       xlink:href="#linearGradient1242"
       id="radialGradient3947"
       gradientUnits="userSpaceOnUse"
       gradientTransform="matrix(0.95257037,0,0,0.95646038,-246.22119,-246.7879)"
       cx="-0.45053065"
       cy="125.28513"
       fx="-0.45053065"
       fy="125.28513"
       r="127.40815" />
    <linearGradient
       inkscape:collect="always"
       xlink:href="#linearGradient3671"
       id="linearGradient3677"
       x1="7.9231992"
       y1="128.85144"
       x2="36.919373"
       y2="128.85144"
       gradientUnits="userSpaceOnUse" />
    <linearGradient
       id="linearGradient3671">
      <stop
         style="stop-color:#9a4ce6;stop-opacity:1;"
         offset="0"
         id="stop3673" />
      <stop
         style="stop-color:#dcb7ff;stop-opacity:0;"
         offset="1"
         id="stop3675" />
    </linearGradient>
    <linearGradient
       inkscape:collect="always"
       xlink:href="#linearGradient3671"
       id="linearGradient3683-4"
       gradientUnits="userSpaceOnUse"
       x1="7.9231992"
       y1="128.85144"
       x2="36.919373"
       y2="128.85144"
       gradientTransform="translate(-253.72949,0)" />
    <linearGradient
       inkscape:collect="always"
       xlink:href="#linearGradient3671"
       id="linearGradient3687-5"
       gradientUnits="userSpaceOnUse"
       gradientTransform="translate(-255.71619,-255.71619)"
       x1="7.9231992"
       y1="128.85144"
       x2="36.919373"
       y2="128.85144" />
    <linearGradient
       inkscape:collect="always"
       xlink:href="#linearGradient3671"
       id="linearGradient3691-1"
       gradientUnits="userSpaceOnUse"
       gradientTransform="translate(1.9866909,-1.9866826)"
       x1="7.9231992"
       y1="128.85144"
       x2="36.919373"
       y2="128.85144" />
    <inkscape:path-effect
       deactivate_knotholder="false"
       is_visible="true"
       effect="spiro"
       id="path-effect3695" />
    <linearGradient
       inkscape:collect="always"
       xlink:href="#linearGradient3697-3"
       id="linearGradient3703-0"
       x1="139.06874"
       y1="73.598183"
       x2="159.06831"
       y2="105.95296"
       gradientUnits="userSpaceOnUse"
       gradientTransform="matrix(1.2922856,0,0,1.2851581,-52.744834,-27.907339)" />
    <linearGradient
       id="linearGradient3697-3">
      <stop
         style="stop-color:#3c51f8;stop-opacity:1;"
         offset="0"
         id="stop3699-7" />
      <stop
         id="stop3705"
         offset="0.33267981"
         style="stop-color:#9ca6fb;stop-opacity:1;" />
      <stop
         style="stop-color:#1313c7;stop-opacity:1;"
         offset="1"
         id="stop3701" />
    </linearGradient>
    <inkscape:path-effect
       deactivate_knotholder="false"
       is_visible="true"
       effect="spiro"
       id="path-effect3709" />
    <linearGradient
       inkscape:collect="always"
       xlink:href="#linearGradient3711"
       id="linearGradient3717-8"
       x1="162.34146"
       y1="141.33943"
       x2="192.99333"
       y2="179.37048"
       gradientUnits="userSpaceOnUse"
       gradientTransform="translate(-29.516629,5.1086473)" />
    <linearGradient
       id="linearGradient3711">
      <stop
         style="stop-color:#f8d33c;stop-opacity:1;"
         offset="0"
         id="stop3713" />
      <stop
         id="stop3719"
         offset="0.5"
         style="stop-color:#f1dd8e;stop-opacity:1;" />
      <stop
         style="stop-color:#c1a432;stop-opacity:1;"
         offset="1"
         id="stop3715" />
    </linearGradient>
  </defs>
  <g
     id="g3916"
     transform="matrix(0.95130219,0,0,0.95130219,6.182558,0.101112)">
    <rect
       ry="41.623531"
       rx="38.038826"
       y="0.67469877"
       x="2.8674698"
       height="249.22089"
       width="248.1803"
       id="rect2380"
       style="fill:#000000;fill-opacity:1;stroke:none" />
    <g
       id="g1282">
      <rect
         ry="39.649345"
         rx="36.234657"
         y="6.5849228"
         x="8.7530165"
         height="237.40044"
         width="236.40919"
         id="rect468"
         style="fill:none;stroke:url(#radialGradient3933);stroke-width:6.32125711;stroke-miterlimit:4;stroke-opacity:1;stroke-dasharray:none" />
      <g
         id="g1270">
        <rect
           transform="scale(-1,1)"
           ry="39.649345"
           rx="36.234657"
           y="6.5849228"
           x="-245.16222"
           height="237.40044"
           width="236.40919"
           id="rect1250"
           style="fill:none;stroke:url(#radialGradient3935);stroke-width:6.32125711;stroke-miterlimit:4;stroke-opacity:1;stroke-dasharray:none" />
        <g
           id="g1262">
          <rect
             transform="matrix(0,1,-1,0,0,0)"
             ry="39.649345"
             rx="36.234657"
             y="-245.65784"
             x="7.0805359"
             height="237.40044"
             width="236.40919"
             id="rect1254"
             style="fill:none;stroke:url(#radialGradient3937);stroke-width:6.32125711;stroke-miterlimit:4;stroke-opacity:1;stroke-dasharray:none" />
          <rect
             style="fill:none;stroke:url(#radialGradient3939);stroke-width:6.32125711;stroke-miterlimit:4;stroke-opacity:1;stroke-dasharray:none"
             id="rect1258"
             width="236.40919"
             height="237.40044"
             x="-243.48973"
             y="-245.65784"
             rx="36.234657"
             ry="39.649345"
             transform="matrix(0,-1,-1,0,0,0)" />
        </g>
      </g>
    </g>
    <g
       transform="matrix(0.93688713,0,0,0.93688713,8.012659,7.9071041)"
       id="g1298">
      <rect
         style="fill:none;stroke:url(#radialGradient3941);stroke-width:6.32125711;stroke-miterlimit:4;stroke-opacity:1;stroke-dasharray:none"
         id="rect1300"
         width="236.40919"
         height="237.40044"
         x="8.7530165"
         y="6.5849228"
         rx="36.234657"
         ry="39.649345" />
      <g
         id="g1302">
        <rect
           style="fill:none;stroke:url(#radialGradient3943);stroke-width:6.32125711;stroke-miterlimit:4;stroke-opacity:1;stroke-dasharray:none"
           id="rect1304"
           width="236.40919"
           height="237.40044"
           x="-245.16222"
           y="6.5849228"
           rx="36.234657"
           ry="39.649345"
           transform="scale(-1,1)" />
        <g
           id="g1306">
          <rect
             style="fill:none;stroke:url(#radialGradient3945);stroke-width:6.32125711;stroke-miterlimit:4;stroke-opacity:1;stroke-dasharray:none"
             id="rect1308"
             width="236.40919"
             height="237.40044"
             x="7.0805359"
             y="-245.65784"
             rx="36.234657"
             ry="39.649345"
             transform="matrix(0,1,-1,0,0,0)" />
          <rect
             transform="matrix(0,-1,-1,0,0,0)"
             ry="39.649345"
             rx="36.234657"
             y="-245.65784"
             x="-243.48973"
             height="237.40044"
             width="236.40919"
             id="rect1310"
             style="fill:none;stroke:url(#radialGradient3947);stroke-width:6.32125711;stroke-miterlimit:4;stroke-opacity:1;stroke-dasharray:none" />
        </g>
      </g>
    </g>
  </g>
  <g
     transform="matrix(0.69437883,0,0,0.69437883,37.58162,24.948883)"
     id="g3764">
    <rect
       transform="matrix(0,1,1,0,0,0)"
       style="fill:none;stroke:#2d1a40;stroke-width:1.84584475;stroke-miterlimit:4;stroke-opacity:1;stroke-dasharray:none"
       id="rect3756"
       width="207.10466"
       height="211.42937"
       x="25.299105"
       y="21.150072"
       rx="20.104261" />
    <rect
       rx="21.783264"
       y="14.308028"
       x="14.664259"
       height="229.08684"
       width="224.40097"
       id="rect3669"
       style="fill:none;stroke:url(#linearGradient3677);stroke-width:22.56415939;stroke-miterlimit:4;stroke-opacity:1;stroke-dasharray:none" />
    <rect
       transform="scale(-1,1)"
       style="fill:none;stroke:url(#linearGradient3683-4);stroke-width:22.56415939;stroke-miterlimit:4;stroke-opacity:1;stroke-dasharray:none"
       id="rect3681"
       width="224.40097"
       height="229.08684"
       x="-239.06523"
       y="14.308028"
       rx="21.783264" />
    <rect
       rx="21.783264"
       y="-241.40817"
       x="-241.05193"
       height="229.08684"
       width="224.40097"
       id="rect3685"
       style="fill:none;stroke:url(#linearGradient3687-5);stroke-width:22.56415939;stroke-miterlimit:4;stroke-opacity:1;stroke-dasharray:none"
       transform="matrix(0,-1,-1,0,0,0)" />
    <rect
       transform="matrix(0,1,1,0,0,0)"
       style="fill:none;stroke:url(#linearGradient3691-1);stroke-width:22.56415939;stroke-miterlimit:4;stroke-opacity:1;stroke-dasharray:none"
       id="rect3689"
       width="224.40097"
       height="229.08684"
       x="16.650955"
       y="12.321335"
       rx="21.783264" />
    <path
       style="fill:none;stroke:#2d1a40;stroke-width:2;stroke-miterlimit:4;stroke-opacity:1;stroke-dasharray:none"
       d="m 14.740557,133.3102 c 8.21422,-3.57913 16.291045,-7.47356 24.206717,-11.67186 C 57.039525,112.04261 74.24754,100.88407 91.761928,90.270222 110.46752,78.9345 129.54373,68.208259 148.97781,58.172615 c 5.95617,-3.075729 11.96651,-6.098773 17.48761,-9.900561 5.52109,-3.801788 10.57855,-8.440795 14.05446,-14.172644 1.29798,-2.140389 2.36395,-4.412385 3.59118,-6.594107 1.22723,-2.181723 2.63718,-4.297694 4.50197,-5.967598 1.86478,-1.669904 4.23191,-2.872296 6.73296,-2.975949 1.25053,-0.05183 2.51803,0.174452 3.65131,0.705674 1.13327,0.531221 2.12766,1.371874 2.79514,2.430633 0.2906,0.46095 0.51808,0.958482 0.73354,1.458982 3.38506,7.863311 3.93256,16.839607 1.97012,25.172619 -1.96244,8.333012 -6.36794,16.014235 -12.23962,22.244299 -8.8712,9.412667 -20.71116,15.362166 -32.27562,21.155241 -20.07125,10.054446 -40.20357,20.252656 -61.617102,26.991166 -14.764726,4.64624 -30.170227,7.66277 -44.01221,14.58983 -4.96336,2.48386 -9.785375,5.54473 -13.194992,9.92411 -1.704809,2.18969 -3.030957,4.69415 -3.72159,7.38193 -0.690634,2.68777 -0.730822,5.56177 0.04523,8.22614 0.731944,2.51292 2.158869,4.78096 2.882532,7.29627 0.361831,1.25766 0.543125,2.58551 0.352004,3.88016 -0.191122,1.29464 -0.778568,2.55623 -1.767462,3.41339 -0.913187,0.79153 -2.133575,1.2002 -3.341989,1.18697 -1.208414,-0.0132 -2.398611,-0.43586 -3.386939,-1.13131 -0.988328,-0.69544 -1.778048,-1.6557 -2.334251,-2.72859 -0.556203,-1.07288 -0.883618,-2.25636 -1.030465,-3.45589 -0.293693,-2.39907 0.124935,-4.82646 0.658188,-7.18387 0.533252,-2.35741 1.184966,-4.70293 1.366551,-7.11307 0.351882,-4.67047 -1.157788,-9.45558 -4.126192,-13.07852 -2.968403,-3.62295 -7.363155,-6.0442 -12.01162,-6.61772 l 0,0"
       id="path3758"
       inkscape:path-effect="#path-effect3695"
       inkscape:original-d="m 14.740557,133.3102 c 8.068906,-2.91798 -0.733536,2.18846 24.206717,-11.67186 24.940254,-13.86033 28.607937,-18.96677 52.814654,-31.368118 24.206722,-12.401349 44.745742,-23.343715 57.215882,-32.097607 12.47011,-8.753893 23.47317,-18.237276 31.54207,-24.073205 8.06891,-5.835928 17.6049,-8.753893 21.27256,-12.401347 3.6677,-3.647457 6.60185,-20.4257508 0.73354,1.458982 -5.86829,21.884731 0,35.74506 -10.2695,47.416918 -10.26952,11.671857 -2.20061,6.565419 -32.27562,21.155241 C 129.90584,106.31902 123.304,110.69597 98.363758,118.72037 73.423506,126.74476 71.222896,115.8024 54.351548,133.3102 37.4802,150.81798 36.013126,150.08848 37.4802,158.84238 c 1.467074,8.75388 13.203663,22.61422 1.467074,14.58982 -11.73659,-8.0244 -3.667685,-13.86032 -8.068905,-20.42576 -4.401221,-6.56542 -17.604886,-16.77828 -16.137812,-19.69624 z" />
    <path
       inkscape:original-d="m 14.740557,133.3102 c 8.068906,-2.91798 -0.733536,2.18846 24.206717,-11.67186 24.940254,-13.86033 28.607937,-18.96677 52.814654,-31.368118 24.206722,-12.401349 44.745742,-23.343715 57.215882,-32.097607 12.47011,-8.753893 23.47317,-18.237276 31.54207,-24.073205 8.06891,-5.835928 17.6049,-8.753893 21.27256,-12.401347 3.6677,-3.647457 6.60185,-20.4257508 0.73354,1.458982 -5.86829,21.884731 0,35.74506 -10.2695,47.416918 -10.26952,11.671857 -2.20061,6.565419 -32.27562,21.155241 C 129.90584,106.31902 123.304,110.69597 98.363758,118.72037 73.423506,126.74476 71.222896,115.8024 54.351548,133.3102 37.4802,150.81798 36.013126,150.08848 37.4802,158.84238 c 1.467074,8.75388 13.203663,22.61422 1.467074,14.58982 -11.73659,-8.0244 -3.667685,-13.86032 -8.068905,-20.42576 -4.401221,-6.56542 -17.604886,-16.77828 -16.137812,-19.69624 z"
       inkscape:path-effect="#path-effect3695"
       id="path3693"
       d="m 14.740557,133.3102 c 8.21422,-3.57913 16.291045,-7.47356 24.206717,-11.67186 C 57.039525,112.04261 74.24754,100.88407 91.761928,90.270222 110.46752,78.9345 129.54373,68.208259 148.97781,58.172615 c 5.95617,-3.075729 11.96651,-6.098773 17.48761,-9.900561 5.52109,-3.801788 10.57855,-8.440795 14.05446,-14.172644 1.29798,-2.140389 2.36395,-4.412385 3.59118,-6.594107 1.22723,-2.181723 2.63718,-4.297694 4.50197,-5.967598 1.86478,-1.669904 4.23191,-2.872296 6.73296,-2.975949 1.25053,-0.05183 2.51803,0.174452 3.65131,0.705674 1.13327,0.531221 2.12766,1.371874 2.79514,2.430633 0.2906,0.46095 0.51808,0.958482 0.73354,1.458982 3.38506,7.863311 3.93256,16.839607 1.97012,25.172619 -1.96244,8.333012 -6.36794,16.014235 -12.23962,22.244299 -8.8712,9.412667 -20.71116,15.362166 -32.27562,21.155241 -20.07125,10.054446 -40.20357,20.252656 -61.617102,26.991166 -14.764726,4.64624 -30.170227,7.66277 -44.01221,14.58983 -4.96336,2.48386 -9.785375,5.54473 -13.194992,9.92411 -1.704809,2.18969 -3.030957,4.69415 -3.72159,7.38193 -0.690634,2.68777 -0.730822,5.56177 0.04523,8.22614 0.731944,2.51292 2.158869,4.78096 2.882532,7.29627 0.361831,1.25766 0.543125,2.58551 0.352004,3.88016 -0.191122,1.29464 -0.778568,2.55623 -1.767462,3.41339 -0.913187,0.79153 -2.133575,1.2002 -3.341989,1.18697 -1.208414,-0.0132 -2.398611,-0.43586 -3.386939,-1.13131 -0.988328,-0.69544 -1.778048,-1.6557 -2.334251,-2.72859 -0.556203,-1.07288 -0.883618,-2.25636 -1.030465,-3.45589 -0.293693,-2.39907 0.124935,-4.82646 0.658188,-7.18387 0.533252,-2.35741 1.184966,-4.70293 1.366551,-7.11307 0.351882,-4.67047 -1.157788,-9.45558 -4.126192,-13.07852 -2.968403,-3.62295 -7.363155,-6.0442 -12.01162,-6.61772 l 0,0"
       style="fill:url(#linearGradient3703-0);fill-opacity:1;stroke-width:1px" />
    <path
       style="fill:none;stroke:#2d1a40;stroke-width:2;stroke-miterlimit:4;stroke-opacity:1;stroke-dasharray:none"
       d="m 6.8115301,217.96896 c 14.3241579,-2.41637 28.4132369,-6.22423 42.0044329,-11.35255 16.325764,-6.16015 31.878271,-14.19753 47.113078,-22.7051 17.610969,-9.83448 34.883039,-20.34178 51.086479,-32.35476 17.56832,-13.02488 33.82515,-27.78346 48.81596,-43.70732 11.1157,-11.807564 21.53425,-24.249513 32.35477,-36.328161 4.28891,-4.787588 8.64123,-9.518371 13.05543,-14.190687 -1.17805,12.525442 -2.69245,25.019248 -4.54102,37.463414 -1.4516,9.771804 -3.1816,19.727564 -7.94679,28.381374 -3.65872,6.64441 -8.97891,12.25404 -14.84085,17.06777 -5.86194,4.81373 -12.2876,8.88553 -18.64917,13.01649 -11.70911,7.60345 -23.26352,15.45213 -35.1929,22.7051 -12.08582,7.34808 -24.556,14.08251 -37.46342,19.86696 -11.80898,5.29218 -23.970419,9.78305 -36.328149,13.62306 -7.988491,2.48233 -16.0997,4.70143 -24.407986,5.67627 -1.386163,0.16264 -2.780638,0.29116 -4.140895,0.60357 -1.360257,0.31241 -2.697456,0.81884 -3.80589,1.66694 -1.411715,1.08015 -2.382183,2.67138 -2.904399,4.37048 -0.522216,1.69911 -0.61895,3.50554 -0.501366,5.27919 0.114336,1.72466 0.425122,3.47778 0.04163,5.16314 -0.191747,0.84268 -0.564399,1.65741 -1.159065,2.2845 -0.594666,0.6271 -1.424229,1.05234 -2.288329,1.06677 -0.828775,0.0138 -1.63975,-0.35026 -2.248522,-0.9128 -0.608773,-0.56255 -1.025818,-1.31106 -1.280111,-2.09998 -0.508586,-1.57784 -0.387378,-3.27721 -0.44476,-4.934 -0.05923,-1.71017 -0.319262,-3.42822 -0.947702,-5.01984 -0.62844,-1.59163 -1.641841,-3.05564 -3.02569,-4.0622 -1.598516,-1.1627 -3.614936,-1.65949 -5.59158,-1.65709 -1.976644,0.002 -3.925741,0.47602 -5.799033,1.10682 -3.746583,1.2616 -7.366653,3.18075 -11.314486,3.38841 -3.495064,0.18384 -7.0442915,-1.06883 -9.6496669,-3.40577 l 0,0"
       id="path3762"
       inkscape:path-effect="#path-effect3709"
       inkscape:original-d="m 6.8115301,217.96896 c 20.4345889,-5.67627 29.5166279,-6.2439 42.0044329,-11.35255 12.487805,-5.10865 35.760528,-16.46119 47.113078,-22.7051 11.352549,-6.2439 42.572059,-25.54323 51.086479,-32.35476 8.51441,-6.81153 38.03104,-34.62528 48.81596,-43.70732 10.78492,-9.082042 30.08426,-33.490023 32.35477,-36.328161 2.27051,-2.838137 13.05543,-14.190687 13.05543,-14.190687 0,0 -5.10865,34.625276 -4.54102,37.463414 0.56762,2.838137 -4.54102,25.543244 -7.94679,28.381374 -3.40576,2.83814 -17.02882,21.56985 -33.49002,30.08426 -16.4612,8.51441 -22.13747,14.75831 -35.1929,22.7051 -13.05543,7.94678 -28.949,15.32594 -37.46342,19.86696 -8.51441,4.54102 -21.56984,9.64967 -36.328149,13.62306 -14.75832,3.97339 -19.299339,3.97339 -24.407986,5.67627 -5.108647,1.70289 -5.676275,-1.70288 -7.946785,2.27051 -2.27051,3.9734 -2.27051,3.9734 -3.405765,9.64967 -1.135255,5.67628 2.27051,10.78492 -3.405764,8.51441 -5.676275,-2.27051 -3.973393,-3.97339 -3.973393,-7.94678 0,-3.97339 3.973393,-9.08204 -3.973392,-9.08204 -7.946785,0 -19.299334,2.83814 -22.705099,2.83814 -3.405765,0 -10.7849219,-1.70289 -9.6496669,-3.40577 z" />
    <path
       inkscape:original-d="m 6.8115301,217.96896 c 20.4345889,-5.67627 29.5166279,-6.2439 42.0044329,-11.35255 12.487805,-5.10865 35.760528,-16.46119 47.113078,-22.7051 11.352549,-6.2439 42.572059,-25.54323 51.086479,-32.35476 8.51441,-6.81153 38.03104,-34.62528 48.81596,-43.70732 10.78492,-9.082042 30.08426,-33.490023 32.35477,-36.328161 2.27051,-2.838137 13.05543,-14.190687 13.05543,-14.190687 0,0 -5.10865,34.625276 -4.54102,37.463414 0.56762,2.838137 -4.54102,25.543244 -7.94679,28.381374 -3.40576,2.83814 -17.02882,21.56985 -33.49002,30.08426 -16.4612,8.51441 -22.13747,14.75831 -35.1929,22.7051 -13.05543,7.94678 -28.949,15.32594 -37.46342,19.86696 -8.51441,4.54102 -21.56984,9.64967 -36.328149,13.62306 -14.75832,3.97339 -19.299339,3.97339 -24.407986,5.67627 -5.108647,1.70289 -5.676275,-1.70288 -7.946785,2.27051 -2.27051,3.9734 -2.27051,3.9734 -3.405765,9.64967 -1.135255,5.67628 2.27051,10.78492 -3.405764,8.51441 -5.676275,-2.27051 -3.973393,-3.97339 -3.973393,-7.94678 0,-3.97339 3.973393,-9.08204 -3.973392,-9.08204 -7.946785,0 -19.299334,2.83814 -22.705099,2.83814 -3.405765,0 -10.7849219,-1.70289 -9.6496669,-3.40577 z"
       inkscape:path-effect="#path-effect3709"
       id="path3707"
       d="m 6.8115301,217.96896 c 14.3241579,-2.41637 28.4132369,-6.22423 42.0044329,-11.35255 16.325764,-6.16015 31.878271,-14.19753 47.113078,-22.7051 17.610969,-9.83448 34.883039,-20.34178 51.086479,-32.35476 17.56832,-13.02488 33.82515,-27.78346 48.81596,-43.70732 11.1157,-11.807564 21.53425,-24.249513 32.35477,-36.328161 4.28891,-4.787588 8.64123,-9.518371 13.05543,-14.190687 -1.17805,12.525442 -2.69245,25.019248 -4.54102,37.463414 -1.4516,9.771804 -3.1816,19.727564 -7.94679,28.381374 -3.65872,6.64441 -8.97891,12.25404 -14.84085,17.06777 -5.86194,4.81373 -12.2876,8.88553 -18.64917,13.01649 -11.70911,7.60345 -23.26352,15.45213 -35.1929,22.7051 -12.08582,7.34808 -24.556,14.08251 -37.46342,19.86696 -11.80898,5.29218 -23.970419,9.78305 -36.328149,13.62306 -7.988491,2.48233 -16.0997,4.70143 -24.407986,5.67627 -1.386163,0.16264 -2.780638,0.29116 -4.140895,0.60357 -1.360257,0.31241 -2.697456,0.81884 -3.80589,1.66694 -1.411715,1.08015 -2.382183,2.67138 -2.904399,4.37048 -0.522216,1.69911 -0.61895,3.50554 -0.501366,5.27919 0.114336,1.72466 0.425122,3.47778 0.04163,5.16314 -0.191747,0.84268 -0.564399,1.65741 -1.159065,2.2845 -0.594666,0.6271 -1.424229,1.05234 -2.288329,1.06677 -0.828775,0.0138 -1.63975,-0.35026 -2.248522,-0.9128 -0.608773,-0.56255 -1.025818,-1.31106 -1.280111,-2.09998 -0.508586,-1.57784 -0.387378,-3.27721 -0.44476,-4.934 -0.05923,-1.71017 -0.319262,-3.42822 -0.947702,-5.01984 -0.62844,-1.59163 -1.641841,-3.05564 -3.02569,-4.0622 -1.598516,-1.1627 -3.614936,-1.65949 -5.59158,-1.65709 -1.976644,0.002 -3.925741,0.47602 -5.799033,1.10682 -3.746583,1.2616 -7.366653,3.18075 -11.314486,3.38841 -3.495064,0.18384 -7.0442915,-1.06883 -9.6496669,-3.40577 l 0,0"
       style="fill:url(#linearGradient3717-8);fill-opacity:1;stroke-width:1px" />
    <rect
       rx="23.4217"
       y="3.7059135"
       x="8.2117586"
       height="246.31769"
       width="241.27936"
       id="rect3754"
       style="fill:none;stroke:#2d1a40;stroke-width:2.15043068;stroke-miterlimit:4;stroke-opacity:1;stroke-dasharray:none"
       transform="matrix(0,1,1,0,0,0)" />
  </g>
</svg>
