<?xml version="1.0" encoding="UTF-8" standalone="no"?>
<!-- Created with Inkscape (http://www.inkscape.org/) -->

<svg
   xmlns:dc="http://purl.org/dc/elements/1.1/"
   xmlns:cc="http://creativecommons.org/ns#"
   xmlns:rdf="http://www.w3.org/1999/02/22-rdf-syntax-ns#"
   xmlns:svg="http://www.w3.org/2000/svg"
   xmlns="http://www.w3.org/2000/svg"
   xmlns:xlink="http://www.w3.org/1999/xlink"
   xmlns:sodipodi="http://sodipodi.sourceforge.net/DTD/sodipodi-0.dtd"
   xmlns:inkscape="http://www.inkscape.org/namespaces/inkscape"
   id="svg2"
   sodipodi:version="0.32"
   inkscape:version="0.47pre4 r22446"
   width="256"
   height="256"
   version="1.0"
   sodipodi:docname="gnome_xchat.svg"
   inkscape:output_extension="org.inkscape.output.svg.inkscape">
  <sodipodi:namedview
     inkscape:window-height="718"
     inkscape:window-width="911"
     inkscape:pageshadow="2"
     inkscape:pageopacity="0.0"
     guidetolerance="10.0"
     gridtolerance="10.0"
     objecttolerance="10.0"
     borderopacity="1.0"
     bordercolor="#666666"
     pagecolor="#ffffff"
     id="base"
     width="48px"
     height="48px"
     inkscape:zoom="1.198767"
     inkscape:cx="129.971"
     inkscape:cy="128"
     inkscape:window-x="180"
     inkscape:window-y="143"
     inkscape:current-layer="svg2"
     showgrid="false"
     inkscape:window-maximized="0" />
  <metadata
     id="metadata7">
    <rdf:RDF>
      <cc:Work
         rdf:about="">
        <dc:format>image/svg+xml</dc:format>
        <dc:type
           rdf:resource="http://purl.org/dc/dcmitype/StillImage" />
        <dc:title />
      </cc:Work>
    </rdf:RDF>
  </metadata>
  <defs
     id="defs5">
    <linearGradient
       inkscape:collect="always"
       id="linearGradient1242">
      <stop
         style="stop-color:#ffffff;stop-opacity:1;"
         offset="0"
         id="stop1244" />
      <stop
         style="stop-color:#ffffff;stop-opacity:0;"
         offset="1"
         id="stop1246" />
    </linearGradient>
    <mask
       maskUnits="userSpaceOnUse"
       x="122.963"
       y="97.149"
       width="576.609"
       height="587.491"
       id="XMLID_23_">
      <g
         id="g31"
         style="filter:url(#Adobe_OpacityMaskFilter)">
        <radialGradient
           id="XMLID_24_"
           cx="88.977501"
           cy="-20.899401"
           r="673.11609"
           fx="88.977501"
           fy="-20.899401"
           gradientUnits="userSpaceOnUse">
          <stop
             offset="0.309"
             style="stop-color:#FFFFFF"
             id="stop34" />
          <stop
             offset="1"
             style="stop-color:#000000"
             id="stop3816" />
        </radialGradient>
        <ellipse
           sodipodi:ry="349.10599"
           sodipodi:rx="512.93402"
           sodipodi:cy="286.172"
           sodipodi:cx="295.89499"
           cx="295.89499"
           cy="286.172"
           rx="512.93402"
           ry="349.10599"
           id="ellipse38"
           style="fill:url(#XMLID_24_)" />
      </g>
    </mask>
    <radialGradient
       inkscape:collect="always"
       xlink:href="#linearGradient1242"
       id="radialGradient3933"
       gradientUnits="userSpaceOnUse"
       gradientTransform="matrix(0.95257037,0,0,0.95646038,6.02155,5.4548672)"
       cx="-0.45053065"
       cy="125.28513"
       fx="-0.45053065"
       fy="125.28513"
       r="127.40815" />
    <radialGradient
       inkscape:collect="always"
       xlink:href="#linearGradient1242"
       id="radialGradient3935"
       gradientUnits="userSpaceOnUse"
       gradientTransform="matrix(0.95257037,0,0,0.95646038,-247.89368,5.4548672)"
       cx="-0.45053065"
       cy="125.28513"
       fx="-0.45053065"
       fy="125.28513"
       r="127.40815" />
    <radialGradient
       inkscape:collect="always"
       xlink:href="#linearGradient1242"
       id="radialGradient3937"
       gradientUnits="userSpaceOnUse"
       gradientTransform="matrix(0.95257037,0,0,0.95646038,4.3490721,-246.7879)"
       cx="-0.45053065"
       cy="125.28513"
       fx="-0.45053065"
       fy="125.28513"
       r="127.40815" />
    <radialGradient
       inkscape:collect="always"
       xlink:href="#linearGradient1242"
       id="radialGradient3939"
       gradientUnits="userSpaceOnUse"
       gradientTransform="matrix(0.95257037,0,0,0.95646038,-246.22119,-246.7879)"
       cx="-0.45053065"
       cy="125.28513"
       fx="-0.45053065"
       fy="125.28513"
       r="127.40815" />
    <radialGradient
       inkscape:collect="always"
       xlink:href="#linearGradient1242"
       id="radialGradient3941"
       gradientUnits="userSpaceOnUse"
       gradientTransform="matrix(0.95257037,0,0,0.95646038,6.02155,5.4548672)"
       cx="-0.45053065"
       cy="125.28513"
       fx="-0.45053065"
       fy="125.28513"
       r="127.40815" />
    <radialGradient
       inkscape:collect="always"
       xlink:href="#linearGradient1242"
       id="radialGradient3943"
       gradientUnits="userSpaceOnUse"
       gradientTransform="matrix(0.95257037,0,0,0.95646038,-247.89368,5.4548672)"
       cx="-0.45053065"
       cy="125.28513"
       fx="-0.45053065"
       fy="125.28513"
       r="127.40815" />
    <radialGradient
       inkscape:collect="always"
       xlink:href="#linearGradient1242"
       id="radialGradient3945"
       gradientUnits="userSpaceOnUse"
       gradientTransform="matrix(0.95257037,0,0,0.95646038,4.3490721,-246.7879)"
       cx="-0.45053065"
       cy="125.28513"
       fx="-0.45053065"
       fy="125.28513"
       r="127.40815" />
    <radialGradient
       inkscape:collect="always"
       xlink:href="#linearGradient1242"
       id="radialGradient3947"
       gradientUnits="userSpaceOnUse"
       gradientTransform="matrix(0.95257037,0,0,0.95646038,-246.22119,-246.7879)"
       cx="-0.45053065"
       cy="125.28513"
       fx="-0.45053065"
       fy="125.28513"
       r="127.40815" />
    <linearGradient
       inkscape:collect="always"
       id="linearGradient3492">
      <stop
         style="stop-color:#f85140;stop-opacity:1;"
         offset="0"
         id="stop3494" />
      <stop
         style="stop-color:#f85140;stop-opacity:0"
         offset="1"
         id="stop3496" />
    </linearGradient>
    <linearGradient
       inkscape:collect="always"
       id="linearGradient3505">
      <stop
         style="stop-color:#ffffff;stop-opacity:1;"
         offset="0"
         id="stop3507" />
      <stop
         style="stop-color:#ffffff;stop-opacity:0;"
         offset="1"
         id="stop3509" />
    </linearGradient>
    <linearGradient
       inkscape:collect="always"
       id="linearGradient3573">
      <stop
         style="stop-color:#d0ae4f;stop-opacity:1;"
         offset="0"
         id="stop3575" />
      <stop
         style="stop-color:#d0ae4f;stop-opacity:0;"
         offset="1"
         id="stop3577" />
    </linearGradient>
    <linearGradient
       inkscape:collect="always"
       id="linearGradient3310">
      <stop
         style="stop-color:#000000;stop-opacity:1;"
         offset="0"
         id="stop3312" />
      <stop
         style="stop-color:#000000;stop-opacity:0;"
         offset="1"
         id="stop3314" />
    </linearGradient>
    <linearGradient
       inkscape:collect="always"
       id="linearGradient3238">
      <stop
         style="stop-color:#ffffff;stop-opacity:1;"
         offset="0"
         id="stop3240" />
      <stop
         style="stop-color:#ffffff;stop-opacity:0;"
         offset="1"
         id="stop3242" />
    </linearGradient>
    <radialGradient
       inkscape:collect="always"
       xlink:href="#linearGradient3492"
       id="radialGradient18958"
       gradientUnits="userSpaceOnUse"
       gradientTransform="matrix(2.2977337,1.5536112e-7,9.4397485e-8,2.0165943,-170.23529,-132.5857)"
       cx="128.51405"
       cy="124.04474"
       fx="128.51405"
       fy="124.04474"
       r="88.11364" />
    <radialGradient
       inkscape:collect="always"
       xlink:href="#linearGradient3505"
       id="radialGradient18960"
       gradientUnits="userSpaceOnUse"
       gradientTransform="matrix(1.267245,0,0,2.0165943,-37.802999,-132.5857)"
       cx="128.51405"
       cy="124.04475"
       fx="128.51405"
       fy="124.04475"
       r="88.11364" />
    <radialGradient
       inkscape:collect="always"
       xlink:href="#linearGradient3573"
       id="radialGradient18962"
       gradientUnits="userSpaceOnUse"
       gradientTransform="matrix(1.2065399,2.2031684e-8,-3.4201996e-8,1.8730331,-9.9355908,-55.297986)"
       cx="48.104954"
       cy="63.340076"
       fx="48.104954"
       fy="63.340076"
       r="48.607597" />
    <linearGradient
       inkscape:collect="always"
       xlink:href="#linearGradient3310"
       id="linearGradient18964"
       gradientUnits="userSpaceOnUse"
       gradientTransform="translate(3.2188839e-7,4.2100752)"
       x1="62.485641"
       y1="17.5205"
       x2="96.712547"
       y2="17.5205" />
    <radialGradient
       inkscape:collect="always"
       xlink:href="#linearGradient3573"
       id="radialGradient18966"
       gradientUnits="userSpaceOnUse"
       gradientTransform="matrix(1.2065399,2.2031684e-8,-3.4201996e-8,1.8730331,-9.9355908,-55.297986)"
       cx="48.104954"
       cy="63.340076"
       fx="48.104954"
       fy="63.340076"
       r="48.607597" />
    <linearGradient
       inkscape:collect="always"
       xlink:href="#linearGradient3310"
       id="linearGradient18968"
       gradientUnits="userSpaceOnUse"
       gradientTransform="translate(3.2188839e-7,4.2100752)"
       x1="37.516407"
       y1="17.498451"
       x2="54.862183"
       y2="17.498451" />
    <radialGradient
       inkscape:collect="always"
       xlink:href="#linearGradient3573"
       id="radialGradient18970"
       gradientUnits="userSpaceOnUse"
       gradientTransform="matrix(1.2065399,2.2031684e-8,-3.4201996e-8,1.8730331,-9.9355908,-55.297986)"
       cx="48.104954"
       cy="63.340076"
       fx="48.104954"
       fy="63.340076"
       r="48.607597" />
    <linearGradient
       inkscape:collect="always"
       xlink:href="#linearGradient3310"
       id="linearGradient18972"
       gradientUnits="userSpaceOnUse"
       gradientTransform="translate(3.2188839e-7,4.2100752)"
       x1="-0.5026446"
       y1="38.684628"
       x2="14.163566"
       y2="38.684628" />
    <radialGradient
       inkscape:collect="always"
       xlink:href="#linearGradient3573"
       id="radialGradient18974"
       gradientUnits="userSpaceOnUse"
       gradientTransform="matrix(1.2065399,2.2031684e-8,-3.4201996e-8,1.8730331,-9.9355908,-55.297986)"
       cx="48.104954"
       cy="63.340076"
       fx="48.104954"
       fy="63.340076"
       r="48.607597" />
    <linearGradient
       inkscape:collect="always"
       xlink:href="#linearGradient3310"
       id="linearGradient18976"
       gradientUnits="userSpaceOnUse"
       gradientTransform="translate(3.2188839e-7,4.2100752)"
       x1="16.014023"
       y1="25.260859"
       x2="31.048018"
       y2="25.260859" />
    <radialGradient
       inkscape:collect="always"
       xlink:href="#linearGradient3573"
       id="radialGradient18978"
       gradientUnits="userSpaceOnUse"
       gradientTransform="matrix(1.2065399,2.2031684e-8,-3.4201996e-8,1.8730331,-9.9355908,-55.297986)"
       cx="48.104954"
       cy="63.340076"
       fx="48.104954"
       fy="63.340076"
       r="48.607597" />
    <linearGradient
       inkscape:collect="always"
       xlink:href="#linearGradient3310"
       id="linearGradient18980"
       gradientUnits="userSpaceOnUse"
       gradientTransform="translate(3.2188839e-7,4.2100752)"
       x1="7.5344863"
       y1="79.15358"
       x2="87.036255"
       y2="106.35714" />
    <radialGradient
       inkscape:collect="always"
       xlink:href="#linearGradient3573"
       id="radialGradient18982"
       gradientUnits="userSpaceOnUse"
       gradientTransform="matrix(1.2065399,2.2031684e-8,-3.4201996e-8,1.8730331,-9.9355908,-55.297986)"
       cx="48.104954"
       cy="63.340076"
       fx="48.104954"
       fy="63.340076"
       r="48.607597" />
    <linearGradient
       inkscape:collect="always"
       xlink:href="#linearGradient3238"
       id="linearGradient18984"
       gradientUnits="userSpaceOnUse"
       x1="62.985641"
       y1="17.5205"
       x2="79.599098"
       y2="21.406723" />
    <linearGradient
       inkscape:collect="always"
       xlink:href="#linearGradient3238"
       id="linearGradient18986"
       gradientUnits="userSpaceOnUse"
       x1="38.016407"
       y1="17.498451"
       x2="48.208996"
       y2="20.089266" />
    <linearGradient
       inkscape:collect="always"
       xlink:href="#linearGradient3238"
       id="linearGradient18988"
       gradientUnits="userSpaceOnUse"
       x1="-0.0026445899"
       y1="38.684628"
       x2="8.0344868"
       y2="40.047165" />
    <linearGradient
       inkscape:collect="always"
       xlink:href="#linearGradient3238"
       id="linearGradient18990"
       gradientUnits="userSpaceOnUse"
       x1="16.514023"
       y1="25.260859"
       x2="25.366386"
       y2="26.880117" />
    <linearGradient
       inkscape:collect="always"
       xlink:href="#linearGradient3238"
       id="linearGradient18992"
       gradientUnits="userSpaceOnUse"
       x1="8.0344868"
       y1="79.15358"
       x2="38.016407"
       y2="91.783806" />
  </defs>
  <g
     id="g3916"
     transform="matrix(0.95130219,0,0,0.95130219,6.182558,0.101112)">
    <rect
       ry="41.623531"
       rx="38.038826"
       y="0.67469877"
       x="2.8674698"
       height="249.22089"
       width="248.1803"
       id="rect2380"
       style="fill:#000000;fill-opacity:1;stroke:none" />
    <g
       id="g1282">
      <rect
         ry="39.649345"
         rx="36.234657"
         y="6.5849228"
         x="8.7530165"
         height="237.40044"
         width="236.40919"
         id="rect468"
         style="fill:none;stroke:url(#radialGradient3933);stroke-width:6.32125711;stroke-miterlimit:4;stroke-opacity:1;stroke-dasharray:none" />
      <g
         id="g1270">
        <rect
           transform="scale(-1,1)"
           ry="39.649345"
           rx="36.234657"
           y="6.5849228"
           x="-245.16222"
           height="237.40044"
           width="236.40919"
           id="rect1250"
           style="fill:none;stroke:url(#radialGradient3935);stroke-width:6.32125711;stroke-miterlimit:4;stroke-opacity:1;stroke-dasharray:none" />
        <g
           id="g1262">
          <rect
             transform="matrix(0,1,-1,0,0,0)"
             ry="39.649345"
             rx="36.234657"
             y="-245.65784"
             x="7.0805359"
             height="237.40044"
             width="236.40919"
             id="rect1254"
             style="fill:none;stroke:url(#radialGradient3937);stroke-width:6.32125711;stroke-miterlimit:4;stroke-opacity:1;stroke-dasharray:none" />
          <rect
             style="fill:none;stroke:url(#radialGradient3939);stroke-width:6.32125711;stroke-miterlimit:4;stroke-opacity:1;stroke-dasharray:none"
             id="rect1258"
             width="236.40919"
             height="237.40044"
             x="-243.48973"
             y="-245.65784"
             rx="36.234657"
             ry="39.649345"
             transform="matrix(0,-1,-1,0,0,0)" />
        </g>
      </g>
    </g>
    <g
       transform="matrix(0.93688713,0,0,0.93688713,8.012659,7.9071041)"
       id="g1298">
      <rect
         style="fill:none;stroke:url(#radialGradient3941);stroke-width:6.32125711;stroke-miterlimit:4;stroke-opacity:1;stroke-dasharray:none"
         id="rect1300"
         width="236.40919"
         height="237.40044"
         x="8.7530165"
         y="6.5849228"
         rx="36.234657"
         ry="39.649345" />
      <g
         id="g1302">
        <rect
           style="fill:none;stroke:url(#radialGradient3943);stroke-width:6.32125711;stroke-miterlimit:4;stroke-opacity:1;stroke-dasharray:none"
           id="rect1304"
           width="236.40919"
           height="237.40044"
           x="-245.16222"
           y="6.5849228"
           rx="36.234657"
           ry="39.649345"
           transform="scale(-1,1)" />
        <g
           id="g1306">
          <rect
             style="fill:none;stroke:url(#radialGradient3945);stroke-width:6.32125711;stroke-miterlimit:4;stroke-opacity:1;stroke-dasharray:none"
             id="rect1308"
             width="236.40919"
             height="237.40044"
             x="7.0805359"
             y="-245.65784"
             rx="36.234657"
             ry="39.649345"
             transform="matrix(0,1,-1,0,0,0)" />
          <rect
             transform="matrix(0,-1,-1,0,0,0)"
             ry="39.649345"
             rx="36.234657"
             y="-245.65784"
             x="-243.48973"
             height="237.40044"
             width="236.40919"
             id="rect1310"
             style="fill:none;stroke:url(#radialGradient3947);stroke-width:6.32125711;stroke-miterlimit:4;stroke-opacity:1;stroke-dasharray:none" />
        </g>
      </g>
    </g>
  </g>
  <path
     style="fill:url(#radialGradient18958);fill-opacity:1;stroke:url(#radialGradient18960);stroke-width:2.04183626000000018;stroke-linecap:round;stroke-linejoin:round;stroke-miterlimit:4;stroke-opacity:1;stroke-dasharray:none"
     d="m 171.48846,206.89388 -30.28618,-30.8723 c -0.15157,-0.28963 -0.35846,-0.57773 -0.62001,-0.84131 l -12.72448,-12.82378 c -0.93398,-0.94122 -2.17754,-1.2213 -2.78029,-0.6232 l -2.52178,2.49905 -44.248194,43.40827 -40.344451,-38.29917 53.926177,-52.8818 c 0.606211,-0.59457 0.34767,-1.83172 -0.580821,-2.77836 L 46.060796,67.547559 C 45.132309,66.600911 43.89567,66.320223 43.289458,66.914812 l -0.06297,0.05761 -0.488346,-0.493611 36.829683,-38.814933 42.058445,42.893288 c 0.92849,0.946649 2.16513,1.227337 2.77135,0.632749 l 45.14201,-43.70606 36.4121,39.283325 -47.42767,45.20166 c -0.75805,0.74351 -0.43718,2.29392 0.72387,3.47766 l 52.90058,53.93483 -40.66005,37.51255 z"
     id="rect2402"
     sodipodi:nodetypes="ccccccccccccccccccccccc" />
  <g
     transform="matrix(1.0366033,0,0,1.0366033,74.974994,48.118017)"
     id="g3581">
    <g
       style="fill:url(#radialGradient18982);fill-opacity:1"
       transform="translate(1.9431118,0.323852)"
       id="g3548">
      <path
         id="path3439"
         d="m 86.068,4.2100752 c -24.602,0 -29.217,35.0409998 -15.377,35.0409998 13.838,0 39.98,-35.0409998 15.377,-35.0409998 z"
         style="fill:url(#radialGradient18962);fill-opacity:1;fill-rule:nonzero;stroke:url(#linearGradient18964);stroke-miterlimit:4;stroke-opacity:1" />
      <path
         id="path3441"
         d="m 45.217,34.909075 c 7.369,0.45 15.454,-28.1219998 1.604,-26.3249998 C 32.976,10.381075 37.845,34.459075 45.217,34.909075 z"
         style="fill:url(#radialGradient18966);fill-opacity:1;fill-rule:nonzero;stroke:url(#linearGradient18968);stroke-miterlimit:4;stroke-opacity:1" />
      <path
         id="path3443"
         d="m 11.445,52.663075 c 5.241,-2.307 0.675,-24.872 -8.2369997,-18.718 -8.908,6.155 2.996,21.024 8.2369997,18.718 z"
         style="fill:url(#radialGradient18970);fill-opacity:1;fill-rule:nonzero;stroke:url(#linearGradient18972);stroke-miterlimit:4;stroke-opacity:1" />
      <path
         id="path3445"
         d="m 26.212,40.852075 c 6.239,-1.272 6.581,-26.864 -4.545,-22.273 -11.128,4.592 -1.689,23.547 4.545,22.273 l 0,0 z"
         style="fill:url(#radialGradient18974);fill-opacity:1;fill-rule:nonzero;stroke:url(#linearGradient18976);stroke-miterlimit:4;stroke-opacity:1" />
      <path
         d="m 58.791,98.123075 c 1.107,8.454005 -6.202,12.629005 -13.36,7.179005 -22.787,-17.349005 37.729,-26.004005 33.74,-49.706005 -3.311,-19.674 -63.676,-13.617 -70.5499997,17.167 -4.653,20.821 19.1529997,49.707005 43.9929997,49.707005 12.22,0 26.315,-11.034 28.952,-25.012005 2.014,-10.659 -23.699,-6.388 -22.775,0.665 l 0,0 z"
         id="path3447"
         style="fill:url(#radialGradient18978);fill-opacity:1;fill-rule:nonzero;stroke:url(#linearGradient18980);stroke-miterlimit:4;stroke-opacity:1" />
    </g>
    <g
       transform="translate(2.2669642,5.1816311)"
       id="g3449">
      <g
         id="g3451">
        <path
           id="path3453"
           d="M 86.068,0 C 61.466,0 56.851,35.041 70.691,35.041 84.529,35.041 110.671,0 86.068,0 z"
           style="fill:url(#linearGradient18984);fill-opacity:1;fill-rule:nonzero;stroke:none" />
        <g
           id="g3455">
          <path
             style="fill:url(#linearGradient18986);fill-opacity:1;fill-rule:nonzero;stroke:none"
             d="M 45.217,30.699 C 52.586,31.149 60.671,2.577 46.821,4.374 32.976,6.171 37.845,30.249 45.217,30.699 z"
             id="path3457" />
          <g
             id="g3459">
            <path
               id="path3461"
               d="M 11.445,48.453 C 16.686,46.146 12.12,23.581 3.208,29.735 -5.7,35.89 6.204,50.759 11.445,48.453 z"
               style="fill:url(#linearGradient18988);fill-opacity:1;fill-rule:nonzero;stroke:none" />
            <path
               id="path3463"
               d="M 26.212,36.642 C 32.451,35.37 32.793,9.778 21.667,14.369 10.539,18.961 19.978,37.916 26.212,36.642 l 0,0 z"
               style="fill:url(#linearGradient18990);fill-opacity:1;fill-rule:nonzero;stroke:none" />
          </g>
        </g>
      </g>
      <path
         style="fill:url(#linearGradient18992);fill-opacity:1;fill-rule:nonzero;stroke:none"
         id="path3465"
         d="m 58.791,93.913 c 1.107,8.454 -6.202,12.629 -13.36,7.179 C 22.644,83.743 83.16,75.088 79.171,51.386 75.86,31.712 15.495,37.769 8.621,68.553 3.968,89.374 27.774,118.26 52.614,118.26 c 12.22,0 26.315,-11.034 28.952,-25.012 C 83.58,82.589 57.867,86.86 58.791,93.913 l 0,0 z" />
    </g>
  </g>
  <g
     id="g18994"
     transform="matrix(1.0366033,0,0,1.0366033,74.974994,48.118017)">
    <g
       id="g18996"
       transform="translate(1.9431118,0.323852)"
       style="fill:url(#radialGradient18982);fill-opacity:1">
      <path
         style="fill:url(#radialGradient18962);fill-opacity:1;fill-rule:nonzero;stroke:url(#linearGradient18964);stroke-miterlimit:4;stroke-opacity:1"
         d="m 86.068,4.2100752 c -24.602,0 -29.217,35.0409998 -15.377,35.0409998 13.838,0 39.98,-35.0409998 15.377,-35.0409998 z"
         id="path18998" />
      <path
         style="fill:url(#radialGradient18966);fill-opacity:1;fill-rule:nonzero;stroke:url(#linearGradient18968);stroke-miterlimit:4;stroke-opacity:1"
         d="m 45.217,34.909075 c 7.369,0.45 15.454,-28.1219998 1.604,-26.3249998 C 32.976,10.381075 37.845,34.459075 45.217,34.909075 z"
         id="path19000" />
      <path
         style="fill:url(#radialGradient18970);fill-opacity:1;fill-rule:nonzero;stroke:url(#linearGradient18972);stroke-miterlimit:4;stroke-opacity:1"
         d="m 11.445,52.663075 c 5.241,-2.307 0.675,-24.872 -8.2369997,-18.718 -8.908,6.155 2.996,21.024 8.2369997,18.718 z"
         id="path19002" />
      <path
         style="fill:url(#radialGradient18974);fill-opacity:1;fill-rule:nonzero;stroke:url(#linearGradient18976);stroke-miterlimit:4;stroke-opacity:1"
         d="m 26.212,40.852075 c 6.239,-1.272 6.581,-26.864 -4.545,-22.273 -11.128,4.592 -1.689,23.547 4.545,22.273 l 0,0 z"
         id="path19004" />
      <path
         style="fill:url(#radialGradient18978);fill-opacity:1;fill-rule:nonzero;stroke:url(#linearGradient18980);stroke-miterlimit:4;stroke-opacity:1"
         id="path19006"
         d="m 58.791,98.123075 c 1.107,8.454005 -6.202,12.629005 -13.36,7.179005 -22.787,-17.349005 37.729,-26.004005 33.74,-49.706005 -3.311,-19.674 -63.676,-13.617 -70.5499997,17.167 -4.653,20.821 19.1529997,49.707005 43.9929997,49.707005 12.22,0 26.315,-11.034 28.952,-25.012005 2.014,-10.659 -23.699,-6.388 -22.775,0.665 l 0,0 z" />
    </g>
    <g
       id="g19008"
       transform="translate(2.2669642,5.1816311)">
      <g
         id="g19010">
        <path
           style="fill:url(#linearGradient18984);fill-opacity:1;fill-rule:nonzero;stroke:none"
           d="M 86.068,0 C 61.466,0 56.851,35.041 70.691,35.041 84.529,35.041 110.671,0 86.068,0 z"
           id="path19012" />
        <g
           id="g19014">
          <path
             id="path19016"
             d="M 45.217,30.699 C 52.586,31.149 60.671,2.577 46.821,4.374 32.976,6.171 37.845,30.249 45.217,30.699 z"
             style="fill:url(#linearGradient18986);fill-opacity:1;fill-rule:nonzero;stroke:none" />
          <g
             id="g19018">
            <path
               style="fill:url(#linearGradient18988);fill-opacity:1;fill-rule:nonzero;stroke:none"
               d="M 11.445,48.453 C 16.686,46.146 12.12,23.581 3.208,29.735 -5.7,35.89 6.204,50.759 11.445,48.453 z"
               id="path19020" />
            <path
               style="fill:url(#linearGradient18990);fill-opacity:1;fill-rule:nonzero;stroke:none"
               d="M 26.212,36.642 C 32.451,35.37 32.793,9.778 21.667,14.369 10.539,18.961 19.978,37.916 26.212,36.642 l 0,0 z"
               id="path19022" />
          </g>
        </g>
      </g>
      <path
         d="m 58.791,93.913 c 1.107,8.454 -6.202,12.629 -13.36,7.179 C 22.644,83.743 83.16,75.088 79.171,51.386 75.86,31.712 15.495,37.769 8.621,68.553 3.968,89.374 27.774,118.26 52.614,118.26 c 12.22,0 26.315,-11.034 28.952,-25.012 C 83.58,82.589 57.867,86.86 58.791,93.913 l 0,0 z"
         id="path19024"
         style="fill:url(#linearGradient18992);fill-opacity:1;fill-rule:nonzero;stroke:none" />
    </g>
  </g>
  <g
     transform="matrix(1.0366033,0,0,1.0366033,74.974994,48.118017)"
     id="g19026">
    <g
       style="fill:url(#radialGradient18982);fill-opacity:1"
       transform="translate(1.9431118,0.323852)"
       id="g19028">
      <path
         id="path19030"
         d="m 86.068,4.2100752 c -24.602,0 -29.217,35.0409998 -15.377,35.0409998 13.838,0 39.98,-35.0409998 15.377,-35.0409998 z"
         style="fill:url(#radialGradient18962);fill-opacity:1;fill-rule:nonzero;stroke:url(#linearGradient18964);stroke-miterlimit:4;stroke-opacity:1" />
      <path
         id="path19032"
         d="m 45.217,34.909075 c 7.369,0.45 15.454,-28.1219998 1.604,-26.3249998 C 32.976,10.381075 37.845,34.459075 45.217,34.909075 z"
         style="fill:url(#radialGradient18966);fill-opacity:1;fill-rule:nonzero;stroke:url(#linearGradient18968);stroke-miterlimit:4;stroke-opacity:1" />
      <path
         id="path19034"
         d="m 11.445,52.663075 c 5.241,-2.307 0.675,-24.872 -8.2369997,-18.718 -8.908,6.155 2.996,21.024 8.2369997,18.718 z"
         style="fill:url(#radialGradient18970);fill-opacity:1;fill-rule:nonzero;stroke:url(#linearGradient18972);stroke-miterlimit:4;stroke-opacity:1" />
      <path
         id="path19036"
         d="m 26.212,40.852075 c 6.239,-1.272 6.581,-26.864 -4.545,-22.273 -11.128,4.592 -1.689,23.547 4.545,22.273 l 0,0 z"
         style="fill:url(#radialGradient18974);fill-opacity:1;fill-rule:nonzero;stroke:url(#linearGradient18976);stroke-miterlimit:4;stroke-opacity:1" />
      <path
         d="m 58.791,98.123075 c 1.107,8.454005 -6.202,12.629005 -13.36,7.179005 -22.787,-17.349005 37.729,-26.004005 33.74,-49.706005 -3.311,-19.674 -63.676,-13.617 -70.5499997,17.167 -4.653,20.821 19.1529997,49.707005 43.9929997,49.707005 12.22,0 26.315,-11.034 28.952,-25.012005 2.014,-10.659 -23.699,-6.388 -22.775,0.665 l 0,0 z"
         id="path19038"
         style="fill:url(#radialGradient18978);fill-opacity:1;fill-rule:nonzero;stroke:url(#linearGradient18980);stroke-miterlimit:4;stroke-opacity:1" />
    </g>
    <g
       transform="translate(2.2669642,5.1816311)"
       id="g19040">
      <g
         id="g19042">
        <path
           id="path19044"
           d="M 86.068,0 C 61.466,0 56.851,35.041 70.691,35.041 84.529,35.041 110.671,0 86.068,0 z"
           style="fill:url(#linearGradient18984);fill-opacity:1;fill-rule:nonzero;stroke:none" />
        <g
           id="g19046">
          <path
             style="fill:url(#linearGradient18986);fill-opacity:1;fill-rule:nonzero;stroke:none"
             d="M 45.217,30.699 C 52.586,31.149 60.671,2.577 46.821,4.374 32.976,6.171 37.845,30.249 45.217,30.699 z"
             id="path19048" />
          <g
             id="g19050">
            <path
               id="path19052"
               d="M 11.445,48.453 C 16.686,46.146 12.12,23.581 3.208,29.735 -5.7,35.89 6.204,50.759 11.445,48.453 z"
               style="fill:url(#linearGradient18988);fill-opacity:1;fill-rule:nonzero;stroke:none" />
            <path
               id="path19054"
               d="M 26.212,36.642 C 32.451,35.37 32.793,9.778 21.667,14.369 10.539,18.961 19.978,37.916 26.212,36.642 l 0,0 z"
               style="fill:url(#linearGradient18990);fill-opacity:1;fill-rule:nonzero;stroke:none" />
          </g>
        </g>
      </g>
      <path
         style="fill:url(#linearGradient18992);fill-opacity:1;fill-rule:nonzero;stroke:none"
         id="path19056"
         d="m 58.791,93.913 c 1.107,8.454 -6.202,12.629 -13.36,7.179 C 22.644,83.743 83.16,75.088 79.171,51.386 75.86,31.712 15.495,37.769 8.621,68.553 3.968,89.374 27.774,118.26 52.614,118.26 c 12.22,0 26.315,-11.034 28.952,-25.012 C 83.58,82.589 57.867,86.86 58.791,93.913 l 0,0 z" />
    </g>
  </g>
</svg>
