<?xml version="1.0" encoding="UTF-8" standalone="no"?>
<!-- Created with Inkscape (http://www.inkscape.org/) -->

<svg
   xmlns:dc="http://purl.org/dc/elements/1.1/"
   xmlns:cc="http://creativecommons.org/ns#"
   xmlns:rdf="http://www.w3.org/1999/02/22-rdf-syntax-ns#"
   xmlns:svg="http://www.w3.org/2000/svg"
   xmlns="http://www.w3.org/2000/svg"
   xmlns:xlink="http://www.w3.org/1999/xlink"
   xmlns:sodipodi="http://sodipodi.sourceforge.net/DTD/sodipodi-0.dtd"
   xmlns:inkscape="http://www.inkscape.org/namespaces/inkscape"
   id="svg2"
   sodipodi:version="0.32"
   inkscape:version="0.47pre0 r21549"
   width="256"
   height="256"
   version="1.0"
   sodipodi:docname="google_earth.svg"
   inkscape:output_extension="org.inkscape.output.svg.inkscape">
  <sodipodi:namedview
     inkscape:window-height="718"
     inkscape:window-width="911"
     inkscape:pageshadow="2"
     inkscape:pageopacity="0.0"
     guidetolerance="10.0"
     gridtolerance="10.0"
     objecttolerance="10.0"
     borderopacity="1.0"
     bordercolor="#666666"
     pagecolor="#ffffff"
     id="base"
     width="48px"
     height="48px"
     inkscape:zoom="1.8203125"
     inkscape:cx="128"
     inkscape:cy="128"
     inkscape:window-x="180"
     inkscape:window-y="143"
     inkscape:current-layer="svg2"
     showgrid="false" />
  <metadata
     id="metadata7">
    <rdf:RDF>
      <cc:Work
         rdf:about="">
        <dc:format>image/svg+xml</dc:format>
        <dc:type
           rdf:resource="http://purl.org/dc/dcmitype/StillImage" />
        <dc:title />
      </cc:Work>
    </rdf:RDF>
  </metadata>
  <defs
     id="defs5">
    <linearGradient
       inkscape:collect="always"
       id="linearGradient1242">
      <stop
         style="stop-color:#ffffff;stop-opacity:1;"
         offset="0"
         id="stop1244" />
      <stop
         style="stop-color:#ffffff;stop-opacity:0;"
         offset="1"
         id="stop1246" />
    </linearGradient>
    <mask
       maskUnits="userSpaceOnUse"
       x="122.963"
       y="97.149"
       width="576.609"
       height="587.491"
       id="XMLID_23_">
      <g
         id="g31"
         style="filter:url(#Adobe_OpacityMaskFilter)">
        <radialGradient
           id="XMLID_24_"
           cx="88.977501"
           cy="-20.899401"
           r="673.11609"
           fx="88.977501"
           fy="-20.899401"
           gradientUnits="userSpaceOnUse">
          <stop
             offset="0.309"
             style="stop-color:#FFFFFF"
             id="stop34" />
          <stop
             offset="1"
             style="stop-color:#000000"
             id="stop3816" />
        </radialGradient>
        <ellipse
           sodipodi:ry="349.10599"
           sodipodi:rx="512.93402"
           sodipodi:cy="286.172"
           sodipodi:cx="295.89499"
           cx="295.89499"
           cy="286.172"
           rx="512.93402"
           ry="349.10599"
           id="ellipse38"
           style="fill:url(#XMLID_24_)" />
      </g>
    </mask>
    <radialGradient
       inkscape:collect="always"
       xlink:href="#linearGradient1242"
       id="radialGradient3933"
       gradientUnits="userSpaceOnUse"
       gradientTransform="matrix(0.95257037,0,0,0.95646038,6.02155,5.4548672)"
       cx="-0.45053065"
       cy="125.28513"
       fx="-0.45053065"
       fy="125.28513"
       r="127.40815" />
    <radialGradient
       inkscape:collect="always"
       xlink:href="#linearGradient1242"
       id="radialGradient3935"
       gradientUnits="userSpaceOnUse"
       gradientTransform="matrix(0.95257037,0,0,0.95646038,-247.89368,5.4548672)"
       cx="-0.45053065"
       cy="125.28513"
       fx="-0.45053065"
       fy="125.28513"
       r="127.40815" />
    <radialGradient
       inkscape:collect="always"
       xlink:href="#linearGradient1242"
       id="radialGradient3937"
       gradientUnits="userSpaceOnUse"
       gradientTransform="matrix(0.95257037,0,0,0.95646038,4.3490721,-246.7879)"
       cx="-0.45053065"
       cy="125.28513"
       fx="-0.45053065"
       fy="125.28513"
       r="127.40815" />
    <radialGradient
       inkscape:collect="always"
       xlink:href="#linearGradient1242"
       id="radialGradient3939"
       gradientUnits="userSpaceOnUse"
       gradientTransform="matrix(0.95257037,0,0,0.95646038,-246.22119,-246.7879)"
       cx="-0.45053065"
       cy="125.28513"
       fx="-0.45053065"
       fy="125.28513"
       r="127.40815" />
    <radialGradient
       inkscape:collect="always"
       xlink:href="#linearGradient1242"
       id="radialGradient3941"
       gradientUnits="userSpaceOnUse"
       gradientTransform="matrix(0.95257037,0,0,0.95646038,6.02155,5.4548672)"
       cx="-0.45053065"
       cy="125.28513"
       fx="-0.45053065"
       fy="125.28513"
       r="127.40815" />
    <radialGradient
       inkscape:collect="always"
       xlink:href="#linearGradient1242"
       id="radialGradient3943"
       gradientUnits="userSpaceOnUse"
       gradientTransform="matrix(0.95257037,0,0,0.95646038,-247.89368,5.4548672)"
       cx="-0.45053065"
       cy="125.28513"
       fx="-0.45053065"
       fy="125.28513"
       r="127.40815" />
    <radialGradient
       inkscape:collect="always"
       xlink:href="#linearGradient1242"
       id="radialGradient3945"
       gradientUnits="userSpaceOnUse"
       gradientTransform="matrix(0.95257037,0,0,0.95646038,4.3490721,-246.7879)"
       cx="-0.45053065"
       cy="125.28513"
       fx="-0.45053065"
       fy="125.28513"
       r="127.40815" />
    <radialGradient
       inkscape:collect="always"
       xlink:href="#linearGradient1242"
       id="radialGradient3947"
       gradientUnits="userSpaceOnUse"
       gradientTransform="matrix(0.95257037,0,0,0.95646038,-246.22119,-246.7879)"
       cx="-0.45053065"
       cy="125.28513"
       fx="-0.45053065"
       fy="125.28513"
       r="127.40815" />
    <radialGradient
       inkscape:collect="always"
       xlink:href="#linearGradient4326"
       id="radialGradient4591"
       gradientUnits="userSpaceOnUse"
       gradientTransform="matrix(1,0,0,0.9068628,0,-5.2669822)"
       cx="-54.952297"
       cy="-56.550789"
       fx="-54.952297"
       fy="-56.550789"
       r="20.607111" />
    <linearGradient
       id="linearGradient4326">
      <stop
         style="stop-color:#000000;stop-opacity:1;"
         offset="0"
         id="stop4328" />
      <stop
         id="stop4334"
         offset="0.91000003"
         style="stop-color:#000000;stop-opacity:1;" />
      <stop
         style="stop-color:#000000;stop-opacity:0;"
         offset="1"
         id="stop4330" />
    </linearGradient>
    <radialGradient
       inkscape:collect="always"
       xlink:href="#linearGradient4224"
       id="radialGradient4593"
       gradientUnits="userSpaceOnUse"
       gradientTransform="matrix(1.164251,0,0,1.1066309,-7.7152118,3.6172807)"
       cx="46.972088"
       cy="-33.92337"
       fx="46.972088"
       fy="-33.92337"
       r="60.306107" />
    <linearGradient
       id="linearGradient4224">
      <stop
         style="stop-color:#95d2f8;stop-opacity:1;"
         offset="0"
         id="stop4226" />
      <stop
         id="stop4240"
         offset="0.41"
         style="stop-color:#357bb5;stop-opacity:1;" />
      <stop
         style="stop-color:#13324e;stop-opacity:1;"
         offset="1"
         id="stop4228" />
    </linearGradient>
    <radialGradient
       inkscape:collect="always"
       xlink:href="#linearGradient4463"
       id="radialGradient4595"
       gradientUnits="userSpaceOnUse"
       gradientTransform="matrix(1.1373136,0,0,1.1082148,-5.9284,3.6296571)"
       cx="65.260735"
       cy="-19.960367"
       fx="65.260735"
       fy="-19.960367"
       r="60.306107" />
    <linearGradient
       id="linearGradient4463">
      <stop
         id="stop4465"
         offset="0"
         style="stop-color:#000000;stop-opacity:0;" />
      <stop
         style="stop-color:#000000;stop-opacity:0;"
         offset="0.91000003"
         id="stop4467" />
      <stop
         id="stop4469"
         offset="1"
         style="stop-color:#000000;stop-opacity:1;" />
    </linearGradient>
    <linearGradient
       id="linearGradient4471">
      <stop
         style="stop-color:#ffffff;stop-opacity:1;"
         offset="0"
         id="stop4473" />
      <stop
         id="stop4544-4"
         offset="0.5"
         style="stop-color:#f6f6f6;stop-opacity:1;" />
      <stop
         style="stop-color:#e1e1e1;stop-opacity:1;"
         offset="1"
         id="stop4475" />
    </linearGradient>
    <radialGradient
       r="60.306107"
       fy="-33.92337"
       fx="46.972088"
       cy="-33.92337"
       cx="46.972088"
       gradientTransform="matrix(1.1583414,0,0,1.1010138,78.50486,8.465679)"
       gradientUnits="userSpaceOnUse"
       id="radialGradient7726"
       xlink:href="#linearGradient4471"
       inkscape:collect="always" />
  </defs>
  <g
     id="g3916"
     transform="matrix(0.95130219,0,0,0.95130219,6.182558,0.101112)">
    <rect
       ry="41.623531"
       rx="38.038826"
       y="0.67469877"
       x="2.8674698"
       height="249.22089"
       width="248.1803"
       id="rect2380"
       style="fill:#000000;fill-opacity:1;stroke:none" />
    <g
       id="g1282">
      <rect
         ry="39.649345"
         rx="36.234657"
         y="6.5849228"
         x="8.7530165"
         height="237.40044"
         width="236.40919"
         id="rect468"
         style="fill:none;stroke:url(#radialGradient3933);stroke-width:6.32125711;stroke-miterlimit:4;stroke-opacity:1;stroke-dasharray:none" />
      <g
         id="g1270">
        <rect
           transform="scale(-1,1)"
           ry="39.649345"
           rx="36.234657"
           y="6.5849228"
           x="-245.16222"
           height="237.40044"
           width="236.40919"
           id="rect1250"
           style="fill:none;stroke:url(#radialGradient3935);stroke-width:6.32125711;stroke-miterlimit:4;stroke-opacity:1;stroke-dasharray:none" />
        <g
           id="g1262">
          <rect
             transform="matrix(0,1,-1,0,0,0)"
             ry="39.649345"
             rx="36.234657"
             y="-245.65784"
             x="7.0805359"
             height="237.40044"
             width="236.40919"
             id="rect1254"
             style="fill:none;stroke:url(#radialGradient3937);stroke-width:6.32125711;stroke-miterlimit:4;stroke-opacity:1;stroke-dasharray:none" />
          <rect
             style="fill:none;stroke:url(#radialGradient3939);stroke-width:6.32125711;stroke-miterlimit:4;stroke-opacity:1;stroke-dasharray:none"
             id="rect1258"
             width="236.40919"
             height="237.40044"
             x="-243.48973"
             y="-245.65784"
             rx="36.234657"
             ry="39.649345"
             transform="matrix(0,-1,-1,0,0,0)" />
        </g>
      </g>
    </g>
    <g
       transform="matrix(0.93688713,0,0,0.93688713,8.012659,7.9071041)"
       id="g1298">
      <rect
         style="fill:none;stroke:url(#radialGradient3941);stroke-width:6.32125711;stroke-miterlimit:4;stroke-opacity:1;stroke-dasharray:none"
         id="rect1300"
         width="236.40919"
         height="237.40044"
         x="8.7530165"
         y="6.5849228"
         rx="36.234657"
         ry="39.649345" />
      <g
         id="g1302">
        <rect
           style="fill:none;stroke:url(#radialGradient3943);stroke-width:6.32125711;stroke-miterlimit:4;stroke-opacity:1;stroke-dasharray:none"
           id="rect1304"
           width="236.40919"
           height="237.40044"
           x="-245.16222"
           y="6.5849228"
           rx="36.234657"
           ry="39.649345"
           transform="scale(-1,1)" />
        <g
           id="g1306">
          <rect
             style="fill:none;stroke:url(#radialGradient3945);stroke-width:6.32125711;stroke-miterlimit:4;stroke-opacity:1;stroke-dasharray:none"
             id="rect1308"
             width="236.40919"
             height="237.40044"
             x="7.0805359"
             y="-245.65784"
             rx="36.234657"
             ry="39.649345"
             transform="matrix(0,1,-1,0,0,0)" />
          <rect
             transform="matrix(0,-1,-1,0,0,0)"
             ry="39.649345"
             rx="36.234657"
             y="-245.65784"
             x="-243.48973"
             height="237.40044"
             width="236.40919"
             id="rect1310"
             style="fill:none;stroke:url(#radialGradient3947);stroke-width:6.32125711;stroke-miterlimit:4;stroke-opacity:1;stroke-dasharray:none" />
        </g>
      </g>
    </g>
  </g>
  <g
     style="display:inline"
     id="g4585"
     transform="matrix(1.3020386,0,0,1.3020386,-68.052577,133.18669)">
    <path
       transform="matrix(3.105724,0,0,3.4246901,320.66667,181.66893)"
       d="m -34.345186,-56.550789 c 0,10.320999 -9.226118,18.687822 -20.607111,18.687822 -11.380993,0 -20.607111,-8.366823 -20.607111,-18.687822 0,-10.320999 9.226118,-18.687822 20.607111,-18.687822 11.380993,0 20.607111,8.366823 20.607111,18.687822 z"
       sodipodi:ry="18.687822"
       sodipodi:rx="20.607111"
       sodipodi:cy="-56.550789"
       sodipodi:cx="-54.952297"
       id="path4307"
       style="opacity:0.54828659;color:#000000;fill:url(#radialGradient4591);fill-opacity:1;fill-rule:evenodd;stroke:none;stroke-width:2;marker:none;visibility:visible;display:inline;overflow:visible;enable-background:accumulate"
       sodipodi:type="arc" />
    <path
       transform="matrix(0.9949241,0,0,0.9949241,86.18091,4.8667588)"
       d="m 124.45079,-16.952808 c 0,33.306143 -26.999963,60.306106 -60.306106,60.306106 -33.306143,0 -60.3061067,-26.999963 -60.3061067,-60.306106 0,-33.306143 26.9999637,-60.306107 60.3061067,-60.306107 33.306143,0 60.306106,26.999964 60.306106,60.306107 z"
       sodipodi:ry="60.306107"
       sodipodi:rx="60.306107"
       sodipodi:cy="-16.952808"
       sodipodi:cx="64.144684"
       id="path3253"
       style="color:#000000;fill:url(#radialGradient4593);fill-opacity:1;fill-rule:evenodd;stroke:none;stroke-width:2;marker:none;visibility:visible;display:inline;overflow:visible;enable-background:accumulate"
       sodipodi:type="arc" />
    <path
       transform="matrix(0.9949241,0,0,0.9949241,86.18091,4.8667588)"
       d="m 124.45079,-16.952808 c 0,33.306143 -26.999963,60.306106 -60.306106,60.306106 -33.306143,0 -60.3061067,-26.999963 -60.3061067,-60.306106 0,-33.306143 26.9999637,-60.306107 60.3061067,-60.306107 33.306143,0 60.306106,26.999964 60.306106,60.306107 z"
       sodipodi:ry="60.306107"
       sodipodi:rx="60.306107"
       sodipodi:cy="-16.952808"
       sodipodi:cx="64.144684"
       id="path4449"
       style="color:#000000;fill:url(#radialGradient4595);fill-opacity:1;fill-rule:evenodd;stroke:none;stroke-width:2;marker:none;visibility:visible;display:inline;overflow:visible;enable-background:accumulate"
       sodipodi:type="arc" />
    <path
       id="path4540"
       d="m 150,-69.5 c -7.16963,0 -14.01235,1.349192 -20.34375,3.75 17.42858,0.305773 27.26443,2.115772 36.1875,7 0.74359,0.407019 1.4842,0.830666 2.21875,1.28125 2.20366,1.351751 4.39535,2.911072 6.65625,4.6875 9.74486,7.656709 10.59772,16.974385 18.875,24.09375 5.03926,4.33432 4.3572,3.968749 6.6875,3.96875 2.55039,0 3.84871,-2.305251 4.46875,-4.8125 C 197.32889,-52.702654 175.62459,-69.500002 150,-69.5 z m -23.0625,10.5625 c -1.21859,0 -2.43298,0.131328 -3.625,0.375 -0.39734,0.08122 -0.79398,0.175827 -1.1875,0.28125 -11.01858,2.951853 -20.44707,15.107323 -23.53125,20.6875 -0.196186,0.354957 -0.418536,0.772164 -0.625,1.15625 -1.6377,3.477358 -2.956391,7.121984 -3.875,10.9375 0.882243,-1.128774 1.740835,-2.188244 2.59375,-3.1875 5.97041,-6.994793 11.43417,-10.781249 19.28125,-10.78125 14.00168,-10e-7 15.78056,6.238078 41.4375,22.96875 12.62732,8.2341636 31.78893,19.5892866 47.59375,21.28125 0.64834,-2.1258123 1.16192,-4.30905454 1.5625,-6.53125 -5.91311,-0.4268904 -11.23985,-2.6809275 -17,-6.5 -0.82288,-0.5455818 -1.65665,-1.1095061 -2.5,-1.71875 -6.74677,-4.873951 -14.24492,-11.76493 -24,-20.3125 -7.4276,-6.508198 -26.10868,-28.656249 -36.125,-28.65625 z M 106.875,6.71875 c -4.43952,0 -7.752288,2.2502384 -8.125,7.3125 6.22372,12.218619 16.67634,21.91297 29.4375,27.15625 -0.16916,-0.236664 -0.32973,-0.485997 -0.5,-0.75 -1.19188,-1.848019 -2.34375,-4.347463 -2.34375,-7.21875 0,-3.340433 2.16025,-4.65625 4.59375,-4.65625 3.24094,0 13.9388,5.09375 31.84375,5.09375 8.95574,0 20.12882,-1.311863 28.3125,-4.46875 3.23222,-3.147086 6.07627,-6.67055 8.5,-10.5 -5.23084,2.120598 -14.9037,5.187499 -27.5,5.1875 -24.33423,0 -46.52601,-10.386733 -52.9375,-13.71875 -1.70068,-0.883835 -6.05994,-3.4375001 -11.28125,-3.4375 z"
       style="color:#000000;fill:url(#radialGradient7726);fill-opacity:1;fill-rule:evenodd;stroke:none;stroke-width:2;marker:none;visibility:visible;display:inline;overflow:visible;enable-background:accumulate" />
  </g>
</svg>
