<?xml version="1.0" encoding="UTF-8" standalone="no"?>
<!-- Created with Inkscape (http://www.inkscape.org/) -->

<svg
   xmlns:dc="http://purl.org/dc/elements/1.1/"
   xmlns:cc="http://creativecommons.org/ns#"
   xmlns:rdf="http://www.w3.org/1999/02/22-rdf-syntax-ns#"
   xmlns:svg="http://www.w3.org/2000/svg"
   xmlns="http://www.w3.org/2000/svg"
   xmlns:xlink="http://www.w3.org/1999/xlink"
   xmlns:sodipodi="http://sodipodi.sourceforge.net/DTD/sodipodi-0.dtd"
   xmlns:inkscape="http://www.inkscape.org/namespaces/inkscape"
   id="svg2"
   sodipodi:version="0.32"
   inkscape:version="0.47pre4 r22446"
   width="256"
   height="256"
   version="1.0"
   sodipodi:docname="inkscape.svg"
   inkscape:output_extension="org.inkscape.output.svg.inkscape">
  <sodipodi:namedview
     inkscape:window-height="718"
     inkscape:window-width="911"
     inkscape:pageshadow="2"
     inkscape:pageopacity="0.0"
     guidetolerance="10.0"
     gridtolerance="10.0"
     objecttolerance="10.0"
     borderopacity="1.0"
     bordercolor="#666666"
     pagecolor="#ffffff"
     id="base"
     width="48px"
     height="48px"
     inkscape:zoom="1.8554688"
     inkscape:cx="128"
     inkscape:cy="128"
     inkscape:window-x="180"
     inkscape:window-y="143"
     inkscape:current-layer="svg2"
     showgrid="false"
     inkscape:window-maximized="0" />
  <metadata
     id="metadata7">
    <rdf:RDF>
      <cc:Work
         rdf:about="">
        <dc:format>image/svg+xml</dc:format>
        <dc:type
           rdf:resource="http://purl.org/dc/dcmitype/StillImage" />
        <dc:title />
      </cc:Work>
    </rdf:RDF>
  </metadata>
  <defs
     id="defs5">
    <linearGradient
       inkscape:collect="always"
       id="linearGradient1242">
      <stop
         style="stop-color:#ffffff;stop-opacity:1;"
         offset="0"
         id="stop1244" />
      <stop
         style="stop-color:#ffffff;stop-opacity:0;"
         offset="1"
         id="stop1246" />
    </linearGradient>
    <mask
       maskUnits="userSpaceOnUse"
       x="122.963"
       y="97.149"
       width="576.609"
       height="587.491"
       id="XMLID_23_">
      <g
         id="g31"
         style="filter:url(#Adobe_OpacityMaskFilter)">
        <radialGradient
           id="XMLID_24_"
           cx="88.977501"
           cy="-20.899401"
           r="673.11609"
           fx="88.977501"
           fy="-20.899401"
           gradientUnits="userSpaceOnUse">
          <stop
             offset="0.309"
             style="stop-color:#FFFFFF"
             id="stop34" />
          <stop
             offset="1"
             style="stop-color:#000000"
             id="stop3816" />
        </radialGradient>
        <ellipse
           sodipodi:ry="349.10599"
           sodipodi:rx="512.93402"
           sodipodi:cy="286.172"
           sodipodi:cx="295.89499"
           cx="295.89499"
           cy="286.172"
           rx="512.93402"
           ry="349.10599"
           id="ellipse38"
           style="fill:url(#XMLID_24_)" />
      </g>
    </mask>
    <radialGradient
       inkscape:collect="always"
       xlink:href="#linearGradient1242"
       id="radialGradient3933"
       gradientUnits="userSpaceOnUse"
       gradientTransform="matrix(0.95257037,0,0,0.95646038,6.02155,5.4548672)"
       cx="-0.45053065"
       cy="125.28513"
       fx="-0.45053065"
       fy="125.28513"
       r="127.40815" />
    <radialGradient
       inkscape:collect="always"
       xlink:href="#linearGradient1242"
       id="radialGradient3935"
       gradientUnits="userSpaceOnUse"
       gradientTransform="matrix(0.95257037,0,0,0.95646038,-247.89368,5.4548672)"
       cx="-0.45053065"
       cy="125.28513"
       fx="-0.45053065"
       fy="125.28513"
       r="127.40815" />
    <radialGradient
       inkscape:collect="always"
       xlink:href="#linearGradient1242"
       id="radialGradient3937"
       gradientUnits="userSpaceOnUse"
       gradientTransform="matrix(0.95257037,0,0,0.95646038,4.3490721,-246.7879)"
       cx="-0.45053065"
       cy="125.28513"
       fx="-0.45053065"
       fy="125.28513"
       r="127.40815" />
    <radialGradient
       inkscape:collect="always"
       xlink:href="#linearGradient1242"
       id="radialGradient3939"
       gradientUnits="userSpaceOnUse"
       gradientTransform="matrix(0.95257037,0,0,0.95646038,-246.22119,-246.7879)"
       cx="-0.45053065"
       cy="125.28513"
       fx="-0.45053065"
       fy="125.28513"
       r="127.40815" />
    <radialGradient
       inkscape:collect="always"
       xlink:href="#linearGradient1242"
       id="radialGradient3941"
       gradientUnits="userSpaceOnUse"
       gradientTransform="matrix(0.95257037,0,0,0.95646038,6.02155,5.4548672)"
       cx="-0.45053065"
       cy="125.28513"
       fx="-0.45053065"
       fy="125.28513"
       r="127.40815" />
    <radialGradient
       inkscape:collect="always"
       xlink:href="#linearGradient1242"
       id="radialGradient3943"
       gradientUnits="userSpaceOnUse"
       gradientTransform="matrix(0.95257037,0,0,0.95646038,-247.89368,5.4548672)"
       cx="-0.45053065"
       cy="125.28513"
       fx="-0.45053065"
       fy="125.28513"
       r="127.40815" />
    <radialGradient
       inkscape:collect="always"
       xlink:href="#linearGradient1242"
       id="radialGradient3945"
       gradientUnits="userSpaceOnUse"
       gradientTransform="matrix(0.95257037,0,0,0.95646038,4.3490721,-246.7879)"
       cx="-0.45053065"
       cy="125.28513"
       fx="-0.45053065"
       fy="125.28513"
       r="127.40815" />
    <radialGradient
       inkscape:collect="always"
       xlink:href="#linearGradient1242"
       id="radialGradient3947"
       gradientUnits="userSpaceOnUse"
       gradientTransform="matrix(0.95257037,0,0,0.95646038,-246.22119,-246.7879)"
       cx="-0.45053065"
       cy="125.28513"
       fx="-0.45053065"
       fy="125.28513"
       r="127.40815" />
    <filter
       color-interpolation-filters="sRGB"
       id="ShadowBlur"
       filterUnits="userSpaceOnUse"
       x="0"
       y="0">
      <feGaussianBlur
         in="SourceAlpha"
         stdDeviation="3"
         result="blur"
         id="feGaussianBlur24" />
    </filter>
    <clipPath
       clipPathUnits="userSpaceOnUse"
       id="clipoutline1">
      <path
         id="outline1"
         d="M 54.1,12.5 12.9,54.7 C -2.7,70.3 23,69 32.3,74.9 36.6,77.7 18.5,81.3 22.2,85 c 3.6,3.7 21.7,7.1 25.3,10.7 3.6,3.7 -7.3,7.6 -3.7,11.3 3.5,3.7 11.9,0.2 13.4,8.6 1.1,6.2 15.4,3.1 21.8,-2.2 4,-3.4 -6.9,-3.4 -3.3,-7.1 9,-9.1 17,-4.1 20.3,-12.5 1.8,-4.5 -13.6,-7.7 -9.5,-10.6 9.8,-6.9 45.8,-10.4 29.2,-27 L 73,12.5 c -5.3,-5 -14,-5 -18.9,0 z m -9.9,64.7 c 0.9,0 30.8,4 19.3,7.1 -4.4,1.2 -24.6,-7.1 -19.3,-7.1 z m 57.2,16.6 c 0,2.1 16.3,3.3 15.4,-0.5 -1.3,-6.4 -13.6,-5.9 -15.4,0.5 z m -69.5,11.1 c 3.7,3.2 9.3,-0.7 11.1,-5.2 -3.6,-4.7 -16.9,0.3 -11.1,5.2 z m 67.5,-6.7 c -4.6,4.2 0.8,8.6 5.3,5.7 1.2,-0.8 -0.1,-4.7 -5.3,-5.7 z" />
    </clipPath>
    <linearGradient
       id="liquidSpecular"
       xlink:href="#white"
       x1="0"
       y1="128"
       x2="0"
       y2="76"
       gradientUnits="userSpaceOnUse" />
    <linearGradient
       id="white"
       gradientUnits="userSpaceOnUse">
      <stop
         style="stop-color:#fff;stop-opacity:1"
         offset="0"
         id="stop7" />
      <stop
         style="stop-color:#fff;stop-opacity:0"
         offset="1"
         id="stop9" />
    </linearGradient>
    <linearGradient
       inkscape:collect="always"
       xlink:href="#linearGradient3296"
       id="linearGradient3302"
       x1="7.4850903"
       y1="63.890827"
       x2="120.51176"
       y2="63.890827"
       gradientUnits="userSpaceOnUse" />
    <linearGradient
       inkscape:collect="always"
       id="linearGradient3296">
      <stop
         style="stop-color:#b818ec;stop-opacity:1;"
         offset="0"
         id="stop3298" />
      <stop
         style="stop-color:#b818ec;stop-opacity:0;"
         offset="1"
         id="stop3300" />
    </linearGradient>
    <linearGradient
       inkscape:collect="always"
       xlink:href="#linearGradient3206"
       id="linearGradient3212"
       x1="13.528977"
       y1="41.724186"
       x2="71.199997"
       y2="41.724186"
       gradientUnits="userSpaceOnUse" />
    <linearGradient
       inkscape:collect="always"
       id="linearGradient3206">
      <stop
         style="stop-color:#fefeff;stop-opacity:1;"
         offset="0"
         id="stop3208-3" />
      <stop
         style="stop-color:#fefeff;stop-opacity:0;"
         offset="1"
         id="stop3210" />
    </linearGradient>
    <linearGradient
       y2="50"
       x2="90"
       y1="20"
       x1="60"
       gradientUnits="userSpaceOnUse"
       id="linearGradient10146"
       xlink:href="#white"
       inkscape:collect="always" />
    <linearGradient
       inkscape:collect="always"
       xlink:href="#white"
       id="linearGradient2903"
       gradientUnits="userSpaceOnUse"
       x1="0"
       y1="128"
       x2="0"
       y2="76" />
    <linearGradient
       inkscape:collect="always"
       xlink:href="#linearGradient3296"
       id="linearGradient2905"
       gradientUnits="userSpaceOnUse"
       x1="7.4850903"
       y1="63.890827"
       x2="120.51176"
       y2="63.890827" />
    <linearGradient
       inkscape:collect="always"
       xlink:href="#linearGradient3206"
       id="linearGradient2907"
       gradientUnits="userSpaceOnUse"
       x1="13.528977"
       y1="41.724186"
       x2="71.199997"
       y2="41.724186" />
    <linearGradient
       inkscape:collect="always"
       xlink:href="#white"
       id="linearGradient2909"
       gradientUnits="userSpaceOnUse"
       x1="60"
       y1="20"
       x2="90"
       y2="50" />
    <linearGradient
       inkscape:collect="always"
       xlink:href="#white"
       id="linearGradient2912"
       gradientUnits="userSpaceOnUse"
       x1="60"
       y1="20"
       x2="90"
       y2="50"
       gradientTransform="matrix(1.4689926,0,0,1.4689926,32.95854,16.865326)" />
    <linearGradient
       inkscape:collect="always"
       xlink:href="#linearGradient3206"
       id="linearGradient2916"
       gradientUnits="userSpaceOnUse"
       x1="13.528977"
       y1="41.724186"
       x2="71.199997"
       y2="41.724186"
       gradientTransform="matrix(1.4689926,0,0,1.4689926,32.95854,16.865326)" />
    <linearGradient
       inkscape:collect="always"
       xlink:href="#linearGradient3296"
       id="linearGradient3699"
       gradientUnits="userSpaceOnUse"
       x1="31.979132"
       y1="63.890827"
       x2="175.12143"
       y2="63.890827" />
  </defs>
  <g
     id="g3916"
     transform="matrix(0.95130219,0,0,0.95130219,6.182558,0.101112)">
    <rect
       ry="41.623531"
       rx="38.038826"
       y="0.67469877"
       x="2.8674698"
       height="249.22089"
       width="248.1803"
       id="rect2380"
       style="fill:#000000;fill-opacity:1;stroke:none" />
    <g
       id="g1282">
      <rect
         ry="39.649345"
         rx="36.234657"
         y="6.5849228"
         x="8.7530165"
         height="237.40044"
         width="236.40919"
         id="rect468"
         style="fill:none;stroke:url(#radialGradient3933);stroke-width:6.32125711;stroke-miterlimit:4;stroke-opacity:1;stroke-dasharray:none" />
      <g
         id="g1270">
        <rect
           transform="scale(-1,1)"
           ry="39.649345"
           rx="36.234657"
           y="6.5849228"
           x="-245.16222"
           height="237.40044"
           width="236.40919"
           id="rect1250"
           style="fill:none;stroke:url(#radialGradient3935);stroke-width:6.32125711;stroke-miterlimit:4;stroke-opacity:1;stroke-dasharray:none" />
        <g
           id="g1262">
          <rect
             transform="matrix(0,1,-1,0,0,0)"
             ry="39.649345"
             rx="36.234657"
             y="-245.65784"
             x="7.0805359"
             height="237.40044"
             width="236.40919"
             id="rect1254"
             style="fill:none;stroke:url(#radialGradient3937);stroke-width:6.32125711;stroke-miterlimit:4;stroke-opacity:1;stroke-dasharray:none" />
          <rect
             style="fill:none;stroke:url(#radialGradient3939);stroke-width:6.32125711;stroke-miterlimit:4;stroke-opacity:1;stroke-dasharray:none"
             id="rect1258"
             width="236.40919"
             height="237.40044"
             x="-243.48973"
             y="-245.65784"
             rx="36.234657"
             ry="39.649345"
             transform="matrix(0,-1,-1,0,0,0)" />
        </g>
      </g>
    </g>
    <g
       transform="matrix(0.93688713,0,0,0.93688713,8.012659,7.9071041)"
       id="g1298">
      <rect
         style="fill:none;stroke:url(#radialGradient3941);stroke-width:6.32125711;stroke-miterlimit:4;stroke-opacity:1;stroke-dasharray:none"
         id="rect1300"
         width="236.40919"
         height="237.40044"
         x="8.7530165"
         y="6.5849228"
         rx="36.234657"
         ry="39.649345" />
      <g
         id="g1302">
        <rect
           style="fill:none;stroke:url(#radialGradient3943);stroke-width:6.32125711;stroke-miterlimit:4;stroke-opacity:1;stroke-dasharray:none"
           id="rect1304"
           width="236.40919"
           height="237.40044"
           x="-245.16222"
           y="6.5849228"
           rx="36.234657"
           ry="39.649345"
           transform="scale(-1,1)" />
        <g
           id="g1306">
          <rect
             style="fill:none;stroke:url(#radialGradient3945);stroke-width:6.32125711;stroke-miterlimit:4;stroke-opacity:1;stroke-dasharray:none"
             id="rect1308"
             width="236.40919"
             height="237.40044"
             x="7.0805359"
             y="-245.65784"
             rx="36.234657"
             ry="39.649345"
             transform="matrix(0,1,-1,0,0,0)" />
          <rect
             transform="matrix(0,-1,-1,0,0,0)"
             ry="39.649345"
             rx="36.234657"
             y="-245.65784"
             x="-243.48973"
             height="237.40044"
             width="236.40919"
             id="rect1310"
             style="fill:none;stroke:url(#radialGradient3947);stroke-width:6.32125711;stroke-miterlimit:4;stroke-opacity:1;stroke-dasharray:none" />
        </g>
      </g>
    </g>
  </g>
  <path
     style="opacity:0.70980392;fill:#000000;filter:url(#ShadowBlur)"
     id="path30"
     d="m 8,62.9 c -2.5,9.4 15.4,11.1 24.3,14.7 2.2,1 1.2,-3.2 0.1,-4.2 C 25.2,69.8 10.2,69 8,62.9 z m 111.6,1 c -2.7,8.9 -25,13.1 -33,17.8 -2.1,1.2 -3.2,6.3 0.4,4.3 9.6,-5.3 35.8,-10.7 32.6,-22.1 z M 44.3,75.7 C 41,75.7 39,77.3 44.9,79.4 52.6,80 63.7,83 66,84 69.8,77.5 45,75.7 44.3,75.7 z m -21.1,8.5 c -1.4,-1.2 -2.9,1 -0.9,2.8 3.5,3.8 22.6,7.9 26.3,11.5 1.8,0.9 1.2,-2.5 0.1,-3.6 C 45.3,91.5 28.2,87.6 23.2,84.2 z m 78.5,9.7 c 0.2,3.5 15.8,7.6 15.2,0.1 -0.2,-2.6 -15.4,-2.7 -15.2,-0.1 z m -6.1,-0.2 c -3.4,7.1 -11.3,2.5 -19.8,11.1 -2.3,1.7 -1.3,6.2 1,3.8 8.7,-8.2 16.4,-3.7 19.4,-12.6 0.2,-1 0,-1.6 -0.6,-2.3 z M 31.5,106 c 4.5,5 9.8,1.8 11.5,-5.7 -0.4,-1.7 -16.8,0.1 -11.5,5.7 z m 67.2,-5.8 c -5.4,4.4 3.3,9.4 6,5.8 3.6,-4.7 -3.4,-3.4 -6,-5.8 z M 43.5,105 c -0.9,1.2 -0.8,3 0.3,4.2 3.6,3.6 12,0.1 13.5,8.6 1.1,6.1 15.2,3.5 22,-1.4 1.5,-1.6 1.6,-5.4 -0.3,-4.4 -29.8,13.4 -10.8,-3.8 -35.5,-7 z"
     class="bs"
     transform="matrix(1.4689926,0,0,1.4689926,32.95854,16.865326)" />
  <use
     height="128"
     width="128"
     y="0"
     x="0"
     style="opacity:0.1;fill:none"
     id="use32"
     xlink:href="#outline1"
     class="outline-big"
     transform="matrix(1.4689926,0,0,1.4689926,32.95854,16.865326)" />
  <use
     height="128"
     width="128"
     y="0"
     x="0"
     style="opacity:0.2;fill:none"
     id="use34"
     xlink:href="#outline1"
     class="outline-small"
     transform="matrix(1.4689926,0,0,1.4689926,32.95854,16.865326)" />
  <use
     height="128"
     width="128"
     y="0"
     x="0"
     style="fill:#000000"
     id="use36"
     xlink:href="#outline1"
     class="black"
     transform="matrix(1.4689926,0,0,1.4689926,32.95854,16.865326)" />
  <use
     height="128"
     width="128"
     y="0"
     x="0"
     style="opacity:0.2;fill:none"
     id="use38"
     class="stroke-highlight"
     xlink:href="#outline1"
     clip-path="url(#clipoutline1)"
     transform="matrix(1.4689926,0,0,1.4689926,32.95854,16.865326)" />
  <use
     height="128"
     width="128"
     y="0"
     x="0"
     id="use40"
     xlink:href="#outline1"
     class="specularity"
     style="opacity:0.5;fill:url(#linearGradient2903)"
     transform="matrix(1.4689926,0,0,1.4689926,32.95854,16.865326)" />
  <use
     height="128"
     width="128"
     y="0"
     x="0"
     id="use42"
     xlink:href="#outline1"
     class="low-specularity"
     style="fill:url(#linearGradient3699);fill-opacity:1;stroke:none"
     transform="matrix(1.4689926,0,0,1.4689926,32.95854,16.865326)" />
  <path
     id="path44"
     d="m 57.637616,100.451 c -16.305818,16.15892 12.339538,11.60505 34.374427,20.2721 L 137.55081,40.663006 c -6.90426,-7.051164 -15.71822,-6.463567 -22.03489,0 L 57.637616,100.451 z"
     style="opacity:0.82677165;fill:url(#linearGradient2916);fill-opacity:1"
     class="specularity" />
  <path
     id="path46"
     d="m 46.032574,107.50217 c -3.819381,13.80853 19.684501,13.51473 32.758535,18.65621 2.203489,-1.3221 3.378683,-2.93799 1.762791,-4.40698 -10.576746,-5.28838 -31.436441,-5.28838 -34.521326,-14.24923 z m 163.205076,1.46899 c -3.96628,13.07404 -37.45931,18.06861 -49.06435,24.97288 -1.61589,1.61589 -0.5876,3.08488 1.32209,4.55387 14.39613,-7.19806 52.44304,-12.78023 47.74226,-29.52675 z M 98.034912,125.13008 c -4.700776,0 -7.638761,2.35039 0.881396,5.43527 11.311242,0.8814 27.617062,5.43528 31.142642,6.90427 5.43527,-9.69535 -30.848844,-12.33954 -32.024038,-12.33954 z m -30.995744,12.48644 c -1.90969,1.32209 -2.937985,2.79108 -1.322093,4.26008 5.141474,5.43527 31.583341,10.42984 37.018615,15.71822 1.32209,-1.76279 1.76279,-3.52559 0.1469,-5.28838 -4.994577,-4.99457 -28.498459,-9.69535 -35.843422,-14.68992 z m 117.225612,13.36783 c -1.0283,1.17519 -1.90969,2.49729 -2.20349,3.96628 0,3.08488 22.62248,4.99458 22.62248,-0.8814 -0.44069,-1.02829 -0.88139,-2.05658 -1.76279,-3.08488 -4.11318,2.35039 -14.24922,1.76279 -18.6562,0 z m -10.87055,0.5876 c -4.99457,10.42984 -16.59961,3.67248 -29.08605,16.30582 -2.05659,2.20348 -0.8814,3.37868 1.02829,4.40697 12.78024,-12.04574 24.53218,-4.26008 28.93916,-17.33411 0.2938,-1.32209 0,-2.35039 -0.8814,-3.37868 z M 94.068632,161.8549 c -3.525582,4.70077 -9.695351,7.78566 -14.102329,3.96628 -0.440698,-0.2938 -0.734496,-0.7345 -1.028295,-1.1752 -1.615891,2.05659 -1.615891,4.26008 1.028295,6.61047 5.288374,4.55388 13.661631,-1.1752 16.158919,-7.63876 -0.440698,-0.7345 -1.322094,-1.3221 -2.05659,-1.76279 z m 83.291878,1.46899 c -3.37868,5.43527 3.37869,9.84225 9.40156,6.46357 0.88139,-1.0283 0.73449,-3.08489 -0.8814,-5.14148 -3.52558,1.76279 -6.90427,0.7345 -8.52016,-1.32209 z m -79.913195,5.72907 c -1.322093,1.61589 -1.762791,3.52558 -0.146899,5.28837 5.288374,5.28838 17.627914,0.1469 19.831404,12.63334 1.61589,8.96085 21.59419,4.26008 31.58334,-2.93799 2.20349,-2.40914 1.17519,-3.96628 -0.7345,-5.14147 -10.42985,7.05116 -29.37985,11.31124 -30.84884,2.79109 -2.20349,-12.48644 -14.39613,-7.49187 -19.684505,-12.63334 z"
     class="shade"
     style="fill:#8987a6;fill-opacity:1" />
  <path
     id="path48"
     d="m 136.52252,39.634711 23.94458,24.385277 c 2.20349,2.203489 2.20349,6.757366 0.88139,8.07946 L 149.44965,62.404097 147.09927,76.653325 137.25701,71.364951 121.245,81.501 115.95662,60.200608 107.43646,78.709914 86.136072,78.563015 c -4.113179,0 -3.525582,-4.260078 0.734496,-8.520157 8.373258,-9.254653 24.679072,-24.972874 29.820552,-30.408147 5.28837,-5.435272 14.54302,-5.288373 19.8314,0 z"
     style="fill:url(#linearGradient2912)"
     class="full-specularity" />
</svg>
