<?xml version="1.0" encoding="UTF-8" standalone="no"?>
<!-- Created with Inkscape (http://www.inkscape.org/) -->

<svg
   xmlns:dc="http://purl.org/dc/elements/1.1/"
   xmlns:cc="http://creativecommons.org/ns#"
   xmlns:rdf="http://www.w3.org/1999/02/22-rdf-syntax-ns#"
   xmlns:svg="http://www.w3.org/2000/svg"
   xmlns="http://www.w3.org/2000/svg"
   xmlns:xlink="http://www.w3.org/1999/xlink"
   xmlns:sodipodi="http://sodipodi.sourceforge.net/DTD/sodipodi-0.dtd"
   xmlns:inkscape="http://www.inkscape.org/namespaces/inkscape"
   id="svg2"
   sodipodi:version="0.32"
   inkscape:version="0.47pre0 r21549"
   width="256"
   height="256"
   version="1.0"
   sodipodi:docname="kpdf.svg"
   inkscape:output_extension="org.inkscape.output.svg.inkscape">
  <sodipodi:namedview
     inkscape:window-height="718"
     inkscape:window-width="911"
     inkscape:pageshadow="2"
     inkscape:pageopacity="0.0"
     guidetolerance="10.0"
     gridtolerance="10.0"
     objecttolerance="10.0"
     borderopacity="1.0"
     bordercolor="#666666"
     pagecolor="#ffffff"
     id="base"
     width="48px"
     height="48px"
     inkscape:zoom="1.8203125"
     inkscape:cx="128"
     inkscape:cy="128"
     inkscape:window-x="180"
     inkscape:window-y="143"
     inkscape:current-layer="svg2"
     showgrid="false" />
  <metadata
     id="metadata7">
    <rdf:RDF>
      <cc:Work
         rdf:about="">
        <dc:format>image/svg+xml</dc:format>
        <dc:type
           rdf:resource="http://purl.org/dc/dcmitype/StillImage" />
        <dc:title />
      </cc:Work>
    </rdf:RDF>
  </metadata>
  <defs
     id="defs5">
    <linearGradient
       inkscape:collect="always"
       id="linearGradient1242">
      <stop
         style="stop-color:#ffffff;stop-opacity:1;"
         offset="0"
         id="stop1244" />
      <stop
         style="stop-color:#ffffff;stop-opacity:0;"
         offset="1"
         id="stop1246" />
    </linearGradient>
    <mask
       maskUnits="userSpaceOnUse"
       x="122.963"
       y="97.149"
       width="576.609"
       height="587.491"
       id="XMLID_23_">
      <g
         id="g31"
         style="filter:url(#Adobe_OpacityMaskFilter)">
        <radialGradient
           id="XMLID_24_"
           cx="88.977501"
           cy="-20.899401"
           r="673.11609"
           fx="88.977501"
           fy="-20.899401"
           gradientUnits="userSpaceOnUse">
          <stop
             offset="0.309"
             style="stop-color:#FFFFFF"
             id="stop34" />
          <stop
             offset="1"
             style="stop-color:#000000"
             id="stop3816" />
        </radialGradient>
        <ellipse
           sodipodi:ry="349.10599"
           sodipodi:rx="512.93402"
           sodipodi:cy="286.172"
           sodipodi:cx="295.89499"
           cx="295.89499"
           cy="286.172"
           rx="512.93402"
           ry="349.10599"
           id="ellipse38"
           style="fill:url(#XMLID_24_)" />
      </g>
    </mask>
    <radialGradient
       inkscape:collect="always"
       xlink:href="#linearGradient1242"
       id="radialGradient3933"
       gradientUnits="userSpaceOnUse"
       gradientTransform="matrix(0.95257037,0,0,0.95646038,6.02155,5.4548672)"
       cx="-0.45053065"
       cy="125.28513"
       fx="-0.45053065"
       fy="125.28513"
       r="127.40815" />
    <radialGradient
       inkscape:collect="always"
       xlink:href="#linearGradient1242"
       id="radialGradient3935"
       gradientUnits="userSpaceOnUse"
       gradientTransform="matrix(0.95257037,0,0,0.95646038,-247.89368,5.4548672)"
       cx="-0.45053065"
       cy="125.28513"
       fx="-0.45053065"
       fy="125.28513"
       r="127.40815" />
    <radialGradient
       inkscape:collect="always"
       xlink:href="#linearGradient1242"
       id="radialGradient3937"
       gradientUnits="userSpaceOnUse"
       gradientTransform="matrix(0.95257037,0,0,0.95646038,4.3490721,-246.7879)"
       cx="-0.45053065"
       cy="125.28513"
       fx="-0.45053065"
       fy="125.28513"
       r="127.40815" />
    <radialGradient
       inkscape:collect="always"
       xlink:href="#linearGradient1242"
       id="radialGradient3939"
       gradientUnits="userSpaceOnUse"
       gradientTransform="matrix(0.95257037,0,0,0.95646038,-246.22119,-246.7879)"
       cx="-0.45053065"
       cy="125.28513"
       fx="-0.45053065"
       fy="125.28513"
       r="127.40815" />
    <radialGradient
       inkscape:collect="always"
       xlink:href="#linearGradient1242"
       id="radialGradient3941"
       gradientUnits="userSpaceOnUse"
       gradientTransform="matrix(0.95257037,0,0,0.95646038,6.02155,5.4548672)"
       cx="-0.45053065"
       cy="125.28513"
       fx="-0.45053065"
       fy="125.28513"
       r="127.40815" />
    <radialGradient
       inkscape:collect="always"
       xlink:href="#linearGradient1242"
       id="radialGradient3943"
       gradientUnits="userSpaceOnUse"
       gradientTransform="matrix(0.95257037,0,0,0.95646038,-247.89368,5.4548672)"
       cx="-0.45053065"
       cy="125.28513"
       fx="-0.45053065"
       fy="125.28513"
       r="127.40815" />
    <radialGradient
       inkscape:collect="always"
       xlink:href="#linearGradient1242"
       id="radialGradient3945"
       gradientUnits="userSpaceOnUse"
       gradientTransform="matrix(0.95257037,0,0,0.95646038,4.3490721,-246.7879)"
       cx="-0.45053065"
       cy="125.28513"
       fx="-0.45053065"
       fy="125.28513"
       r="127.40815" />
    <radialGradient
       inkscape:collect="always"
       xlink:href="#linearGradient1242"
       id="radialGradient3947"
       gradientUnits="userSpaceOnUse"
       gradientTransform="matrix(0.95257037,0,0,0.95646038,-246.22119,-246.7879)"
       cx="-0.45053065"
       cy="125.28513"
       fx="-0.45053065"
       fy="125.28513"
       r="127.40815" />
    <radialGradient
       inkscape:collect="always"
       xlink:href="#defitem6"
       id="radialGradient2997"
       gradientUnits="userSpaceOnUse"
       cx="73.007133"
       cy="35.246998"
       fx="73.577736"
       fy="36.397415"
       r="59.586807" />
    <radialGradient
       cx="8.0810003"
       cy="113.15"
       r="0"
       fx="8.0810003"
       fy="113.15"
       id="defitem6"
       gradientUnits="userSpaceOnUse">
      <stop
         style="stop-color:#930000;stop-opacity:1"
         offset="0"
         id="stop22" />
      <stop
         style="stop-color:#ff0000;stop-opacity:1"
         offset="1"
         id="stop23-3" />
    </radialGradient>
    <radialGradient
       inkscape:collect="always"
       xlink:href="#defitem7"
       id="radialGradient2999"
       gradientUnits="userSpaceOnUse"
       cx="54.713276"
       cy="86.406906"
       fx="54.713276"
       fy="86.406906"
       r="29.68524" />
    <radialGradient
       cx="12.4712"
       cy="109.832"
       r="0"
       fx="12.4712"
       fy="109.832"
       id="defitem7"
       gradientUnits="userSpaceOnUse">
      <stop
         style="stop-color:#d80000;stop-opacity:1"
         offset="0"
         id="stop25-2" />
      <stop
         style="stop-color:#ff0000;stop-opacity:1"
         offset="1"
         id="stop26" />
    </radialGradient>
    <linearGradient
       inkscape:collect="always"
       xlink:href="#defitem8"
       id="linearGradient3001"
       gradientUnits="userSpaceOnUse"
       x1="58.98806"
       y1="70.278"
       x2="62.030338"
       y2="68.659927" />
    <linearGradient
       id="defitem8"
       gradientUnits="userSpaceOnUse">
      <stop
         style="stop-color:#ffffff;stop-opacity:1"
         offset="0"
         id="stop28" />
      <stop
         style="stop-color:#ffffff;stop-opacity:0.0392157"
         offset="1"
         id="stop29-9" />
    </linearGradient>
    <linearGradient
       inkscape:collect="always"
       xlink:href="#defitem9"
       id="linearGradient3003"
       gradientUnits="userSpaceOnUse"
       x1="20.27614"
       y1="42.227146"
       x2="24.529287"
       y2="36.843983" />
    <linearGradient
       id="defitem9"
       gradientUnits="userSpaceOnUse">
      <stop
         style="stop-color:#ffffff;stop-opacity:1"
         offset="0"
         id="stop31-5" />
      <stop
         style="stop-color:#ffffff;stop-opacity:0.0392157"
         offset="1"
         id="stop32" />
    </linearGradient>
    <linearGradient
       inkscape:collect="always"
       xlink:href="#defitem10"
       id="linearGradient3005"
       gradientUnits="userSpaceOnUse"
       x1="65.620506"
       y1="109.25394"
       x2="66.55027"
       y2="101.88625" />
    <linearGradient
       id="defitem10"
       gradientUnits="userSpaceOnUse">
      <stop
         style="stop-color:#ffffff;stop-opacity:1"
         offset="0"
         id="stop34-4" />
      <stop
         style="stop-color:#ffffff;stop-opacity:0.0392157"
         offset="1"
         id="stop35" />
    </linearGradient>
    <linearGradient
       inkscape:collect="always"
       xlink:href="#defitem11"
       id="linearGradient3007"
       gradientUnits="userSpaceOnUse"
       x1="32.108662"
       y1="40.691608"
       x2="37.486244"
       y2="36.71624" />
    <linearGradient
       id="defitem11"
       gradientUnits="userSpaceOnUse">
      <stop
         style="stop-color:#ffffff;stop-opacity:1"
         offset="0"
         id="stop37" />
      <stop
         style="stop-color:#ffffff;stop-opacity:0.0392157"
         offset="1"
         id="stop38-3" />
    </linearGradient>
    <linearGradient
       inkscape:collect="always"
       xlink:href="#defitem12"
       id="linearGradient3009"
       gradientUnits="userSpaceOnUse"
       x1="73.363419"
       y1="71.612144"
       x2="75.2938"
       y2="68.811462" />
    <linearGradient
       id="defitem12"
       gradientUnits="userSpaceOnUse">
      <stop
         style="stop-color:#ffffff;stop-opacity:1"
         offset="0"
         id="stop40-9" />
      <stop
         style="stop-color:#ffffff;stop-opacity:0.0392157"
         offset="1"
         id="stop41" />
    </linearGradient>
    <linearGradient
       inkscape:collect="always"
       xlink:href="#defitem6"
       id="linearGradient3011"
       gradientUnits="userSpaceOnUse"
       x1="110.57641"
       y1="26.807936"
       x2="106.40227"
       y2="22.989912" />
    <linearGradient
       inkscape:collect="always"
       xlink:href="#defitem13"
       id="linearGradient3013"
       gradientUnits="userSpaceOnUse"
       x1="115.44772"
       y1="99.115242"
       x2="116.29766"
       y2="97.674049" />
    <linearGradient
       id="defitem13"
       gradientUnits="userSpaceOnUse">
      <stop
         style="stop-color:#ffffff;stop-opacity:1"
         offset="0"
         id="stop43" />
      <stop
         style="stop-color:#ffffff;stop-opacity:0.0392157"
         offset="1"
         id="stop44" />
    </linearGradient>
    <linearGradient
       inkscape:collect="always"
       xlink:href="#defitem14"
       id="linearGradient3015"
       gradientUnits="userSpaceOnUse"
       x1="96.205971"
       y1="26.333294"
       x2="89.118103"
       y2="36.362526" />
    <linearGradient
       id="defitem14"
       gradientUnits="userSpaceOnUse">
      <stop
         style="stop-color:#ffffff;stop-opacity:1"
         offset="0"
         id="stop46-4" />
      <stop
         style="stop-color:#ffffff;stop-opacity:0.0392157"
         offset="1"
         id="stop47-9" />
    </linearGradient>
    <linearGradient
       y2="-15.125634"
       x2="121.33043"
       y1="-17.400202"
       x1="120.02631"
       gradientTransform="scale(0.5667893,1.7643241)"
       gradientUnits="userSpaceOnUse"
       id="linearGradient10548"
       xlink:href="#defitem14"
       inkscape:collect="always" />
  </defs>
  <g
     id="g3916"
     transform="matrix(0.95130219,0,0,0.95130219,6.182558,0.101112)">
    <rect
       ry="41.623531"
       rx="38.038826"
       y="0.67469877"
       x="2.8674698"
       height="249.22089"
       width="248.1803"
       id="rect2380"
       style="fill:#000000;fill-opacity:1;stroke:none" />
    <g
       id="g1282">
      <rect
         ry="39.649345"
         rx="36.234657"
         y="6.5849228"
         x="8.7530165"
         height="237.40044"
         width="236.40919"
         id="rect468"
         style="fill:none;stroke:url(#radialGradient3933);stroke-width:6.32125711;stroke-miterlimit:4;stroke-opacity:1;stroke-dasharray:none" />
      <g
         id="g1270">
        <rect
           transform="scale(-1,1)"
           ry="39.649345"
           rx="36.234657"
           y="6.5849228"
           x="-245.16222"
           height="237.40044"
           width="236.40919"
           id="rect1250"
           style="fill:none;stroke:url(#radialGradient3935);stroke-width:6.32125711;stroke-miterlimit:4;stroke-opacity:1;stroke-dasharray:none" />
        <g
           id="g1262">
          <rect
             transform="matrix(0,1,-1,0,0,0)"
             ry="39.649345"
             rx="36.234657"
             y="-245.65784"
             x="7.0805359"
             height="237.40044"
             width="236.40919"
             id="rect1254"
             style="fill:none;stroke:url(#radialGradient3937);stroke-width:6.32125711;stroke-miterlimit:4;stroke-opacity:1;stroke-dasharray:none" />
          <rect
             style="fill:none;stroke:url(#radialGradient3939);stroke-width:6.32125711;stroke-miterlimit:4;stroke-opacity:1;stroke-dasharray:none"
             id="rect1258"
             width="236.40919"
             height="237.40044"
             x="-243.48973"
             y="-245.65784"
             rx="36.234657"
             ry="39.649345"
             transform="matrix(0,-1,-1,0,0,0)" />
        </g>
      </g>
    </g>
    <g
       transform="matrix(0.93688713,0,0,0.93688713,8.012659,7.9071041)"
       id="g1298">
      <rect
         style="fill:none;stroke:url(#radialGradient3941);stroke-width:6.32125711;stroke-miterlimit:4;stroke-opacity:1;stroke-dasharray:none"
         id="rect1300"
         width="236.40919"
         height="237.40044"
         x="8.7530165"
         y="6.5849228"
         rx="36.234657"
         ry="39.649345" />
      <g
         id="g1302">
        <rect
           style="fill:none;stroke:url(#radialGradient3943);stroke-width:6.32125711;stroke-miterlimit:4;stroke-opacity:1;stroke-dasharray:none"
           id="rect1304"
           width="236.40919"
           height="237.40044"
           x="-245.16222"
           y="6.5849228"
           rx="36.234657"
           ry="39.649345"
           transform="scale(-1,1)" />
        <g
           id="g1306">
          <rect
             style="fill:none;stroke:url(#radialGradient3945);stroke-width:6.32125711;stroke-miterlimit:4;stroke-opacity:1;stroke-dasharray:none"
             id="rect1308"
             width="236.40919"
             height="237.40044"
             x="7.0805359"
             y="-245.65784"
             rx="36.234657"
             ry="39.649345"
             transform="matrix(0,1,-1,0,0,0)" />
          <rect
             transform="matrix(0,-1,-1,0,0,0)"
             ry="39.649345"
             rx="36.234657"
             y="-245.65784"
             x="-243.48973"
             height="237.40044"
             width="236.40919"
             id="rect1310"
             style="fill:none;stroke:url(#radialGradient3947);stroke-width:6.32125711;stroke-miterlimit:4;stroke-opacity:1;stroke-dasharray:none" />
        </g>
      </g>
    </g>
  </g>
  <g
     style="stroke:none"
     id="g2390"
     transform="matrix(1.6425879,0,0,1.6425879,0.2429444,32.026484)">
    <path
       id="path938"
       style="fill:url(#radialGradient2997);fill-opacity:0.75;stroke:none"
       transform="matrix(1.07551,-0.09385002,0.32708,1.136002,6.048421,62.89123)"
       d="m 63.34375,-48.875 c -2.85295,0.4675 -5.206301,2.201501 -5.0625,5.375 0.356139,7.860883 1.994951,15.63011 4.4375,23.15625 l 0,0 c -0.384665,1.019425 -0.809832,2.031753 -1.15625,3.0625 -2.835925,8.4378926 -7.145167,16.40691503 -12.5,23.59375 l -0.40625,0.40625 -0.46875,0.375 c -2.329712,1.3204827 -4.653135,2.6215044 -6.8125,3.625 -8.4477,3.9259 -19.1122,5.5919 -26.25,12.1875 -6.5592,6.0609 0.35635,12.594651 8.15625,10.65625 9.7718,-2.4284 21.638799,-11.47505 29.5625,-20.65625 0.981937,-1.137757 1.758705,-2.399856 2.59375,-3.625 L 55.875,8.625 56.5625,8.09375 C 61.092287,5.3068178 65.99674,1.8976371 70.71875,-1.4375 l 0.15625,0.21875 c 0.82084,1.6156253 1.592987,3.272697 2.46875,4.84375 3.3477,6.0054 16.141048,33.300051 22.59375,34.21875 0.9475,0.1349 3.094748,-3.502099 0.65625,-6.4375 C 90.742867,24.363135 82.830488,8.4699197 76.71875,-5.5625 l 0.3125,-0.25 c 9.146393,-6.63294 36.92086,-25.948191 41.4375,-28.28125 4.078,-2.1068 5.1785,-8.268501 0.8125,-6.0625 -12.87739,6.506767 -28.809285,18.434474 -44.375,29.59375 l -0.25,0.15625 C 73.000476,-14.389213 71.681892,-17.82037 70.53125,-21 l 0,0 c 0.55336,-1.422201 1.157978,-2.837608 1.71875,-4.25 2.6717,-6.7291 4.645149,-15.59475 -0.84375,-21.34375 -1.8622,-1.9505 -5.20955,-2.74875 -8.0625,-2.28125 z m 2.03125,5.6875 c -0.0712,-0.895 2.995752,6.731 2.21875,9.4375 -0.139643,0.486433 -0.346874,0.954707 -0.5,1.4375 l 0,0 c -0.800043,-3.607446 -1.429691,-7.235571 -1.71875,-10.875 z m 1,32.40625 c 0.648627,1.5298427 1.362995,3.2149103 2.0625,4.71875 l -0.28125,0.21875 c -1.8852,1.3219354 -3.806358,2.6820397 -5.65625,3.9375 l -0.21875,0.125 c 1.475811,-2.9225016 2.826582,-5.9678859 4.09375,-9 l 0,0 z M 39.875,16.75 39.625,17 C 35.606255,20.86752 31.275201,24.412603 26.5625,27.40625 21.2313,30.79285 17.21505,26.3874 22.78125,23.625 27.668803,21.199294 34.077206,18.971042 39.5,16.875 l 0.375,-0.125 z" />
    <path
       id="path1538"
       style="fill:url(#radialGradient2999);stroke:none"
       transform="matrix(1.07551,-0.09385002,-0.32708,-1.136002,26.38314,133.517)"
       d="m 63.7812,109.138 c -0.3205,-0.092 -1.4455,-0.467 -1.5624,-0.5 -4.322,-3.505 -0.8766,-10.3596 -0.4063,-15.063 0.6019,-6.019 4.4552,-11.9912 0.5313,-17.6562 -2.441,-6.0566 -5.2365,-12.3641 -9.125,-17.6875 l 5.625,3.3125 c 0.6735,1.6181 1.7368,3.6428 2.9687,5.8125 2.5635,2.9118 4.0811,17.0678 6.4063,6.375 C 72.6666,68.0042 67.9572,65.933 62.8039,62.4661 57.806,59.1038 49.657,53.9276 48.75,53.075 38.1566,46.0759 23.9076,45.6478 15.0938,36.0125 c -2.1226,-6.3587 7.8175,-6.7892 11.4374,-3.9687 12.0252,4.5423 21.183,14.3741 29.2813,23.7812 5.5299,3.1205 10.4913,7.1145 15.75,10.6563 7.175,-13.2424 13.0829,-27.5173 22.9063,-39.0625 3.5001,-0.2049 -3.2677,6.6503 -4.2813,9.0937 C 84.1227,46.7086 78.9709,57.4342 74.2812,68.325 89.193,78.9239 103.795,90.017 119.438,99.5125 116.866,99.4223 109.568,94.1527 105.469,91.6375 94.7418,84.5015 84.4459,76.7308 73.8125,69.45 c -1.9312,6.0291 -7.6263,12.4758 -3.4687,18.5938 2.6187,6.459 4.9242,17.2192 -3,20.7812 -4.4739,0.507 3.3863,-6.553 2.2187,-10.1562 0.4159,-4.0704 -3.305,-16.047 -4,-6.2188 -1.5757,5.3129 -1.8811,11.692 -1.7813,16.688 z M 45.7188,49.2 C 44.2604,47.4813 42.8021,45.7625 41.3438,44.0438 35.7338,39.3115 30.1815,32.695 22.625,31.575 16.9955,31.34 17.0263,39.1426 22,40.3875 29.7857,43.6422 37.5079,47.1297 45.7188,49.2 z" />
    <path
       id="path922"
       style="fill:url(#linearGradient3001);fill-rule:evenodd;stroke:none"
       transform="matrix(1.07551,-0.09385002,-0.32708,-1.136002,26.38314,133.517)"
       d="m 52.1029,57.0098 c 3.3298,2.6983 8.0912,14.9848 12.8096,24.4329 C 64.1521,70.5442 60.6959,62.9836 52.1029,57.0098 z" />
    <path
       id="path2786"
       style="fill:url(#linearGradient3003);fill-rule:evenodd;stroke:none"
       transform="matrix(1.07551,-0.09385002,-0.32708,-1.136002,26.38314,133.517)"
       d="M 14.3782,33.2099 C 12.5969,38.0875 20.4858,44.1102 38.554,48.0971 22.5216,42.7105 15.9051,38.7237 14.3782,33.2099 z" />
    <path
       id="path3408"
       style="fill:url(#linearGradient3005);fill-rule:evenodd;stroke:none"
       transform="matrix(1.07551,-0.09385002,-0.32708,-1.136002,26.38314,133.517)"
       d="m 60.9842,97.8105 c -1.0706,4.2835 -1.2532,8.0875 0.753,10.5325 2.0062,2.446 6.9209,1.551 9.9268,-3.563 -2.8877,1.985 -5.6483,2.746 -7.6416,1.759 -1.9934,-0.987 -3.2195,-3.722 -3.0382,-8.7285 z" />
    <path
       id="path921"
       style="fill:url(#linearGradient3007);fill-rule:evenodd;stroke:none"
       transform="matrix(1.07551,-0.09385002,-0.32708,-1.136002,26.38314,133.517)"
       d="M 20.2265,32.94 C 25.0131,30.9796 36.411,39.4316 43.5025,46.8375 38.3569,38.3019 23.103,28.5567 20.2265,32.94 z" />
    <path
       id="path923"
       style="fill:url(#linearGradient3009);fill-rule:evenodd;stroke:none"
       transform="matrix(1.07551,-0.09385002,-0.32708,-1.136002,26.38314,133.517)"
       d="m 37.5013,47.7855 c 2.0784,0.9992 5.0448,2.5547 8.6818,4.6735 1.8185,1.0595 12.9659,8.3674 15.0925,9.7094 C 63.4021,63.5105 111.73,96.8046 114.11,98.4311 112.014,96.4772 64.3892,62.6543 62.4549,61.2443 60.5205,59.8343 49.5043,52.5595 47.726,51.5767 44.1694,49.6111 40.4691,48.7429 37.5013,47.7855 z" />
    <path
       id="path2377"
       style="fill:url(#linearGradient3011);fill-rule:evenodd;stroke:none"
       d="m 122.85034,6.9905769 c 1.0999,0.5293882 0.54568,2.2675654 -0.32665,3.1150561 L 97.32804,34.443982 c 4.42702,-5.087957 8.69192,-10.32749 13.28107,-15.263871 3.91828,-4.214754 8.16082,-8.126356 12.24123,-12.1895341 z" />
    <path
       id="path1548"
       style="fill:url(#linearGradient3013);fill-rule:evenodd;stroke:none"
       transform="matrix(1.07551,-0.09385002,-0.32708,-1.136002,26.38314,133.517)"
       d="m 109.307,95.02 c 3.157,2.827 9.48,6.556 10.915,6.49 2.13,-0.098 0.619,-2.5602 -0.988,-3.8007 0.407,1.1116 -0.168,1.4849 -0.613,1.6936 -1.655,0.7761 -5.151,-1.6873 -9.314,-4.3829 z" />
    <path
       id="path1549"
       style="fill:url(#linearGradient3015);fill-rule:evenodd;stroke:none"
       transform="matrix(1.07551,-0.09385002,-0.32708,-1.136002,26.38314,133.517)"
       d="m 95.5572,29.4214 c 0.2784,-1.6878 0.017,-2.4759 -1.459,-2.0944 -2.5017,2.8293 -4.5084,5.8385 -6.4252,9.0276 2.2518,-1.1788 2.5243,-0.8281 2.032,1.3221 1.6358,-2.9767 3.5866,-5.5035 5.8522,-8.2553 z" />
    <path
       id="path2374"
       style="fill:url(#linearGradient10548);fill-opacity:0.25882353;fill-rule:evenodd;stroke:none"
       transform="matrix(1.07551,-0.09385002,0.32708,1.136002,6.048421,62.89123)"
       d="m 69.625705,-36.221253 c 1.0706,4.283501 -0.01126,9.986731 -1.957814,10.993003 -2.059396,1.06461 -1.066201,-3.015787 -0.104604,-3.527982 0.664425,-0.312738 1.765472,-2.442027 2.062418,-7.465021 z" />
  </g>
</svg>
