<?xml version="1.0" encoding="UTF-8" standalone="no"?>
<!-- Created with Inkscape (http://www.inkscape.org/) -->

<svg
   xmlns:dc="http://purl.org/dc/elements/1.1/"
   xmlns:cc="http://creativecommons.org/ns#"
   xmlns:rdf="http://www.w3.org/1999/02/22-rdf-syntax-ns#"
   xmlns:svg="http://www.w3.org/2000/svg"
   xmlns="http://www.w3.org/2000/svg"
   xmlns:xlink="http://www.w3.org/1999/xlink"
   xmlns:sodipodi="http://sodipodi.sourceforge.net/DTD/sodipodi-0.dtd"
   xmlns:inkscape="http://www.inkscape.org/namespaces/inkscape"
   id="svg2"
   sodipodi:version="0.32"
   inkscape:version="0.47pre4 r22446"
   width="256"
   height="256"
   version="1.0"
   sodipodi:docname="wine.svg"
   inkscape:output_extension="org.inkscape.output.svg.inkscape">
  <sodipodi:namedview
     inkscape:window-height="718"
     inkscape:window-width="911"
     inkscape:pageshadow="2"
     inkscape:pageopacity="0.0"
     guidetolerance="10.0"
     gridtolerance="10.0"
     objecttolerance="10.0"
     borderopacity="1.0"
     bordercolor="#666666"
     pagecolor="#ffffff"
     id="base"
     width="48px"
     height="48px"
     inkscape:zoom="1.8203125"
     inkscape:cx="128"
     inkscape:cy="128"
     inkscape:window-x="180"
     inkscape:window-y="143"
     inkscape:current-layer="svg2"
     showgrid="false"
     inkscape:window-maximized="0" />
  <metadata
     id="metadata7">
    <rdf:RDF>
      <cc:Work
         rdf:about="">
        <dc:format>image/svg+xml</dc:format>
        <dc:type
           rdf:resource="http://purl.org/dc/dcmitype/StillImage" />
        <dc:title />
      </cc:Work>
    </rdf:RDF>
  </metadata>
  <defs
     id="defs5">
    <linearGradient
       inkscape:collect="always"
       id="linearGradient1242">
      <stop
         style="stop-color:#ffffff;stop-opacity:1;"
         offset="0"
         id="stop1244" />
      <stop
         style="stop-color:#ffffff;stop-opacity:0;"
         offset="1"
         id="stop1246" />
    </linearGradient>
    <mask
       maskUnits="userSpaceOnUse"
       x="122.963"
       y="97.149"
       width="576.609"
       height="587.491"
       id="XMLID_23_">
      <g
         id="g31"
         style="filter:url(#Adobe_OpacityMaskFilter)">
        <radialGradient
           id="XMLID_24_"
           cx="88.977501"
           cy="-20.899401"
           r="673.11609"
           fx="88.977501"
           fy="-20.899401"
           gradientUnits="userSpaceOnUse">
          <stop
             offset="0.309"
             style="stop-color:#FFFFFF"
             id="stop34" />
          <stop
             offset="1"
             style="stop-color:#000000"
             id="stop3816" />
        </radialGradient>
        <ellipse
           sodipodi:ry="349.10599"
           sodipodi:rx="512.93402"
           sodipodi:cy="286.172"
           sodipodi:cx="295.89499"
           cx="295.89499"
           cy="286.172"
           rx="512.93402"
           ry="349.10599"
           id="ellipse38"
           style="fill:url(#XMLID_24_)" />
      </g>
    </mask>
    <radialGradient
       inkscape:collect="always"
       xlink:href="#linearGradient1242"
       id="radialGradient3933"
       gradientUnits="userSpaceOnUse"
       gradientTransform="matrix(0.95257037,0,0,0.95646038,6.02155,5.4548672)"
       cx="-0.45053065"
       cy="125.28513"
       fx="-0.45053065"
       fy="125.28513"
       r="127.40815" />
    <radialGradient
       inkscape:collect="always"
       xlink:href="#linearGradient1242"
       id="radialGradient3935"
       gradientUnits="userSpaceOnUse"
       gradientTransform="matrix(0.95257037,0,0,0.95646038,-247.89368,5.4548672)"
       cx="-0.45053065"
       cy="125.28513"
       fx="-0.45053065"
       fy="125.28513"
       r="127.40815" />
    <radialGradient
       inkscape:collect="always"
       xlink:href="#linearGradient1242"
       id="radialGradient3937"
       gradientUnits="userSpaceOnUse"
       gradientTransform="matrix(0.95257037,0,0,0.95646038,4.3490721,-246.7879)"
       cx="-0.45053065"
       cy="125.28513"
       fx="-0.45053065"
       fy="125.28513"
       r="127.40815" />
    <radialGradient
       inkscape:collect="always"
       xlink:href="#linearGradient1242"
       id="radialGradient3939"
       gradientUnits="userSpaceOnUse"
       gradientTransform="matrix(0.95257037,0,0,0.95646038,-246.22119,-246.7879)"
       cx="-0.45053065"
       cy="125.28513"
       fx="-0.45053065"
       fy="125.28513"
       r="127.40815" />
    <radialGradient
       inkscape:collect="always"
       xlink:href="#linearGradient1242"
       id="radialGradient3941"
       gradientUnits="userSpaceOnUse"
       gradientTransform="matrix(0.95257037,0,0,0.95646038,6.02155,5.4548672)"
       cx="-0.45053065"
       cy="125.28513"
       fx="-0.45053065"
       fy="125.28513"
       r="127.40815" />
    <radialGradient
       inkscape:collect="always"
       xlink:href="#linearGradient1242"
       id="radialGradient3943"
       gradientUnits="userSpaceOnUse"
       gradientTransform="matrix(0.95257037,0,0,0.95646038,-247.89368,5.4548672)"
       cx="-0.45053065"
       cy="125.28513"
       fx="-0.45053065"
       fy="125.28513"
       r="127.40815" />
    <radialGradient
       inkscape:collect="always"
       xlink:href="#linearGradient1242"
       id="radialGradient3945"
       gradientUnits="userSpaceOnUse"
       gradientTransform="matrix(0.95257037,0,0,0.95646038,4.3490721,-246.7879)"
       cx="-0.45053065"
       cy="125.28513"
       fx="-0.45053065"
       fy="125.28513"
       r="127.40815" />
    <radialGradient
       inkscape:collect="always"
       xlink:href="#linearGradient1242"
       id="radialGradient3947"
       gradientUnits="userSpaceOnUse"
       gradientTransform="matrix(0.95257037,0,0,0.95646038,-246.22119,-246.7879)"
       cx="-0.45053065"
       cy="125.28513"
       fx="-0.45053065"
       fy="125.28513"
       r="127.40815" />
    <linearGradient
       inkscape:collect="always"
       xlink:href="#SVGID_1_"
       id="linearGradient3317"
       gradientUnits="userSpaceOnUse"
       x1="0.96920002"
       y1="46.639198"
       x2="113.5581"
       y2="46.639198" />
    <linearGradient
       id="SVGID_1_"
       gradientUnits="userSpaceOnUse"
       x1="0.96920002"
       y1="46.639198"
       x2="113.5581"
       y2="46.639198">
      <stop
         offset="0"
         style="stop-color: rgb(157, 35, 27);"
         id="stop251" />
      <stop
         offset="0.0302"
         style="stop-color: rgb(146, 36, 29);"
         id="stop253" />
      <stop
         offset="0.1555"
         style="stop-color: rgb(111, 37, 33);"
         id="stop255" />
      <stop
         offset="0.2837"
         style="stop-color: rgb(83, 33, 32);"
         id="stop257" />
      <stop
         offset="0.4133"
         style="stop-color: rgb(63, 28, 30);"
         id="stop259" />
      <stop
         offset="0.5452"
         style="stop-color: rgb(48, 24, 27);"
         id="stop261" />
      <stop
         offset="0.6803"
         style="stop-color: rgb(41, 20, 25);"
         id="stop263" />
      <stop
         offset="0.8242"
         style="stop-color: rgb(38, 19, 24);"
         id="stop265" />
    </linearGradient>
    <radialGradient
       inkscape:collect="always"
       xlink:href="#SVGID_2_"
       id="radialGradient3319"
       gradientUnits="userSpaceOnUse"
       cx="81.695801"
       cy="74.743698"
       r="77.0345" />
    <radialGradient
       id="SVGID_2_"
       cx="81.695801"
       cy="74.743698"
       r="77.0345"
       gradientUnits="userSpaceOnUse">
      <stop
         offset="0"
         style="stop-color: rgb(157, 35, 27);"
         id="stop270" />
      <stop
         offset="0.8297"
         style="stop-color: rgb(38, 19, 24);"
         id="stop272" />
      <stop
         offset="1"
         style="stop-color: rgb(157, 35, 27);"
         id="stop274" />
    </radialGradient>
    <linearGradient
       inkscape:collect="always"
       xlink:href="#SVGID_3_"
       id="linearGradient3321"
       gradientUnits="userSpaceOnUse"
       x1="62.453602"
       y1="280.439"
       x2="100.5962"
       y2="280.439" />
    <linearGradient
       id="SVGID_3_"
       gradientUnits="userSpaceOnUse"
       x1="62.453602"
       y1="280.439"
       x2="100.5962"
       y2="280.439">
      <stop
         offset="0"
         style="stop-color: rgb(77, 77, 77);"
         id="stop293" />
      <stop
         offset="1"
         style="stop-color: rgb(38, 19, 24);"
         id="stop295" />
    </linearGradient>
    <linearGradient
       id="SVGID_4_"
       gradientUnits="userSpaceOnUse"
       x1="58.186001"
       y1="208.70171"
       x2="58.809502"
       y2="182.5173">
      <stop
         offset="0"
         style="stop-color: rgb(77, 77, 77);"
         id="stop308" />
      <stop
         offset="1"
         style="stop-color: rgb(26, 26, 26);"
         id="stop310" />
    </linearGradient>
    <linearGradient
       y2="182.5173"
       x2="58.809502"
       y1="208.70171"
       x1="58.186001"
       gradientUnits="userSpaceOnUse"
       id="linearGradient3383"
       xlink:href="#SVGID_4_"
       inkscape:collect="always" />
  </defs>
  <g
     id="g3916"
     transform="matrix(0.95130219,0,0,0.95130219,6.182558,0.101112)">
    <rect
       ry="41.623531"
       rx="38.038826"
       y="0.67469877"
       x="2.8674698"
       height="249.22089"
       width="248.1803"
       id="rect2380"
       style="fill:#000000;fill-opacity:1;stroke:none" />
    <g
       id="g1282">
      <rect
         ry="39.649345"
         rx="36.234657"
         y="6.5849228"
         x="8.7530165"
         height="237.40044"
         width="236.40919"
         id="rect468"
         style="fill:none;stroke:url(#radialGradient3933);stroke-width:6.32125711;stroke-miterlimit:4;stroke-opacity:1;stroke-dasharray:none" />
      <g
         id="g1270">
        <rect
           transform="scale(-1,1)"
           ry="39.649345"
           rx="36.234657"
           y="6.5849228"
           x="-245.16222"
           height="237.40044"
           width="236.40919"
           id="rect1250"
           style="fill:none;stroke:url(#radialGradient3935);stroke-width:6.32125711;stroke-miterlimit:4;stroke-opacity:1;stroke-dasharray:none" />
        <g
           id="g1262">
          <rect
             transform="matrix(0,1,-1,0,0,0)"
             ry="39.649345"
             rx="36.234657"
             y="-245.65784"
             x="7.0805359"
             height="237.40044"
             width="236.40919"
             id="rect1254"
             style="fill:none;stroke:url(#radialGradient3937);stroke-width:6.32125711;stroke-miterlimit:4;stroke-opacity:1;stroke-dasharray:none" />
          <rect
             style="fill:none;stroke:url(#radialGradient3939);stroke-width:6.32125711;stroke-miterlimit:4;stroke-opacity:1;stroke-dasharray:none"
             id="rect1258"
             width="236.40919"
             height="237.40044"
             x="-243.48973"
             y="-245.65784"
             rx="36.234657"
             ry="39.649345"
             transform="matrix(0,-1,-1,0,0,0)" />
        </g>
      </g>
    </g>
    <g
       transform="matrix(0.93688713,0,0,0.93688713,8.012659,7.9071041)"
       id="g1298">
      <rect
         style="fill:none;stroke:url(#radialGradient3941);stroke-width:6.32125711;stroke-miterlimit:4;stroke-opacity:1;stroke-dasharray:none"
         id="rect1300"
         width="236.40919"
         height="237.40044"
         x="8.7530165"
         y="6.5849228"
         rx="36.234657"
         ry="39.649345" />
      <g
         id="g1302">
        <rect
           style="fill:none;stroke:url(#radialGradient3943);stroke-width:6.32125711;stroke-miterlimit:4;stroke-opacity:1;stroke-dasharray:none"
           id="rect1304"
           width="236.40919"
           height="237.40044"
           x="-245.16222"
           y="6.5849228"
           rx="36.234657"
           ry="39.649345"
           transform="scale(-1,1)" />
        <g
           id="g1306">
          <rect
             style="fill:none;stroke:url(#radialGradient3945);stroke-width:6.32125711;stroke-miterlimit:4;stroke-opacity:1;stroke-dasharray:none"
             id="rect1308"
             width="236.40919"
             height="237.40044"
             x="7.0805359"
             y="-245.65784"
             rx="36.234657"
             ry="39.649345"
             transform="matrix(0,1,-1,0,0,0)" />
          <rect
             transform="matrix(0,-1,-1,0,0,0)"
             ry="39.649345"
             rx="36.234657"
             y="-245.65784"
             x="-243.48973"
             height="237.40044"
             width="236.40919"
             id="rect1310"
             style="fill:none;stroke:url(#radialGradient3947);stroke-width:6.32125711;stroke-miterlimit:4;stroke-opacity:1;stroke-dasharray:none" />
        </g>
      </g>
    </g>
  </g>
  <g
     id="g3293"
     transform="matrix(-0.58094363,0,0,0.58094363,160.70039,35.385844)">
    <path
       id="path236"
       d="M 60.931,267.794 V 153.296 c 29.197,-3.611 52.37,-50.005 52.912,-107.102 l -0.285,0.444 c 0,4.367 -25.204,7.907 -56.295,7.907 -31.09,0 -56.294,-3.54 -56.294,-7.907 L 0.684,46.223 c 0.55,57.084 23.721,103.464 52.913,107.072 v 114.498 c -35.819,20.38 -52.074,14.876 -52.074,20.009 0,5.309 24.956,9.609 55.741,9.609 30.785,0 55.741,-4.301 55.741,-9.609 0,-5.132 -16.255,0.372 -52.074,-20.008 z"
       style="opacity:0.7;fill:#cccccc;stroke:#ffffff;stroke-width:1.24919999" />
    <ellipse
       id="ellipse238"
       ry="6.4070001"
       rx="52.097"
       cy="8.5129995"
       cx="57.264999"
       d="M 109.362,8.5129995 C 109.362,12.051488 86.037378,14.92 57.264999,14.92 28.492621,14.92 5.1679993,12.051488 5.1679993,8.5129995 c 0,-3.5384884 23.3246217,-6.407 52.0969997,-6.407 28.772379,0 52.097001,2.8685116 52.097001,6.407 z"
       sodipodi:cx="57.264999"
       sodipodi:cy="8.5129995"
       sodipodi:rx="52.097"
       sodipodi:ry="6.4070001"
       style="fill:none;stroke:#999999;stroke-width:0.50730002" />
    <ellipse
       id="ellipse240"
       ry="7.9070001"
       rx="56.293999"
       cy="46.639"
       cx="56.917"
       d="m 113.211,46.639 c 0,4.366915 -25.203683,7.907 -56.294,7.907 -31.090317,0 -56.2939989,-3.540085 -56.2939989,-7.907 0,-4.366916 25.2036819,-7.907 56.2939989,-7.907 31.090317,0 56.294,3.540084 56.294,7.907 z"
       sodipodi:cx="56.917"
       sodipodi:cy="46.639"
       sodipodi:rx="56.293999"
       sodipodi:ry="7.9070001"
       style="fill:none;stroke:#999999;stroke-width:1.24510002" />
    <ellipse
       id="ellipse242"
       ry="7.9060001"
       rx="43.886002"
       cy="113.411"
       cx="57.362999"
       d="m 101.249,113.411 c 0,4.36637 -19.648432,7.906 -43.886001,7.906 -24.237569,0 -43.886002,-3.53963 -43.886002,-7.906 0,-4.36636 19.648433,-7.906 43.886002,-7.906 24.237569,0 43.886001,3.53964 43.886001,7.906 z"
       sodipodi:cx="57.362999"
       sodipodi:cy="113.411"
       sodipodi:rx="43.886002"
       sodipodi:ry="7.9060001"
       style="fill:none;stroke:#999999;stroke-width:1.09930003" />
    <ellipse
       id="ellipse244"
       ry="6.3979998"
       rx="35.514"
       cy="130.077"
       cx="57.362999"
       d="m 92.876999,130.077 c 0,3.53351 -15.900159,6.398 -35.514,6.398 -19.613841,0 -35.514,-2.86449 -35.514,-6.398 0,-3.53352 15.900159,-6.398 35.514,-6.398 19.613841,0 35.514,2.86448 35.514,6.398 z"
       sodipodi:cx="57.362999"
       sodipodi:cy="130.077"
       sodipodi:rx="35.514"
       sodipodi:ry="6.3979998"
       style="fill:none;stroke:#999999;stroke-width:0.88959998" />
    <ellipse
       id="ellipse246"
       ry="7.9070001"
       rx="55.243999"
       cy="67.078003"
       cx="57.363998"
       d="m 112.608,67.078003 c 0,4.366915 -24.733583,7.907 -55.244002,7.907 -30.510418,0 -55.2439991,-3.540085 -55.2439991,-7.907 0,-4.366916 24.7335811,-7.907 55.2439991,-7.907 30.510419,0 55.244002,3.540084 55.244002,7.907 z"
       sodipodi:cx="57.363998"
       sodipodi:cy="67.078003"
       sodipodi:rx="55.243999"
       sodipodi:ry="7.9070001"
       style="fill:none;stroke:#999999;stroke-width:1.23339999" />
    <ellipse
       id="ellipse248"
       ry="7.9070001"
       rx="53.52"
       cy="8.5129995"
       cx="57.264"
       d="M 110.784,8.5129995 C 110.784,12.879915 86.82228,16.42 57.264,16.42 27.70572,16.42 3.7439995,12.879915 3.7439995,8.5129995 3.7439995,4.146084 27.70572,0.60599947 57.264,0.60599947 c 29.55828,0 53.52,3.54008453 53.52,7.90700003 z"
       sodipodi:cx="57.264"
       sodipodi:cy="8.5129995"
       sodipodi:rx="53.52"
       sodipodi:ry="7.9070001"
       style="opacity:0.51000001;fill:#cccccc" />
    <ellipse
       id="ellipse267"
       ry="7.9070001"
       rx="56.293999"
       cy="46.639"
       cx="57.264"
       d="m 113.558,46.639 c 0,4.366915 -25.203683,7.907 -56.294,7.907 -31.090317,0 -56.29399878,-3.540085 -56.29399878,-7.907 0,-4.366916 25.20368178,-7.907 56.29399878,-7.907 31.090317,0 56.294,3.540084 56.294,7.907 z"
       style="fill:url(#linearGradient3317)"
       sodipodi:cx="57.264"
       sodipodi:cy="46.639"
       sodipodi:rx="56.293999"
       sodipodi:ry="7.9070001" />
    <path
       id="path276"
       d="m 60.951,153.293 c 0.445,-0.056 0.889,-0.12 1.33,-0.195 0.01,-0.002 0.021,-0.004 0.031,-0.006 0.446,-0.076 0.893,-0.162 1.336,-0.259 0.002,0 0.004,0 0.005,-0.001 25.199,-5.474 45.39,-42.924 49.453,-90.87 0.001,-0.01 0.002,-0.021 0.003,-0.031 0.07,-0.836 0.136,-1.675 0.197,-2.518 0.002,-0.031 0.004,-0.061 0.006,-0.092 0.061,-0.83 0.115,-1.664 0.165,-2.5 0.002,-0.039 0.004,-0.077 0.007,-0.116 0.049,-0.835 0.094,-1.673 0.133,-2.513 0.002,-0.034 0.004,-0.068 0.005,-0.102 0.04,-0.847 0.074,-1.696 0.104,-2.548 0.001,-0.025 0.002,-0.05 0.003,-0.075 0.06,-1.747 0.099,-3.504 0.115,-5.273 l -0.285,0.444 c 0,4.367 -25.205,7.907 -56.295,7.907 -31.09,0 -56.295,-3.54 -56.295,-7.907 L 0.684,46.223 c 0.008,0.869 0.022,1.736 0.041,2.6 0.001,0.033 0.002,0.065 0.002,0.098 0.019,0.841 0.043,1.68 0.071,2.516 0.002,0.055 0.004,0.109 0.006,0.164 0.028,0.826 0.062,1.65 0.101,2.471 0.003,0.06 0.005,0.119 0.008,0.178 0.039,0.815 0.082,1.628 0.13,2.438 0.004,0.065 0.008,0.132 0.012,0.197 0.049,0.81 0.103,1.617 0.159,2.421 0.005,0.059 0.009,0.118 0.014,0.176 0.059,0.812 0.122,1.623 0.19,2.43 0.003,0.044 0.007,0.089 0.011,0.134 0.07,0.823 0.145,1.644 0.225,2.46 0.002,0.02 0.004,0.038 0.006,0.057 1.325,13.568 3.947,26.251 7.606,37.549 0.004,0.011 0.008,0.022 0.011,0.034 0.226,0.694 0.455,1.384 0.688,2.068 0.005,0.014 0.01,0.028 0.015,0.042 0.233,0.684 0.47,1.361 0.711,2.034 0.004,0.012 0.009,0.023 0.013,0.036 0.242,0.678 0.489,1.35 0.739,2.016 0.001,0.002 0.001,0.003 0.002,0.004 4.3,11.446 9.72,21.218 15.949,28.715 0,0 0.001,0 0.001,0.001 0.365,0.438 0.732,0.87 1.104,1.294 0.003,0.003 0.006,0.006 0.008,0.01 7.065,8.072 15.118,13.262 23.725,14.729 0.003,0 0.007,0.001 0.01,0.002 0.448,0.076 0.898,0.142 1.35,0.197 1.215,0.151 2.44,0.236 3.676,0.236 1.234,0.001 2.464,-0.085 3.683,-0.237 z"
       style="fill:url(#radialGradient3319)" />
    <path
       id="path278"
       d="m 57.263,54.546 c 31.091,0 56.295,-3.54 56.295,-7.907 l 0.285,-0.444 c 0.007,-0.681 0.014,-1.361 0.014,-2.045 0,-12.477 -1.083,-24.463 -3.074,-35.633 -0.013,4.366 -23.97,7.903 -53.52,7.903 C 27.715,16.42 3.757,12.882 3.744,8.517 1.754,19.687 0.67,31.673 0.67,44.15 c 0,0.693 0.007,1.384 0.014,2.074 l 0.285,0.415 c 0,4.367 25.204,7.907 56.294,7.907 z"
       style="opacity:0.7;fill:#cccccc" />
    <path
       id="path280"
       d="m 113.843,46.195 c 0.007,-0.681 0.014,-1.361 0.014,-2.045 0,-12.476 -1.083,-24.462 -3.074,-35.632 0,-0.001 0.001,-0.003 0.001,-0.004 0,-4.367 -23.962,-7.906 -53.521,-7.906 -29.557,0 -53.52,3.54 -53.52,7.906 0,0.001 0.001,0.003 0.001,0.004 -1.99,11.17 -3.074,23.156 -3.074,35.632 0,0.693 0.007,1.384 0.014,2.074 0.55,57.084 23.721,103.464 52.913,107.072 v 114.498 c -35.819,20.381 -52.074,14.877 -52.074,20.01 0,5.309 24.956,9.609 55.741,9.609 30.785,0 55.741,-4.301 55.741,-9.609 0,-5.133 -16.255,0.371 -52.074,-20.01 V 153.296 c 29.197,-3.611 52.37,-50.004 52.912,-107.101 z"
       style="fill:none;stroke:#999999;stroke-width:1.21399999" />
    <path
       id="path282"
       d="M 92.877,129.147"
       style="fill:none;stroke:#999999;stroke-width:1.24919999" />
    <path
       id="path284"
       d="m 60.931,153.296 c 0,0 -2.235,0 -3.193,0"
       style="fill:none;stroke:#999999;stroke-width:1.24919999" />
    <path
       id="path286"
       d="m 110.09,37.83 c -0.059,-1.736 -0.145,-3.393 -0.253,-4.965 -0.593,-8.599 -1.826,-14.607 -2.433,-16.371 -8.325,1.772 -13.353,2.403 -13.353,2.403 0.328,0.595 1.654,4.955 2.952,11.591 0.555,2.829 1.104,6.069 1.568,9.612 0.506,3.845 0.91,8.043 1.117,12.447 0.136,2.901 0.184,5.89 0.117,8.927 3.946,-0.571 7.142,-1.248 9.352,-1.999 0.193,-1.601 0.356,-3.18 0.489,-4.733 0.527,-6.123 0.611,-11.845 0.444,-16.912 z"
       style="opacity:0.7;fill:#ffffff" />
    <path
       id="path288"
       d="m 33.421,136.045 c -1.534,-1.824 -3.087,-3.979 -4.604,-6.613 -1.006,-1.749 -1.997,-3.713 -2.956,-5.932 -1.5,-0.303 -2.831,-0.635 -3.974,-0.987 1.207,2.776 2.549,5.405 4.034,7.849 1.057,1.738 2.188,3.378 3.397,4.904 3.902,4.926 8.621,8.669 14.336,10.626 -2.731,-2.81 -6.423,-5.315 -10.233,-9.847 z"
       style="opacity:0.47000002;fill:#ffffff" />
    <path
       id="path290"
       d="m 19.533,291.849 c 7.222,1.242 18.477,2.229 36.83,2.229 41.333,0 52.333,-6.667 52.333,-6.667"
       style="fill:none;stroke:#858585;stroke-width:1.24919999" />
    <path
       id="path297"
       d="m 80.262,281.623 c -6.48,-2.93 -15.809,-7.889 -17.809,-11.175 0,0 20.671,9.494 33.242,13.963 7.499,2.666 6.266,3.733 -2.834,5.833 -4.951,1.142 -0.433,-3.121 -12.599,-8.621 z"
       style="fill:url(#linearGradient3321)" />
    <path
       id="path299"
       d="m 27.109,283.475 c -1.179,0.481 -2.201,0.881 -3.015,1.179 -8.611,3.156 -11.295,4.161 -11.295,8.001"
       style="fill:none;stroke:#858585;stroke-width:1.24919999" />
    <path
       id="path301"
       d="m 40.919,277.178 c -5.04,2.531 -10.169,4.809 -13.811,6.297"
       style="fill:none;stroke:#858585;stroke-width:1.24919999" />
    <path
       id="path303"
       d="m 56.136,155.731 c 0,0 0.226,104.763 0.226,111.763 -2.921,4.037 -9.111,6.504 -15.442,9.685"
       style="fill:none;stroke:#858585;stroke-width:1.24919999" />
    <path
       id="path305"
       d="m 15.98,293.674 c 0,-3.84 2.684,-4.845 11.295,-8.001 0.813,-0.298 1.836,-0.697 3.015,-1.179 l 13.811,-6.297 c 6.331,-3.181 12.521,-5.647 15.442,-9.685 0,0 -5.365,10.146 -14.615,13.646 -9.25,3.5 -18.75,8.25 -18.75,13 L 15.98,293.674 z"
       style="opacity:0.7;fill:#ffffff" />
    <path
       id="path312"
       d="m 60.007,222.692 c 0,0.994 -0.63,1.802 -1.405,1.802 l 0,0 c -0.776,0 -1.406,-0.808 -1.406,-1.802 v -62.896 c 0,-0.994 0.63,-1.802 1.406,-1.802 l 0,0 c 0.775,0 1.405,0.808 1.405,1.802 v 62.896 z"
       style="fill:url(#linearGradient3383)" />
  </g>
  <g
     transform="matrix(-0.58094363,0,0,0.58094363,160.70039,35.385844)"
     id="g2891">
    <path
       style="opacity:0.7;fill:#cccccc;stroke:#ffffff;stroke-width:1.24919999"
       d="M 60.931,267.794 V 153.296 c 29.197,-3.611 52.37,-50.005 52.912,-107.102 l -0.285,0.444 c 0,4.367 -25.204,7.907 -56.295,7.907 -31.09,0 -56.294,-3.54 -56.294,-7.907 L 0.684,46.223 c 0.55,57.084 23.721,103.464 52.913,107.072 v 114.498 c -35.819,20.38 -52.074,14.876 -52.074,20.009 0,5.309 24.956,9.609 55.741,9.609 30.785,0 55.741,-4.301 55.741,-9.609 0,-5.132 -16.255,0.372 -52.074,-20.008 z"
       id="path2893" />
    <ellipse
       style="fill:none;stroke:#999999;stroke-width:0.50730002"
       sodipodi:ry="6.4070001"
       sodipodi:rx="52.097"
       sodipodi:cy="8.5129995"
       sodipodi:cx="57.264999"
       d="M 109.362,8.5129995 C 109.362,12.051488 86.037378,14.92 57.264999,14.92 28.492621,14.92 5.1679993,12.051488 5.1679993,8.5129995 c 0,-3.5384884 23.3246217,-6.407 52.0969997,-6.407 28.772379,0 52.097001,2.8685116 52.097001,6.407 z"
       cx="57.264999"
       cy="8.5129995"
       rx="52.097"
       ry="6.4070001"
       id="ellipse2895" />
    <ellipse
       style="fill:none;stroke:#999999;stroke-width:1.24510002"
       sodipodi:ry="7.9070001"
       sodipodi:rx="56.293999"
       sodipodi:cy="46.639"
       sodipodi:cx="56.917"
       d="m 113.211,46.639 c 0,4.366915 -25.203683,7.907 -56.294,7.907 -31.090317,0 -56.2939989,-3.540085 -56.2939989,-7.907 0,-4.366916 25.2036819,-7.907 56.2939989,-7.907 31.090317,0 56.294,3.540084 56.294,7.907 z"
       cx="56.917"
       cy="46.639"
       rx="56.293999"
       ry="7.9070001"
       id="ellipse2897" />
    <ellipse
       style="fill:none;stroke:#999999;stroke-width:1.09930003"
       sodipodi:ry="7.9060001"
       sodipodi:rx="43.886002"
       sodipodi:cy="113.411"
       sodipodi:cx="57.362999"
       d="m 101.249,113.411 c 0,4.36637 -19.648432,7.906 -43.886001,7.906 -24.237569,0 -43.886002,-3.53963 -43.886002,-7.906 0,-4.36636 19.648433,-7.906 43.886002,-7.906 24.237569,0 43.886001,3.53964 43.886001,7.906 z"
       cx="57.362999"
       cy="113.411"
       rx="43.886002"
       ry="7.9060001"
       id="ellipse2899" />
    <ellipse
       style="fill:none;stroke:#999999;stroke-width:0.88959998"
       sodipodi:ry="6.3979998"
       sodipodi:rx="35.514"
       sodipodi:cy="130.077"
       sodipodi:cx="57.362999"
       d="m 92.876999,130.077 c 0,3.53351 -15.900159,6.398 -35.514,6.398 -19.613841,0 -35.514,-2.86449 -35.514,-6.398 0,-3.53352 15.900159,-6.398 35.514,-6.398 19.613841,0 35.514,2.86448 35.514,6.398 z"
       cx="57.362999"
       cy="130.077"
       rx="35.514"
       ry="6.3979998"
       id="ellipse2901" />
    <ellipse
       style="fill:none;stroke:#999999;stroke-width:1.23339999"
       sodipodi:ry="7.9070001"
       sodipodi:rx="55.243999"
       sodipodi:cy="67.078003"
       sodipodi:cx="57.363998"
       d="m 112.608,67.078003 c 0,4.366915 -24.733583,7.907 -55.244002,7.907 -30.510418,0 -55.2439991,-3.540085 -55.2439991,-7.907 0,-4.366916 24.7335811,-7.907 55.2439991,-7.907 30.510419,0 55.244002,3.540084 55.244002,7.907 z"
       cx="57.363998"
       cy="67.078003"
       rx="55.243999"
       ry="7.9070001"
       id="ellipse2903" />
    <ellipse
       style="opacity:0.51000001;fill:#cccccc"
       sodipodi:ry="7.9070001"
       sodipodi:rx="53.52"
       sodipodi:cy="8.5129995"
       sodipodi:cx="57.264"
       d="M 110.784,8.5129995 C 110.784,12.879915 86.82228,16.42 57.264,16.42 27.70572,16.42 3.7439995,12.879915 3.7439995,8.5129995 3.7439995,4.146084 27.70572,0.60599947 57.264,0.60599947 c 29.55828,0 53.52,3.54008453 53.52,7.90700003 z"
       cx="57.264"
       cy="8.5129995"
       rx="53.52"
       ry="7.9070001"
       id="ellipse2905" />
    <ellipse
       sodipodi:ry="7.9070001"
       sodipodi:rx="56.293999"
       sodipodi:cy="46.639"
       sodipodi:cx="57.264"
       style="fill:url(#linearGradient3317)"
       d="m 113.558,46.639 c 0,4.366915 -25.203683,7.907 -56.294,7.907 -31.090317,0 -56.29399878,-3.540085 -56.29399878,-7.907 0,-4.366916 25.20368178,-7.907 56.29399878,-7.907 31.090317,0 56.294,3.540084 56.294,7.907 z"
       cx="57.264"
       cy="46.639"
       rx="56.293999"
       ry="7.9070001"
       id="ellipse2907" />
    <path
       style="fill:url(#radialGradient3319)"
       d="m 60.951,153.293 c 0.445,-0.056 0.889,-0.12 1.33,-0.195 0.01,-0.002 0.021,-0.004 0.031,-0.006 0.446,-0.076 0.893,-0.162 1.336,-0.259 0.002,0 0.004,0 0.005,-0.001 25.199,-5.474 45.39,-42.924 49.453,-90.87 0.001,-0.01 0.002,-0.021 0.003,-0.031 0.07,-0.836 0.136,-1.675 0.197,-2.518 0.002,-0.031 0.004,-0.061 0.006,-0.092 0.061,-0.83 0.115,-1.664 0.165,-2.5 0.002,-0.039 0.004,-0.077 0.007,-0.116 0.049,-0.835 0.094,-1.673 0.133,-2.513 0.002,-0.034 0.004,-0.068 0.005,-0.102 0.04,-0.847 0.074,-1.696 0.104,-2.548 0.001,-0.025 0.002,-0.05 0.003,-0.075 0.06,-1.747 0.099,-3.504 0.115,-5.273 l -0.285,0.444 c 0,4.367 -25.205,7.907 -56.295,7.907 -31.09,0 -56.295,-3.54 -56.295,-7.907 L 0.684,46.223 c 0.008,0.869 0.022,1.736 0.041,2.6 0.001,0.033 0.002,0.065 0.002,0.098 0.019,0.841 0.043,1.68 0.071,2.516 0.002,0.055 0.004,0.109 0.006,0.164 0.028,0.826 0.062,1.65 0.101,2.471 0.003,0.06 0.005,0.119 0.008,0.178 0.039,0.815 0.082,1.628 0.13,2.438 0.004,0.065 0.008,0.132 0.012,0.197 0.049,0.81 0.103,1.617 0.159,2.421 0.005,0.059 0.009,0.118 0.014,0.176 0.059,0.812 0.122,1.623 0.19,2.43 0.003,0.044 0.007,0.089 0.011,0.134 0.07,0.823 0.145,1.644 0.225,2.46 0.002,0.02 0.004,0.038 0.006,0.057 1.325,13.568 3.947,26.251 7.606,37.549 0.004,0.011 0.008,0.022 0.011,0.034 0.226,0.694 0.455,1.384 0.688,2.068 0.005,0.014 0.01,0.028 0.015,0.042 0.233,0.684 0.47,1.361 0.711,2.034 0.004,0.012 0.009,0.023 0.013,0.036 0.242,0.678 0.489,1.35 0.739,2.016 0.001,0.002 0.001,0.003 0.002,0.004 4.3,11.446 9.72,21.218 15.949,28.715 0,0 0.001,0 0.001,0.001 0.365,0.438 0.732,0.87 1.104,1.294 0.003,0.003 0.006,0.006 0.008,0.01 7.065,8.072 15.118,13.262 23.725,14.729 0.003,0 0.007,0.001 0.01,0.002 0.448,0.076 0.898,0.142 1.35,0.197 1.215,0.151 2.44,0.236 3.676,0.236 1.234,0.001 2.464,-0.085 3.683,-0.237 z"
       id="path2909" />
    <path
       style="opacity:0.7;fill:#cccccc"
       d="m 57.263,54.546 c 31.091,0 56.295,-3.54 56.295,-7.907 l 0.285,-0.444 c 0.007,-0.681 0.014,-1.361 0.014,-2.045 0,-12.477 -1.083,-24.463 -3.074,-35.633 -0.013,4.366 -23.97,7.903 -53.52,7.903 C 27.715,16.42 3.757,12.882 3.744,8.517 1.754,19.687 0.67,31.673 0.67,44.15 c 0,0.693 0.007,1.384 0.014,2.074 l 0.285,0.415 c 0,4.367 25.204,7.907 56.294,7.907 z"
       id="path2911" />
    <path
       style="fill:none;stroke:#999999;stroke-width:1.21399999"
       d="m 113.843,46.195 c 0.007,-0.681 0.014,-1.361 0.014,-2.045 0,-12.476 -1.083,-24.462 -3.074,-35.632 0,-0.001 0.001,-0.003 0.001,-0.004 0,-4.367 -23.962,-7.906 -53.521,-7.906 -29.557,0 -53.52,3.54 -53.52,7.906 0,0.001 0.001,0.003 0.001,0.004 -1.99,11.17 -3.074,23.156 -3.074,35.632 0,0.693 0.007,1.384 0.014,2.074 0.55,57.084 23.721,103.464 52.913,107.072 v 114.498 c -35.819,20.381 -52.074,14.877 -52.074,20.01 0,5.309 24.956,9.609 55.741,9.609 30.785,0 55.741,-4.301 55.741,-9.609 0,-5.133 -16.255,0.371 -52.074,-20.01 V 153.296 c 29.197,-3.611 52.37,-50.004 52.912,-107.101 z"
       id="path2913" />
    <path
       style="fill:none;stroke:#999999;stroke-width:1.24919999"
       d="M 92.877,129.147"
       id="path2915" />
    <path
       style="fill:none;stroke:#999999;stroke-width:1.24919999"
       d="m 60.931,153.296 c 0,0 -2.235,0 -3.193,0"
       id="path2917" />
    <path
       style="opacity:0.7;fill:#ffffff"
       d="m 110.09,37.83 c -0.059,-1.736 -0.145,-3.393 -0.253,-4.965 -0.593,-8.599 -1.826,-14.607 -2.433,-16.371 -8.325,1.772 -13.353,2.403 -13.353,2.403 0.328,0.595 1.654,4.955 2.952,11.591 0.555,2.829 1.104,6.069 1.568,9.612 0.506,3.845 0.91,8.043 1.117,12.447 0.136,2.901 0.184,5.89 0.117,8.927 3.946,-0.571 7.142,-1.248 9.352,-1.999 0.193,-1.601 0.356,-3.18 0.489,-4.733 0.527,-6.123 0.611,-11.845 0.444,-16.912 z"
       id="path2919" />
    <path
       style="opacity:0.47000002;fill:#ffffff"
       d="m 33.421,136.045 c -1.534,-1.824 -3.087,-3.979 -4.604,-6.613 -1.006,-1.749 -1.997,-3.713 -2.956,-5.932 -1.5,-0.303 -2.831,-0.635 -3.974,-0.987 1.207,2.776 2.549,5.405 4.034,7.849 1.057,1.738 2.188,3.378 3.397,4.904 3.902,4.926 8.621,8.669 14.336,10.626 -2.731,-2.81 -6.423,-5.315 -10.233,-9.847 z"
       id="path2921" />
    <path
       style="fill:none;stroke:#858585;stroke-width:1.24919999"
       d="m 19.533,291.849 c 7.222,1.242 18.477,2.229 36.83,2.229 41.333,0 52.333,-6.667 52.333,-6.667"
       id="path2923" />
    <path
       style="fill:url(#linearGradient3321)"
       d="m 80.262,281.623 c -6.48,-2.93 -15.809,-7.889 -17.809,-11.175 0,0 20.671,9.494 33.242,13.963 7.499,2.666 6.266,3.733 -2.834,5.833 -4.951,1.142 -0.433,-3.121 -12.599,-8.621 z"
       id="path2925" />
    <path
       style="fill:none;stroke:#858585;stroke-width:1.24919999"
       d="m 27.109,283.475 c -1.179,0.481 -2.201,0.881 -3.015,1.179 -8.611,3.156 -11.295,4.161 -11.295,8.001"
       id="path2927" />
    <path
       style="fill:none;stroke:#858585;stroke-width:1.24919999"
       d="m 40.919,277.178 c -5.04,2.531 -10.169,4.809 -13.811,6.297"
       id="path2929" />
    <path
       style="fill:none;stroke:#858585;stroke-width:1.24919999"
       d="m 56.136,155.731 c 0,0 0.226,104.763 0.226,111.763 -2.921,4.037 -9.111,6.504 -15.442,9.685"
       id="path2931" />
    <path
       style="opacity:0.7;fill:#ffffff"
       d="m 15.98,293.674 c 0,-3.84 2.684,-4.845 11.295,-8.001 0.813,-0.298 1.836,-0.697 3.015,-1.179 l 13.811,-6.297 c 6.331,-3.181 12.521,-5.647 15.442,-9.685 0,0 -5.365,10.146 -14.615,13.646 -9.25,3.5 -18.75,8.25 -18.75,13 L 15.98,293.674 z"
       id="path2933" />
    <path
       style="fill:url(#linearGradient3383)"
       d="m 60.007,222.692 c 0,0.994 -0.63,1.802 -1.405,1.802 l 0,0 c -0.776,0 -1.406,-0.808 -1.406,-1.802 v -62.896 c 0,-0.994 0.63,-1.802 1.406,-1.802 l 0,0 c 0.775,0 1.405,0.808 1.405,1.802 v 62.896 z"
       id="path2935" />
  </g>
  <g
     id="g2937"
     transform="matrix(-0.58094363,0,0,0.58094363,160.70039,35.385844)">
    <path
       id="path2939"
       d="M 60.931,267.794 V 153.296 c 29.197,-3.611 52.37,-50.005 52.912,-107.102 l -0.285,0.444 c 0,4.367 -25.204,7.907 -56.295,7.907 -31.09,0 -56.294,-3.54 -56.294,-7.907 L 0.684,46.223 c 0.55,57.084 23.721,103.464 52.913,107.072 v 114.498 c -35.819,20.38 -52.074,14.876 -52.074,20.009 0,5.309 24.956,9.609 55.741,9.609 30.785,0 55.741,-4.301 55.741,-9.609 0,-5.132 -16.255,0.372 -52.074,-20.008 z"
       style="opacity:0.7;fill:#cccccc;stroke:#ffffff;stroke-width:1.24919999" />
    <ellipse
       id="ellipse2941"
       ry="6.4070001"
       rx="52.097"
       cy="8.5129995"
       cx="57.264999"
       d="M 109.362,8.5129995 C 109.362,12.051488 86.037378,14.92 57.264999,14.92 28.492621,14.92 5.1679993,12.051488 5.1679993,8.5129995 c 0,-3.5384884 23.3246217,-6.407 52.0969997,-6.407 28.772379,0 52.097001,2.8685116 52.097001,6.407 z"
       sodipodi:cx="57.264999"
       sodipodi:cy="8.5129995"
       sodipodi:rx="52.097"
       sodipodi:ry="6.4070001"
       style="fill:none;stroke:#999999;stroke-width:0.50730002" />
    <ellipse
       id="ellipse2943"
       ry="7.9070001"
       rx="56.293999"
       cy="46.639"
       cx="56.917"
       d="m 113.211,46.639 c 0,4.366915 -25.203683,7.907 -56.294,7.907 -31.090317,0 -56.2939989,-3.540085 -56.2939989,-7.907 0,-4.366916 25.2036819,-7.907 56.2939989,-7.907 31.090317,0 56.294,3.540084 56.294,7.907 z"
       sodipodi:cx="56.917"
       sodipodi:cy="46.639"
       sodipodi:rx="56.293999"
       sodipodi:ry="7.9070001"
       style="fill:none;stroke:#999999;stroke-width:1.24510002" />
    <ellipse
       id="ellipse2945"
       ry="7.9060001"
       rx="43.886002"
       cy="113.411"
       cx="57.362999"
       d="m 101.249,113.411 c 0,4.36637 -19.648432,7.906 -43.886001,7.906 -24.237569,0 -43.886002,-3.53963 -43.886002,-7.906 0,-4.36636 19.648433,-7.906 43.886002,-7.906 24.237569,0 43.886001,3.53964 43.886001,7.906 z"
       sodipodi:cx="57.362999"
       sodipodi:cy="113.411"
       sodipodi:rx="43.886002"
       sodipodi:ry="7.9060001"
       style="fill:none;stroke:#999999;stroke-width:1.09930003" />
    <ellipse
       id="ellipse2947"
       ry="6.3979998"
       rx="35.514"
       cy="130.077"
       cx="57.362999"
       d="m 92.876999,130.077 c 0,3.53351 -15.900159,6.398 -35.514,6.398 -19.613841,0 -35.514,-2.86449 -35.514,-6.398 0,-3.53352 15.900159,-6.398 35.514,-6.398 19.613841,0 35.514,2.86448 35.514,6.398 z"
       sodipodi:cx="57.362999"
       sodipodi:cy="130.077"
       sodipodi:rx="35.514"
       sodipodi:ry="6.3979998"
       style="fill:none;stroke:#999999;stroke-width:0.88959998" />
    <ellipse
       id="ellipse2949"
       ry="7.9070001"
       rx="55.243999"
       cy="67.078003"
       cx="57.363998"
       d="m 112.608,67.078003 c 0,4.366915 -24.733583,7.907 -55.244002,7.907 -30.510418,0 -55.2439991,-3.540085 -55.2439991,-7.907 0,-4.366916 24.7335811,-7.907 55.2439991,-7.907 30.510419,0 55.244002,3.540084 55.244002,7.907 z"
       sodipodi:cx="57.363998"
       sodipodi:cy="67.078003"
       sodipodi:rx="55.243999"
       sodipodi:ry="7.9070001"
       style="fill:none;stroke:#999999;stroke-width:1.23339999" />
    <ellipse
       id="ellipse2951"
       ry="7.9070001"
       rx="53.52"
       cy="8.5129995"
       cx="57.264"
       d="M 110.784,8.5129995 C 110.784,12.879915 86.82228,16.42 57.264,16.42 27.70572,16.42 3.7439995,12.879915 3.7439995,8.5129995 3.7439995,4.146084 27.70572,0.60599947 57.264,0.60599947 c 29.55828,0 53.52,3.54008453 53.52,7.90700003 z"
       sodipodi:cx="57.264"
       sodipodi:cy="8.5129995"
       sodipodi:rx="53.52"
       sodipodi:ry="7.9070001"
       style="opacity:0.51000001;fill:#cccccc" />
    <ellipse
       id="ellipse2953"
       ry="7.9070001"
       rx="56.293999"
       cy="46.639"
       cx="57.264"
       d="m 113.558,46.639 c 0,4.366915 -25.203683,7.907 -56.294,7.907 -31.090317,0 -56.29399878,-3.540085 -56.29399878,-7.907 0,-4.366916 25.20368178,-7.907 56.29399878,-7.907 31.090317,0 56.294,3.540084 56.294,7.907 z"
       style="fill:url(#linearGradient3317)"
       sodipodi:cx="57.264"
       sodipodi:cy="46.639"
       sodipodi:rx="56.293999"
       sodipodi:ry="7.9070001" />
    <path
       id="path2955"
       d="m 60.951,153.293 c 0.445,-0.056 0.889,-0.12 1.33,-0.195 0.01,-0.002 0.021,-0.004 0.031,-0.006 0.446,-0.076 0.893,-0.162 1.336,-0.259 0.002,0 0.004,0 0.005,-0.001 25.199,-5.474 45.39,-42.924 49.453,-90.87 0.001,-0.01 0.002,-0.021 0.003,-0.031 0.07,-0.836 0.136,-1.675 0.197,-2.518 0.002,-0.031 0.004,-0.061 0.006,-0.092 0.061,-0.83 0.115,-1.664 0.165,-2.5 0.002,-0.039 0.004,-0.077 0.007,-0.116 0.049,-0.835 0.094,-1.673 0.133,-2.513 0.002,-0.034 0.004,-0.068 0.005,-0.102 0.04,-0.847 0.074,-1.696 0.104,-2.548 0.001,-0.025 0.002,-0.05 0.003,-0.075 0.06,-1.747 0.099,-3.504 0.115,-5.273 l -0.285,0.444 c 0,4.367 -25.205,7.907 -56.295,7.907 -31.09,0 -56.295,-3.54 -56.295,-7.907 L 0.684,46.223 c 0.008,0.869 0.022,1.736 0.041,2.6 0.001,0.033 0.002,0.065 0.002,0.098 0.019,0.841 0.043,1.68 0.071,2.516 0.002,0.055 0.004,0.109 0.006,0.164 0.028,0.826 0.062,1.65 0.101,2.471 0.003,0.06 0.005,0.119 0.008,0.178 0.039,0.815 0.082,1.628 0.13,2.438 0.004,0.065 0.008,0.132 0.012,0.197 0.049,0.81 0.103,1.617 0.159,2.421 0.005,0.059 0.009,0.118 0.014,0.176 0.059,0.812 0.122,1.623 0.19,2.43 0.003,0.044 0.007,0.089 0.011,0.134 0.07,0.823 0.145,1.644 0.225,2.46 0.002,0.02 0.004,0.038 0.006,0.057 1.325,13.568 3.947,26.251 7.606,37.549 0.004,0.011 0.008,0.022 0.011,0.034 0.226,0.694 0.455,1.384 0.688,2.068 0.005,0.014 0.01,0.028 0.015,0.042 0.233,0.684 0.47,1.361 0.711,2.034 0.004,0.012 0.009,0.023 0.013,0.036 0.242,0.678 0.489,1.35 0.739,2.016 0.001,0.002 0.001,0.003 0.002,0.004 4.3,11.446 9.72,21.218 15.949,28.715 0,0 0.001,0 0.001,0.001 0.365,0.438 0.732,0.87 1.104,1.294 0.003,0.003 0.006,0.006 0.008,0.01 7.065,8.072 15.118,13.262 23.725,14.729 0.003,0 0.007,0.001 0.01,0.002 0.448,0.076 0.898,0.142 1.35,0.197 1.215,0.151 2.44,0.236 3.676,0.236 1.234,0.001 2.464,-0.085 3.683,-0.237 z"
       style="fill:url(#radialGradient3319)" />
    <path
       id="path2957"
       d="m 57.263,54.546 c 31.091,0 56.295,-3.54 56.295,-7.907 l 0.285,-0.444 c 0.007,-0.681 0.014,-1.361 0.014,-2.045 0,-12.477 -1.083,-24.463 -3.074,-35.633 -0.013,4.366 -23.97,7.903 -53.52,7.903 C 27.715,16.42 3.757,12.882 3.744,8.517 1.754,19.687 0.67,31.673 0.67,44.15 c 0,0.693 0.007,1.384 0.014,2.074 l 0.285,0.415 c 0,4.367 25.204,7.907 56.294,7.907 z"
       style="opacity:0.7;fill:#cccccc" />
    <path
       id="path2959"
       d="m 113.843,46.195 c 0.007,-0.681 0.014,-1.361 0.014,-2.045 0,-12.476 -1.083,-24.462 -3.074,-35.632 0,-0.001 0.001,-0.003 0.001,-0.004 0,-4.367 -23.962,-7.906 -53.521,-7.906 -29.557,0 -53.52,3.54 -53.52,7.906 0,0.001 0.001,0.003 0.001,0.004 -1.99,11.17 -3.074,23.156 -3.074,35.632 0,0.693 0.007,1.384 0.014,2.074 0.55,57.084 23.721,103.464 52.913,107.072 v 114.498 c -35.819,20.381 -52.074,14.877 -52.074,20.01 0,5.309 24.956,9.609 55.741,9.609 30.785,0 55.741,-4.301 55.741,-9.609 0,-5.133 -16.255,0.371 -52.074,-20.01 V 153.296 c 29.197,-3.611 52.37,-50.004 52.912,-107.101 z"
       style="fill:none;stroke:#999999;stroke-width:1.21399999" />
    <path
       id="path2961"
       d="M 92.877,129.147"
       style="fill:none;stroke:#999999;stroke-width:1.24919999" />
    <path
       id="path2963"
       d="m 60.931,153.296 c 0,0 -2.235,0 -3.193,0"
       style="fill:none;stroke:#999999;stroke-width:1.24919999" />
    <path
       id="path2965"
       d="m 110.09,37.83 c -0.059,-1.736 -0.145,-3.393 -0.253,-4.965 -0.593,-8.599 -1.826,-14.607 -2.433,-16.371 -8.325,1.772 -13.353,2.403 -13.353,2.403 0.328,0.595 1.654,4.955 2.952,11.591 0.555,2.829 1.104,6.069 1.568,9.612 0.506,3.845 0.91,8.043 1.117,12.447 0.136,2.901 0.184,5.89 0.117,8.927 3.946,-0.571 7.142,-1.248 9.352,-1.999 0.193,-1.601 0.356,-3.18 0.489,-4.733 0.527,-6.123 0.611,-11.845 0.444,-16.912 z"
       style="opacity:0.7;fill:#ffffff" />
    <path
       id="path2967"
       d="m 33.421,136.045 c -1.534,-1.824 -3.087,-3.979 -4.604,-6.613 -1.006,-1.749 -1.997,-3.713 -2.956,-5.932 -1.5,-0.303 -2.831,-0.635 -3.974,-0.987 1.207,2.776 2.549,5.405 4.034,7.849 1.057,1.738 2.188,3.378 3.397,4.904 3.902,4.926 8.621,8.669 14.336,10.626 -2.731,-2.81 -6.423,-5.315 -10.233,-9.847 z"
       style="opacity:0.47000002;fill:#ffffff" />
    <path
       id="path2969"
       d="m 19.533,291.849 c 7.222,1.242 18.477,2.229 36.83,2.229 41.333,0 52.333,-6.667 52.333,-6.667"
       style="fill:none;stroke:#858585;stroke-width:1.24919999" />
    <path
       id="path2971"
       d="m 80.262,281.623 c -6.48,-2.93 -15.809,-7.889 -17.809,-11.175 0,0 20.671,9.494 33.242,13.963 7.499,2.666 6.266,3.733 -2.834,5.833 -4.951,1.142 -0.433,-3.121 -12.599,-8.621 z"
       style="fill:url(#linearGradient3321)" />
    <path
       id="path2973"
       d="m 27.109,283.475 c -1.179,0.481 -2.201,0.881 -3.015,1.179 -8.611,3.156 -11.295,4.161 -11.295,8.001"
       style="fill:none;stroke:#858585;stroke-width:1.24919999" />
    <path
       id="path2975"
       d="m 40.919,277.178 c -5.04,2.531 -10.169,4.809 -13.811,6.297"
       style="fill:none;stroke:#858585;stroke-width:1.24919999" />
    <path
       id="path2977"
       d="m 56.136,155.731 c 0,0 0.226,104.763 0.226,111.763 -2.921,4.037 -9.111,6.504 -15.442,9.685"
       style="fill:none;stroke:#858585;stroke-width:1.24919999" />
    <path
       id="path2979"
       d="m 15.98,293.674 c 0,-3.84 2.684,-4.845 11.295,-8.001 0.813,-0.298 1.836,-0.697 3.015,-1.179 l 13.811,-6.297 c 6.331,-3.181 12.521,-5.647 15.442,-9.685 0,0 -5.365,10.146 -14.615,13.646 -9.25,3.5 -18.75,8.25 -18.75,13 L 15.98,293.674 z"
       style="opacity:0.7;fill:#ffffff" />
    <path
       id="path2981"
       d="m 60.007,222.692 c 0,0.994 -0.63,1.802 -1.405,1.802 l 0,0 c -0.776,0 -1.406,-0.808 -1.406,-1.802 v -62.896 c 0,-0.994 0.63,-1.802 1.406,-1.802 l 0,0 c 0.775,0 1.405,0.808 1.405,1.802 v 62.896 z"
       style="fill:url(#linearGradient3383)" />
  </g>
</svg>
