<?xml version="1.0" encoding="UTF-8" standalone="no"?>
<!-- Created with Inkscape (http://www.inkscape.org/) -->

<svg
   xmlns:dc="http://purl.org/dc/elements/1.1/"
   xmlns:cc="http://creativecommons.org/ns#"
   xmlns:rdf="http://www.w3.org/1999/02/22-rdf-syntax-ns#"
   xmlns:svg="http://www.w3.org/2000/svg"
   xmlns="http://www.w3.org/2000/svg"
   xmlns:xlink="http://www.w3.org/1999/xlink"
   xmlns:sodipodi="http://sodipodi.sourceforge.net/DTD/sodipodi-0.dtd"
   xmlns:inkscape="http://www.inkscape.org/namespaces/inkscape"
   id="svg2"
   sodipodi:version="0.32"
   inkscape:version="0.47pre0 r21549"
   width="256"
   height="256"
   version="1.0"
   sodipodi:docname="trashcan_full.svg"
   inkscape:output_extension="org.inkscape.output.svg.inkscape">
  <sodipodi:namedview
     inkscape:window-height="710"
     inkscape:window-width="911"
     inkscape:pageshadow="2"
     inkscape:pageopacity="0.0"
     guidetolerance="10.0"
     gridtolerance="10.0"
     objecttolerance="10.0"
     borderopacity="1.0"
     bordercolor="#666666"
     pagecolor="#ffffff"
     id="base"
     width="48px"
     height="48px"
     inkscape:zoom="1.3755437"
     inkscape:cx="128"
     inkscape:cy="131.4395"
     inkscape:window-x="308"
     inkscape:window-y="156"
     inkscape:current-layer="svg2"
     showgrid="false" />
  <metadata
     id="metadata7">
    <rdf:RDF>
      <cc:Work
         rdf:about="">
        <dc:format>image/svg+xml</dc:format>
        <dc:type
           rdf:resource="http://purl.org/dc/dcmitype/StillImage" />
      </cc:Work>
    </rdf:RDF>
  </metadata>
  <defs
     id="defs5">
    <linearGradient
       inkscape:collect="always"
       id="linearGradient4352">
      <stop
         style="stop-color:#9a7c7c;stop-opacity:1;"
         offset="0"
         id="stop4354" />
      <stop
         style="stop-color:#9a7c7c;stop-opacity:0;"
         offset="1"
         id="stop4356" />
    </linearGradient>
    <linearGradient
       inkscape:collect="always"
       xlink:href="#linearGradient4352"
       id="linearGradient4358"
       x1="36.199471"
       y1="12.46442"
       x2="55.845471"
       y2="12.46442"
       gradientUnits="userSpaceOnUse" />
    <linearGradient
       id="XMLID_8_"
       gradientUnits="userSpaceOnUse"
       x1="59.3594"
       y1="2.0815"
       x2="55.6519"
       y2="13.8801"
       gradientTransform="translate(-12.034529,4.3309658)">
      <stop
         offset="0"
         style="stop-color:#B8B8B8"
         id="stop190" />
      <stop
         offset="0.1293"
         style="stop-color:#C4C4C4"
         id="stop192" />
      <stop
         offset="0.4796"
         style="stop-color:#E2E2E2"
         id="stop194" />
      <stop
         offset="0.782"
         style="stop-color:#F4F4F4"
         id="stop3187" />
      <stop
         offset="1"
         style="stop-color:#FAFAFA"
         id="stop3189" />
    </linearGradient>
    <linearGradient
       inkscape:collect="always"
       id="linearGradient4336">
      <stop
         style="stop-color:#9a7c7c;stop-opacity:1;"
         offset="0"
         id="stop4338" />
      <stop
         style="stop-color:#9a7c7c;stop-opacity:0;"
         offset="1"
         id="stop4340" />
    </linearGradient>
    <linearGradient
       inkscape:collect="always"
       xlink:href="#linearGradient4336"
       id="linearGradient4342"
       x1="35.87"
       y1="24.643"
       x2="109.688"
       y2="24.643"
       gradientUnits="userSpaceOnUse" />
    <linearGradient
       id="XMLID_12_"
       gradientUnits="userSpaceOnUse"
       x1="72.7793"
       y1="45.7524"
       x2="72.7793"
       y2="4.2923">
      <stop
         offset="0"
         style="stop-color:#B3B3B3"
         id="stop3169" />
      <stop
         offset="0.118"
         style="stop-color:#C7C7C7"
         id="stop3172" />
      <stop
         offset="0.2724"
         style="stop-color:#D8D8D8"
         id="stop3174" />
      <stop
         offset="0.5052"
         style="stop-color:#EBEBEB"
         id="stop232" />
      <stop
         offset="0.7449"
         style="stop-color:#F6F6F6"
         id="stop234" />
      <stop
         offset="1"
         style="stop-color:#FAFAFA"
         id="stop236" />
    </linearGradient>
    <linearGradient
       inkscape:collect="always"
       id="linearGradient4344">
      <stop
         style="stop-color:#9a7c7c;stop-opacity:1;"
         offset="0"
         id="stop4346" />
      <stop
         style="stop-color:#9a7c7c;stop-opacity:0;"
         offset="1"
         id="stop4348" />
    </linearGradient>
    <linearGradient
       inkscape:collect="always"
       xlink:href="#linearGradient4344"
       id="linearGradient4350"
       x1="3.9928615"
       y1="29.003745"
       x2="74.628861"
       y2="29.003745"
       gradientUnits="userSpaceOnUse" />
    <linearGradient
       id="XMLID_4_"
       gradientUnits="userSpaceOnUse"
       x1="50.5439"
       y1="29.6802"
       x2="31.1904"
       y2="10.3267"
       gradientTransform="translate(-12.317139,3.9293995)">
      <stop
         offset="0"
         style="stop-color:#B3B3B3"
         id="stop156" />
      <stop
         offset="0.118"
         style="stop-color:#C7C7C7"
         id="stop158" />
      <stop
         offset="0.4557"
         style="stop-color:#E2E2E2"
         id="stop160" />
      <stop
         offset="0.7719"
         style="stop-color:#F4F4F4"
         id="stop3159" />
      <stop
         offset="1"
         style="stop-color:#FAFAFA"
         id="stop3162" />
    </linearGradient>
    <linearGradient
       inkscape:collect="always"
       id="linearGradient3309">
      <stop
         style="stop-color:#ffffff;stop-opacity:1;"
         offset="0"
         id="stop3311" />
      <stop
         style="stop-color:#ffffff;stop-opacity:0;"
         offset="1"
         id="stop3313" />
    </linearGradient>
    <linearGradient
       inkscape:collect="always"
       xlink:href="#linearGradient3309"
       id="linearGradient3315"
       x1="73.415"
       y1="89.0405"
       x2="91.253408"
       y2="89.0405"
       gradientUnits="userSpaceOnUse" />
    <linearGradient
       inkscape:collect="always"
       id="linearGradient3292">
      <stop
         style="stop-color:#ffffff;stop-opacity:1;"
         offset="0"
         id="stop3294" />
      <stop
         style="stop-color:#ffffff;stop-opacity:0;"
         offset="1"
         id="stop3296" />
    </linearGradient>
    <linearGradient
       inkscape:collect="always"
       xlink:href="#linearGradient3292"
       id="linearGradient3298"
       x1="46.615"
       y1="74.561"
       x2="64.216"
       y2="74.561"
       gradientUnits="userSpaceOnUse" />
    <linearGradient
       inkscape:collect="always"
       id="linearGradient3300">
      <stop
         style="stop-color:#ffffff;stop-opacity:1;"
         offset="0"
         id="stop3302" />
      <stop
         style="stop-color:#ffffff;stop-opacity:0;"
         offset="1"
         id="stop3304" />
    </linearGradient>
    <linearGradient
       inkscape:collect="always"
       xlink:href="#linearGradient3300"
       id="linearGradient3306"
       x1="85.285706"
       y1="76.180473"
       x2="58.344002"
       y2="57.483845"
       gradientUnits="userSpaceOnUse" />
    <linearGradient
       inkscape:collect="always"
       id="linearGradient3317">
      <stop
         style="stop-color:#ffffff;stop-opacity:1;"
         offset="0"
         id="stop3319" />
      <stop
         style="stop-color:#ffffff;stop-opacity:0;"
         offset="1"
         id="stop3321" />
    </linearGradient>
    <linearGradient
       inkscape:collect="always"
       xlink:href="#linearGradient3317"
       id="linearGradient3323"
       x1="65.306"
       y1="105.4015"
       x2="90.324"
       y2="105.4015"
       gradientUnits="userSpaceOnUse" />
    <linearGradient
       inkscape:collect="always"
       id="linearGradient3325">
      <stop
         style="stop-color:#ffffff;stop-opacity:1;"
         offset="0"
         id="stop3327" />
      <stop
         style="stop-color:#ffffff;stop-opacity:0;"
         offset="1"
         id="stop3329" />
    </linearGradient>
    <linearGradient
       inkscape:collect="always"
       xlink:href="#linearGradient3325"
       id="linearGradient3331"
       x1="67.027794"
       y1="101.79949"
       x2="41.273464"
       y2="105.395"
       gradientUnits="userSpaceOnUse" />
    <linearGradient
       inkscape:collect="always"
       id="linearGradient3333">
      <stop
         style="stop-color:#ffffff;stop-opacity:1;"
         offset="0"
         id="stop3335" />
      <stop
         style="stop-color:#ffffff;stop-opacity:0;"
         offset="1"
         id="stop3337" />
    </linearGradient>
    <linearGradient
       inkscape:collect="always"
       xlink:href="#linearGradient3333"
       id="linearGradient3339"
       x1="49.913189"
       y1="80.60508"
       x2="32.241364"
       y2="108.387"
       gradientUnits="userSpaceOnUse" />
    <linearGradient
       inkscape:collect="always"
       id="linearGradient3308">
      <stop
         style="stop-color:#ffb820;stop-opacity:1;"
         offset="0"
         id="stop3310" />
      <stop
         style="stop-color:#ffb820;stop-opacity:0;"
         offset="1"
         id="stop3312" />
    </linearGradient>
    <radialGradient
       inkscape:collect="always"
       xlink:href="#linearGradient3308"
       id="radialGradient3440"
       gradientUnits="userSpaceOnUse"
       gradientTransform="matrix(1.7631821,5.9488223e-2,-3.5232648e-2,1.0442668,-46.580973,-8.0695055)"
       cx="64.871498"
       cy="88.9095"
       fx="64.871498"
       fy="88.9095"
       r="49.2795" />
    <linearGradient
       inkscape:collect="always"
       id="linearGradient3316">
      <stop
         style="stop-color:#000000;stop-opacity:1;"
         offset="0"
         id="stop3318" />
      <stop
         style="stop-color:#000000;stop-opacity:0;"
         offset="1"
         id="stop3320" />
    </linearGradient>
    <radialGradient
       inkscape:collect="always"
       xlink:href="#linearGradient3316"
       id="radialGradient3324"
       cx="65"
       cy="52"
       fx="65"
       fy="52"
       r="52"
       gradientTransform="matrix(1,0,0,1.9230769e-2,-0.2397006,53.876405)"
       gradientUnits="userSpaceOnUse" />
    <linearGradient
       inkscape:collect="always"
       id="linearGradient3282">
      <stop
         style="stop-color:#000000;stop-opacity:1;"
         offset="0"
         id="stop3284" />
      <stop
         style="stop-color:#000000;stop-opacity:0;"
         offset="1"
         id="stop3286" />
    </linearGradient>
    <linearGradient
       inkscape:collect="always"
       xlink:href="#linearGradient3282"
       id="linearGradient3988"
       gradientUnits="userSpaceOnUse"
       x1="22.989"
       y1="34.5"
       x2="107.011"
       y2="34.5" />
    <linearGradient
       inkscape:collect="always"
       id="linearGradient3992">
      <stop
         style="stop-color:#916b3a;stop-opacity:1;"
         offset="0"
         id="stop3994" />
      <stop
         style="stop-color:#916b3a;stop-opacity:0;"
         offset="1"
         id="stop3996" />
    </linearGradient>
    <linearGradient
       inkscape:collect="always"
       xlink:href="#linearGradient3992"
       id="linearGradient4000"
       x1="9.4529257"
       y1="37.538952"
       x2="212.11203"
       y2="37.538952"
       gradientUnits="userSpaceOnUse"
       gradientTransform="matrix(1.0110019,0,0,1,-0.1039998,0)" />
    <linearGradient
       inkscape:collect="always"
       id="linearGradient3169">
      <stop
         style="stop-color:#ffffff;stop-opacity:1;"
         offset="0"
         id="stop3171" />
      <stop
         style="stop-color:#ffffff;stop-opacity:0;"
         offset="1"
         id="stop3173" />
    </linearGradient>
    <linearGradient
       inkscape:collect="always"
       xlink:href="#linearGradient3169"
       id="linearGradient2708"
       gradientUnits="userSpaceOnUse"
       gradientTransform="matrix(5.3980515,0,0,8.6792199,-1.8151773,-269.3811)"
       x1="23.228916"
       y1="-12.322069"
       x2="23.13253"
       y2="8.9198704" />
    <linearGradient
       inkscape:collect="always"
       xlink:href="#linearGradient3169"
       id="linearGradient2711"
       gradientUnits="userSpaceOnUse"
       gradientTransform="matrix(5.3980515,0,0,8.5469147,-1.8151773,-12.679516)"
       x1="24"
       y1="0.64933401"
       x2="24"
       y2="13.970832" />
  </defs>
  <rect
     style="opacity:0.89655175;fill:url(#linearGradient2711);fill-opacity:1;stroke:none;stroke-width:6.63600016;stroke-miterlimit:4;stroke-dasharray:none;stroke-opacity:1"
     id="rect3167"
     width="223.72647"
     height="168.05501"
     x="15.874823"
     y="13.682052"
     rx="32.825783"
     ry="32.227104" />
  <rect
     ry="32.725975"
     rx="28.586134"
     y="-242.61147"
     x="15.874823"
     height="170.65648"
     width="223.72647"
     id="rect3177"
     style="opacity:0.89655175;fill:url(#linearGradient2708);fill-opacity:1;stroke:none;stroke-width:6.63600016;stroke-miterlimit:4;stroke-dasharray:none;stroke-opacity:1"
     transform="scale(1,-1)" />
  <g
     style="overflow:visible"
     id="g3096"
     transform="matrix(1.4426829,0,0,1.4426829,33.898821,16.124415)">
    <path
       id="path4"
       d="M 109,124.271 C 109,125.771 108.325,127 107.5,127 L 22.5,127 C 21.675,127 21,125.771 21,124.271 L 21,124.271 C 21,122.769 21.675,121.541 22.5,121.541 L 107.5,121.541 C 108.325,121.541 109,122.77 109,124.271 L 109,124.271 z"
       style="opacity:0.15" />
    <path
       id="path6"
       d="M 108.498,126.5 C 108.498,127.325 107.823,128 106.998,128 L 23.002,128 C 22.177,128 21.502,127.325 21.502,126.5 L 21.502,125.5 C 21.502,124.675 22.177,124 23.002,124 L 106.998,124 C 107.823,124 108.498,124.675 108.498,125.5 L 108.498,126.5 L 108.498,126.5 z"
       style="opacity:0.15" />
    <path
       id="path54"
       d="M 17.406201,21.198502 C 16.831052,21.198502 16.334221,21.593094 16.210626,22.148669 L 9.4813867,52.408764 C 9.4018451,52.767044 9.4911773,53.141059 9.7224601,53.427924 C 9.9549673,53.712369 10.306174,53.879405 10.676962,53.879405 L 118.36437,53.879405 C 118.73516,53.879405 119.08636,53.712369 119.31765,53.427924 C 119.54893,53.142269 119.6395,52.767044 119.55872,52.408764 L 112.82825,22.148669 C 112.70589,21.593094 112.20905,21.198502 111.63391,21.198502 L 17.406201,21.198502 z"
       style="fill:url(#linearGradient4000);fill-opacity:1" />
    <polygon
       transform="matrix(1.1144025,0,0,1.1144025,-8.15526,-0.7245489)"
       id="polygon56"
       points="109,46 21,46 26.499,21 103.5,21 109,46 "
       style="fill:#a15823" />
    <polygon
       transform="matrix(1.1312301,0,0,1.1312301,-9.249059,-2.2991913)"
       id="polygon80"
       points="28.107,23 22.989,46 107.011,46 101.892,23 28.107,23 "
       style="fill:url(#linearGradient3988);fill-opacity:1" />
    <rect
       id="rect100"
       height="2"
       width="104"
       style="fill:url(#radialGradient3324);fill-opacity:1"
       y="53.876408"
       x="12.760298" />
    <polygon
       transform="translate(-3.3558051,-2.3970034)"
       id="polygon102"
       points="114.801,55 14.9,55 14.801,54 115,54 114.801,55 "
       style="opacity:0.2;fill:#010101;fill-opacity:1" />
    <path
       sodipodi:nodetypes="ccccssc"
       style="opacity:1;fill:url(#radialGradient3440);fill-opacity:1"
       d="M 108.75928,120.89532 L 113.6716,54.19239 L 15.387278,54.19239 L 20.533278,120.39232 C 20.533278,120.39232 21.128278,124.72532 24.862278,124.72532 C 27.461278,124.72532 101.30928,124.72532 104.46828,124.72532 C 108.29528,124.72532 108.75928,120.89532 108.75928,120.89532 z"
       id="path3306" />
    <path
       id="path104"
       d="M 45.998,108.387 C 45.138,107.083 40.115,97.892 39.083,96.325 C 38.049,94.761 38.371,92.525 38.931,91.556 L 42.503,85.519 L 39.899,84.083 L 51.273,82.546 L 55.732,93 L 53.175,91.466 L 46.367,103.275 C 45.53,104.728 45.017,107.013 45.998,108.387 z"
       style="fill:url(#linearGradient3339);fill-opacity:1" />
    <path
       id="path106"
       d="M 50.007,99.28 L 47.069,104.375 C 46.368,105.59 45.907,107.382 46.345,108.741 C 47.237,109.991 48.675,111.468 50.73,111.51 L 64.045,111.51 L 64.045,99.28 L 50.007,99.28 z"
       style="fill:url(#linearGradient3331);fill-opacity:1" />
    <path
       id="path108"
       d="M 90.324,97.051 C 89.625,98.448 84.175,107.393 83.336,109.069 C 82.498,110.747 80.401,111.586 79.283,111.586 L 72.596,111.517 L 72.596,114.752 L 65.306,105.401 L 72.596,96.051 L 72.596,99.286 L 85.71,99.286 C 87.389,99.286 89.625,98.588 90.324,97.051 z"
       style="fill:url(#linearGradient3323);fill-opacity:1" />
    <path
       id="path110"
       d="M 58.344,64.33 C 59.904,64.237 70.375,64.486 72.246,64.373 C 74.118,64.261 75.892,65.657 76.451,66.626 L 79.983,72.734 L 82.649,71.168 L 78.084,81.82 L 66.648,80.418 L 69.309,78.932 L 62.586,67.207 C 61.748,65.755 60.025,64.167 58.344,64.33 z"
       style="fill:url(#linearGradient3306);fill-opacity:1" />
    <path
       id="path112"
       d="M 57.851,64.608 C 56.311,64.741 54.246,65.23 53.156,67.03 L 46.615,78.399 L 57.205,84.514 L 64.216,72.329 L 61.422,67.456 C 60.694,66.199 59.304,64.843 57.851,64.608 z"
       style="fill:url(#linearGradient3298);fill-opacity:1" />
    <path
       id="path114"
       d="M 86.811,98.223 C 87.963,98.223 89.268,97.685 90.268,96.982 L 90.325,96.884 C 91.024,95.487 91.8,93.283 90.714,91.31 L 84.005,79.858 L 73.415,85.972 L 80.567,98.223 L 86.811,98.223 L 86.811,98.223 z"
       style="fill:url(#linearGradient3315);fill-opacity:1" />
    <path
       id="path166"
       d="M 36.879861,8.1823995 L 36.879861,8.1823995 C 34.407861,9.4703995 9.3208619,22.952399 4.4928615,25.547399 C 5.3198614,27.139399 16.668861,49.037399 17.183861,50.031399 C 18.338861,50.032399 74.128861,49.652399 74.128861,49.652399 L 55.113861,13.034399 C 55.113861,13.034399 39.578861,6.7743995 36.879861,8.1823995 z"
       style="fill:url(#XMLID_4_);stroke:url(#linearGradient4350);stroke-opacity:1;overflow:visible" />
    <polygon
       transform="translate(11.355832,3.4019443)"
       id="polygon238"
       points="36.37,46.117 95.643,46.051 109.188,32.739 79.617,3.169 36.37,46.117 "
       style="fill:url(#XMLID_12_);stroke:url(#linearGradient4342);stroke-opacity:1;overflow:visible" />
    <path
       id="path200"
       d="M 36.699471,7.6969658 C 40.120471,5.5369658 53.715471,9.9559658 55.345471,13.411966 C 50.812471,14.134966 43.418471,17.802966 43.418471,17.802966 C 43.418471,17.802966 39.912471,11.166966 36.699471,7.6969658 z"
       style="fill:url(#XMLID_8_);stroke:url(#linearGradient4358);stroke-opacity:1;overflow:visible" />
  </g>
</svg>
