<?xml version="1.0" encoding="UTF-8" standalone="no"?>
<!-- Created with Inkscape (http://www.inkscape.org/) -->

<svg
   xmlns:dc="http://purl.org/dc/elements/1.1/"
   xmlns:cc="http://creativecommons.org/ns#"
   xmlns:rdf="http://www.w3.org/1999/02/22-rdf-syntax-ns#"
   xmlns:svg="http://www.w3.org/2000/svg"
   xmlns="http://www.w3.org/2000/svg"
   xmlns:xlink="http://www.w3.org/1999/xlink"
   xmlns:sodipodi="http://sodipodi.sourceforge.net/DTD/sodipodi-0.dtd"
   xmlns:inkscape="http://www.inkscape.org/namespaces/inkscape"
   id="svg2"
   sodipodi:version="0.32"
   inkscape:version="0.47pre0 r21549"
   width="256"
   height="256"
   version="1.0"
   sodipodi:docname="brasero.svg"
   inkscape:output_extension="org.inkscape.output.svg.inkscape">
  <sodipodi:namedview
     inkscape:window-height="718"
     inkscape:window-width="911"
     inkscape:pageshadow="2"
     inkscape:pageopacity="0.0"
     guidetolerance="10.0"
     gridtolerance="10.0"
     objecttolerance="10.0"
     borderopacity="1.0"
     bordercolor="#666666"
     pagecolor="#ffffff"
     id="base"
     width="48px"
     height="48px"
     inkscape:zoom="1.9453125"
     inkscape:cx="51.288943"
     inkscape:cy="123.92162"
     inkscape:window-x="240"
     inkscape:window-y="165"
     inkscape:current-layer="svg2"
     showgrid="false" />
  <metadata
     id="metadata7">
    <rdf:RDF>
      <cc:Work
         rdf:about="">
        <dc:format>image/svg+xml</dc:format>
        <dc:type
           rdf:resource="http://purl.org/dc/dcmitype/StillImage" />
      </cc:Work>
    </rdf:RDF>
  </metadata>
  <defs
     id="defs5">
    <linearGradient
       inkscape:collect="always"
       id="linearGradient3971">
      <stop
         style="stop-color:#a09fa3;stop-opacity:1;"
         offset="0"
         id="stop3973" />
      <stop
         style="stop-color:#a09fa3;stop-opacity:0;"
         offset="1"
         id="stop3975" />
    </linearGradient>
    <linearGradient
       id="linearGradient3403"
       inkscape:collect="always">
      <stop
         id="stop3405"
         offset="0"
         style="stop-color:#f5a200;stop-opacity:0.88973385" />
      <stop
         id="stop3407"
         offset="1"
         style="stop-color:#f55f00;stop-opacity:1" />
    </linearGradient>
    <linearGradient
       id="linearGradient3343"
       inkscape:collect="always">
      <stop
         id="stop3345"
         offset="0"
         style="stop-color:#fce94f;stop-opacity:0.8326996" />
      <stop
         id="stop3347"
         offset="1"
         style="stop-color:#fec446;stop-opacity:1" />
    </linearGradient>
    <linearGradient
       id="linearGradient6028"
       inkscape:collect="always">
      <stop
         id="stop6030"
         offset="0"
         style="stop-color:#ffffff;stop-opacity:1;" />
      <stop
         id="stop6032"
         offset="1"
         style="stop-color:#ffffff;stop-opacity:0;" />
    </linearGradient>
    <linearGradient
       id="linearGradient6036"
       inkscape:collect="always">
      <stop
         id="stop6038"
         offset="0"
         style="stop-color:#ffffff;stop-opacity:1;" />
      <stop
         id="stop6040"
         offset="1"
         style="stop-color:#ffffff;stop-opacity:0;" />
    </linearGradient>
    <linearGradient
       y2="14.2033"
       x2="35.3912"
       y1="32.4165"
       x1="12.2744"
       gradientUnits="userSpaceOnUse"
       id="aigrd2">
      <stop
         id="stop3043"
         style="stop-color:#FBFBFB"
         offset="0" />
      <stop
         id="stop3045"
         style="stop-color:#B6B6B6"
         offset="0.5" />
      <stop
         id="stop3047"
         style="stop-color:#E4E4E4"
         offset="1" />
    </linearGradient>
    <linearGradient
       y2="34.3075"
       x2="32.511"
       y1="11.1885"
       x1="14.9966"
       gradientUnits="userSpaceOnUse"
       id="aigrd1">
      <stop
         id="stop3034"
         style="stop-color:#EBEBEB"
         offset="0" />
      <stop
         id="stop3036"
         style="stop-color:#FFFFFF"
         offset="0.5" />
      <stop
         id="stop3038"
         style="stop-color:#EBEBEB"
         offset="1" />
    </linearGradient>
    <linearGradient
       inkscape:collect="always"
       id="linearGradient3193">
      <stop
         style="stop-color:#ff4d19;stop-opacity:1;"
         offset="0"
         id="stop3195" />
      <stop
         style="stop-color:#ff4d19;stop-opacity:0.17490494"
         offset="1"
         id="stop3197" />
    </linearGradient>
    <linearGradient
       id="linearGradient3349">
      <stop
         style="stop-color:#f5a200;stop-opacity:1"
         offset="0"
         id="stop3351" />
      <stop
         style="stop-color:#f54e00;stop-opacity:1;"
         offset="1"
         id="stop3353" />
    </linearGradient>
    <linearGradient
       id="linearGradient3297">
      <stop
         style="stop-color:#fce94f;stop-opacity:0.90494299"
         offset="0"
         id="stop3299" />
      <stop
         style="stop-color:#ffaf45;stop-opacity:1;"
         offset="1"
         id="stop3301" />
    </linearGradient>
    <linearGradient
       id="linearGradient23419"
       inkscape:collect="always">
      <stop
         id="stop23421"
         offset="0"
         style="stop-color:#000000;stop-opacity:1;" />
      <stop
         id="stop23423"
         offset="1"
         style="stop-color:#000000;stop-opacity:0;" />
    </linearGradient>
    <linearGradient
       inkscape:collect="always"
       id="linearGradient3169">
      <stop
         style="stop-color:#ffffff;stop-opacity:1;"
         offset="0"
         id="stop3171" />
      <stop
         style="stop-color:#ffffff;stop-opacity:0;"
         offset="1"
         id="stop3173" />
    </linearGradient>
    <radialGradient
       inkscape:collect="always"
       xlink:href="#linearGradient23419"
       id="radialGradient12387"
       gradientUnits="userSpaceOnUse"
       gradientTransform="matrix(1,0,0,0.25,0,31.22703)"
       cx="23.334524"
       cy="41.63604"
       fx="23.334524"
       fy="41.63604"
       r="22.627417" />
    <linearGradient
       inkscape:collect="always"
       xlink:href="#aigrd1"
       id="linearGradient12395"
       gradientUnits="userSpaceOnUse"
       gradientTransform="matrix(4.3118053,0,-1.1273795,4.5780063,-140.51261,26.761255)"
       x1="14.9966"
       y1="11.1885"
       x2="32.511"
       y2="34.3075" />
    <linearGradient
       inkscape:collect="always"
       xlink:href="#aigrd2"
       id="linearGradient12397"
       gradientUnits="userSpaceOnUse"
       gradientTransform="matrix(4.3118053,0,-1.1273795,4.5780063,-140.51261,26.761251)"
       x1="12.2744"
       y1="32.4165"
       x2="35.3912"
       y2="14.2033" />
    <radialGradient
       inkscape:collect="always"
       xlink:href="#linearGradient3971"
       id="radialGradient12399"
       gradientUnits="userSpaceOnUse"
       gradientTransform="matrix(1,0,0,0.8846055,0,13.638057)"
       cx="-66.755302"
       cy="118.18632"
       fx="-66.755302"
       fy="118.18632"
       r="71.670067" />
    <linearGradient
       inkscape:collect="always"
       xlink:href="#linearGradient6036"
       id="linearGradient12401"
       gradientUnits="userSpaceOnUse"
       gradientTransform="matrix(3.5957106,0,-0.9401467,3.827958,-127.08508,36.814274)"
       x1="10.501720"
       y1="3.6100161"
       x2="48.798885"
       y2="54.698483" />
    <linearGradient
       inkscape:collect="always"
       xlink:href="#linearGradient6028"
       id="linearGradient12403"
       gradientUnits="userSpaceOnUse"
       x1="28.702885"
       y1="31.494707"
       x2="17.742729"
       y2="18.366575" />
    <linearGradient
       inkscape:collect="always"
       xlink:href="#aigrd1"
       id="linearGradient12405"
       gradientUnits="userSpaceOnUse"
       gradientTransform="matrix(4.3118053,0,-1.1273795,4.5780063,-140.51261,26.761255)"
       x1="14.9966"
       y1="11.1885"
       x2="32.511"
       y2="34.3075" />
    <linearGradient
       inkscape:collect="always"
       xlink:href="#aigrd2"
       id="linearGradient12407"
       gradientUnits="userSpaceOnUse"
       gradientTransform="matrix(4.3118053,0,-1.1273795,4.5780063,-140.51261,26.761251)"
       x1="12.2744"
       y1="32.4165"
       x2="35.3912"
       y2="14.2033" />
    <radialGradient
       inkscape:collect="always"
       xlink:href="#linearGradient3971"
       id="radialGradient12409"
       gradientUnits="userSpaceOnUse"
       gradientTransform="matrix(1,0,0,0.8846055,0,13.638057)"
       cx="-66.755302"
       cy="118.18632"
       fx="-66.755302"
       fy="118.18632"
       r="71.670067" />
    <linearGradient
       inkscape:collect="always"
       xlink:href="#linearGradient6036"
       id="linearGradient12411"
       gradientUnits="userSpaceOnUse"
       gradientTransform="matrix(3.5957106,0,-0.9401467,3.827958,-127.08508,36.814274)"
       x1="10.501720"
       y1="3.6100161"
       x2="48.798885"
       y2="54.698483" />
    <linearGradient
       inkscape:collect="always"
       xlink:href="#linearGradient6028"
       id="linearGradient12413"
       gradientUnits="userSpaceOnUse"
       x1="28.702885"
       y1="31.494707"
       x2="17.742729"
       y2="18.366575" />
    <linearGradient
       inkscape:collect="always"
       xlink:href="#linearGradient3193"
       id="linearGradient12434"
       gradientUnits="userSpaceOnUse"
       gradientTransform="matrix(1.7642742,0,0,2.2393019,86.36618,59.948653)"
       x1="24.53307"
       y1="9.3393259"
       x2="22.546782"
       y2="32.045216" />
    <linearGradient
       inkscape:collect="always"
       xlink:href="#linearGradient3193"
       id="linearGradient12437"
       gradientUnits="userSpaceOnUse"
       gradientTransform="matrix(4.3369066,0,0,4.3271689,23.652812,19.400815)"
       x1="7.7349529"
       y1="31.255808"
       x2="15.290119"
       y2="45.573547" />
    <linearGradient
       inkscape:collect="always"
       xlink:href="#linearGradient3297"
       id="linearGradient12442"
       gradientUnits="userSpaceOnUse"
       gradientTransform="matrix(4.281321,0,0,4.256921,24.509487,19.816348)"
       x1="8.0008059"
       y1="19.354666"
       x2="11.765572"
       y2="40.504414" />
    <linearGradient
       inkscape:collect="always"
       xlink:href="#linearGradient3349"
       id="linearGradient12444"
       gradientUnits="userSpaceOnUse"
       gradientTransform="matrix(4.281321,0,0,4.256921,24.509487,19.816348)"
       x1="11.391339"
       y1="16.274387"
       x2="16.147627"
       y2="35.156826" />
    <linearGradient
       inkscape:collect="always"
       xlink:href="#linearGradient3343"
       id="linearGradient12449"
       gradientUnits="userSpaceOnUse"
       gradientTransform="matrix(4.3305433,0,0,4.3305433,23.550931,19.700999)"
       x1="23.41287"
       y1="17.026258"
       x2="23.35877"
       y2="23.209305" />
    <linearGradient
       inkscape:collect="always"
       xlink:href="#linearGradient3403"
       id="linearGradient12451"
       gradientUnits="userSpaceOnUse"
       gradientTransform="matrix(4.3305433,0,0,4.3305433,23.550931,19.700999)"
       x1="24.456329"
       y1="10.06987"
       x2="27.001125"
       y2="29.433199" />
    <linearGradient
       inkscape:collect="always"
       xlink:href="#linearGradient3193"
       id="linearGradient12474"
       gradientUnits="userSpaceOnUse"
       gradientTransform="matrix(2.117129,0,0,2.1247611,110.18865,132.82617)"
       x1="24.533068"
       y1="9.1633615"
       x2="20.155373"
       y2="30.322044" />
    <linearGradient
       inkscape:collect="always"
       xlink:href="#linearGradient3297"
       id="linearGradient12477"
       gradientUnits="userSpaceOnUse"
       gradientTransform="matrix(4.3305433,0,0,4.3305433,23.550931,19.700999)"
       x1="38.88414"
       y1="12.518509"
       x2="41.335243"
       y2="31.996395" />
    <linearGradient
       inkscape:collect="always"
       xlink:href="#linearGradient3349"
       id="linearGradient12479"
       gradientUnits="userSpaceOnUse"
       gradientTransform="matrix(4.3305433,0,0,4.3305433,23.550931,19.700999)"
       x1="34.352047"
       y1="17.267895"
       x2="37.590771"
       y2="33.67453" />
    <linearGradient
       inkscape:collect="always"
       xlink:href="#linearGradient3169"
       id="linearGradient12485"
       gradientUnits="userSpaceOnUse"
       gradientTransform="matrix(5.3980515,0,0,8.6792199,-1.8151773,-269.3811)"
       x1="23.228916"
       y1="-12.322069"
       x2="23.13253"
       y2="8.9198704" />
    <linearGradient
       inkscape:collect="always"
       xlink:href="#linearGradient3169"
       id="linearGradient12488"
       gradientUnits="userSpaceOnUse"
       gradientTransform="matrix(5.3980515,0,0,8.5469147,-1.8151773,-12.679516)"
       x1="24"
       y1="0.64933401"
       x2="24"
       y2="13.970832" />
  </defs>
  <rect
     style="opacity:0.89655175;fill:url(#linearGradient12488);fill-opacity:1;stroke:none;stroke-width:6.63600016;stroke-miterlimit:4;stroke-dasharray:none;stroke-opacity:1"
     id="rect3167"
     width="223.72647"
     height="168.05501"
     x="15.874823"
     y="13.682052"
     rx="35.910118"
     ry="32.227104" />
  <rect
     ry="32.725975"
     rx="35.910118"
     y="-242.61147"
     x="15.874823"
     height="170.65648"
     width="223.72647"
     id="rect3177"
     style="opacity:0.89655175;fill:url(#linearGradient12485);fill-opacity:1;stroke:none;stroke-width:6.63600016;stroke-miterlimit:4;stroke-dasharray:none;stroke-opacity:1"
     transform="scale(1,-1)" />
  <path
     transform="matrix(3.4449264,0,0,4.5932349,25.445541,10.339707)"
     inkscape:r_cy="true"
     inkscape:r_cx="true"
     d="M 45.961941,41.63604 A 22.627417,5.6568542 0 1 1 0.70710754,41.63604 A 22.627417,5.6568542 0 1 1 45.961941,41.63604 z"
     sodipodi:ry="5.6568542"
     sodipodi:rx="22.627417"
     sodipodi:cy="41.63604"
     sodipodi:cx="23.334524"
     id="path23417"
     style="opacity:0.55;fill:url(#radialGradient12387);fill-opacity:1;fill-rule:evenodd;stroke:none;stroke-width:2;stroke-linecap:butt;stroke-linejoin:miter;marker:none;marker-start:none;marker-mid:none;marker-end:none;stroke-miterlimit:4;stroke-dasharray:none;stroke-dashoffset:0;stroke-opacity:1;visibility:visible;display:inline;overflow:visible"
     sodipodi:type="arc" />
  <path
     style="opacity:0.9;fill:url(#linearGradient12477);fill-opacity:1;fill-rule:nonzero;stroke:url(#linearGradient12479);stroke-width:4.33054304;stroke-linecap:round;stroke-linejoin:round;stroke-miterlimit:4;stroke-dasharray:none;stroke-opacity:1"
     d="M 131.13419,206.17143 C 139.71246,217.77629 203.68854,219.57506 218.33908,149.00096 C 231.91937,83.582459 179.46909,28.05676 159.99256,21.859243 C 177.31631,72.816589 178.75991,161.62888 131.13419,206.17143 z"
     id="path1066"
     sodipodi:nodetypes="cscc" />
  <path
     style="opacity:0.94636015;fill:url(#linearGradient12474);fill-opacity:1;fill-rule:evenodd;stroke:none;stroke-width:0.99999994;stroke-linecap:round;stroke-linejoin:round;stroke-miterlimit:4;stroke-dasharray:none;stroke-opacity:1"
     d="M 201.03943,119.06704 C 198.84879,137.45337 135.03731,180.77665 157.73463,197.24914 C 182.63804,197.6513 204.25747,168.69038 201.03943,119.06704 z"
     id="path3207"
     sodipodi:nodetypes="ccc" />
  <g
     id="g2949"
     transform="translate(171.69478,-14.907631)">
    <g
       transform="translate(10.795182,16.449799)"
       id="g3993">
      <path
         inkscape:r_cy="true"
         inkscape:r_cx="true"
         id="path3040"
         d="M -43.342593,52.398094 C -85.167114,52.398094 -127.59276,88.106549 -138.52834,132.51322 C -149.46393,176.91989 -124.6254,212.62835 -82.800882,212.62835 C -40.976361,212.62835 1.4492902,176.91989 12.384874,132.51322 C 23.320456,88.106549 -1.5180715,52.398094 -43.342593,52.398094 L -43.342593,52.398094 z M -67.806732,151.74085 C -77.723885,151.74085 -83.774295,143.04264 -81.181322,132.51322 C -78.588349,121.9838 -68.253895,113.28559 -58.336742,113.28559 C -48.419589,113.28559 -42.369179,121.9838 -44.962152,132.51322 C -47.555125,143.04264 -57.889579,151.74085 -67.806732,151.74085 z"
         style="fill:url(#linearGradient12395);fill-rule:nonzero;stroke:none;stroke-miterlimit:4" />
      <path
         sodipodi:nodetypes="cssscccsssc"
         inkscape:r_cy="true"
         inkscape:r_cx="true"
         id="path3049"
         d="M -43.342592,52.398092 C -85.167113,52.398092 -127.59276,88.106549 -138.52834,132.51322 C -149.46393,176.91989 -124.6254,212.62835 -82.800882,212.62835 C -40.976361,212.62835 1.4492902,176.91989 12.384874,132.51322 C 23.320456,88.106549 -1.5180711,52.398092 -43.342592,52.398092 L -43.342592,52.398092 z M -67.700224,152.16688 C -77.617377,152.16688 -82.602711,143.25565 -80.009737,132.72623 C -77.416764,122.19682 -68.147388,113.07257 -58.230235,113.07257 C -48.313082,113.07257 -43.647273,122.09031 -46.240246,132.61973 C -48.833219,143.14915 -57.783071,152.16688 -67.700224,152.16688 z"
         style="fill:url(#linearGradient12397);fill-rule:nonzero;stroke:#808080;stroke-width:4.33054495;stroke-miterlimit:4;stroke-opacity:1" />
      <g
         id="g3981">
        <path
           sodipodi:nodetypes="csccssccsc"
           id="path3531"
           d="M -47.020568,54.803236 C -86.382916,56.364175 -125.65098,90.248803 -135.9402,132.03076 C -140.60465,150.97191 -138.51632,168.18789 -131.2408,181.58605 L -82.063133,145.39852 C -83.877127,142.15543 -83.928497,137.54147 -82.80818,132.99214 C -79.597485,119.95431 -69.189939,111.58265 -57.371312,111.58265 C -51.996659,111.58265 -47.248016,114.17234 -45.050011,118.29809 L 4.9147613,82.59125 C -4.2067339,65.578051 -21.724161,54.803236 -44.294296,54.803236 C -45.238751,54.803236 -46.07587,54.765773 -47.020568,54.803236 z"
           style="fill:url(#radialGradient12399);fill-opacity:1;fill-rule:nonzero;stroke:none;stroke-miterlimit:4;stroke-opacity:1" />
        <path
           style="opacity:0.51098902;fill:#eeeeec;fill-rule:nonzero;stroke:none;stroke-miterlimit:4"
           d="M -53.73588,93.538328 C -73.616383,93.538328 -93.566803,111.25419 -98.643948,132.51321 C -103.84197,154.27842 -91.770224,171.48811 -72.352062,171.48811 C -52.471559,171.48811 -32.52114,153.77225 -27.443999,132.51321 C -22.245975,110.74802 -34.317714,93.538328 -53.73588,93.538328 L -53.73588,93.538328 z M -68.121115,153.77225 C -78.754871,153.77225 -85.242477,144.15507 -82.462136,132.51321 C -79.681797,120.87136 -68.600588,111.25419 -57.966828,111.25419 C -47.333072,111.25419 -40.845473,120.87136 -43.625812,132.51321 C -46.406153,144.15507 -57.487358,153.77225 -68.121115,153.77225 z"
           id="path3051"
           inkscape:r_cx="true"
           inkscape:r_cy="true" />
        <path
           sodipodi:nodetypes="cccccc"
           id="path5264"
           d="M -44.431288,56.728709 C -83.888977,56.728709 -123.91378,90.506954 -134.23052,132.51322 C -144.54726,174.51948 -121.11433,208.29772 -81.656648,208.29772 C -42.198959,208.29772 -2.1741568,174.51948 8.1425838,132.51322 C 18.459324,90.506954 -4.9735993,56.728709 -44.431288,56.728709 L -44.431288,56.728709 z"
           style="opacity:0.54644811;fill:none;fill-rule:nonzero;stroke:url(#linearGradient12401);stroke-width:4.33054447;stroke-miterlimit:4;stroke-opacity:1"
           inkscape:r_cx="true"
           inkscape:r_cy="true" />
        <path
           transform="matrix(3.4580169,0,-0.904145,3.9300202,-124.55637,34.535293)"
           d="M 30.405591,24.930641 A 6.0987959,6.0987959 0 1 1 18.207999,24.930641 A 6.0987959,6.0987959 0 1 1 30.405591,24.930641 z"
           sodipodi:ry="6.0987959"
           sodipodi:rx="6.0987959"
           sodipodi:cy="24.930641"
           sodipodi:cx="24.306795"
           id="path6026"
           style="opacity:0.67213111;fill:none;fill-opacity:0.31638417;fill-rule:nonzero;stroke:url(#linearGradient12403);stroke-width:1.09311533;stroke-linecap:butt;stroke-linejoin:miter;marker:none;marker-start:none;marker-mid:none;marker-end:none;stroke-miterlimit:4;stroke-dashoffset:0;stroke-opacity:1;visibility:visible;display:inline;overflow:visible"
           sodipodi:type="arc"
           inkscape:r_cx="true"
           inkscape:r_cy="true" />
      </g>
    </g>
    <g
       id="g2897"
       transform="translate(10.795182,16.449799)">
      <path
         style="fill:url(#linearGradient12405);fill-rule:nonzero;stroke:none;stroke-miterlimit:4"
         d="M -43.342593,52.398094 C -85.167114,52.398094 -127.59276,88.106549 -138.52834,132.51322 C -149.46393,176.91989 -124.6254,212.62835 -82.800882,212.62835 C -40.976361,212.62835 1.4492902,176.91989 12.384874,132.51322 C 23.320456,88.106549 -1.5180715,52.398094 -43.342593,52.398094 L -43.342593,52.398094 z M -67.806732,151.74085 C -77.723885,151.74085 -83.774295,143.04264 -81.181322,132.51322 C -78.588349,121.9838 -68.253895,113.28559 -58.336742,113.28559 C -48.419589,113.28559 -42.369179,121.9838 -44.962152,132.51322 C -47.555125,143.04264 -57.889579,151.74085 -67.806732,151.74085 z"
         id="path2899"
         inkscape:r_cx="true"
         inkscape:r_cy="true" />
      <path
         style="fill:url(#linearGradient12407);fill-rule:nonzero;stroke:#808080;stroke-width:4.33054495;stroke-miterlimit:4;stroke-opacity:1"
         d="M -43.342592,52.398092 C -85.167113,52.398092 -127.59276,88.106549 -138.52834,132.51322 C -149.46393,176.91989 -124.6254,212.62835 -82.800882,212.62835 C -40.976361,212.62835 1.4492902,176.91989 12.384874,132.51322 C 23.320456,88.106549 -1.5180711,52.398092 -43.342592,52.398092 L -43.342592,52.398092 z M -67.700224,152.16688 C -77.617377,152.16688 -82.602711,143.25565 -80.009737,132.72623 C -77.416764,122.19682 -68.147388,113.07257 -58.230235,113.07257 C -48.313082,113.07257 -43.647273,122.09031 -46.240246,132.61973 C -48.833219,143.14915 -57.783071,152.16688 -67.700224,152.16688 z"
         id="path2901"
         inkscape:r_cx="true"
         inkscape:r_cy="true"
         sodipodi:nodetypes="cssscccsssc" />
      <g
         id="g2903">
        <path
           style="fill:url(#radialGradient12409);fill-opacity:1;fill-rule:nonzero;stroke:none;stroke-miterlimit:4;stroke-opacity:1"
           d="M -47.020568,54.803236 C -86.382916,56.364175 -125.65098,90.248803 -135.9402,132.03076 C -140.60465,150.97191 -138.51632,168.18789 -131.2408,181.58605 L -82.063133,145.39852 C -83.877127,142.15543 -83.928497,137.54147 -82.80818,132.99214 C -79.597485,119.95431 -69.189939,111.58265 -57.371312,111.58265 C -51.996659,111.58265 -47.248016,114.17234 -45.050011,118.29809 L 4.9147613,82.59125 C -4.2067339,65.578051 -21.724161,54.803236 -44.294296,54.803236 C -45.238751,54.803236 -46.07587,54.765773 -47.020568,54.803236 z"
           id="path2905"
           sodipodi:nodetypes="csccssccsc" />
        <path
           inkscape:r_cy="true"
           inkscape:r_cx="true"
           id="path2907"
           d="M -53.73588,93.538328 C -73.616383,93.538328 -93.566803,111.25419 -98.643948,132.51321 C -103.84197,154.27842 -91.770224,171.48811 -72.352062,171.48811 C -52.471559,171.48811 -32.52114,153.77225 -27.443999,132.51321 C -22.245975,110.74802 -34.317714,93.538328 -53.73588,93.538328 L -53.73588,93.538328 z M -68.121115,153.77225 C -78.754871,153.77225 -85.242477,144.15507 -82.462136,132.51321 C -79.681797,120.87136 -68.600588,111.25419 -57.966828,111.25419 C -47.333072,111.25419 -40.845473,120.87136 -43.625812,132.51321 C -46.406153,144.15507 -57.487358,153.77225 -68.121115,153.77225 z"
           style="opacity:0.51098902;fill:#eeeeec;fill-rule:nonzero;stroke:none;stroke-miterlimit:4" />
        <path
           inkscape:r_cy="true"
           inkscape:r_cx="true"
           style="opacity:0.54644811;fill:none;fill-rule:nonzero;stroke:url(#linearGradient12411);stroke-width:4.33054447;stroke-miterlimit:4;stroke-opacity:1"
           d="M -44.431288,56.728709 C -83.888977,56.728709 -123.91378,90.506954 -134.23052,132.51322 C -144.54726,174.51948 -121.11433,208.29772 -81.656648,208.29772 C -42.198959,208.29772 -2.1741568,174.51948 8.1425838,132.51322 C 18.459324,90.506954 -4.9735993,56.728709 -44.431288,56.728709 L -44.431288,56.728709 z"
           id="path2909"
           sodipodi:nodetypes="cccccc" />
        <path
           inkscape:r_cy="true"
           inkscape:r_cx="true"
           sodipodi:type="arc"
           style="opacity:0.67213111;fill:none;fill-opacity:0.31638417;fill-rule:nonzero;stroke:url(#linearGradient12413);stroke-width:1.09311533;stroke-linecap:butt;stroke-linejoin:miter;marker:none;marker-start:none;marker-mid:none;marker-end:none;stroke-miterlimit:4;stroke-dashoffset:0;stroke-opacity:1;visibility:visible;display:inline;overflow:visible"
           id="path2911"
           sodipodi:cx="24.306795"
           sodipodi:cy="24.930641"
           sodipodi:rx="6.0987959"
           sodipodi:ry="6.0987959"
           d="M 30.405591,24.930641 A 6.0987959,6.0987959 0 1 1 18.207999,24.930641 A 6.0987959,6.0987959 0 1 1 30.405591,24.930641 z"
           transform="matrix(3.4580169,0,-0.904145,3.9300202,-124.55637,34.535293)" />
      </g>
    </g>
  </g>
  <path
     style="opacity:0.9;fill:url(#linearGradient12449);fill-opacity:1;fill-rule:evenodd;stroke:url(#linearGradient12451);stroke-width:4.33054304;stroke-linecap:round;stroke-linejoin:round;stroke-miterlimit:4;stroke-dasharray:none;stroke-opacity:1"
     d="M 125.41887,34.8637 C 125.15573,54.030633 117.39463,66.055212 111.56183,79.294896 C 100.9997,103.26953 97.136125,128.18547 120.80521,142.86096 C 143.58472,137.33335 183.75732,84.495086 125.41887,34.8637 z"
     id="path1067"
     sodipodi:nodetypes="cscc" />
  <path
     style="opacity:0.9;fill:url(#linearGradient12442);fill-opacity:1;fill-rule:nonzero;stroke:url(#linearGradient12444);stroke-width:4.33054256;stroke-linecap:square;stroke-linejoin:round;stroke-miterlimit:4;stroke-dasharray:none;stroke-opacity:1"
     d="M 78.503347,148.05942 C 86.659064,166.95772 100.05511,173.6573 106.74362,193.47995 C 109.55831,201.20492 107.02104,209.81835 100.71285,215.6916 C 94.121456,221.82852 85.570313,221.86156 76.926077,219.97507 C 57.405032,215.71487 45.935047,201.19884 40.14875,184.16432 C 19.022385,121.96952 59.749947,70.32402 99.935041,26.485953 C 87.468001,65.617737 62.726806,104.74879 78.503347,148.05942 z"
     id="path1064"
     sodipodi:nodetypes="ccssscc" />
  <path
     style="opacity:0.94636015;fill:url(#linearGradient12437);fill-opacity:1;fill-rule:evenodd;stroke:none;stroke-width:1px;stroke-linecap:butt;stroke-linejoin:miter;stroke-opacity:1"
     d="M 58.536028,110.64241 C 32.922787,175.19967 68.061896,210.19262 88.244255,205.49529 C 109.11606,181.10234 51.728934,172.35088 58.536028,110.64241 z"
     id="path2220"
     sodipodi:nodetypes="ccc" />
  <path
     style="opacity:0.94636015;fill:url(#linearGradient12434);fill-opacity:1;fill-rule:evenodd;stroke:none;stroke-width:0.99999994;stroke-linecap:round;stroke-linejoin:round;stroke-miterlimit:4;stroke-dasharray:none;stroke-opacity:1"
     d="M 133.20797,71.667519 C 131.38243,91.045011 107.0734,106.27356 125.98783,123.63404 C 134.61964,121.56988 149.44608,106.54991 133.20797,71.667519 z"
     id="path3201"
     sodipodi:nodetypes="ccc" />
</svg>
