<?xml version="1.0" encoding="UTF-8" standalone="no"?>
<!-- Created with Inkscape (http://www.inkscape.org/) -->

<svg
   xmlns:dc="http://purl.org/dc/elements/1.1/"
   xmlns:cc="http://creativecommons.org/ns#"
   xmlns:rdf="http://www.w3.org/1999/02/22-rdf-syntax-ns#"
   xmlns:svg="http://www.w3.org/2000/svg"
   xmlns="http://www.w3.org/2000/svg"
   xmlns:xlink="http://www.w3.org/1999/xlink"
   xmlns:sodipodi="http://sodipodi.sourceforge.net/DTD/sodipodi-0.dtd"
   xmlns:inkscape="http://www.inkscape.org/namespaces/inkscape"
   id="svg2"
   sodipodi:version="0.32"
   inkscape:version="0.47pre0 r21549"
   width="256"
   height="256"
   version="1.0"
   sodipodi:docname="graphics.svg"
   inkscape:output_extension="org.inkscape.output.svg.inkscape">
  <sodipodi:namedview
     inkscape:window-height="710"
     inkscape:window-width="911"
     inkscape:pageshadow="2"
     inkscape:pageopacity="0.0"
     guidetolerance="10.0"
     gridtolerance="10.0"
     objecttolerance="10.0"
     borderopacity="1.0"
     bordercolor="#666666"
     pagecolor="#ffffff"
     id="base"
     width="48px"
     height="48px"
     inkscape:zoom="1.9453125"
     inkscape:cx="128"
     inkscape:cy="123.92162"
     inkscape:window-x="186"
     inkscape:window-y="146"
     inkscape:current-layer="svg2"
     showgrid="false" />
  <metadata
     id="metadata7">
    <rdf:RDF>
      <cc:Work
         rdf:about="">
        <dc:format>image/svg+xml</dc:format>
        <dc:type
           rdf:resource="http://purl.org/dc/dcmitype/StillImage" />
      </cc:Work>
    </rdf:RDF>
  </metadata>
  <defs
     id="defs5">
    <linearGradient
       id="linearGradient3280"
       inkscape:collect="always">
      <stop
         id="stop3282"
         offset="0"
         style="stop-color:#000000;stop-opacity:1;" />
      <stop
         id="stop3284"
         offset="1"
         style="stop-color:#000000;stop-opacity:0;" />
    </linearGradient>
    <linearGradient
       inkscape:collect="always"
       xlink:href="#linearGradient3280"
       id="linearGradient6390"
       gradientUnits="userSpaceOnUse"
       gradientTransform="matrix(1.086544,-9.11518e-2,-0.132743,1.144289,8.908611,-9.844197)"
       x1="59.634602"
       y1="106.41199"
       x2="50.843105"
       y2="95.266502" />
    <radialGradient
       inkscape:collect="always"
       xlink:href="#linearGradient3225"
       id="radialGradient6388"
       gradientUnits="userSpaceOnUse"
       gradientTransform="matrix(1.076084,0.86061,0.402574,-0.496821,-3.078406,50.29781)"
       cx="49.009884"
       cy="8.4953122"
       fx="48.361217"
       fy="9.4356842"
       r="3.9750405" />
    <radialGradient
       inkscape:collect="always"
       xlink:href="#linearGradient3225"
       id="radialGradient6386"
       gradientUnits="userSpaceOnUse"
       gradientTransform="matrix(1.05859,0.846463,0.402535,-0.496852,-5.327913,54.90227)"
       cx="49.009884"
       cy="8.4953122"
       fx="48.025326"
       fy="9.788682"
       r="3.9750405" />
    <radialGradient
       inkscape:collect="always"
       xlink:href="#linearGradient3225"
       id="radialGradient6384"
       gradientUnits="userSpaceOnUse"
       gradientTransform="matrix(1.023607,0.818166,0.402456,-0.496915,-6.729909,60.21586)"
       cx="49.009884"
       cy="8.4953122"
       fx="47.424515"
       fy="9.6082344"
       r="3.9750405" />
    <radialGradient
       inkscape:collect="always"
       xlink:href="#linearGradient3225"
       id="radialGradient6382"
       gradientUnits="userSpaceOnUse"
       gradientTransform="matrix(1.006114,0.804017,0.402416,-0.496946,-8.95131,64.78593)"
       cx="49.009884"
       cy="8.4953122"
       fx="47.356842"
       fy="9.7852488"
       r="3.9750405" />
    <radialGradient
       inkscape:collect="always"
       xlink:href="#linearGradient3225"
       id="radialGradient6380"
       gradientUnits="userSpaceOnUse"
       gradientTransform="matrix(-1.091017,0.841583,0.312923,0.414532,74.60084,-28.92296)"
       cx="49.009884"
       cy="8.4953122"
       fx="47.370888"
       fy="6.7701697"
       r="3.9750405" />
    <linearGradient
       id="linearGradient3565"
       inkscape:collect="always">
      <stop
         id="stop3567"
         offset="0"
         style="stop-color:#ffffff;stop-opacity:1;" />
      <stop
         id="stop3569"
         offset="1"
         style="stop-color:#ffffff;stop-opacity:0;" />
    </linearGradient>
    <linearGradient
       inkscape:collect="always"
       xlink:href="#linearGradient3565"
       id="linearGradient6378"
       gradientUnits="userSpaceOnUse"
       gradientTransform="matrix(-2.555437,-0.445861,-0.445861,2.555437,96.29669,-21.44412)"
       x1="24.086939"
       y1="16.355263"
       x2="26.619194"
       y2="20.057724" />
    <linearGradient
       inkscape:collect="always"
       id="linearGradient3311">
      <stop
         style="stop-color:#f00000;stop-opacity:1;"
         offset="0"
         id="stop3313" />
      <stop
         style="stop-color:#f00000;stop-opacity:0;"
         offset="1"
         id="stop3315" />
    </linearGradient>
    <linearGradient
       inkscape:collect="always"
       xlink:href="#linearGradient3311"
       id="linearGradient6376"
       gradientUnits="userSpaceOnUse"
       x1="11.160621"
       y1="47.657185"
       x2="83.90919"
       y2="47.657185" />
    <linearGradient
       id="linearGradient2663">
      <stop
         id="stop2665"
         offset="0"
         style="stop-color:#ae6f10;stop-opacity:1;" />
      <stop
         id="stop2667"
         offset="1"
         style="stop-color:#281900;stop-opacity:1;" />
    </linearGradient>
    <radialGradient
       inkscape:collect="always"
       xlink:href="#linearGradient2663"
       id="radialGradient6374"
       gradientUnits="userSpaceOnUse"
       gradientTransform="matrix(-0.381775,0.335546,1.65381,1.881664,22.171,-8.583961)"
       cx="34.699203"
       cy="23.848236"
       fx="25.839911"
       fy="27.013157"
       r="18.765305" />
    <linearGradient
       inkscape:collect="always"
       xlink:href="#linearGradient6031"
       id="linearGradient6372"
       gradientUnits="userSpaceOnUse"
       gradientTransform="matrix(1.109524,0,0,1.109524,-11.31763,-11.94936)"
       x1="114.10702"
       y1="107.33141"
       x2="114.10702"
       y2="122.09117" />
    <linearGradient
       inkscape:collect="always"
       id="linearGradient3384">
      <stop
         style="stop-color:#000000;stop-opacity:1;"
         offset="0"
         id="stop3386" />
      <stop
         style="stop-color:#000000;stop-opacity:0;"
         offset="1"
         id="stop3388" />
    </linearGradient>
    <linearGradient
       inkscape:collect="always"
       xlink:href="#linearGradient3384"
       id="linearGradient6370"
       gradientUnits="userSpaceOnUse"
       x1="86.005625"
       y1="109.67258"
       x2="103.57407"
       y2="109.67258" />
    <linearGradient
       id="linearGradient1648">
      <stop
         style="stop-color:#b4942a;stop-opacity:1;"
         offset="0"
         id="stop1650" />
      <stop
         style="stop-color:#e4dcc9;stop-opacity:1"
         offset="1"
         id="stop1652" />
    </linearGradient>
    <radialGradient
       inkscape:collect="always"
       xlink:href="#linearGradient1648"
       id="radialGradient6368"
       gradientUnits="userSpaceOnUse"
       gradientTransform="matrix(-0.530257,0.530256,1.644889,1.644889,-64.20398,-87.59262)"
       cx="37.368698"
       cy="110.8646"
       fx="43.500916"
       fy="111.97002"
       r="11.61476" />
    <linearGradient
       id="linearGradient2616">
      <stop
         id="stop2618"
         offset="0"
         style="stop-color:#554513;stop-opacity:1;" />
      <stop
         id="stop2620"
         offset="1"
         style="stop-color:#b59e69;stop-opacity:1;" />
    </linearGradient>
    <linearGradient
       inkscape:collect="always"
       xlink:href="#linearGradient2616"
       id="linearGradient6366"
       gradientUnits="userSpaceOnUse"
       gradientTransform="matrix(-3.145598,-0.610729,-0.54883,3.500387,96.74245,-68.90448)"
       x1="-8.7620945"
       y1="52.858494"
       x2="-11.719011"
       y2="48.873039" />
    <linearGradient
       inkscape:collect="always"
       id="linearGradient6949">
      <stop
         style="stop-color:#000000;stop-opacity:1;"
         offset="0"
         id="stop6951" />
      <stop
         style="stop-color:#000000;stop-opacity:0;"
         offset="1"
         id="stop6953" />
    </linearGradient>
    <linearGradient
       inkscape:collect="always"
       xlink:href="#linearGradient6949"
       id="linearGradient6364"
       gradientUnits="userSpaceOnUse"
       gradientTransform="translate(1.612091,1.710327)"
       x1="34.330593"
       y1="118.87337"
       x2="29.423252"
       y2="106.62148" />
    <linearGradient
       id="linearGradient5490">
      <stop
         style="stop-color:#000000;stop-opacity:0;"
         offset="0"
         id="stop5492" />
      <stop
         id="stop5504"
         offset="0.44935718"
         style="stop-color:#000000;stop-opacity:0;" />
      <stop
         id="stop5502"
         offset="0.50785339"
         style="stop-color:#000000;stop-opacity:1;" />
      <stop
         style="stop-color:#000000;stop-opacity:0;"
         offset="0.5980373"
         id="stop5506" />
      <stop
         style="stop-color:#000000;stop-opacity:0;"
         offset="1"
         id="stop5494" />
    </linearGradient>
    <radialGradient
       inkscape:collect="always"
       xlink:href="#linearGradient5490"
       id="radialGradient6362"
       gradientUnits="userSpaceOnUse"
       gradientTransform="matrix(1.379567,0.353744,-0.328711,1.281944,30.40339,-40.37114)"
       spreadMethod="reflect"
       cx="22.210812"
       cy="121.22048"
       fx="22.210812"
       fy="121.22048"
       r="11.187891" />
    <radialGradient
       inkscape:collect="always"
       xlink:href="#linearGradient3225"
       id="radialGradient6360"
       gradientUnits="userSpaceOnUse"
       gradientTransform="matrix(-0.920164,-0.815696,0.114561,-0.129234,38.30264,137.6034)"
       spreadMethod="reflect"
       cx="17.496065"
       cy="77.604561"
       fx="17.496065"
       fy="77.604561"
       r="11.462803" />
    <radialGradient
       inkscape:collect="always"
       xlink:href="#linearGradient3225"
       id="radialGradient6358"
       gradientUnits="userSpaceOnUse"
       gradientTransform="matrix(-1.857629,-1.534956,2.403075,-2.961056,132.6212,172.9885)"
       cx="51.36319"
       cy="7.5789285"
       fx="49.724194"
       fy="5.8537841"
       r="3.9750405" />
    <linearGradient
       inkscape:collect="always"
       id="linearGradient4480">
      <stop
         style="stop-color:#dadada;stop-opacity:1;"
         offset="0"
         id="stop4482" />
      <stop
         style="stop-color:#dadada;stop-opacity:0;"
         offset="1"
         id="stop4484" />
    </linearGradient>
    <linearGradient
       inkscape:collect="always"
       xlink:href="#linearGradient4480"
       id="linearGradient6356"
       gradientUnits="userSpaceOnUse"
       gradientTransform="matrix(-0.169988,-0.985446,0.985446,-0.169988,25.97582,145.0057)"
       x1="66.82003"
       y1="45.390396"
       x2="52.22506"
       y2="59.465969" />
    <linearGradient
       inkscape:collect="always"
       xlink:href="#linearGradient4102"
       id="linearGradient6354"
       gradientUnits="userSpaceOnUse"
       gradientTransform="matrix(-0.406724,-2.357839,2.357839,-0.406724,1.369616,385.4369)"
       spreadMethod="reflect"
       x1="139.7972"
       y1="76.892853"
       x2="145.40347"
       y2="66.489067" />
    <linearGradient
       id="linearGradient3695">
      <stop
         id="stop3697"
         offset="0"
         style="stop-color:#ffffff;stop-opacity:1;" />
      <stop
         id="stop3699"
         offset="1"
         style="stop-color:#aeaeae;stop-opacity:1;" />
    </linearGradient>
    <radialGradient
       inkscape:collect="always"
       xlink:href="#linearGradient3695"
       id="radialGradient6352"
       gradientUnits="userSpaceOnUse"
       gradientTransform="matrix(-1.857629,-1.534956,2.403075,-2.961056,120.5249,187.5405)"
       cx="51.356403"
       cy="7.9091048"
       fx="49.717407"
       fy="6.1839604"
       r="3.9750404" />
    <linearGradient
       id="linearGradient4142">
      <stop
         id="stop4144"
         offset="0"
         style="stop-color:#ffffff;stop-opacity:1;" />
      <stop
         style="stop-color:#ffffff;stop-opacity:0.79136693;"
         offset="0.5"
         id="stop4148" />
      <stop
         id="stop4146"
         offset="1"
         style="stop-color:#ffffff;stop-opacity:0;" />
    </linearGradient>
    <radialGradient
       inkscape:collect="always"
       xlink:href="#linearGradient4142"
       id="radialGradient6350"
       gradientUnits="userSpaceOnUse"
       gradientTransform="matrix(1.734622,-5.69437e-2,8.52223e-3,0.259604,13.57012,-82.3414)"
       cx="45.431717"
       cy="118.93744"
       fx="39.490993"
       fy="128.91806"
       r="15.5" />
    <linearGradient
       inkscape:collect="always"
       xlink:href="#linearGradient4102"
       id="linearGradient6348"
       gradientUnits="userSpaceOnUse"
       gradientTransform="matrix(-0.874535,-0.723243,0.723243,-0.874535,64.52223,158.6236)"
       x1="45.480206"
       y1="108.20477"
       x2="46.65696"
       y2="118.30448" />
    <linearGradient
       inkscape:collect="always"
       xlink:href="#linearGradient4102"
       id="linearGradient6346"
       gradientUnits="userSpaceOnUse"
       gradientTransform="matrix(2.392662,0,0,2.392662,-344.4699,-160.4892)"
       spreadMethod="reflect"
       x1="104.49763"
       y1="93.95005"
       x2="105.66235"
       y2="99.431656" />
    <linearGradient
       id="linearGradient4067">
      <stop
         style="stop-color:#ffffff;stop-opacity:0.6978417;"
         offset="0"
         id="stop4069" />
      <stop
         id="stop4120"
         offset="0.5"
         style="stop-color:#ffffff;stop-opacity:0.18705036;" />
      <stop
         style="stop-color:#ffffff;stop-opacity:0"
         offset="1"
         id="stop4071" />
    </linearGradient>
    <linearGradient
       inkscape:collect="always"
       xlink:href="#linearGradient4067"
       id="linearGradient6344"
       gradientUnits="userSpaceOnUse"
       gradientTransform="matrix(-0.874535,-0.723243,0.723243,-0.874535,63.91307,158.3343)"
       x1="71.826324"
       y1="110.30566"
       x2="44.2686"
       y2="106.55357" />
    <linearGradient
       inkscape:collect="always"
       id="linearGradient4102">
      <stop
         style="stop-color:#ffffff;stop-opacity:1;"
         offset="0"
         id="stop4104" />
      <stop
         style="stop-color:#ffffff;stop-opacity:0;"
         offset="1"
         id="stop4106" />
    </linearGradient>
    <linearGradient
       inkscape:collect="always"
       xlink:href="#linearGradient4102"
       id="linearGradient6342"
       gradientUnits="userSpaceOnUse"
       gradientTransform="matrix(-0.874535,-0.723243,0.723243,-0.874535,64.60837,158.6236)"
       x1="51.425694"
       y1="118.64987"
       x2="50.780857"
       y2="84.151138" />
    <linearGradient
       id="linearGradient2935">
      <stop
         style="stop-color:#006066;stop-opacity:1;"
         offset="0"
         id="stop2937" />
      <stop
         style="stop-color:#004448;stop-opacity:1;"
         offset="1"
         id="stop2939" />
    </linearGradient>
    <radialGradient
       inkscape:collect="always"
       xlink:href="#linearGradient2935"
       id="radialGradient6340"
       gradientUnits="userSpaceOnUse"
       gradientTransform="matrix(0.382766,0.313997,-0.740912,0.903191,91.66138,-19.27291)"
       cx="79.183899"
       cy="57.748138"
       fx="56.70742"
       fy="21.307173"
       r="48.882573" />
    <radialGradient
       inkscape:collect="always"
       xlink:href="#linearGradient3225"
       id="radialGradient6338"
       gradientUnits="userSpaceOnUse"
       gradientTransform="matrix(0.322773,0.11016,-1.099044,3.22023,128.5112,-204.881)"
       cx="35.842823"
       cy="92.839737"
       fx="35.842823"
       fy="92.839737"
       r="9.5113354" />
    <linearGradient
       id="linearGradient3225">
      <stop
         style="stop-color:#ffffff;stop-opacity:1;"
         offset="0"
         id="stop3227" />
      <stop
         style="stop-color:#aeaeae;stop-opacity:1;"
         offset="1"
         id="stop3229" />
    </linearGradient>
    <radialGradient
       inkscape:collect="always"
       xlink:href="#linearGradient3225"
       id="radialGradient6336"
       gradientUnits="userSpaceOnUse"
       gradientTransform="matrix(-0.920164,-0.815696,0.114561,-0.129234,38.30264,137.6034)"
       spreadMethod="reflect"
       cx="17.496065"
       cy="77.604561"
       fx="17.496065"
       fy="77.604561"
       r="11.462803" />
    <linearGradient
       inkscape:collect="always"
       id="linearGradient3359">
      <stop
         style="stop-color:#000000;stop-opacity:1;"
         offset="0"
         id="stop3361" />
      <stop
         style="stop-color:#000000;stop-opacity:0;"
         offset="1"
         id="stop3363" />
    </linearGradient>
    <linearGradient
       inkscape:collect="always"
       xlink:href="#linearGradient3359"
       id="linearGradient6334"
       gradientUnits="userSpaceOnUse"
       x1="17.902985"
       y1="129.0088"
       x2="28.735706"
       y2="120.99289" />
    <linearGradient
       inkscape:collect="always"
       id="linearGradient3376">
      <stop
         style="stop-color:#000000;stop-opacity:1;"
         offset="0"
         id="stop3378" />
      <stop
         style="stop-color:#000000;stop-opacity:0;"
         offset="1"
         id="stop3380" />
    </linearGradient>
    <radialGradient
       inkscape:collect="always"
       xlink:href="#linearGradient3376"
       id="radialGradient6332"
       gradientUnits="userSpaceOnUse"
       gradientTransform="matrix(1,0,0,0.9413016,0,6.7614849)"
       cx="26.413234"
       cy="115.19022"
       fx="26.413234"
       fy="115.19022"
       r="12.46989" />
    <linearGradient
       inkscape:collect="always"
       id="linearGradient6031">
      <stop
         style="stop-color:#ffffff;stop-opacity:1;"
         offset="0"
         id="stop6033" />
      <stop
         style="stop-color:#ffffff;stop-opacity:0;"
         offset="1"
         id="stop6035" />
    </linearGradient>
    <linearGradient
       inkscape:collect="always"
       xlink:href="#linearGradient6031"
       id="linearGradient6330"
       gradientUnits="userSpaceOnUse"
       gradientTransform="matrix(0.454108,8.83625e-3,0.109263,0.494904,-14.44223,124.5398)"
       spreadMethod="reflect"
       x1="41.746742"
       y1="-29.900099"
       x2="41.548233"
       y2="-10.981362" />
    <linearGradient
       inkscape:collect="always"
       id="linearGradient6959">
      <stop
         style="stop-color:#000000;stop-opacity:1;"
         offset="0"
         id="stop6961" />
      <stop
         style="stop-color:#000000;stop-opacity:0;"
         offset="1"
         id="stop6963" />
    </linearGradient>
    <radialGradient
       inkscape:collect="always"
       xlink:href="#linearGradient6959"
       id="radialGradient6328"
       gradientUnits="userSpaceOnUse"
       gradientTransform="matrix(1,0,0,0.167506,0,97.63452)"
       cx="64.161209"
       cy="117.27959"
       fx="64.161209"
       fy="117.27959"
       r="64" />
    <linearGradient
       inkscape:collect="always"
       id="linearGradient3169">
      <stop
         style="stop-color:#ffffff;stop-opacity:1;"
         offset="0"
         id="stop3171" />
      <stop
         style="stop-color:#ffffff;stop-opacity:0;"
         offset="1"
         id="stop3173" />
    </linearGradient>
    <linearGradient
       inkscape:collect="always"
       xlink:href="#linearGradient3169"
       id="linearGradient3638"
       gradientUnits="userSpaceOnUse"
       gradientTransform="matrix(5.3980515,0,0,8.6792199,-1.8151773,-269.3811)"
       x1="23.228916"
       y1="-12.322069"
       x2="23.418221"
       y2="13.480456" />
    <linearGradient
       inkscape:collect="always"
       xlink:href="#linearGradient3169"
       id="linearGradient3641"
       gradientUnits="userSpaceOnUse"
       gradientTransform="matrix(5.3980515,0,0,8.5469147,-1.8151773,-12.679516)"
       x1="24"
       y1="0.64933401"
       x2="24"
       y2="13.970832" />
  </defs>
  <rect
     style="opacity:0.89655175;fill:url(#linearGradient3641);fill-opacity:1;stroke:none;stroke-width:6.63600016;stroke-miterlimit:4;stroke-dasharray:none;stroke-opacity:1"
     id="rect3167"
     width="223.72647"
     height="168.05501"
     x="15.874823"
     y="13.682052"
     rx="35.910118"
     ry="32.227104" />
  <rect
     ry="32.725975"
     rx="35.910118"
     y="-242.61147"
     x="15.874823"
     height="170.65648"
     width="223.72647"
     id="rect3177"
     style="opacity:0.89655175;fill:url(#linearGradient3638);fill-opacity:1;stroke:none;stroke-width:6.63600016;stroke-miterlimit:4;stroke-dasharray:none;stroke-opacity:1"
     transform="scale(1,-1)" />
  <g
     style="display:inline"
     id="g6211"
     transform="matrix(1.5815212,0,0,1.6243254,24.214431,22.778641)">
    <g
       id="g6074">
      <g
         id="g6066">
        <path
           transform="matrix(1,0,0,0.451128,0,70.25563)"
           d="M 128.16121,117.27959 A 64,10.720403 0 1 1 0.16120911,117.27959 A 64,10.720403 0 1 1 128.16121,117.27959 z"
           sodipodi:ry="10.720403"
           sodipodi:rx="64"
           sodipodi:cy="117.27959"
           sodipodi:cx="64.161209"
           id="path6957"
           style="opacity:0.32093027;fill:url(#radialGradient6328);fill-opacity:1;fill-rule:nonzero;stroke:none;stroke-width:0.31099999;stroke-linecap:round;stroke-linejoin:round;stroke-miterlimit:4;stroke-dasharray:none;stroke-dashoffset:4;stroke-opacity:1"
           sodipodi:type="arc" />
        <path
           style="fill:#ffffff;fill-opacity:0.75688076;fill-rule:nonzero;stroke:none;stroke-width:0.5;stroke-linecap:round;stroke-linejoin:round;stroke-miterlimit:4;stroke-dasharray:none;stroke-dashoffset:4;stroke-opacity:1"
           d="M 50.892799,3.2812959 L 50.892799,0.48658747 L 50.892799,3.2812959 z"
           id="path2276"
           sodipodi:nodetypes="ccc" />
        <path
           sodipodi:nodetypes="cssscccccssss"
           id="path6011"
           d="M 3.3602981,108.44849 C 3.2046864,108.72443 3.0586908,108.9889 2.9214052,109.24311 C 2.6468353,109.75153 2.4071134,110.21885 2.1950183,110.65437 C 1.7708295,111.52543 1.4571509,112.26936 1.1962152,112.96079 C -0.90478001,118.52791 1.4164144,126.58118 6.1830483,126.59675 C 22.214533,126.82916 10.408804,126.6748 26.440287,126.90722 C 35.963593,127.46634 32.153096,116.69502 38.883124,109.62462 C 35.790995,108.94774 37.39539,105.82458 33.294195,103.45229 C 31.136509,106.3828 26.111559,113.0292 21.901103,112.89879 C 10.817789,112.74042 7.8478707,112.9654 6.1864898,112.16442 C 5.355799,111.76392 4.8627926,111.22283 4.5610687,110.48088 C 4.4102055,110.10991 4.3071651,109.68872 4.2336434,109.2098 C 4.160122,108.73085 3.5159111,108.17256 3.3602981,108.44849 z"
           style="fill:#000000;fill-opacity:1;fill-rule:evenodd;stroke:none;stroke-width:1px;stroke-linecap:butt;stroke-linejoin:miter;stroke-opacity:1" />
        <path
           sodipodi:nodetypes="ccsccsc"
           id="rect6021"
           d="M 6.580022,113.21081 L 22.751491,113.38009 C 28.728089,112.74871 29.834263,102.86014 30.869869,103.99979 C 33.072178,106.42336 26.461019,117.82247 22.654894,117.97286 L 6.8041053,118.23798 C 4.7687335,118.19837 2.4668307,113.42511 3.5929824,110.92592 C 4.0903338,109.82217 4.2435768,113.17121 6.580022,113.21081 z"
           style="opacity:1;fill:url(#linearGradient6330);fill-opacity:1;fill-rule:nonzero;stroke:none;stroke-width:0.31099999;stroke-linecap:round;stroke-linejoin:round;stroke-miterlimit:4;stroke-dashoffset:4;stroke-opacity:1" />
        <path
           style="fill:url(#radialGradient6332);fill-opacity:1;fill-rule:evenodd;stroke:none;stroke-width:1px;stroke-linecap:butt;stroke-linejoin:miter;stroke-opacity:1"
           d="M 26.440287,126.90722 C 35.963593,127.46634 32.153096,116.69502 38.883124,109.62462 C 35.790995,108.94774 37.250784,105.82458 33.149587,103.45229 C 30.991901,106.3828 26.111559,113.0292 21.901103,112.89879 C 10.817789,112.74042 10.408804,126.6748 26.440287,126.90722 z"
           id="path6064"
           sodipodi:nodetypes="ccccc" />
        <path
           sodipodi:nodetypes="cccccc"
           id="path6044"
           d="M 1.818457,118.83831 C 1.967704,122.7142 3.964339,126.34614 7.166664,126.36125 C 22.314197,126.59283 10.742828,126.21661 25.890358,126.44822 C 30.511374,126.71144 32.783703,123.73341 33.987513,119.61612 L 1.903812,118.84094 C 1.875917,118.84008 1.84629,118.83957 1.818457,118.83831 z"
           style="fill:url(#linearGradient6334);fill-opacity:1;fill-rule:evenodd;stroke:none;stroke-width:1px;stroke-linecap:butt;stroke-linejoin:miter;stroke-opacity:1" />
      </g>
    </g>
    <g
       id="g6134">
      <path
         sodipodi:nodetypes="cszczczsszczczs"
         id="path5479"
         d="M 34.463755,117.74088 C 32.678905,115.68102 28.932713,112.36014 26.752295,110.90492 C 26.48201,110.72453 26.336429,110.14887 26.827215,109.93855 C 27.318001,109.72823 28.996619,109.53516 28.996619,109.53516 C 28.996619,109.53516 28.650919,107.78433 29.322466,107.04879 C 29.994013,106.31325 31.682806,106.59299 31.682806,106.59299 C 31.682806,106.59299 31.777707,104.80645 31.955689,104.28133 C 32.133671,103.75621 32.637379,103.90853 32.906098,104.09105 C 35.159818,105.622 38.762435,108.88306 40.617558,110.92701 C 40.835715,111.16739 41.033421,111.68306 40.542639,111.89338 C 40.051857,112.1037 38.373233,112.29678 38.373233,112.29678 C 38.373233,112.29678 38.718932,114.04761 38.047385,114.78315 C 37.375838,115.51869 35.687046,115.23894 35.687046,115.23894 C 35.687046,115.23894 35.592146,117.02548 35.414165,117.5506 C 35.236184,118.07572 34.676507,117.98641 34.463755,117.74088 z"
         style="fill:url(#radialGradient6336);fill-opacity:1;fill-rule:nonzero;stroke:#000000;stroke-width:0.31099999;stroke-linecap:round;stroke-linejoin:round;stroke-miterlimit:4;stroke-dasharray:none;stroke-dashoffset:4;stroke-opacity:1" />
      <path
         sodipodi:nodetypes="ccccc"
         id="path3170"
         d="M 48.739538,112.45205 C 43.990656,110.27876 32.941755,100.91779 30.301324,97.203598 L 46.890229,76.769071 L 65.328453,92.017525 L 48.739538,112.45205 z"
         style="fill:#787878;fill-opacity:1;fill-rule:evenodd;stroke:#000000;stroke-width:0.09570646;stroke-linecap:butt;stroke-linejoin:miter;stroke-miterlimit:4;stroke-dasharray:none;stroke-opacity:1" />
      <path
         style="fill:url(#radialGradient6338);fill-opacity:1;fill-rule:evenodd;stroke:#000000;stroke-width:0.2;stroke-linecap:round;stroke-linejoin:round;stroke-miterlimit:4;stroke-dasharray:none;stroke-opacity:1"
         d="M 30.317863,97.192996 L 40.785895,99.886649 L 48.757825,112.38299 L 34.129422,110.3289 L 30.317863,97.192996 z"
         id="path4538"
         sodipodi:nodetypes="ccccc" />
      <path
         style="fill:url(#radialGradient6340);fill-opacity:1;fill-rule:evenodd;stroke:none;stroke-width:0.03;stroke-linecap:butt;stroke-linejoin:miter;stroke-miterlimit:4;stroke-dasharray:none;stroke-opacity:1"
         d="M 48.739538,112.45205 C 72.932165,84.415182 96.104575,53.413902 123.49194,31.448362 L 128.06647,25.916891 L 100.40916,3.0442305 L 95.834627,8.5756903 C 79.155124,40.892666 52.606079,68.53741 30.301324,97.203598 C 34.453265,99.103701 45.708987,108.18909 48.739538,112.45205 z"
         id="path1420"
         sodipodi:nodetypes="ccccccc" />
      <path
         id="path4047"
         d="M 123.57808,31.448362 C 113.02733,29.665571 99.65221,18.604304 95.92077,8.5756903 C 83.79205,42.01342 82.219345,40.160744 60.32983,68.63114 C 62.460541,70.393242 64.591261,72.155353 66.72196,73.917445 C 91.89018,45.053677 93.01116,49.637641 123.57808,31.448362 z"
         style="opacity:0.2465116;fill:url(#linearGradient6342);fill-opacity:1;fill-rule:evenodd;stroke:none;stroke-width:1px;stroke-linecap:butt;stroke-linejoin:miter;stroke-opacity:1"
         sodipodi:nodetypes="ccccc" />
      <path
         sodipodi:nodetypes="ccccc"
         id="path4065"
         d="M 48.428319,110.8883 C 45.21731,106.3715 35.044661,98.36165 31.096394,96.554756 C 54.202055,69.125778 77.838461,40.785761 97.02349,10.078754 C 106.2426,17.702967 111.77405,22.277503 120.99317,29.901723 C 94.43285,54.50936 73.345785,83.88707 48.428319,110.8883 z"
         style="opacity:0.66976743;fill:#e00000;fill-opacity:1;fill-rule:evenodd;stroke:none;stroke-width:0.04;stroke-linecap:butt;stroke-linejoin:miter;stroke-miterlimit:4;stroke-dasharray:none;stroke-opacity:1" />
      <path
         sodipodi:nodetypes="ccccc"
         style="opacity:0.2465116;fill:url(#linearGradient6344);fill-opacity:1;fill-rule:evenodd;stroke:none;stroke-width:1px;stroke-linecap:butt;stroke-linejoin:miter;stroke-opacity:1"
         d="M 121.94571,31.647512 C 111.39496,29.864738 99.32234,19.747863 95.59092,9.719246 C 83.46221,43.15698 65.795209,60.016856 43.905707,88.487261 C 46.036405,90.249352 48.167126,92.011464 50.297826,93.773557 C 75.46606,64.909798 91.37879,49.836792 121.94571,31.647512 z"
         id="path4091" />
      <rect
         ry="0.56668746"
         rx="0.49255264"
         y="54.850338"
         x="-113.71673"
         height="6.17558"
         width="33.613918"
         id="rect4110"
         style="fill:url(#linearGradient6346);fill-opacity:1;fill-rule:nonzero;stroke:none;stroke-width:0.03;stroke-linecap:round;stroke-linejoin:round;stroke-miterlimit:4;stroke-dasharray:none;stroke-dashoffset:4;stroke-opacity:1"
         transform="matrix(-0.770615,-0.637301,0.637301,-0.770615,0,0)" />
      <path
         style="fill:url(#linearGradient6348);fill-opacity:1;fill-rule:evenodd;stroke:none;stroke-width:1px;stroke-linecap:butt;stroke-linejoin:miter;stroke-opacity:1"
         d="M 122.13035,31.101441 C 113.23118,23.741819 105.33281,17.422863 96.433636,10.063235 C 98.012165,13.289884 100.65286,17.706232 106.7746,22.76893 C 112.89636,27.831637 118.27353,30.294001 122.13035,31.101441 z"
         id="path4122"
         sodipodi:nodetypes="cczc" />
      <path
         id="path4093"
         d="M 119.92904,31.646746 C 112.48243,30.138861 98.96239,20.206539 96.41682,11.270624 C 84.2881,44.708348 66.731379,60.306154 44.841877,88.776557 C 46.972574,90.538649 49.103297,92.300761 51.233996,94.062854 C 76.402231,65.199094 89.36211,49.83603 119.92904,31.646746 z"
         style="opacity:0.2465116;fill:#e80000;fill-opacity:1;fill-rule:evenodd;stroke:none;stroke-width:1px;stroke-linecap:butt;stroke-linejoin:miter;stroke-opacity:1"
         sodipodi:nodetypes="ccccc" />
      <rect
         style="fill:url(#radialGradient6350);fill-opacity:1;fill-rule:nonzero;stroke:none;stroke-width:0.03;stroke-linecap:round;stroke-linejoin:round;stroke-miterlimit:4;stroke-dasharray:none;stroke-dashoffset:4;stroke-opacity:1"
         id="rect4132"
         width="35.496342"
         height="0.56154668"
         x="80.016693"
         y="-53.808918"
         rx="0.49255353"
         ry="0.22797242"
         transform="matrix(0.774005,0.63318,-0.63318,0.774005,0,0)" />
      <path
         style="fill:url(#radialGradient6352);fill-opacity:1;fill-rule:nonzero;stroke:none;stroke-width:0.5;stroke-linecap:round;stroke-linejoin:round;stroke-miterlimit:4;stroke-dasharray:none;stroke-dashoffset:4;stroke-opacity:1"
         d="M 58.939502,100.62821 L 65.106619,93.180041 L 49.523412,80.527135 L 43.335419,87.88734 L 58.939502,100.62821 z M 43.350905,87.896748 L 51.159192,81.912826 L 46.015611,77.782104 L 39.986624,85.151003 L 43.350905,87.896748 z"
         id="path2274"
         sodipodi:nodetypes="cccccccccc" />
      <path
         style="fill:url(#linearGradient6354);fill-opacity:1;fill-rule:nonzero;stroke:none;stroke-width:0.03;stroke-linecap:round;stroke-linejoin:round;stroke-miterlimit:4;stroke-dasharray:none;stroke-dashoffset:4;stroke-opacity:1"
         d="M 101.02961,4.7578511 C 102.52808,5.8942781 103.97151,7.1734593 105.44867,8.3651334 C 112.40467,14.112259 119.11752,19.695431 126.07352,25.442566 C 126.64203,25.843796 126.50091,26.179836 126.20348,26.509066 C 125.29327,27.585846 123.90186,29.357908 122.95821,30.403492 C 123.61547,30.348938 123.89996,29.600026 124.35662,29.194678 C 125.23157,28.153357 125.75018,27.715105 126.57113,26.636026 C 126.99345,26.178286 126.92765,25.56455 126.28812,25.113193 C 118.07567,18.390055 109.68285,11.393955 101.46075,4.6834813 C 101.34796,4.6307061 101.06318,4.637351 101.02961,4.7578511 z M 122.95821,30.403492 C 122.90855,30.306884 122.90868,30.455599 122.95821,30.403492 z"
         id="rect4337"
         sodipodi:nodetypes="cccccccccccc" />
      <path
         style="font-size:12.3537302px;font-style:normal;font-variant:normal;font-weight:bold;font-stretch:normal;text-align:start;line-height:125%;writing-mode:lr-tb;text-anchor:start;fill:url(#linearGradient6356);fill-opacity:1;stroke:none;stroke-width:1px;stroke-linecap:butt;stroke-linejoin:miter;stroke-opacity:1;font-family:Bitstream Vera Sans"
         d="M 54.948353,69.690958 C 55.176968,69.878888 55.42014,70.207199 55.585038,69.780702 C 55.847083,69.45396 56.10913,69.127219 56.371175,68.800477 C 56.262375,69.383338 56.153574,69.966199 56.044774,70.549058 C 56.263851,70.652599 56.525765,71.159938 56.69217,70.766967 C 57.126756,70.225971 57.561343,69.684976 57.99593,69.143981 C 57.767315,68.956052 57.524143,68.62774 57.359244,69.054236 C 57.097197,69.380976 56.835149,69.707715 56.573102,70.034454 C 56.692223,69.450171 56.811343,68.865886 56.930463,68.281602 C 56.700787,68.181591 56.421666,67.681373 56.252109,68.067966 C 55.817523,68.608963 55.382939,69.149961 54.948353,69.690958 z M 58.123144,71.851671 C 58.655877,72.282855 59.188609,72.714039 59.721342,73.145225 C 60.204468,72.531711 60.687594,71.918198 61.17072,71.304685 C 60.627667,70.874925 60.084615,70.445164 59.541563,70.015404 C 59.25154,70.261171 59.258498,70.470966 59.609324,70.639109 C 59.841208,70.827205 60.073092,71.015302 60.304977,71.203399 C 60.131657,71.44038 59.972568,71.796006 59.725069,71.414459 C 59.491718,71.224251 59.258369,71.034044 59.02502,70.843836 C 58.788406,71.082725 58.636584,71.310692 59.032541,71.468092 C 59.214378,71.654501 59.589783,71.821131 59.656153,72.019338 C 59.47983,72.428642 59.243292,72.197006 59.007367,71.971913 C 58.784307,71.881912 58.520949,71.37423 58.328869,71.605317 C 58.260294,71.687435 58.191719,71.769553 58.123144,71.851671 z M 61.15551,73.915499 C 61.784925,74.75343 62.731171,75.640761 63.86232,75.513958 C 64.781653,75.340132 64.779801,74.130813 64.199775,73.585851 C 63.710278,73.042022 62.891787,72.281432 62.225487,72.383409 C 62.021796,72.631127 61.818104,72.878846 61.614413,73.126565 C 61.993055,73.431812 62.371698,73.73706 62.75034,74.042307 C 63.095924,73.796263 62.970721,73.602652 62.639836,73.431949 C 62.52817,72.948043 63.308402,73.00524 63.490126,73.486077 C 63.884739,73.818215 63.945817,74.537677 63.418686,74.770232 C 62.709146,75.05469 62.059908,74.308032 61.651615,73.809902 C 61.46757,73.301574 61.373524,73.761332 61.15551,73.915499 z M 62.329833,70.103612 C 62.825911,70.497798 63.321989,70.891984 63.818066,71.286169 C 64.096628,70.942757 64.375192,70.599346 64.653754,70.255934 C 64.205381,70.17263 63.288761,69.544305 63.867933,69.134121 C 64.472429,68.772034 64.815544,70.104901 65.118044,69.840978 C 65.532436,69.321993 64.41884,68.78337 64.022095,68.539734 C 63.529423,68.298404 62.928441,68.718747 62.9702,69.258075 C 62.902076,69.822203 64.160125,70.196598 63.584947,70.526494 C 63.255515,70.268096 62.926083,70.0097 62.596651,69.751303 C 62.507712,69.86874 62.418773,69.986176 62.329833,70.103612 z M 64.087159,76.412989 C 64.356304,76.603258 64.596087,76.901852 64.882777,77.027395 C 65.247405,76.96697 65.612033,76.906543 65.976661,76.846117 C 66.008739,77.230761 66.040818,77.615406 66.072898,78.000051 C 66.332679,78.206038 66.59246,78.412025 66.852243,78.618013 C 66.78597,77.985718 66.719696,77.353422 66.653423,76.721126 C 66.860835,76.471663 67.068248,76.2222 67.27566,75.972737 C 67.039364,75.784537 66.803067,75.596338 66.566772,75.408138 C 66.338861,75.658978 66.158904,75.995451 65.901289,76.193243 C 65.29658,76.266492 64.691869,76.33974 64.087159,76.412989 z M 65.68181,72.176763 C 65.901165,72.687802 66.558507,73.322618 67.144398,73.173579 C 67.632149,73.079064 67.6132,72.352491 67.241606,72.090315 C 66.90561,71.720305 66.232077,71.269679 65.807708,71.717727 C 65.687235,71.844032 65.672958,72.011585 65.68181,72.176763 z M 66.23695,72.541756 C 66.092736,72.221911 66.465922,71.817024 66.765281,72.02716 C 67.170866,72.192669 67.000976,72.786514 66.584983,72.777624 C 66.434331,72.742346 66.363622,72.631581 66.23695,72.541756 z M 66.389399,71.132663 C 66.873735,71.517955 67.35807,71.903248 67.842406,72.28854 C 68.214312,72.02931 67.784345,71.870853 67.579852,71.684059 C 67.257036,71.42695 66.93422,71.16984 66.611405,70.912731 C 66.537403,70.986042 66.463401,71.059353 66.389399,71.132663 z M 67.409124,79.244788 C 67.656662,79.376954 67.860697,79.70071 68.137069,79.705888 C 68.422837,79.647473 68.708604,79.589059 68.994371,79.530645 C 69.032884,79.869321 68.978474,80.255067 69.075596,80.564052 C 69.24067,80.623836 69.660156,81.192339 69.636677,80.875096 C 69.62148,80.420514 69.606284,79.965932 69.591089,79.51135 C 70.104177,79.419473 70.617266,79.327597 71.130354,79.235721 C 70.890757,79.092478 70.703052,78.749228 70.42898,78.738855 C 70.112294,78.801721 69.795607,78.864587 69.478921,78.927452 C 69.438579,78.578289 69.491979,78.183051 69.394238,77.862101 C 69.224789,77.787685 68.814018,77.216644 68.828657,77.521071 C 68.846505,77.996298 68.864353,78.471525 68.882201,78.946752 C 68.391175,79.046097 67.900149,79.145443 67.409124,79.244788 z M 68.863424,74.469748 C 69.099847,75.136035 69.993039,74.922949 69.943548,75.404116 C 70.165558,75.54254 70.417401,75.969341 70.581676,75.549641 C 70.889949,75.173183 71.198222,74.796726 71.506494,74.420268 C 71.281065,74.339101 71.003575,73.84156 70.817969,74.078894 C 70.534841,74.362585 70.316602,74.959984 69.82527,74.810135 C 69.197949,74.542532 69.748694,74.07498 69.995231,73.765781 C 70.290589,73.529377 70.271156,73.32094 69.921435,73.164379 C 69.65907,72.791227 69.496869,73.205214 69.309488,73.421329 C 69.069302,73.74168 68.717397,74.037206 68.863424,74.469748 z M 70.980472,82.304167 C 71.271831,82.968014 72.196833,83.416787 72.791069,82.850111 C 73.445293,82.391476 73.604165,81.315286 72.834485,80.880955 C 71.948851,80.1168 70.656766,81.332022 70.980472,82.304167 z M 71.471502,82.204821 C 71.344345,81.454542 72.672193,80.617055 72.817517,81.671959 C 72.819676,82.350567 71.791247,83.049132 71.471502,82.204821 z"
         id="path4363"
         sodipodi:nodetypes="ccccccccccccccccccccccscccccccccccccccccccccccccccccccccccscccccccsccccccscccccsccccccccccscccccccc" />
      <path
         style="fill:url(#radialGradient6358);fill-opacity:1;fill-rule:nonzero;stroke:none;stroke-width:0.5;stroke-linecap:round;stroke-linejoin:round;stroke-miterlimit:4;stroke-dasharray:none;stroke-dashoffset:4;stroke-opacity:1"
         d="M 71.035784,86.076237 L 72.238324,84.445918 L 56.59952,71.776248 L 55.4317,73.335361 L 71.035784,86.076237 z M 55.447187,73.34477 L 56.656419,71.800393 L 53.147317,69.04798 L 52.056418,70.445474 L 55.447187,73.34477 z"
         id="path4475"
         sodipodi:nodetypes="cccccccccc" />
      <path
         style="fill:url(#radialGradient6360);fill-opacity:1;fill-rule:nonzero;stroke:none;stroke-width:0.11067946;stroke-linecap:round;stroke-linejoin:round;stroke-miterlimit:4;stroke-dashoffset:4;stroke-opacity:1"
         d="M 34.463755,117.74088 C 32.678905,115.68102 28.932713,112.36014 26.752295,110.90492 C 26.48201,110.72453 26.336429,110.14887 26.827215,109.93855 C 27.318001,109.72823 28.996619,109.53516 28.996619,109.53516 C 28.996619,109.53516 28.650919,107.78433 29.322466,107.04879 C 29.994013,106.31325 31.682806,106.59299 31.682806,106.59299 C 31.682806,106.59299 31.777707,104.80645 31.955689,104.28133 C 32.133671,103.75621 32.620105,103.937 32.906098,104.09105 C 35.284684,105.37227 39.261899,108.55008 40.617558,110.92701 C 40.778381,111.20899 41.033421,111.68306 40.542639,111.89338 C 40.051857,112.1037 38.373233,112.29678 38.373233,112.29678 C 38.373233,112.29678 38.718932,114.04761 38.047385,114.78315 C 37.375838,115.51869 35.687046,115.23894 35.687046,115.23894 C 35.687046,115.23894 35.592146,117.02548 35.414165,117.5506 C 35.236184,118.07572 34.676507,117.98641 34.463755,117.74088 z"
         id="rect5461"
         sodipodi:nodetypes="cszczczsszczczs" />
      <path
         style="opacity:0.30232556;fill:url(#radialGradient6362);fill-opacity:1;fill-rule:evenodd;stroke:none;stroke-width:0.2;stroke-linecap:round;stroke-linejoin:round;stroke-miterlimit:4;stroke-dasharray:none;stroke-opacity:1"
         d="M 30.330841,97.179077 L 32.330841,104.05408 C 32.205653,104.10108 32.068622,104.15879 31.955841,104.27283 C 30.371169,105.87516 28.23155,108.16368 26.830841,109.92908 C 26.639773,110.1699 26.54991,110.49327 26.612091,110.71033 C 26.613742,110.71488 26.610289,110.73711 26.612091,110.74158 C 26.614046,110.74596 26.641232,110.76854 26.643341,110.77283 C 26.645605,110.77702 26.640921,110.79999 26.643341,110.80408 C 26.646078,110.80797 26.671694,110.83155 26.674591,110.83533 C 26.677812,110.83889 26.702456,110.86314 26.705841,110.86658 C 26.709558,110.86978 26.733207,110.89475 26.737091,110.89783 C 28.917509,112.35305 32.67099,115.68172 34.455841,117.74158 C 34.462489,117.74925 34.480016,117.76589 34.487091,117.77283 C 34.494371,117.77941 34.510667,117.79821 34.518341,117.80408 C 34.522272,117.80684 34.545568,117.80149 34.549591,117.80408 C 34.553703,117.80649 34.576643,117.83309 34.580841,117.83533 C 34.585203,117.83723 34.607651,117.83359 34.612091,117.83533 C 34.625636,117.84005 34.66042,117.86331 34.674591,117.86658 C 34.897647,117.90218 35.208428,117.77265 35.424591,117.55408 C 37.009259,115.95176 39.148876,113.66324 40.549591,111.89783 C 40.70743,111.6989 40.780153,111.46796 40.768341,111.27283 L 48.768341,112.39783 L 40.799591,99.897827 L 30.330841,97.179077 z"
         id="path5485" />
      <path
         sodipodi:nodetypes="ccsssssssssssssssszczczcccc"
         id="path6074"
         d="M 30.330841,97.179077 L 32.330841,104.05408 C 32.205653,104.10108 32.068622,104.15879 31.955841,104.27283 C 30.371169,105.87516 28.23155,108.16368 26.830841,109.92908 C 26.639773,110.1699 26.54991,110.49327 26.612091,110.71033 C 26.613742,110.71488 26.610289,110.73711 26.612091,110.74158 C 26.614046,110.74596 26.641232,110.76854 26.643341,110.77283 C 26.645605,110.77702 26.640921,110.79999 26.643341,110.80408 C 26.646078,110.80797 26.671694,110.83155 26.674591,110.83533 C 26.677812,110.83889 26.702456,110.86314 26.705841,110.86658 C 26.709558,110.86978 26.733207,110.89475 26.737091,110.89783 C 28.917509,112.35305 32.67099,115.68172 34.455841,117.74158 C 34.462489,117.74925 34.480016,117.76589 34.487091,117.77283 C 34.494371,117.77941 34.510667,117.79821 34.518341,117.80408 C 34.522272,117.80684 34.545568,117.80149 34.549591,117.80408 C 34.553703,117.80649 34.576643,117.83309 34.580841,117.83533 C 34.585203,117.83723 34.607651,117.83359 34.612091,117.83533 C 34.625636,117.84005 34.66042,117.86331 34.674591,117.86658 C 34.897647,117.90218 35.278814,118.03473 35.424591,117.55408 C 35.570368,117.07343 35.696929,115.24257 35.696929,115.24257 C 35.696929,115.24257 37.385123,115.52248 38.056073,114.78711 C 38.727022,114.05174 38.380727,112.30108 38.380727,112.30108 C 38.380727,112.30108 40.126308,112.04957 40.549591,111.89783 C 40.972874,111.74609 40.780153,111.46796 40.768341,111.27283 L 48.768341,112.39783 L 40.799591,99.897827 L 30.330841,97.179077 z"
         style="fill:url(#linearGradient6364);fill-opacity:1;fill-rule:evenodd;stroke:none;stroke-width:0.2;stroke-linecap:round;stroke-linejoin:round;stroke-miterlimit:4;stroke-dasharray:none;stroke-opacity:1" />
    </g>
    <g
       id="g6083">
      <path
         style="fill:url(#linearGradient6366);fill-opacity:1;fill-rule:evenodd;stroke:#000000;stroke-width:0;stroke-linecap:round;stroke-linejoin:round;stroke-miterlimit:4;stroke-dasharray:none;stroke-opacity:1"
         d="M 86.005625,102.10101 C 88.126931,107.69887 87.928494,113.60333 92.369535,118.8946 C 98.641219,126.36696 116.10438,129.34212 124.14775,122.94006 C 114.29342,121.50872 109.67782,114.05725 102.758,107.64848 C 98.283706,103.50465 93.353383,101.00179 91.166041,98.127921 C 89.445901,99.452297 87.725764,100.77666 86.005625,102.10101 z"
         id="path1330"
         inkscape:r_cx="true"
         inkscape:r_cy="true"
         sodipodi:nodetypes="cscscc" />
      <path
         sodipodi:nodetypes="cscscc"
         inkscape:r_cy="true"
         inkscape:r_cx="true"
         id="path3530"
         d="M 87.555906,102.23 C 88.858738,106.37221 91.149714,113.68309 93.974044,117.55299 C 97.962602,123.01812 112.41663,126.41637 118.13364,123.04271 C 110.89817,121.51551 106.05988,113.88933 101.77082,109.0644 C 100.25469,107.35884 92.279555,101.59225 90.892519,99.486182 C 89.747771,100.5076 88.700654,101.20857 87.555906,102.23 z"
         style="fill:url(#radialGradient6368);fill-opacity:1;fill-rule:evenodd;stroke:#000000;stroke-width:0;stroke-linecap:round;stroke-linejoin:round;stroke-miterlimit:4;stroke-dasharray:none;stroke-opacity:1" />
      <path
         sodipodi:nodetypes="csscc"
         inkscape:r_cy="true"
         inkscape:r_cx="true"
         id="path2624"
         d="M 86.005625,102.10101 C 88.126931,107.69887 87.928494,113.60333 92.369535,118.8946 C 98.641219,126.36696 107.94847,113.99481 101.25673,107.34824 C 96.782448,102.90415 93.353383,101.00179 91.166041,98.127921 C 89.445901,99.452297 87.725764,100.77666 86.005625,102.10101 z"
         style="fill:url(#linearGradient6370);fill-opacity:1;fill-rule:evenodd;stroke:#000000;stroke-width:0;stroke-linecap:round;stroke-linejoin:round;stroke-miterlimit:4;stroke-dasharray:none;stroke-opacity:1" />
      <path
         style="fill:#000000;fill-opacity:1;fill-rule:evenodd;stroke:#000000;stroke-width:0;stroke-linecap:round;stroke-linejoin:round;stroke-miterlimit:4;stroke-dasharray:none;stroke-opacity:1"
         d="M 102.5,107.5 C 101.56949,107.61187 104.93389,119.15833 94.09375,117.15625 C 96.215051,122.75411 87.933959,113.61498 92.375,118.90625 C 95.156219,122.21992 100.14579,124.63069 105.53125,125.75 C 106.00762,125.86881 106.56351,125.94874 107.15625,126.03125 C 109.02161,126.32303 110.90447,126.44867 112.75,126.40625 C 114.61161,126.44964 116.57821,126.46875 118.53125,126.46875 C 125.15147,126.46875 127.63583,124.32725 126.875,120.71875 C 125.90263,116.10698 119.56402,114.28235 117.125,108.875 C 115.92119,111.79406 112.6571,114.72739 110.4375,115.46875 C 107.54723,112.76282 105.04487,109.86594 102.75,107.65625 C 102.64449,107.55466 102.56203,107.49254 102.5,107.5 z"
         id="path3648" />
      <path
         sodipodi:nodetypes="cscscc"
         inkscape:r_cy="true"
         inkscape:r_cx="true"
         id="path3646"
         d="M 95.361596,112.57708 C 96.664428,116.71929 91.149714,113.68309 93.974044,117.55299 C 97.962602,123.01812 112.41663,126.41637 118.13364,123.04271 C 110.89817,121.51551 106.05988,113.88933 101.77082,109.0644 C 100.25469,107.35884 101.99128,112.66543 100.9673,113.91763 C 99.82256,114.93904 96.506344,111.55565 95.361596,112.57708 z"
         style="fill:#000000;fill-opacity:1;fill-rule:evenodd;stroke:#000000;stroke-width:0;stroke-linecap:round;stroke-linejoin:round;stroke-miterlimit:4;stroke-dasharray:none;stroke-opacity:1" />
      <path
         style="fill:url(#linearGradient6372);fill-opacity:1;fill-rule:evenodd;stroke:none;stroke-width:1px;stroke-linecap:butt;stroke-linejoin:miter;stroke-opacity:1"
         d="M 117.18851,111.13401 C 119.62753,116.70892 126.03762,117.36532 127.00999,122.11999 C 126.87052,130.95834 107.57221,124.48757 102.12204,121.30917 C 100.72831,119.56701 107.49777,116.89352 109.58837,116.89352 C 111.67896,116.89352 115.79478,114.61833 117.18851,111.13401 z"
         id="path3600"
         sodipodi:nodetypes="csssc" />
      <path
         style="opacity:0.7;fill:none"
         id="path92"
         d="M 13.4085,69.576289 C 19.03883,68.040486 24.8568,71.361409 26.39566,76.993489 C 27.93299,82.624693 24.61207,88.442658 18.98481,89.98021 C 13.3512,91.518201 7.53323,88.197278 5.99436,82.565199 C 4.45856,76.934869 7.77707,71.117562 13.4085,69.576289 z" />
      <path
         style="opacity:0.7;fill:none"
         id="path94"
         d="M 18.74807,42.131486 C 24.39623,43.614497 27.7714,49.392769 26.2884,55.040929 C 24.80231,60.687341 19.02229,64.065581 13.37523,62.577099 C 7.7286,61.094962 4.35167,55.319754 5.83621,49.672469 C 7.31637,44.018617 13.09858,40.643659 18.74807,42.131486 z" />
      <circle
         style="opacity:0.7;fill:none"
         sodipodi:ry="5.9920001"
         sodipodi:rx="5.9920001"
         sodipodi:cy="70.773003"
         sodipodi:cx="34.993"
         id="circle96"
         r="5.9920001"
         cy="70.773003"
         cx="34.993"
         transform="matrix(1.532253,0.874618,0.874618,-1.532253,-85.8623,106.3727)" />
      <path
         style="opacity:0.7;fill:none"
         id="path98"
         d="M 63.538933,11.921755 C 65.076268,17.552958 61.755343,23.370927 56.124797,24.910669 C 50.494467,26.446471 44.675628,23.127079 43.135885,17.496533 C 41.597019,11.864454 44.921009,6.0482343 50.550022,4.5076184 C 56.181227,2.9702834 61.999192,6.2912068 63.538933,11.921755 z" />
      <circle
         style="opacity:0.7;fill:none"
         sodipodi:ry="5.9920001"
         sodipodi:rx="5.9920001"
         sodipodi:cy="92.005997"
         sodipodi:cx="56.228001"
         id="circle100"
         r="5.9920001"
         cy="92.005997"
         cx="56.228001"
         transform="matrix(1.532253,0.874618,0.874618,-1.532253,-85.8623,106.3727)" />
      <path
         style="fill:url(#radialGradient6374);fill-opacity:1;fill-rule:evenodd;stroke:#453500;stroke-width:1.23200393;stroke-linecap:butt;stroke-linejoin:miter;stroke-miterlimit:4;stroke-dasharray:none;stroke-opacity:1"
         d="M 84.738423,89.578143 C 78.439667,79.113873 76.854599,72.694431 65.84216,58.185339 C 54.829723,43.676248 34.328752,21.126597 18.6638,2.5236098 C 17.66606,1.3387387 15.35132,1.1298523 13.65322,2.4187113 C 11.89036,3.7567273 11.62476,6.1258896 12.40657,7.2728594 C 26.10441,27.368633 42.315274,53.174753 53.32771,67.683843 C 64.34015,82.192931 70.096702,85.446208 78.481199,94.327391 C 80.566941,92.744309 82.652682,91.161226 84.738423,89.578143 z"
         id="path1324"
         inkscape:r_cx="true"
         inkscape:r_cy="true"
         sodipodi:nodetypes="czszszcc" />
      <path
         sodipodi:nodetypes="czszszcc"
         inkscape:r_cy="true"
         inkscape:r_cx="true"
         id="path3534"
         d="M 84.738423,89.578143 C 78.439667,79.113873 76.854599,72.694431 65.84216,58.185339 C 54.829723,43.676248 34.328752,21.126597 18.6638,2.5236098 C 17.66606,1.3387387 15.35132,1.1298523 13.65322,2.4187113 C 11.89036,3.7567273 11.62476,6.1258896 12.40657,7.2728594 C 26.10441,27.368633 42.315274,53.174753 53.32771,67.683843 C 64.34015,82.192931 70.096702,85.446208 78.481199,94.327391 C 80.566941,92.744309 82.652682,91.161226 84.738423,89.578143 z"
         style="opacity:0.56435643;fill:#000000;fill-opacity:1;fill-rule:evenodd;stroke:none;stroke-width:0.375;stroke-linecap:butt;stroke-linejoin:miter;stroke-miterlimit:4;stroke-dasharray:none;stroke-opacity:1" />
      <path
         style="opacity:1;fill:url(#linearGradient6376);fill-opacity:1;fill-rule:evenodd;stroke:none;stroke-width:0.375;stroke-linecap:butt;stroke-linejoin:miter;stroke-miterlimit:4;stroke-dasharray:none;stroke-opacity:1"
         d="M 83.90919,89.301732 C 77.610434,78.837462 76.025366,72.41802 65.012927,57.908928 C 54.00049,43.399837 33.499519,20.850186 17.834567,2.2471988 C 16.836827,1.0623277 14.522087,0.85344129 12.823987,2.1423003 C 11.061127,3.4803159 10.795527,5.8494789 11.577337,6.9964489 C 25.275177,27.092222 41.486041,52.898342 52.498477,67.407432 C 63.510917,81.91652 69.267469,85.169797 77.651966,94.050985 C 79.737708,92.467898 81.823449,90.884815 83.90919,89.301732 z"
         id="path3263"
         inkscape:r_cx="true"
         inkscape:r_cy="true"
         sodipodi:nodetypes="czszszcc" />
      <path
         inkscape:r_cy="true"
         inkscape:r_cx="true"
         style="opacity:0.86976743;fill:url(#linearGradient6378);fill-opacity:1;fill-rule:evenodd;stroke:none;stroke-width:0.375;stroke-linecap:butt;stroke-linejoin:miter;stroke-miterlimit:4;stroke-dasharray:none;stroke-opacity:1"
         d="M 17.22473,1.6250148 C 17.8004,1.780469 18.28758,2.1213031 18.63055,2.5286028 C 28.15813,13.843126 48.60104,37.094015 58.131948,49.283723 C 55.704526,48.730077 52.369045,47.836382 49.367864,45.276976 C 43.676518,40.423391 21.20592,9.74526 17.69137,5.8571043 C 15.48364,3.4146924 13.79841,5.5843376 12.01052,5.5702796 C 12.05239,4.4785673 12.53207,3.2336599 13.63385,2.3973999 C 14.74823,1.5515871 16.12571,1.3282408 17.22473,1.6250148 z"
         id="path3560"
         sodipodi:nodetypes="cscsscsc" />
      <path
         sodipodi:nodetypes="cccccccccc"
         id="path2510"
         d="M 26.70105,10.995482 C 27.76351,11.818858 28.95464,13.029204 29.42772,14.152604 L 22.41631,19.510264 L 19.92856,16.2147 L 26.70105,10.995482 z M 20.666,15.645863 L 23.15378,18.941426 L 20.69563,20.837559 C 19.76763,20.146427 18.99705,18.670912 18.45365,17.361944 L 20.666,15.645863 z"
         style="fill:url(#radialGradient6380);fill-opacity:1;fill-rule:nonzero;stroke:none;stroke-width:0.5;stroke-linecap:round;stroke-linejoin:round;stroke-miterlimit:4;stroke-dasharray:none;stroke-dashoffset:4;stroke-opacity:1" />
      <path
         style="font-size:12px;font-style:normal;font-variant:normal;font-weight:bold;font-stretch:normal;text-align:start;line-height:125%;writing-mode:lr-tb;text-anchor:start;fill:#999999;fill-opacity:1;stroke:none;stroke-width:1px;stroke-linecap:butt;stroke-linejoin:miter;stroke-opacity:1;font-family:Bitstream Vera Sans"
         d="M 35.876405,38.489271 C 35.984931,38.63403 36.041002,38.767812 36.044647,38.89061 C 36.048283,39.013436 35.999115,39.113892 35.897143,39.192008 C 35.79561,39.269795 35.686846,39.290315 35.570869,39.253578 C 35.454886,39.216816 35.342639,39.126075 35.234119,38.981323 C 35.124976,38.83574 35.068595,38.70155 35.064951,38.578732 C 35.061315,38.455913 35.11027,38.35563 35.211806,38.277836 C 35.313782,38.199713 35.422755,38.179033 35.538731,38.215783 C 35.654709,38.252527 35.767269,38.343689 35.876405,38.489271 M 36.057235,38.350736 C 35.835255,38.05465 35.616878,37.856805 35.402082,37.757207 C 35.187296,37.657616 35.00147,37.667905 34.844629,37.788056 C 34.688215,37.907888 34.628398,38.085777 34.66517,38.321753 C 34.701948,38.557723 34.831321,38.823755 35.053296,39.119847 C 35.274652,39.415107 35.493028,39.612952 35.708444,39.713373 C 35.923232,39.812965 36.108832,39.802847 36.265254,39.683022 C 36.422093,39.56287 36.482131,39.384804 36.445352,39.148834 C 36.40796,38.91204 36.278584,38.646009 36.057235,38.350736 M 33.884519,36.484218 L 32.911557,36.2235 L 33.282439,36.718229 L 33.935763,36.895554 L 33.92523,37.575648 L 34.297956,38.072828 L 34.312744,37.05543 L 35.247108,37.306859 L 34.875305,36.810911 L 34.261125,36.646315 L 34.271354,36.0053 L 33.897702,35.506882 L 33.884519,36.484218 M 33.858856,35.455066 L 33.469481,34.935677 L 32.810224,34.780363 L 32.84056,34.09675 L 32.45026,33.576128 L 32.41654,34.707101 L 32.00886,35.019403 L 32.36495,35.494393 L 32.772623,35.182072 L 33.858856,35.455066 M 30.16075,32.403125 C 30.21931,32.544728 30.28879,32.685065 30.36923,32.824127 C 30.4497,32.963203 30.54078,33.100592 30.64252,33.236297 C 30.87251,33.543082 31.09964,33.75169 31.32394,33.862144 C 31.54865,33.972263 31.73814,33.968229 31.89239,33.850066 C 32.04839,33.730563 32.10265,33.545263 32.05521,33.294158 C 32.00776,33.043046 31.86503,32.758759 31.62704,32.441283 C 31.53517,32.318739 31.44125,32.206161 31.34529,32.10358 C 31.24873,32.000162 31.15126,31.907817 31.05288,31.826488 L 30.85261,31.979927 C 30.96037,32.059227 31.06003,32.144078 31.15162,32.234479 C 31.24257,32.32405 31.32629,32.419849 31.40274,32.521828 C 31.54456,32.710998 31.62613,32.878333 31.64748,33.023839 C 31.66862,33.168199 31.62756,33.279942 31.52429,33.359046 C 31.42189,33.437501 31.30581,33.448718 31.17609,33.392728 C 31.04637,33.336727 30.91337,33.217852 30.7771,33.03608 C 30.74011,32.986741 30.70741,32.939933 30.67898,32.895662 C 30.65037,32.850256 30.62688,32.80803 30.60852,32.769016 L 30.79648,32.625017 L 31.01383,32.914949 L 31.18104,32.786846 L 30.6261,32.046624 L 30.16075,32.403125 M 30.74385,31.299944 L 29.78289,30.018126 L 29.59429,30.1626 L 30.19918,30.969442 L 30.01898,31.107483 L 29.45019,30.348749 L 29.26158,30.493235 L 29.83039,31.251964 L 29.60872,31.421776 L 28.9835,30.587796 L 28.7949,30.732278 L 29.77621,32.041248 L 30.74385,31.299944 M 29.44901,29.572749 L 29.05132,29.042253 L 27.88543,28.880784 L 28.5491,28.372348 L 28.21152,27.922052 L 27.24387,28.663355 L 27.64157,29.193852 L 28.80747,29.355313 L 28.14378,29.86375 L 28.48136,30.314052 L 29.44901,29.572749 M 27.2071,26.582241 L 26.8094,26.051757 L 25.64352,25.890278 L 26.30718,25.381853 L 25.9696,24.931542 L 25.00196,25.672847 L 25.39965,26.203343 L 26.56556,26.364806 L 25.90186,26.873249 L 26.23945,27.323544 L 27.2071,26.582241 M 25.28049,23.975589 C 25.14916,23.800405 25.0216,23.680595 24.8978,23.616169 C 24.77336,23.550932 24.67011,23.549753 24.58801,23.612648 C 24.50593,23.675539 24.47903,23.775771 24.50734,23.913346 C 24.53565,24.050924 24.61578,24.207715 24.74774,24.383722 C 24.87969,24.559735 25.00764,24.68053 25.13164,24.746097 C 25.255,24.810853 25.35774,24.811782 25.43983,24.748887 C 25.52193,24.685998 25.54904,24.585599 25.52116,24.447691 C 25.49267,24.30896 25.41243,24.151601 25.28049,23.975589 M 25.04777,24.954078 L 24.2866,23.938734 L 24.15697,24.038039 L 24.91814,25.05338 L 25.04777,24.954078 M 25.17032,24.059996 C 25.2221,24.129086 25.24857,24.19297 25.24971,24.251655 C 25.25024,24.309523 25.22544,24.357651 25.17532,24.39605 C 25.1252,24.434449 25.07287,24.445406 25.01833,24.428915 C 24.96318,24.411603 24.9097,24.368409 24.85792,24.29931 C 24.80673,24.231055 24.78067,24.168152 24.7797,24.110616 C 24.77813,24.052261 24.80241,24.003885 24.85253,23.965486 C 24.90266,23.927093 24.9555,23.916381 25.01109,23.933362 C 25.06605,23.94952 25.11913,23.991733 25.17032,24.059996 M 22.74535,21.567091 C 22.63538,21.455811 22.5354,21.384149 22.4454,21.352102 C 22.35522,21.318906 22.27792,21.326965 22.21354,21.376288 C 22.11762,21.449771 22.09701,21.575623 22.15171,21.753839 C 22.20684,21.931725 22.33491,22.154733 22.53591,22.422857 C 22.60683,22.517438 22.68215,22.609296 22.76189,22.698407 C 22.84056,22.787035 22.92274,22.871698 23.00839,22.952389 L 23.2009,22.804916 C 23.11097,22.733969 23.02728,22.659533 22.94982,22.58162 C 22.87219,22.50255 22.80161,22.420661 22.7381,22.335948 C 22.64375,22.210112 22.58307,22.10511 22.55602,22.020944 C 22.52836,21.935957 22.53592,21.877086 22.57871,21.844308 C 22.62277,21.810549 22.68194,21.819603 22.7562,21.871479 C 22.83028,21.922202 22.91756,22.014593 23.01807,22.148651 L 23.1605,22.338645 L 23.32123,22.215509 L 23.1714,22.015654 C 23.082,21.896391 23.02512,21.800119 23.0008,21.726824 C 22.97689,21.653205 22.98504,21.601 23.02521,21.570221 C 23.06238,21.541752 23.11239,21.548114 23.17524,21.589307 C 23.23808,21.6305 23.30836,21.702914 23.38604,21.806541 C 23.4434,21.88303 23.49681,21.96382 23.54631,22.048904 C 23.59582,22.133992 23.6407,22.221976 23.68094,22.312855 L 23.8637,22.172841 C 23.80724,22.068492 23.74793,21.967605 23.68578,21.870192 C 23.62365,21.772776 23.55927,21.679665 23.49269,21.590828 C 23.31326,21.351502 23.15842,21.188494 23.02814,21.101835 C 22.89768,21.014027 22.79098,21.001893 22.70803,21.065444 C 22.65142,21.108816 22.62626,21.172778 22.6325,21.257328 C 22.63919,21.341549 22.6768,21.444804 22.74535,21.567091"
         id="text3284" />
      <g
         id="g2634"
         transform="matrix(-0.999909,-1.351877e-2,-1.351877e-2,0.999909,133.0198,0.237052)">
        <path
           sodipodi:nodetypes="cccccccccc"
           id="path3213"
           d="M 38.34944,98.879422 C 39.100451,97.429319 40.245026,95.686957 41.376668,94.733981 L 47.788963,99.921606 L 44.589716,103.87235 L 38.34944,98.879422 z M 43.909663,103.3289 L 47.108913,99.37812 L 49.375744,101.18964 C 48.749318,102.44484 47.279318,103.85323 45.959893,104.95541 L 43.909663,103.3289 z"
           style="fill:url(#radialGradient6382);fill-opacity:1;fill-rule:nonzero;stroke:none;stroke-width:0.5;stroke-linecap:round;stroke-linejoin:round;stroke-miterlimit:4;stroke-dasharray:none;stroke-dashoffset:4;stroke-opacity:1" />
        <path
           style="fill:url(#radialGradient6384);fill-opacity:1;fill-rule:nonzero;stroke:none;stroke-width:0.5;stroke-linecap:round;stroke-linejoin:round;stroke-miterlimit:4;stroke-dasharray:none;stroke-dashoffset:4;stroke-opacity:1"
           d="M 41.361775,94.94897 C 42.108412,93.495334 43.250303,91.750805 44.385839,90.800967 L 50.910159,96.079198 L 47.710595,100.0297 L 41.361775,94.94897 z M 47.018729,99.47668 L 50.218285,95.52615 L 52.524529,97.369552 C 51.902136,98.628011 50.428538,100.03348 49.104494,101.13193 L 47.018729,99.47668 z"
           id="path3217"
           sodipodi:nodetypes="cccccccccc" />
        <path
           sodipodi:nodetypes="cccccccccc"
           id="path3221"
           d="M 44.345464,90.914825 C 45.083365,89.454122 46.21989,87.705248 47.363201,86.761702 L 54.111573,92.221146 L 50.911382,96.17114 L 44.345464,90.914825 z M 50.195867,95.599 L 53.39605,91.64897 L 55.781114,93.556131 C 55.16679,94.821109 53.685987,96.220756 52.352723,97.311753 L 50.195867,95.599 z"
           style="fill:url(#radialGradient6386);fill-opacity:1;fill-rule:nonzero;stroke:none;stroke-width:0.5;stroke-linecap:round;stroke-linejoin:round;stroke-miterlimit:4;stroke-dasharray:none;stroke-dashoffset:4;stroke-opacity:1" />
        <path
           style="fill:url(#radialGradient6388);fill-opacity:1;fill-rule:nonzero;stroke:none;stroke-width:0.5;stroke-linecap:round;stroke-linejoin:round;stroke-miterlimit:4;stroke-dasharray:none;stroke-dashoffset:4;stroke-opacity:1"
           d="M 47.385861,86.950051 C 48.119393,85.485811 49.253231,83.734769 50.40043,82.79437 L 57.260835,88.344412 L 54.060325,92.294161 L 47.385861,86.950051 z M 53.332987,91.712457 L 56.533485,87.76268 L 58.957961,89.701712 C 58.347673,90.969952 56.86326,92.36669 55.525384,93.453958 L 53.332987,91.712457 z"
           id="path3225"
           sodipodi:nodetypes="cccccccccc" />
        <path
           id="path3271"
           d="M 50.41561,82.77934 C 49.304261,83.690353 48.193593,85.381544 47.459111,86.816351 L 47.365545,86.753377 C 46.257962,87.667439 45.147654,89.358916 44.409048,90.790387 L 44.375093,90.793236 C 43.285688,91.704485 42.203179,93.376095 41.4567,94.791638 L 41.363132,94.728665 C 40.23149,95.681642 39.111243,97.425699 38.360234,98.875802 L 44.605879,103.87596 L 45.958839,104.96644 C 47.27827,103.86425 48.765041,102.42798 49.391466,101.17278 L 49.238285,101.04399 C 50.529062,99.961701 51.919709,98.588124 52.522652,97.368991 L 52.399279,97.273109 C 53.721588,96.187161 55.181733,94.805616 55.789658,93.553809 L 55.606671,93.392105 C 56.922218,92.315049 58.361371,90.953235 58.958947,89.711416 L 57.269822,88.330443 L 50.41561,82.77934 z"
           style="fill:url(#linearGradient6390);fill-opacity:1;fill-rule:nonzero;stroke:none;stroke-width:0.5;stroke-linecap:round;stroke-linejoin:round;stroke-miterlimit:4;stroke-dasharray:none;stroke-dashoffset:4;stroke-opacity:1" />
      </g>
    </g>
  </g>
</svg>
