<?xml version="1.0" encoding="UTF-8" standalone="no"?>
<!-- Created with Inkscape (http://www.inkscape.org/) -->

<svg
   xmlns:dc="http://purl.org/dc/elements/1.1/"
   xmlns:cc="http://creativecommons.org/ns#"
   xmlns:rdf="http://www.w3.org/1999/02/22-rdf-syntax-ns#"
   xmlns:svg="http://www.w3.org/2000/svg"
   xmlns="http://www.w3.org/2000/svg"
   xmlns:xlink="http://www.w3.org/1999/xlink"
   xmlns:sodipodi="http://sodipodi.sourceforge.net/DTD/sodipodi-0.dtd"
   xmlns:inkscape="http://www.inkscape.org/namespaces/inkscape"
   id="svg2"
   sodipodi:version="0.32"
   inkscape:version="0.47pre0 r21549"
   width="256"
   height="256"
   version="1.0"
   sodipodi:docname="logoff.svg"
   inkscape:output_extension="org.inkscape.output.svg.inkscape">
  <sodipodi:namedview
     inkscape:window-height="710"
     inkscape:window-width="911"
     inkscape:pageshadow="2"
     inkscape:pageopacity="0.0"
     guidetolerance="10.0"
     gridtolerance="10.0"
     objecttolerance="10.0"
     borderopacity="1.0"
     bordercolor="#666666"
     pagecolor="#ffffff"
     id="base"
     width="48px"
     height="48px"
     inkscape:zoom="1.9453125"
     inkscape:cx="128"
     inkscape:cy="131.4395"
     inkscape:window-x="548"
     inkscape:window-y="91"
     inkscape:current-layer="svg2"
     showgrid="false" />
  <metadata
     id="metadata7">
    <rdf:RDF>
      <cc:Work
         rdf:about="">
        <dc:format>image/svg+xml</dc:format>
        <dc:type
           rdf:resource="http://purl.org/dc/dcmitype/StillImage" />
      </cc:Work>
    </rdf:RDF>
  </metadata>
  <defs
     id="defs5">
    <linearGradient
       id="linearGradient3954">
      <stop
         id="stop3956"
         offset="0"
         style="stop-color:#b3b3b3;stop-opacity:1;" />
      <stop
         style="stop-color:#ffffff;stop-opacity:1;"
         offset="0.52879584"
         id="stop3962" />
      <stop
         id="stop3958"
         offset="1"
         style="stop-color:#c5c5c5;stop-opacity:1;" />
    </linearGradient>
    <radialGradient
       inkscape:collect="always"
       xlink:href="#linearGradient3954"
       id="radialGradient10360"
       gradientUnits="userSpaceOnUse"
       gradientTransform="matrix(3.1266373,0,0,2.8001623,-68.954932,-50.202498)"
       cx="60.097603"
       cy="88.499367"
       fx="69.801033"
       fy="111.93269"
       r="47.937988" />
  </defs>
  <path
     style="fill:url(#radialGradient10360);fill-opacity:1;fill-rule:nonzero;stroke:#000000;stroke-width:3.11719298;stroke-linecap:round;stroke-linejoin:round;stroke-miterlimit:4;stroke-dasharray:none;stroke-dashoffset:4;stroke-opacity:1"
     d="M 72.915719,17.49034 C 69.476876,17.700442 66.129505,18.849325 63.25242,20.763392 C 50.383709,29.116124 38.913381,40.207297 29.820525,53.649781 C 11.634817,80.534724 6.0238526,112.48067 11.740804,142.10013 C 17.457753,171.71961 34.575106,199.27257 61.460034,217.45827 C 88.344973,235.64398 120.29091,241.25496 149.91037,235.538 C 179.52985,229.82105 207.16074,212.70368 225.34644,185.81878 C 243.53216,158.93383 249.1431,126.98789 243.42617,97.368408 C 237.70922,67.748945 220.59187,40.195976 193.70695,22.010269 C 184.75475,15.941704 172.57799,18.27936 166.50944,27.23157 C 160.44087,36.183773 162.77853,48.360503 171.73073,54.429079 C 189.84796,66.684063 201.17435,84.916026 205.00675,104.77175 C 208.83918,124.62747 205.18263,145.80328 192.92764,163.9205 C 180.67267,182.03772 162.36277,193.28617 142.50705,197.11858 C 122.65133,200.95103 101.47554,197.29446 83.358315,185.03947 C 65.241109,172.78449 53.992628,154.55255 50.160208,134.69681 C 46.327793,114.84107 49.984353,93.665267 62.239333,75.548063 C 68.366829,66.489449 76.025694,59.140579 84.605194,53.571851 C 92.00745,48.873393 95.386742,39.837023 92.86576,31.439781 C 90.344767,23.042541 82.539065,17.334799 73.772947,17.49034 C 73.480137,17.49508 73.207146,17.472532 72.915719,17.49034 z M 126.37557,69.859186 C 121.54311,70.171703 116.98032,72.286979 113.59508,75.781852 C 109.98416,79.509715 107.97425,84.542062 108.06207,89.731291 C 108.06207,92.890804 108.06207,149.73726 108.06207,149.73726 C 107.71895,156.93359 111.38821,163.72646 117.5695,167.42733 C 123.7508,171.12821 131.41619,171.12821 137.59748,167.42733 C 143.77876,163.72646 147.44804,156.93359 147.10491,149.73726 C 147.10491,149.73726 147.10491,92.890575 147.10491,89.731291 C 147.19419,84.447573 145.14538,79.370015 141.41603,75.625992 C 137.6867,71.881969 132.59477,69.790681 127.31073,69.859186 C 126.98641,69.864023 126.69775,69.838337 126.37557,69.859186 z"
     id="path3570" />
</svg>
