<?xml version="1.0" encoding="UTF-8" standalone="no"?>
<!-- Created with Inkscape (http://www.inkscape.org/) -->

<svg
   xmlns:dc="http://purl.org/dc/elements/1.1/"
   xmlns:cc="http://creativecommons.org/ns#"
   xmlns:rdf="http://www.w3.org/1999/02/22-rdf-syntax-ns#"
   xmlns:svg="http://www.w3.org/2000/svg"
   xmlns="http://www.w3.org/2000/svg"
   xmlns:xlink="http://www.w3.org/1999/xlink"
   xmlns:sodipodi="http://sodipodi.sourceforge.net/DTD/sodipodi-0.dtd"
   xmlns:inkscape="http://www.inkscape.org/namespaces/inkscape"
   id="svg2"
   sodipodi:version="0.32"
   inkscape:version="0.47pre0 r21549"
   width="256"
   height="256"
   version="1.0"
   sodipodi:docname="mplayer.svg"
   inkscape:output_extension="org.inkscape.output.svg.inkscape">
  <sodipodi:namedview
     inkscape:window-height="718"
     inkscape:window-width="911"
     inkscape:pageshadow="2"
     inkscape:pageopacity="0.0"
     guidetolerance="10.0"
     gridtolerance="10.0"
     objecttolerance="10.0"
     borderopacity="1.0"
     bordercolor="#666666"
     pagecolor="#ffffff"
     id="base"
     width="48px"
     height="48px"
     inkscape:zoom="1.9453125"
     inkscape:cx="127.74297"
     inkscape:cy="123.92162"
     inkscape:window-x="548"
     inkscape:window-y="91"
     inkscape:current-layer="svg2"
     showgrid="false" />
  <metadata
     id="metadata7">
    <rdf:RDF>
      <cc:Work
         rdf:about="">
        <dc:format>image/svg+xml</dc:format>
        <dc:type
           rdf:resource="http://purl.org/dc/dcmitype/StillImage" />
      </cc:Work>
    </rdf:RDF>
  </metadata>
  <defs
     id="defs5">
    <linearGradient
       inkscape:collect="always"
       xlink:href="#linearGradient2321"
       id="linearGradient5249"
       gradientUnits="userSpaceOnUse"
       gradientTransform="matrix(-0.999482,-3.218373e-2,-3.218373e-2,0.999482,-475.4129,-276.8382)"
       x1="-252.92003"
       y1="750.56793"
       x2="-235.70245"
       y2="760.50848" />
    <linearGradient
       inkscape:collect="always"
       xlink:href="#linearGradient2321"
       id="linearGradient5247"
       gradientUnits="userSpaceOnUse"
       gradientTransform="matrix(-0.999482,-3.218373e-2,-3.218373e-2,0.999482,-326.1191,7.004365)"
       x1="-252.92003"
       y1="750.56793"
       x2="-235.70245"
       y2="760.50848" />
    <linearGradient
       inkscape:collect="always"
       xlink:href="#linearGradient2288"
       id="linearGradient5245"
       gradientUnits="userSpaceOnUse"
       gradientTransform="matrix(0.503288,-0.864118,0.864118,0.503288,-640.3266,180.4778)"
       x1="-252.42459"
       y1="750.30035"
       x2="-235.70245"
       y2="760.50848" />
    <linearGradient
       inkscape:collect="always"
       xlink:href="#linearGradient2321"
       id="linearGradient5243"
       gradientUnits="userSpaceOnUse"
       gradientTransform="matrix(-0.999482,-3.218373e-2,-3.218373e-2,0.999482,-326.1191,7.004365)"
       x1="-252.92003"
       y1="750.56793"
       x2="-235.70245"
       y2="760.50848" />
    <linearGradient
       inkscape:collect="always"
       xlink:href="#linearGradient2288"
       id="linearGradient5241"
       gradientUnits="userSpaceOnUse"
       gradientTransform="matrix(0.503288,-0.864118,0.864118,0.503288,-789.6204,-103.3648)"
       x1="-252.42459"
       y1="750.30035"
       x2="-235.70245"
       y2="760.50848" />
    <linearGradient
       inkscape:collect="always"
       xlink:href="#linearGradient2321"
       id="linearGradient5239"
       gradientUnits="userSpaceOnUse"
       gradientTransform="matrix(-0.999482,-3.218373e-2,-3.218373e-2,0.999482,-475.4129,-276.8382)"
       x1="-252.92003"
       y1="750.56793"
       x2="-235.70245"
       y2="760.50848" />
    <linearGradient
       inkscape:collect="always"
       xlink:href="#linearGradient2288"
       id="linearGradient5237"
       gradientUnits="userSpaceOnUse"
       gradientTransform="matrix(-0.475217,-0.879868,-0.879868,0.475217,308.4617,183.4959)"
       x1="-252.42459"
       y1="750.30035"
       x2="-235.70245"
       y2="760.50848" />
    <linearGradient
       inkscape:collect="always"
       xlink:href="#linearGradient2288"
       id="linearGradient5235"
       gradientUnits="userSpaceOnUse"
       gradientTransform="matrix(-0.475217,-0.879868,-0.879868,0.475217,308.4617,183.4959)"
       x1="-252.42459"
       y1="750.30035"
       x2="-235.70245"
       y2="760.50848" />
    <linearGradient
       inkscape:collect="always"
       xlink:href="#linearGradient2321"
       id="linearGradient5233"
       gradientUnits="userSpaceOnUse"
       x1="-252.92003"
       y1="750.56793"
       x2="-235.70245"
       y2="760.50848" />
    <linearGradient
       inkscape:collect="always"
       xlink:href="#linearGradient2288"
       id="linearGradient5231"
       gradientUnits="userSpaceOnUse"
       gradientTransform="matrix(-0.475217,-0.879868,-0.879868,0.475217,308.4617,183.4959)"
       x1="-252.42459"
       y1="750.30035"
       x2="-235.70245"
       y2="760.50848" />
    <linearGradient
       inkscape:collect="always"
       xlink:href="#linearGradient2288"
       id="linearGradient5229"
       gradientUnits="userSpaceOnUse"
       gradientTransform="matrix(-0.475217,-0.879868,-0.879868,0.475217,308.4617,183.4959)"
       x1="-252.42459"
       y1="750.30035"
       x2="-235.70245"
       y2="760.50848" />
    <linearGradient
       inkscape:collect="always"
       xlink:href="#linearGradient2321"
       id="linearGradient5227"
       gradientUnits="userSpaceOnUse"
       x1="-252.92003"
       y1="750.56793"
       x2="-235.70245"
       y2="760.50848" />
    <linearGradient
       inkscape:collect="always"
       xlink:href="#linearGradient2288"
       id="linearGradient5225"
       gradientUnits="userSpaceOnUse"
       gradientTransform="matrix(-0.475217,-0.879868,-0.879868,0.475217,308.4617,183.4959)"
       x1="-252.42459"
       y1="750.30035"
       x2="-235.70245"
       y2="760.50848" />
    <linearGradient
       inkscape:collect="always"
       xlink:href="#linearGradient2288"
       id="linearGradient5223"
       gradientUnits="userSpaceOnUse"
       gradientTransform="matrix(-0.475217,-0.879868,-0.879868,0.475217,308.4617,183.4959)"
       x1="-252.42459"
       y1="750.30035"
       x2="-235.70245"
       y2="760.50848" />
    <linearGradient
       inkscape:collect="always"
       xlink:href="#linearGradient2321"
       id="linearGradient5221"
       gradientUnits="userSpaceOnUse"
       x1="-252.92003"
       y1="750.56793"
       x2="-235.70245"
       y2="760.50848" />
    <linearGradient
       inkscape:collect="always"
       xlink:href="#linearGradient2288"
       id="linearGradient5219"
       gradientUnits="userSpaceOnUse"
       gradientTransform="matrix(-0.475217,-0.879868,-0.879868,0.475217,308.4617,183.4959)"
       x1="-252.42459"
       y1="750.30035"
       x2="-235.70245"
       y2="760.50848" />
    <linearGradient
       inkscape:collect="always"
       xlink:href="#linearGradient2288"
       id="linearGradient5217"
       gradientUnits="userSpaceOnUse"
       gradientTransform="matrix(-0.475217,-0.879868,-0.879868,0.475217,308.4617,183.4959)"
       x1="-252.42459"
       y1="750.30035"
       x2="-235.70245"
       y2="760.50848" />
    <linearGradient
       inkscape:collect="always"
       id="linearGradient2321">
      <stop
         style="stop-color:#000000;stop-opacity:1;"
         offset="0"
         id="stop2323" />
      <stop
         style="stop-color:#000000;stop-opacity:0;"
         offset="1"
         id="stop2325" />
    </linearGradient>
    <linearGradient
       inkscape:collect="always"
       xlink:href="#linearGradient2321"
       id="linearGradient5215"
       gradientUnits="userSpaceOnUse"
       x1="-252.92003"
       y1="750.56793"
       x2="-235.70245"
       y2="760.50848" />
    <linearGradient
       id="linearGradient2309">
      <stop
         style="stop-color:#ffffff;stop-opacity:1;"
         offset="0"
         id="stop2311" />
      <stop
         id="stop2317"
         offset="0"
         style="stop-color:#ffffff;stop-opacity:0.49803922;" />
      <stop
         style="stop-color:#5a5a5a;stop-opacity:1;"
         offset="1"
         id="stop2313" />
    </linearGradient>
    <linearGradient
       inkscape:collect="always"
       xlink:href="#linearGradient2309"
       id="linearGradient5213"
       gradientUnits="userSpaceOnUse"
       x1="-298.74697"
       y1="637.77783"
       x2="226.68739"
       y2="637.77783" />
    <linearGradient
       inkscape:collect="always"
       id="linearGradient2288">
      <stop
         style="stop-color:#ffffff;stop-opacity:1;"
         offset="0"
         id="stop2290" />
      <stop
         style="stop-color:#ffffff;stop-opacity:0;"
         offset="1"
         id="stop2292" />
    </linearGradient>
    <linearGradient
       inkscape:collect="always"
       xlink:href="#linearGradient2288"
       id="linearGradient5211"
       gradientUnits="userSpaceOnUse"
       gradientTransform="matrix(1,0,0,0.988107,0,6.42163)"
       x1="-100.4704"
       y1="339.90213"
       x2="-193.82495"
       y2="504.09259" />
    <linearGradient
       inkscape:collect="always"
       id="linearGradient2263">
      <stop
         style="stop-color:#a5a5a5;stop-opacity:1;"
         offset="0"
         id="stop2265" />
      <stop
         style="stop-color:#7e7e7e;stop-opacity:1"
         offset="1"
         id="stop2267" />
    </linearGradient>
    <linearGradient
       inkscape:collect="always"
       xlink:href="#linearGradient2263"
       id="linearGradient5209"
       gradientUnits="userSpaceOnUse"
       x1="-43.680008"
       y1="415.36194"
       x2="-254.80009"
       y2="883.10211" />
    <linearGradient
       id="linearGradient3024">
      <stop
         style="stop-color:#18191a;stop-opacity:1;"
         offset="0"
         id="stop3026" />
      <stop
         style="stop-color:#000000;stop-opacity:1;"
         offset="1"
         id="stop3028" />
    </linearGradient>
    <linearGradient
       inkscape:collect="always"
       xlink:href="#linearGradient3024"
       id="linearGradient5207"
       gradientUnits="userSpaceOnUse"
       x1="954.03619"
       y1="1496.6534"
       x2="1287.2546"
       y2="1141.6172" />
    <linearGradient
       id="linearGradient2920">
      <stop
         style="stop-color:#000000;stop-opacity:0;"
         offset="0"
         id="stop2922" />
      <stop
         id="stop2940"
         offset="0.11653384"
         style="stop-color:#000000;stop-opacity:0;" />
      <stop
         id="stop2938"
         offset="0.20999166"
         style="stop-color:#000000;stop-opacity:1;" />
      <stop
         id="stop2928"
         offset="0.8901099"
         style="stop-color:#000000;stop-opacity:1;" />
      <stop
         style="stop-color:#000000;stop-opacity:0;"
         offset="1"
         id="stop2924" />
    </linearGradient>
    <radialGradient
       inkscape:collect="always"
       xlink:href="#linearGradient2920"
       id="radialGradient5205"
       gradientUnits="userSpaceOnUse"
       cx="1196.2264"
       cy="1310.2755"
       fx="1196.2264"
       fy="1310.2755"
       r="277.56384" />
    <linearGradient
       inkscape:collect="always"
       id="linearGradient3169">
      <stop
         style="stop-color:#ffffff;stop-opacity:1;"
         offset="0"
         id="stop3171" />
      <stop
         style="stop-color:#ffffff;stop-opacity:0;"
         offset="1"
         id="stop3173" />
    </linearGradient>
    <linearGradient
       inkscape:collect="always"
       xlink:href="#linearGradient3169"
       id="linearGradient3175"
       x1="24"
       y1="0.64933401"
       x2="24"
       y2="13.970832"
       gradientUnits="userSpaceOnUse"
       gradientTransform="matrix(5.3980515,0,0,8.5469147,-1.8151773,-12.679516)" />
    <linearGradient
       inkscape:collect="always"
       xlink:href="#linearGradient3169"
       id="linearGradient3179"
       gradientUnits="userSpaceOnUse"
       gradientTransform="matrix(5.3980515,0,0,8.6792199,-1.8151773,-269.3811)"
       x1="23.228916"
       y1="-12.322069"
       x2="23.13253"
       y2="8.9198704" />
  </defs>
  <g
     id="g2779">
    <rect
       ry="32.227104"
       rx="30.255495"
       y="13.682052"
       x="15.874823"
       height="168.05501"
       width="223.72647"
       id="rect3167"
       style="opacity:0.89655175;fill:url(#linearGradient3175);fill-opacity:1;stroke:none;stroke-width:6.63600016;stroke-miterlimit:4;stroke-dasharray:none;stroke-opacity:1" />
    <rect
       transform="scale(1,-1)"
       style="opacity:0.89655175;fill:url(#linearGradient3179);fill-opacity:1;stroke:none;stroke-width:6.63600016;stroke-miterlimit:4;stroke-dasharray:none;stroke-opacity:1"
       id="rect3177"
       width="223.72647"
       height="170.65648"
       x="15.874823"
       y="-242.61147"
       rx="33.726696"
       ry="32.725975" />
    <path
       style="fill:#ffffff;fill-opacity:0.75688076;fill-rule:nonzero;stroke:none;stroke-width:0.5;stroke-linecap:round;stroke-linejoin:round;stroke-miterlimit:4;stroke-dasharray:none;stroke-dashoffset:4;stroke-opacity:1"
       d="M 106.11175,33.029662 L 106.11175,28.523223 L 106.11175,33.029662 z"
       id="path2276"
       sodipodi:nodetypes="ccc" />
    <path
       transform="matrix(0.6914147,0,0,0.6914147,-7.8760419,9.9323477)"
       d="M 213.40242,162.81685 A 14.927113,13.821401 0 1 1 183.5482,162.81685 A 14.927113,13.821401 0 1 1 213.40242,162.81685 z"
       sodipodi:ry="13.821401"
       sodipodi:rx="14.927113"
       sodipodi:cy="162.81685"
       sodipodi:cx="198.47531"
       id="path2540"
       style="opacity:0.70901639;fill:#000000;fill-opacity:1;fill-rule:nonzero;stroke:none;stroke-width:3.5;stroke-linecap:round;stroke-linejoin:round;stroke-miterlimit:4;stroke-dasharray:none;stroke-dashoffset:4;stroke-opacity:1"
       sodipodi:type="arc" />
    <g
       transform="matrix(0.3113524,0,0,0.3113524,-227.72058,-274.01131)"
       id="g2942">
      <path
         sodipodi:type="arc"
         style="opacity:1;fill:url(#radialGradient5205);fill-opacity:1;fill-rule:nonzero;stroke:none;stroke-width:4.21875;stroke-linecap:round;stroke-linejoin:round;stroke-miterlimit:4;stroke-dasharray:none;stroke-dashoffset:4;stroke-opacity:1"
         id="path2918"
         sodipodi:cx="1196.2264"
         sodipodi:cy="1310.2755"
         sodipodi:rx="277.56384"
         sodipodi:ry="277.56384"
         d="M 1473.7903,1310.2755 A 277.56384,277.56384 0 1 1 918.6626,1310.2755 A 277.56384,277.56384 0 1 1 1473.7903,1310.2755 z"
         transform="matrix(1.123894,0,0,1.123894,-207.1567,-191.8109)" />
      <g
         id="g2603"
         transform="translate(1311.673,633.7298)">
        <path
           sodipodi:nodetypes="cssssccssssc"
           id="path1365"
           transform="translate(-1311.673,-633.7298)"
           d="M 1145.0312,998.03125 C 988.00044,1000.0225 861.15625,1128.0933 861.15625,1285.5938 C 861.15625,1444.3344 992.22942,1559.8361 1150.97,1559.8361 C 1309.7106,1559.8361 1420.7724,1453.2143 1420.7724,1294.4738 C 1420.7724,1135.7331 1307.4907,998.03125 1148.75,998.03125 C 1147.5098,998.03125 1146.2677,998.01557 1145.0312,998.03125 z M 1142.75,1248.7188 C 1142.9796,1248.7118 1143.2378,1248.7188 1143.4688,1248.7188 C 1158.2494,1248.7188 1170.2188,1262.951 1170.2188,1280.4688 C 1170.2187,1297.9865 1158.2494,1312.1875 1143.4688,1312.1875 C 1128.6881,1312.1875 1116.6875,1297.9865 1116.6875,1280.4688 C 1116.6875,1263.2247 1128.2882,1249.1535 1142.75,1248.7188 z"
           style="opacity:1;fill:url(#linearGradient5207);fill-opacity:1;fill-rule:nonzero;stroke:none;stroke-width:0.71249998;stroke-linecap:square;stroke-linejoin:miter;stroke-miterlimit:4;stroke-dasharray:none;stroke-dashoffset:4;stroke-opacity:1" />
        <path
           id="path2257"
           d="M -172.71875,362.3125 C -330.60504,363.31357 -458.43751,491.75445 -458.4375,649.875 C -458.4375,808.61562 -329.61562,937.43753 -170.875,937.4375 C -12.134381,937.4375 116.71875,808.61561 116.71875,649.875 C 116.71875,491.13438 -12.134384,362.31252 -170.875,362.3125 C -171.49508,362.3125 -172.09959,362.30857 -172.71875,362.3125 z M -173.65625,388.75 C -173.28639,388.74514 -172.90139,388.75327 -172.53125,388.75 C -171.90206,388.74443 -171.25494,388.75099 -170.625,388.75 C -137.86441,388.69863 -104.1378,394.83651 -75.03125,407.03125 C -60.3424,413.18542 -46.61332,427.91366 -60.125,445.65625 L -146.96875,559.6875 C -159.12015,575.64388 -178.85596,573.71446 -189.9375,557.03125 L -269.75,436.875 C -278.40111,423.85081 -268.50627,411.53386 -259.25,407.03125 C -234.98501,395.22779 -204.84756,389.15997 -173.65625,388.75 z M -313.03125,437.3125 C -312.91947,437.30761 -312.79912,437.31584 -312.6875,437.3125 C -312.57411,437.30911 -312.45697,437.31427 -312.34375,437.3125 C -304.38506,437.18812 -296.88165,441.07521 -292.375,451.84375 L -237.03125,584.09375 C -229.28832,602.59536 -240.82366,618.74474 -260.8125,620 L -404.78125,629.03125 C -420.38608,630.01124 -426.07251,615.2675 -425.34375,605 C -421.36959,549.00752 -383.0891,483.39179 -333.25,445.46875 C -327.39727,441.01536 -320.07312,437.62075 -313.03125,437.3125 z M -20.375,447.34375 C -20.279504,447.3392 -20.189312,447.34701 -20.09375,447.34375 C -19.946967,447.33875 -19.803139,447.34575 -19.65625,447.34375 C -14.21244,447.26965 -8.7139803,449.25773 -4.75,451.9375 C 41.75383,483.37546 79.42101,549.31406 87.34375,611.4375 C 89.35851,627.2355 83.49637,646.48641 61.375,643.65625 L -80.78125,625.46875 C -100.67556,622.92352 -108.90731,604.87602 -100,586.9375 L -35.84375,457.71875 C -32.266422,450.51434 -26.391271,447.63055 -20.375,447.34375 z M -171.375,636.21875 C -171.20002,636.21209 -171.02035,636.21875 -170.84375,636.21875 C -163.30895,636.21875 -157.21875,642.3402 -157.21875,649.875 C -157.21875,657.40978 -163.30895,663.53125 -170.84375,663.53125 C -178.37855,663.53127 -184.5,657.4098 -184.5,649.875 C -184.5,642.51678 -178.6657,636.49616 -171.375,636.21875 z M -408.65625,655.8125 C -408.58731,655.80931 -408.50684,655.81518 -408.4375,655.8125 C -408.29772,655.80709 -408.14139,655.81584 -408,655.8125 C -406.46625,655.77632 -404.82199,655.87267 -403.09375,656.09375 L -260.9375,674.28125 C -241.04318,676.82648 -232.81143,694.87405 -241.71875,712.8125 L -305.875,842.03125 C -312.82872,856.03543 -328.44123,853.60866 -336.96875,847.84375 C -383.47258,816.40579 -421.13974,750.43598 -429.0625,688.3125 C -430.89815,673.91895 -426.237,656.62656 -408.65625,655.8125 z M 63.25,670.6875 C 63.305781,670.68126 63.346583,670.68997 63.40625,670.6875 C 63.525584,670.68256 63.66175,670.69136 63.78125,670.6875 C 78.83807,670.20155 84.34239,684.64296 83.625,694.75 C 79.65084,750.74248 41.37038,816.3582 -8.46875,854.28125 C -21.14284,863.92508 -40.73404,868.47902 -49.34375,847.90625 L -104.6875,715.6875 C -112.43043,697.18589 -100.89506,681.03655 -80.90625,679.78125 L 63.0625,670.71875 C 63.123458,670.71492 63.194219,670.69374 63.25,670.6875 z M -175.59375,729.09375 C -175.48348,729.08852 -175.36032,729.09734 -175.25,729.09375 C -175.13793,729.0901 -175.01835,729.09571 -174.90625,729.09375 C -166.38259,728.94491 -157.79817,733.6603 -151.78125,742.71875 L -71.96875,862.875 C -63.31764,875.89919 -73.21246,888.21615 -82.46875,892.71875 C -132.94673,917.27327 -208.92565,916.91917 -266.6875,892.71875 C -281.37635,886.56458 -295.10541,871.8676 -281.59375,854.125 L -194.75,740.09375 C -189.36862,733.02731 -182.5407,729.42337 -175.59375,729.09375 z"
           style="opacity:1;fill:url(#linearGradient5209);fill-opacity:1;fill-rule:nonzero;stroke:#ffffff;stroke-width:1.01199996;stroke-linecap:square;stroke-linejoin:miter;stroke-miterlimit:4;stroke-dasharray:none;stroke-dashoffset:4;stroke-opacity:1" />
        <path
           style="opacity:1;fill:url(#linearGradient5211);fill-opacity:1;fill-rule:nonzero;stroke:none;stroke-width:0.71249998;stroke-linecap:square;stroke-linejoin:miter;stroke-miterlimit:4;stroke-dasharray:none;stroke-dashoffset:4;stroke-opacity:1"
           d="M -174.68456,368.57439 C -286.20122,370.02323 -381.65256,440.1119 -422.68456,539.44814 C -377.42819,443.84158 -281.76659,377.89127 -171.15331,377.89127 C -60.357677,377.89127 35.432287,444.06646 80.596694,539.92839 C 39.244005,439.29181 -57.946061,368.57438 -171.15331,368.57439 C -172.33068,368.57439 -173.5107,368.55913 -174.68456,368.57439 z"
           id="path2278" />
        <path
           sodipodi:nodetypes="ccscsc"
           id="path2271"
           d="M -174.68456,372.67839 C -286.20122,374.09253 -381.65256,442.50255 -422.68456,539.45964 C -377.42819,446.14291 -281.76659,378.33446 -171.15331,378.33446 C -60.357677,378.33446 35.432287,446.36239 80.596694,539.92839 C 39.244005,441.7021 -57.946061,372.67838 -171.15331,372.67839 C -172.33068,372.67839 -173.5107,372.6635 -174.68456,372.67839 z"
           style="opacity:1;fill:#676868;fill-opacity:1;fill-rule:nonzero;stroke:none;stroke-width:0.71249998;stroke-linecap:square;stroke-linejoin:miter;stroke-miterlimit:4;stroke-dasharray:none;stroke-dashoffset:4;stroke-opacity:1" />
        <path
           style="opacity:0.62704923;fill:#ffffff;fill-opacity:1;fill-rule:nonzero;stroke:none;stroke-width:0.71249998;stroke-linecap:square;stroke-linejoin:miter;stroke-miterlimit:4;stroke-dasharray:none;stroke-dashoffset:4;stroke-opacity:1"
           d="M -240.64333,919.65786 C -132.5605,947.15454 -22.655768,905.78016 42.072442,822.74666 C -25.794002,901.17049 -134.85639,938.58884 -241.70062,909.96001 C -348.72098,881.284 -424.52979,794.10234 -443.93859,692.03511 C -429.4178,797.61729 -353.40406,889.44372 -244.05425,918.7439 C -242.917,919.04863 -241.78104,919.36842 -240.64333,919.65786 z"
           id="path5180" />
        <path
           transform="matrix(1.16593,0,0,1.174663,-98.93666,-99.0207)"
           d="M 173.25912,637.77783 A 235.82492,235.82492 0 1 1 -298.39072,637.77783 A 235.82492,235.82492 0 1 1 173.25912,637.77783 z"
           sodipodi:ry="235.82492"
           sodipodi:rx="235.82492"
           sodipodi:cy="637.77783"
           sodipodi:cx="-62.565796"
           id="path2296"
           style="opacity:1;fill:none;fill-opacity:1;fill-rule:nonzero;stroke:url(#linearGradient5213);stroke-width:1.73803318;stroke-linecap:square;stroke-linejoin:miter;stroke-miterlimit:4;stroke-dasharray:none;stroke-dashoffset:4;stroke-opacity:1"
           sodipodi:type="arc" />
        <g
           transform="matrix(0.999506,3.142295e-2,-3.142295e-2,0.999506,27.93351,10.17736)"
           id="g2339">
          <path
             style="opacity:1;fill:url(#linearGradient5215);fill-opacity:1;fill-rule:evenodd;stroke:none;stroke-width:7.69999981;stroke-linecap:round;stroke-linejoin:round;stroke-miterlimit:4;stroke-dasharray:none;stroke-opacity:1"
             d="M -208.66536,703.77929 C -210.07819,703.71991 -211.40989,704.43975 -212.13411,705.65429 L -292.03666,840.97192 C -293.94045,844.26939 -298.57526,846.65845 -300.91057,842.01914 C -301.42349,850.7532 -290.67867,854.30664 -287.19465,848.27214 L -284.98458,844.51911 L -205.60286,709.71679 C -204.85357,708.55815 -204.78155,707.08715 -205.41406,705.86085 C -206.04657,704.63456 -207.28691,703.84046 -208.66536,703.77929 z"
             id="path2319"
             sodipodi:nodetypes="cccccccsc" />
          <path
             sodipodi:nodetypes="cccssccc"
             id="path2333"
             d="M -205.59138,705.51599 C -206.27888,704.19655 -211.06002,703.72323 -212.01489,705.456 L -293.80829,844.05884 C -294.45209,845.32496 -295.74066,846.13381 -297.16075,846.16322 C -298.58085,846.19262 -299.9018,845.4378 -300.59745,844.19942 C -301.2931,842.96102 -301.25047,841.44023 -300.48651,840.24276 L -218.28993,701.66873 C -217.00163,699.43732 -207.68261,698.25562 -205.59138,705.51599 z"
             style="opacity:1;fill:url(#linearGradient5217);fill-opacity:1;fill-rule:evenodd;stroke:none;stroke-width:7.69999981;stroke-linecap:round;stroke-linejoin:round;stroke-miterlimit:4;stroke-dasharray:none;stroke-opacity:1" />
          <path
             style="opacity:1;fill:url(#linearGradient5219);fill-opacity:1;fill-rule:evenodd;stroke:none;stroke-width:7.69999981;stroke-linecap:round;stroke-linejoin:round;stroke-miterlimit:4;stroke-dasharray:none;stroke-opacity:1"
             d="M -205.59138,705.51599 C -206.27888,704.19655 -211.06002,703.72323 -212.01489,705.456 L -293.80829,844.05884 C -294.45209,845.32496 -295.74066,846.13381 -297.16075,846.16322 C -298.58085,846.19262 -299.9018,845.4378 -300.59745,844.19942 C -301.2931,842.96102 -301.25047,841.44023 -300.48651,840.24276 L -218.28993,701.66873 C -217.00163,699.43732 -207.68261,698.25562 -205.59138,705.51599 z"
             id="path2337"
             sodipodi:nodetypes="cccssccc" />
        </g>
        <g
           id="g2350"
           transform="matrix(0.486796,0.873516,-0.873516,0.486796,472.0955,486.36)">
          <path
             sodipodi:nodetypes="cccccccsc"
             id="path2352"
             d="M -208.66536,703.77929 C -210.07819,703.71991 -211.40989,704.43975 -212.13411,705.65429 L -292.03666,840.97192 C -293.94045,844.26939 -298.57526,846.65845 -300.91057,842.01914 C -301.42349,850.7532 -290.67867,854.30664 -287.19465,848.27214 L -284.98458,844.51911 L -205.60286,709.71679 C -204.85357,708.55815 -204.78155,707.08715 -205.41406,705.86085 C -206.04657,704.63456 -207.28691,703.84046 -208.66536,703.77929 z"
             style="opacity:1;fill:url(#linearGradient5221);fill-opacity:1;fill-rule:evenodd;stroke:none;stroke-width:7.69999981;stroke-linecap:round;stroke-linejoin:round;stroke-miterlimit:4;stroke-dasharray:none;stroke-opacity:1" />
          <path
             style="opacity:1;fill:url(#linearGradient5223);fill-opacity:1;fill-rule:evenodd;stroke:none;stroke-width:7.69999981;stroke-linecap:round;stroke-linejoin:round;stroke-miterlimit:4;stroke-dasharray:none;stroke-opacity:1"
             d="M -205.59138,705.51599 C -206.27888,704.19655 -211.06002,703.72323 -212.01489,705.456 L -293.80829,844.05884 C -294.45209,845.32496 -295.74066,846.13381 -297.16075,846.16322 C -298.58085,846.19262 -299.9018,845.4378 -300.59745,844.19942 C -301.2931,842.96102 -301.25047,841.44023 -300.48651,840.24276 L -218.28993,701.66873 C -217.00163,699.43732 -207.68261,698.25562 -205.59138,705.51599 z"
             id="path2354"
             sodipodi:nodetypes="cccssccc" />
          <path
             sodipodi:nodetypes="cccssccc"
             id="path2356"
             d="M -205.59138,705.51599 C -206.27888,704.19655 -211.06002,703.72323 -212.01489,705.456 L -293.80829,844.05884 C -294.45209,845.32496 -295.74066,846.13381 -297.16075,846.16322 C -298.58085,846.19262 -299.9018,845.4378 -300.59745,844.19942 C -301.2931,842.96102 -301.25047,841.44023 -300.48651,840.24276 L -218.28993,701.66873 C -217.00163,699.43732 -207.68261,698.25562 -205.59138,705.51599 z"
             style="opacity:1;fill:url(#linearGradient5225);fill-opacity:1;fill-rule:evenodd;stroke:none;stroke-width:7.69999981;stroke-linecap:round;stroke-linejoin:round;stroke-miterlimit:4;stroke-dasharray:none;stroke-opacity:1" />
        </g>
        <g
           transform="matrix(0.486796,0.873516,-0.873516,0.486796,790.9578,497.4188)"
           id="g2364">
          <path
             style="opacity:1;fill:url(#linearGradient5227);fill-opacity:1;fill-rule:evenodd;stroke:none;stroke-width:7.69999981;stroke-linecap:round;stroke-linejoin:round;stroke-miterlimit:4;stroke-dasharray:none;stroke-opacity:1"
             d="M -208.66536,703.77929 C -210.07819,703.71991 -211.40989,704.43975 -212.13411,705.65429 L -292.03666,840.97192 C -293.94045,844.26939 -298.57526,846.65845 -300.91057,842.01914 C -301.42349,850.7532 -290.67867,854.30664 -287.19465,848.27214 L -284.98458,844.51911 L -205.60286,709.71679 C -204.85357,708.55815 -204.78155,707.08715 -205.41406,705.86085 C -206.04657,704.63456 -207.28691,703.84046 -208.66536,703.77929 z"
             id="path2366"
             sodipodi:nodetypes="cccccccsc" />
          <path
             sodipodi:nodetypes="cccssccc"
             id="path2368"
             d="M -205.59138,705.51599 C -206.27888,704.19655 -211.06002,703.72323 -212.01489,705.456 L -293.80829,844.05884 C -294.45209,845.32496 -295.74066,846.13381 -297.16075,846.16322 C -298.58085,846.19262 -299.9018,845.4378 -300.59745,844.19942 C -301.2931,842.96102 -301.25047,841.44023 -300.48651,840.24276 L -218.28993,701.66873 C -217.00163,699.43732 -207.68261,698.25562 -205.59138,705.51599 z"
             style="opacity:1;fill:url(#linearGradient5229);fill-opacity:1;fill-rule:evenodd;stroke:none;stroke-width:7.69999981;stroke-linecap:round;stroke-linejoin:round;stroke-miterlimit:4;stroke-dasharray:none;stroke-opacity:1" />
          <path
             style="opacity:1;fill:url(#linearGradient5231);fill-opacity:1;fill-rule:evenodd;stroke:none;stroke-width:7.69999981;stroke-linecap:round;stroke-linejoin:round;stroke-miterlimit:4;stroke-dasharray:none;stroke-opacity:1"
             d="M -205.59138,705.51599 C -206.27888,704.19655 -211.06002,703.72323 -212.01489,705.456 L -293.80829,844.05884 C -294.45209,845.32496 -295.74066,846.13381 -297.16075,846.16322 C -298.58085,846.19262 -299.9018,845.4378 -300.59745,844.19942 C -301.2931,842.96102 -301.25047,841.44023 -300.48651,840.24276 L -218.28993,701.66873 C -217.00163,699.43732 -207.68261,698.25562 -205.59138,705.51599 z"
             id="path2370"
             sodipodi:nodetypes="cccssccc" />
        </g>
        <g
           id="g2378"
           transform="matrix(0.999506,3.142295e-2,-3.142295e-2,0.999506,190.1293,-255.2339)">
          <path
             sodipodi:nodetypes="cccccccsc"
             id="path2380"
             d="M -208.66536,703.77929 C -210.07819,703.71991 -211.40989,704.43975 -212.13411,705.65429 L -292.03666,840.97192 C -293.94045,844.26939 -298.57526,846.65845 -300.91057,842.01914 C -301.42349,850.7532 -290.67867,854.30664 -287.19465,848.27214 L -284.98458,844.51911 L -205.60286,709.71679 C -204.85357,708.55815 -204.78155,707.08715 -205.41406,705.86085 C -206.04657,704.63456 -207.28691,703.84046 -208.66536,703.77929 z"
             style="opacity:1;fill:url(#linearGradient5233);fill-opacity:1;fill-rule:evenodd;stroke:none;stroke-width:7.69999981;stroke-linecap:round;stroke-linejoin:round;stroke-miterlimit:4;stroke-dasharray:none;stroke-opacity:1" />
          <path
             style="opacity:1;fill:url(#linearGradient5235);fill-opacity:1;fill-rule:evenodd;stroke:none;stroke-width:7.69999981;stroke-linecap:round;stroke-linejoin:round;stroke-miterlimit:4;stroke-dasharray:none;stroke-opacity:1"
             d="M -205.59138,705.51599 C -206.27888,704.19655 -211.06002,703.72323 -212.01489,705.456 L -293.80829,844.05884 C -294.45209,845.32496 -295.74066,846.13381 -297.16075,846.16322 C -298.58085,846.19262 -299.9018,845.4378 -300.59745,844.19942 C -301.2931,842.96102 -301.25047,841.44023 -300.48651,840.24276 L -218.28993,701.66873 C -217.00163,699.43732 -207.68261,698.25562 -205.59138,705.51599 z"
             id="path2382"
             sodipodi:nodetypes="cccssccc" />
          <path
             sodipodi:nodetypes="cccssccc"
             id="path2384"
             d="M -205.59138,705.51599 C -206.27888,704.19655 -211.06002,703.72323 -212.01489,705.456 L -293.80829,844.05884 C -294.45209,845.32496 -295.74066,846.13381 -297.16075,846.16322 C -298.58085,846.19262 -299.9018,845.4378 -300.59745,844.19942 C -301.2931,842.96102 -301.25047,841.44023 -300.48651,840.24276 L -218.28993,701.66873 C -217.00163,699.43732 -207.68261,698.25562 -205.59138,705.51599 z"
             style="opacity:1;fill:url(#linearGradient5237);fill-opacity:1;fill-rule:evenodd;stroke:none;stroke-width:7.69999981;stroke-linecap:round;stroke-linejoin:round;stroke-miterlimit:4;stroke-dasharray:none;stroke-opacity:1" />
        </g>
        <path
           sodipodi:nodetypes="cccccccsc"
           id="path2394"
           d="M -289.50587,433.29216 C -288.09186,433.27828 -286.78402,434.04061 -286.09926,435.27783 L -210.59313,573.09693 C -208.79645,576.45396 -204.24093,578.99095 -201.75752,574.4292 C -201.52596,583.17524 -212.37958,586.38103 -215.66758,580.23753 L -217.75572,576.41532 L -292.75788,439.12802 C -293.46949,437.94587 -293.49413,436.47331 -292.82248,435.268 C -292.15083,434.06271 -290.88558,433.30894 -289.50587,433.29216 z"
           style="opacity:1;fill:url(#linearGradient5239);fill-opacity:1;fill-rule:evenodd;stroke:none;stroke-width:7.69999981;stroke-linecap:round;stroke-linejoin:round;stroke-miterlimit:4;stroke-dasharray:none;stroke-opacity:1" />
        <path
           style="opacity:1;fill:url(#linearGradient5241);fill-opacity:1;fill-rule:evenodd;stroke:none;stroke-width:7.69999981;stroke-linecap:round;stroke-linejoin:round;stroke-miterlimit:4;stroke-dasharray:none;stroke-opacity:1"
           d="M -292.63415,434.92903 C -291.90454,433.6324 -287.11065,433.3132 -286.21204,435.0758 L -208.92176,576.23926 C -208.31905,577.52545 -207.05718,578.37535 -205.63877,578.45045 C -204.22035,578.52554 -202.87579,577.81362 -202.14065,576.59827 C -201.4055,575.3829 -201.39916,573.86153 -202.12419,572.64009 L -279.81836,431.49245 C -281.03418,429.22073 -290.31034,427.73972 -292.63415,434.92903 z"
           id="path2396"
           sodipodi:nodetypes="cccssccc" />
        <path
           style="opacity:1;fill:url(#linearGradient5243);fill-opacity:1;fill-rule:evenodd;stroke:none;stroke-width:7.69999981;stroke-linecap:round;stroke-linejoin:round;stroke-miterlimit:4;stroke-dasharray:none;stroke-opacity:1"
           d="M -140.21207,717.13473 C -138.79806,717.12085 -137.49022,717.88317 -136.80546,719.12039 L -61.299328,856.93949 C -59.502649,860.29652 -54.947129,862.83351 -52.463718,858.27176 C -52.232159,867.01781 -63.085776,870.2236 -66.373778,864.0801 L -68.461917,860.25788 L -143.46408,722.97059 C -144.17569,721.78843 -144.20033,720.31588 -143.52868,719.11057 C -142.85703,717.90527 -141.59178,717.1515 -140.21207,717.13473 z"
           id="path2408"
           sodipodi:nodetypes="cccccccsc" />
        <path
           sodipodi:nodetypes="cccssccc"
           id="path2410"
           d="M -143.34035,718.7716 C -142.61074,717.47496 -137.81685,717.15577 -136.91824,718.91837 L -59.627965,860.08183 C -59.025246,861.36801 -57.763376,862.21792 -56.344968,862.29301 C -54.92655,862.3681 -53.581991,861.65619 -52.846846,860.44084 C -52.1117,859.22547 -52.105363,857.70409 -52.830388,856.48266 L -130.52456,715.33501 C -131.74038,713.0633 -141.01654,711.58229 -143.34035,718.7716 z"
           style="opacity:1;fill:url(#linearGradient5245);fill-opacity:1;fill-rule:evenodd;stroke:none;stroke-width:7.69999981;stroke-linecap:round;stroke-linejoin:round;stroke-miterlimit:4;stroke-dasharray:none;stroke-opacity:1" />
        <path
           sodipodi:nodetypes="cccccccsc"
           id="path2450"
           d="M -140.21207,717.13473 C -138.79806,717.12085 -137.49022,717.88317 -136.80546,719.12039 L -61.299328,856.93949 C -59.502649,860.29652 -54.947129,862.83351 -52.463718,858.27176 C -52.232159,867.01781 -63.085776,870.2236 -66.373778,864.0801 L -68.461917,860.25788 L -143.46408,722.97059 C -144.17569,721.78843 -144.20033,720.31588 -143.52868,719.11057 C -142.85703,717.90527 -141.59178,717.1515 -140.21207,717.13473 z"
           style="opacity:1;fill:url(#linearGradient5247);fill-opacity:1;fill-rule:evenodd;stroke:none;stroke-width:7.69999981;stroke-linecap:round;stroke-linejoin:round;stroke-miterlimit:4;stroke-dasharray:none;stroke-opacity:1" />
        <path
           style="opacity:1;fill:url(#linearGradient5249);fill-opacity:1;fill-rule:evenodd;stroke:none;stroke-width:7.69999981;stroke-linecap:round;stroke-linejoin:round;stroke-miterlimit:4;stroke-dasharray:none;stroke-opacity:1"
           d="M -289.50587,433.29216 C -288.09186,433.27828 -286.78402,434.04061 -286.09926,435.27783 L -210.59313,573.09693 C -208.79645,576.45396 -204.24093,578.99095 -201.75752,574.4292 C -201.52596,583.17524 -212.37958,586.38103 -215.66758,580.23753 L -217.75572,576.41532 L -292.75788,439.12802 C -293.46949,437.94587 -293.49413,436.47331 -292.82248,435.268 C -292.15083,434.06271 -290.88558,433.30894 -289.50587,433.29216 z"
           id="path2452"
           sodipodi:nodetypes="cccccccsc" />
      </g>
    </g>
  </g>
</svg>
