<?xml version="1.0" encoding="UTF-8" standalone="no"?>
<!-- Created with Inkscape (http://www.inkscape.org/) -->
<svg
   xmlns:dc="http://purl.org/dc/elements/1.1/"
   xmlns:cc="http://creativecommons.org/ns#"
   xmlns:rdf="http://www.w3.org/1999/02/22-rdf-syntax-ns#"
   xmlns:svg="http://www.w3.org/2000/svg"
   xmlns="http://www.w3.org/2000/svg"
   xmlns:sodipodi="http://sodipodi.sourceforge.net/DTD/sodipodi-0.dtd"
   xmlns:inkscape="http://www.inkscape.org/namespaces/inkscape"
   width="256"
   height="256"
   id="svg2"
   sodipodi:version="0.32"
   inkscape:version="0.46"
   version="1.0"
   sodipodi:docname="8.svg"
   inkscape:output_extension="org.inkscape.output.svg.inkscape">
  <defs
     id="defs4">
    <inkscape:perspective
       sodipodi:type="inkscape:persp3d"
       inkscape:vp_x="0 : 526.18109 : 1"
       inkscape:vp_y="0 : 1000 : 0"
       inkscape:vp_z="744.09448 : 526.18109 : 1"
       inkscape:persp3d-origin="372.04724 : 350.78739 : 1"
       id="perspective10" />
  </defs>
  <sodipodi:namedview
     id="base"
     pagecolor="#ffffff"
     bordercolor="#666666"
     borderopacity="1.0"
     gridtolerance="10000"
     guidetolerance="10"
     objecttolerance="10"
     inkscape:pageopacity="0.0"
     inkscape:pageshadow="2"
     inkscape:zoom="1.8203125"
     inkscape:cx="106.35001"
     inkscape:cy="128"
     inkscape:document-units="px"
     inkscape:current-layer="layer1"
     showgrid="false"
     inkscape:window-width="923"
     inkscape:window-height="681"
     inkscape:window-x="242"
     inkscape:window-y="96" />
  <metadata
     id="metadata7">
    <rdf:RDF>
      <cc:Work
         rdf:about="">
        <dc:format>image/svg+xml</dc:format>
        <dc:type
           rdf:resource="http://purl.org/dc/dcmitype/StillImage" />
      </cc:Work>
    </rdf:RDF>
  </metadata>
  <g
     inkscape:label="Layer 1"
     inkscape:groupmode="layer"
     id="layer1">
    <rect
       style="opacity:1;fill:#ffffff;fill-opacity:1;stroke:#ffffff;stroke-width:3;stroke-miterlimit:4;stroke-dasharray:none;stroke-opacity:1"
       id="rect3189"
       width="6.5922747"
       height="26.369099"
       x="-50.957355"
       y="148.67801"
       transform="matrix(0.8916997,-0.4526275,0.4526275,0.8916997,0,0)" />
    <rect
       style="opacity:1;fill:#ffffff;fill-opacity:1;stroke:#ffffff;stroke-width:3;stroke-miterlimit:4;stroke-dasharray:none;stroke-opacity:1"
       id="rect3191"
       width="6.5922747"
       height="26.369099"
       x="4.0485344"
       y="153.18811"
       transform="matrix(0.8916997,-0.4526275,0.4526275,0.8916997,0,0)" />
    <rect
       style="opacity:1;fill:#ffffff;fill-opacity:1;stroke:#ffffff;stroke-width:3;stroke-miterlimit:4;stroke-dasharray:none;stroke-opacity:1"
       id="rect3193"
       width="6.5922747"
       height="26.369099"
       x="12.575607"
       y="205.57051"
       transform="matrix(0.8916997,-0.4526275,0.4526275,0.8916997,0,0)" />
    <path
       style="fill:#000000;fill-opacity:1;stroke:#ffffff;stroke-width:3;stroke-miterlimit:4;stroke-opacity:1;stroke-dasharray:none"
       d="M 118.25 19.09375 C 109.65307 19.296085 101.40271 22.347306 93.822991 26.218059 C 88.147466 29.281077 83.545847 34.030351 79.95594 39.336038 C 74.782195 46.59561 70.684992 54.563293 65.447573 61.77898 C 63.505202 64.363321 60.945892 66.561268 57.858095 67.629331 C 51.844452 70.213124 45.530859 72.019974 39.540336 74.663439 C 33.389223 77.340956 27.33831 80.739728 22.949835 85.928308 C 18.495813 91.04138 15.44055 97.578512 15.28125 104.42811 C 15.325489 109.45138 17.523127 114.70724 21.844256 117.5003 C 25.226892 119.67739 29.383476 119.98105 33.298419 119.8109 C 62.15366 119.71174 91.008723 119.95061 119.86401 119.9375 C 150.64893 119.93895 181.43835 119.85413 212.21434 119.04653 C 219.52182 118.78442 226.83878 118.59612 234.12825 118.0028 C 237.01413 117.72184 239.93307 117.42044 242.72601 116.637 C 245.52219 115.36363 246.66669 112.18397 247.13038 109.35215 C 248.54533 102.27664 248.90361 94.741146 246.54269 87.824468 C 244.04698 80.325531 238.34995 74.070658 231.3185 70.538616 C 226.59091 67.929584 221.07279 66.632712 217.00027 62.928858 C 214.55294 60.426601 214.30874 56.737902 213.92724 53.449251 C 213.58326 50.260792 212.74389 47.058569 210.86735 44.410395 C 207.48077 39.236294 201.76379 35.996814 195.87501 34.488786 C 189.69787 32.857058 183.15078 33.455306 177.04619 35.108819 C 173.68212 35.882617 170.29974 36.937123 166.82074 36.870399 C 163.2284 36.304876 160.7151 33.426989 157.8132 31.509728 C 151.84538 27.078491 145.06401 23.819202 137.9709 21.634532 C 131.5843 19.754143 124.90271 18.925875 118.25 19.09375 z "
       id="path3183" />
    <rect
       transform="matrix(0.8916997,-0.4526275,0.4526275,0.8916997,0,0)"
       y="209.17989"
       x="121.63746"
       height="26.369099"
       width="6.5922747"
       id="rect3242"
       style="opacity:1;fill:#ffffff;fill-opacity:1;stroke:#ffffff;stroke-width:3;stroke-miterlimit:4;stroke-dasharray:none;stroke-opacity:1" />
    <rect
       style="opacity:1;fill:#ffffff;fill-opacity:1;stroke:#ffffff;stroke-width:3;stroke-miterlimit:4;stroke-dasharray:none;stroke-opacity:1"
       id="rect3244"
       width="6.5922747"
       height="26.369099"
       x="134.9113"
       y="248.56981"
       transform="matrix(0.8916997,-0.4526275,0.4526275,0.8916997,0,0)" />
    <rect
       transform="matrix(0.8916997,-0.4526275,0.4526275,0.8916997,0,0)"
       y="288.86044"
       x="94.129173"
       height="26.369099"
       width="6.5922747"
       id="rect3246"
       style="opacity:1;fill:#ffffff;fill-opacity:1;stroke:#ffffff;stroke-width:3;stroke-miterlimit:4;stroke-dasharray:none;stroke-opacity:1" />
    <rect
       transform="matrix(0.8916997,-0.4526275,0.4526275,0.8916997,0,0)"
       y="257.53006"
       x="32.406712"
       height="26.369099"
       width="6.5922747"
       id="rect3248"
       style="opacity:1;fill:#ffffff;fill-opacity:1;stroke:#ffffff;stroke-width:3;stroke-miterlimit:4;stroke-dasharray:none;stroke-opacity:1" />
    <rect
       style="opacity:1;fill:#ffffff;fill-opacity:1;stroke:#ffffff;stroke-width:3;stroke-miterlimit:4;stroke-dasharray:none;stroke-opacity:1"
       id="rect3250"
       width="6.5922747"
       height="26.369099"
       x="-17.020014"
       y="183.77089"
       transform="matrix(0.8916997,-0.4526275,0.4526275,0.8916997,0,0)" />
    <rect
       transform="matrix(0.8916997,-0.4526275,0.4526275,0.8916997,0,0)"
       y="241.75319"
       x="-16.880148"
       height="26.369099"
       width="6.5922747"
       id="rect3252"
       style="opacity:1;fill:#ffffff;fill-opacity:1;stroke:#ffffff;stroke-width:3;stroke-miterlimit:4;stroke-dasharray:none;stroke-opacity:1" />
    <rect
       style="opacity:1;fill:#ffffff;fill-opacity:1;stroke:#ffffff;stroke-width:3;stroke-miterlimit:4;stroke-dasharray:none;stroke-opacity:1"
       id="rect3254"
       width="6.5922747"
       height="26.369099"
       x="-43.024403"
       y="218.00902"
       transform="matrix(0.8916997,-0.4526275,0.4526275,0.8916997,0,0)" />
    <rect
       transform="matrix(0.8916997,-0.4526275,0.4526275,0.8916997,0,0)"
       y="189.83377"
       x="-70.615898"
       height="26.369099"
       width="6.5922747"
       id="rect3256"
       style="opacity:1;fill:#ffffff;fill-opacity:1;stroke:#ffffff;stroke-width:3;stroke-miterlimit:4;stroke-dasharray:none;stroke-opacity:1" />
    <path
       style="opacity:1;fill:#ffffff;fill-opacity:1;stroke:#fdffff;stroke-width:3;stroke-miterlimit:4;stroke-dasharray:none;stroke-opacity:1"
       id="path3434"
       d="M 118.17572,18.518841 C 121.92332,18.527211 125.67092,18.530624 129.41852,18.534712 C 140.15336,18.48094 150.88441,18.788074 161.61874,18.81667 C 170.95513,18.793804 180.29113,18.694535 189.62685,18.586011 C 191.36682,18.560929 193.10701,18.548248 194.84689,18.516538 C 194.92919,18.560733 195.00406,18.809193 195.109,18.93321 C 195.40091,19.14848 195.25353,19.028121 195.54728,19.298947 L 195.08513,19.584974 C 194.79012,19.316979 194.93877,19.439603 194.64136,19.214465 C 194.52623,19.078439 194.45023,18.84771 194.40521,18.838294 C 192.67815,18.850487 190.95112,18.866029 189.22407,18.879252 C 179.90613,18.955309 170.58821,19.04665 161.26994,19.069947 C 150.52047,19.042412 139.77376,18.743973 129.02378,18.821511 C 125.26161,18.825602 121.49945,18.829025 117.73729,18.837382 L 118.17572,18.518841 z" />
    <path
       style="opacity:1;fill:#ffffff;fill-opacity:1;stroke:#fdffff;stroke-width:3;stroke-miterlimit:4;stroke-dasharray:none;stroke-opacity:1"
       id="path3436"
       d="M 123.73669,25.180336 C 127.55476,25.42086 131.40012,25.249724 135.22595,25.214402 C 142.65266,25.075452 150.07662,25.218699 157.50121,25.384441 C 163.92564,25.532076 170.35136,25.609776 176.77727,25.651779 C 178.66726,25.659805 180.55733,25.671705 182.44735,25.663218 C 182.69002,25.660002 182.9327,25.659972 183.17539,25.659623 C 183.34084,25.659339 183.50628,25.658923 183.67172,25.658435 C 183.63168,25.983735 182.81936,26.260005 182.73954,26.30397 L 183.1631,25.964451 C 182.81066,26.210618 183.10716,25.983756 183.22778,25.981009 C 183.06298,25.980706 182.89818,25.980629 182.73337,25.980895 C 182.49131,25.981454 182.24925,25.983811 182.00718,25.983079 C 180.12717,25.978041 178.2472,25.962821 176.36724,25.949197 C 169.94959,25.892191 163.53209,25.810485 157.1158,25.663146 C 149.6865,25.497326 142.25778,25.356559 134.82647,25.50526 C 130.98643,25.546908 127.12787,25.724176 123.29487,25.491861 L 123.73669,25.180336 z" />
    <path
       style="opacity:1;fill:#ffffff;fill-opacity:1;stroke:#fdffff;stroke-width:3;stroke-miterlimit:4;stroke-dasharray:none;stroke-opacity:1"
       id="path3438"
       d="M 137.4684,33.901179 C 142.43213,33.988798 147.39534,34.011523 152.3606,34.003594 C 164.06025,33.938083 175.75796,33.677398 187.45727,33.547539 C 198.58792,33.480501 209.7143,33.720649 220.83826,34.072261 C 224.85117,34.256472 228.86225,34.509543 232.86204,34.885704 C 233.57231,35.054495 234.3626,34.738759 233.27918,35.32525 L 233.72143,35.003574 C 233.21579,35.504235 233.18215,35.260268 232.42612,35.196028 C 228.44585,34.798776 224.45237,34.539224 220.45736,34.347116 C 209.34605,33.975778 198.23183,33.729984 187.11315,33.79815 C 175.40128,33.931037 163.69129,34.196703 151.97919,34.280843 C 146.99545,34.297519 142.01351,34.280057 137.03097,34.218993 L 137.4684,33.901179 z" />
    <path
       style="opacity:1;fill:#ffffff;fill-opacity:1;stroke:#fdffff;stroke-width:3;stroke-miterlimit:4;stroke-dasharray:none;stroke-opacity:1"
       id="path3440"
       d="M 142.28219,44.33822 C 145.64489,44.484107 149.00724,44.72498 152.36958,44.908394 C 163.09849,45.431037 173.83412,45.712223 184.57507,45.769089 C 198.23321,45.743381 211.89093,45.618943 225.54878,45.533699 C 231.44889,45.45878 237.35321,45.533744 243.24635,45.840555 C 243.74189,45.875748 244.23946,45.894245 244.7334,45.950624 C 244.78964,45.957044 244.95311,45.961661 244.90029,45.982032 C 244.73782,46.044697 244.56906,46.089619 244.40344,46.143412 C 244.37605,46.117572 244.34789,45.879873 244.30234,45.871878 C 244.1106,45.838222 243.30546,46.021276 243.19555,46.032384 L 243.62681,45.71208 C 244.12198,45.657722 244.75191,45.334845 244.88473,45.883556 C 244.73915,46.019846 244.6005,46.163933 244.44799,46.292425 C 244.35238,46.372982 242.88932,46.051017 242.81826,46.148021 C 236.94993,45.811838 231.06854,45.728405 225.19166,45.793467 C 211.53944,45.860204 197.8875,45.980014 184.23516,46.015794 C 173.47431,45.966093 162.7186,45.69488 151.96875,45.196367 C 148.5938,45.0204 145.21856,44.782821 141.84275,44.657488 L 142.28219,44.33822 z" />
    <path
       style="opacity:1;fill:#ffffff;fill-opacity:1;stroke:#fdffff;stroke-width:3;stroke-miterlimit:4;stroke-dasharray:none;stroke-opacity:1"
       id="path3442"
       d="M 179.56532,57.381129 C 179.95519,57.241017 180.32878,57.091033 180.7421,57.021631 C 181.39597,56.911838 182.46363,56.89678 183.07314,56.888099 C 184.29275,56.870729 186.64087,56.887419 187.72818,56.891857 C 199.3446,57.071582 210.957,56.867315 222.56978,56.59197 C 233.74284,56.217607 244.92025,55.78073 256.06939,54.940356 C 257.86764,54.764902 259.67621,54.66778 261.46877,54.432891 C 261.64298,54.410063 262.13768,54.251255 261.98828,54.343719 C 261.44544,54.679676 261.16058,54.586285 260.599,54.550145 C 259.09983,54.573214 257.64291,54.880866 256.34162,55.635776 C 256.34256,55.661933 256.3435,55.688089 256.34445,55.714245 L 255.84415,55.913611 C 256.14942,55.708181 256.4547,55.502752 256.75997,55.297322 C 258.07337,54.558864 259.5329,54.251516 261.03606,54.237019 C 261.24438,54.251323 261.50013,54.146842 261.66104,54.27993 C 261.76421,54.365263 261.66364,54.586911 261.55702,54.667897 C 261.41936,54.772452 261.21627,54.727187 261.04468,54.748097 C 260.67805,54.792774 260.31042,54.829158 259.94278,54.864604 C 258.37408,55.015846 257.31391,55.094821 255.67934,55.22816 C 244.54778,56.033213 233.39064,56.460715 222.23754,56.834565 C 210.60124,57.114188 198.96539,57.327442 187.32509,57.184568 C 186.23465,57.1837 183.87431,57.174232 182.65063,57.197127 C 182.00645,57.209179 180.99451,57.227739 180.31691,57.348069 C 179.88612,57.424569 179.54162,57.570572 179.14064,57.720828 L 179.56532,57.381129 z" />
    <path
       style="opacity:1;fill:#ffffff;fill-opacity:1;stroke:#fdffff;stroke-width:3;stroke-miterlimit:4;stroke-dasharray:none;stroke-opacity:1"
       id="path3444"
       d="M 197.76392,65.693131 C 200.46166,65.663206 203.15764,65.730924 205.85581,65.669649 C 212.58025,65.505485 219.30281,65.324211 226.02068,64.977748 C 231.14141,64.750452 236.25301,64.402104 241.35047,63.864398 C 241.68352,63.916503 243.73563,63.220395 243.57816,64.093465 C 243.47721,64.354803 243.39757,64.62354 243.3161,64.891345 L 242.82462,65.123811 C 242.90515,64.857191 242.97936,64.587642 243.08567,64.329731 C 243.31521,63.613775 241.13653,64.22411 240.92974,64.176764 C 235.84285,64.694048 230.74324,65.034601 225.63509,65.260945 C 218.909,65.607188 212.17822,65.791529 205.44592,65.968911 C 202.74028,66.033521 200.03554,65.962381 197.33097,66.020937 L 197.76392,65.693131 z" />
    <path
       style="opacity:1;fill:#ffffff;fill-opacity:1;stroke:#fdffff;stroke-width:3;stroke-miterlimit:4;stroke-dasharray:none;stroke-opacity:1"
       id="path3446"
       d="M 218.15856,72.355751 C 221.18312,72.309454 224.20246,72.498662 227.22348,72.616513 C 233.37803,72.899927 239.53793,72.70852 245.6933,72.569624 C 248.60136,72.248672 251.66576,72.559318 254.50953,71.755555 C 254.1322,72.007784 255.24868,71.414195 255.06379,71.499331 C 254.63378,71.697345 254.65279,71.777553 254.76917,71.578602 C 255.47908,71.256366 254.97431,71.624649 254.83942,71.927001 L 254.34458,72.154713 C 254.53335,71.682439 254.75036,71.559225 255.25084,71.315625 C 255.2895,71.761429 254.40348,71.911205 254.08256,72.083724 C 251.24044,72.852767 248.19488,72.551776 245.29409,72.861013 C 239.13546,72.994459 232.97271,73.184197 226.81477,72.911083 C 223.78393,72.797808 220.75424,72.615095 217.72012,72.674292 L 218.15856,72.355751 z" />
    <path
       style="opacity:1;fill:#ffffff;fill-opacity:1;stroke:#fdffff;stroke-width:3;stroke-miterlimit:4;stroke-dasharray:none;stroke-opacity:1"
       id="path3448"
       d="M 226.8798,79.976393 C 229.84384,79.751777 232.84366,79.929888 235.81712,79.96876 C 240.97851,80.082295 246.13549,80.039901 251.29208,79.800957 C 252.49136,79.741548 253.69033,79.675592 254.88865,79.599129 C 255.24538,79.576366 255.68154,79.477756 256.03168,79.587369 C 256.1877,79.831979 255.92462,80.066865 255.79016,80.257466 L 255.29106,80.474427 C 255.39409,80.326727 255.66788,80.094955 255.58111,79.89587 C 255.23546,79.806497 254.80627,79.894592 254.45906,79.915176 C 253.26599,79.985907 252.07241,80.047891 250.87857,80.104246 C 245.72357,80.330039 240.56853,80.368571 235.40921,80.264368 C 232.42796,80.230857 229.41685,80.050605 226.44685,80.304199 L 226.8798,79.976393 z" />
    <path
       style="opacity:1;fill:#ffffff;fill-opacity:1;stroke:#fdffff;stroke-width:3;stroke-miterlimit:4;stroke-dasharray:none;stroke-opacity:1"
       id="path3450"
       d="M 232.31833,88.977675 C 234.87334,89.890569 237.60783,90.034304 240.29,90.220365 C 244.46681,90.428071 248.65061,90.567543 252.82848,90.339653 C 253.96231,90.491713 255.49897,89.651884 256.55346,90.301163 C 256.69803,90.602806 256.61727,90.912618 256.57437,91.228668 L 256.08792,91.468174 C 256.12876,91.177779 256.21126,90.880009 256.09633,90.597116 C 255.03714,89.987449 253.53653,90.811229 252.40919,90.647686 C 248.23246,90.862132 244.05035,90.721116 239.8751,90.517463 C 237.18031,90.332818 234.43201,90.190519 231.86402,89.276592 L 232.31833,88.977675 z" />
    <path
       style="opacity:1;fill:#ffffff;fill-opacity:1;stroke:#fdffff;stroke-width:3;stroke-miterlimit:4;stroke-dasharray:none;stroke-opacity:1"
       id="path3452"
       d="M 242.26502,99.273842 C 244.04405,99.243865 245.81183,99.486975 247.58461,99.61096 C 249.22518,99.700726 248.40386,99.63909 250.0485,99.796425 L 249.62007,100.10154 C 247.97601,99.946593 248.79737,100.00769 247.15602,99.917812 C 245.37999,99.794625 243.60804,99.553475 241.82558,99.59311 L 242.26502,99.273842 z" />
    <path
       style="opacity:1;fill:#ffffff;fill-opacity:1;stroke:#fdffff;stroke-width:3;stroke-miterlimit:4;stroke-dasharray:none;stroke-opacity:1"
       id="path3454"
       d="M 237.81427,105.52836 C 239.55907,106.56927 241.55433,107.02907 243.52273,107.43628 C 245.39158,107.81167 244.4448,107.63572 246.36338,107.96238 L 245.9363,108.2618 C 244.01555,107.93438 244.96336,108.11036 243.09255,107.73558 C 241.11485,107.32462 239.10972,106.86258 237.35521,105.81871 L 237.81427,105.52836 z" />
    <rect
       transform="matrix(0.8916997,-0.4526275,0.4526275,0.8916997,0,0)"
       y="186.5851"
       x="41.927109"
       height="26.369099"
       width="6.5922747"
       id="rect3456"
       style="opacity:1;fill:#ffffff;fill-opacity:1;stroke:#ffffff;stroke-width:3;stroke-miterlimit:4;stroke-dasharray:none;stroke-opacity:1" />
    <rect
       style="opacity:1;fill:#ffffff;fill-opacity:1;stroke:#ffffff;stroke-width:3;stroke-miterlimit:4;stroke-dasharray:none;stroke-opacity:1"
       id="rect3458"
       width="6.5922747"
       height="26.369099"
       x="103.72694"
       y="245.67824"
       transform="matrix(0.8916997,-0.4526275,0.4526275,0.8916997,0,0)" />
    <rect
       transform="matrix(0.8916997,-0.4526275,0.4526275,0.8916997,0,0)"
       y="200.57672"
       x="80.41468"
       height="26.369099"
       width="6.5922747"
       id="rect3460"
       style="opacity:1;fill:#ffffff;fill-opacity:1;stroke:#ffffff;stroke-width:3;stroke-miterlimit:4;stroke-dasharray:none;stroke-opacity:1" />
    <rect
       style="opacity:1;fill:#ffffff;fill-opacity:1;stroke:#ffffff;stroke-width:3;stroke-miterlimit:4;stroke-dasharray:none;stroke-opacity:1"
       id="rect3462"
       width="6.5922747"
       height="26.369099"
       x="63.680416"
       y="245.68115"
       transform="matrix(0.8916997,-0.4526275,0.4526275,0.8916997,0,0)" />
  </g>
</svg>
