<?xml version="1.0" encoding="UTF-8" standalone="no"?>
<!-- Created with Inkscape (http://www.inkscape.org/) -->
<svg
   xmlns:dc="http://purl.org/dc/elements/1.1/"
   xmlns:cc="http://creativecommons.org/ns#"
   xmlns:rdf="http://www.w3.org/1999/02/22-rdf-syntax-ns#"
   xmlns:svg="http://www.w3.org/2000/svg"
   xmlns="http://www.w3.org/2000/svg"
   xmlns:sodipodi="http://sodipodi.sourceforge.net/DTD/sodipodi-0.dtd"
   xmlns:inkscape="http://www.inkscape.org/namespaces/inkscape"
   width="256"
   height="256"
   id="svg2"
   sodipodi:version="0.32"
   inkscape:version="0.46"
   version="1.0"
   sodipodi:docname="19.svg"
   inkscape:output_extension="org.inkscape.output.svg.inkscape">
  <defs
     id="defs4">
    <inkscape:perspective
       sodipodi:type="inkscape:persp3d"
       inkscape:vp_x="0 : 526.18109 : 1"
       inkscape:vp_y="0 : 1000 : 0"
       inkscape:vp_z="744.09448 : 526.18109 : 1"
       inkscape:persp3d-origin="372.04724 : 350.78739 : 1"
       id="perspective10" />
  </defs>
  <sodipodi:namedview
     id="base"
     pagecolor="#ffffff"
     bordercolor="#666666"
     borderopacity="1.0"
     gridtolerance="10000"
     guidetolerance="10"
     objecttolerance="10"
     inkscape:pageopacity="0.0"
     inkscape:pageshadow="2"
     inkscape:zoom="1.8203125"
     inkscape:cx="106.35001"
     inkscape:cy="128"
     inkscape:document-units="px"
     inkscape:current-layer="layer1"
     showgrid="false"
     inkscape:window-width="923"
     inkscape:window-height="681"
     inkscape:window-x="242"
     inkscape:window-y="96" />
  <metadata
     id="metadata7">
    <rdf:RDF>
      <cc:Work
         rdf:about="">
        <dc:format>image/svg+xml</dc:format>
        <dc:type
           rdf:resource="http://purl.org/dc/dcmitype/StillImage" />
      </cc:Work>
    </rdf:RDF>
  </metadata>
  <g
     inkscape:label="Layer 1"
     inkscape:groupmode="layer"
     id="layer1">
    <path
       style="opacity:1;fill:#000200;fill-opacity:1;stroke:#fdffff;stroke-width:3;stroke-miterlimit:4;stroke-dasharray:none;stroke-opacity:1"
       id="path3244"
       d="M 45.114234,110.27255 C 46.539016,111.87425 48.535931,112.72802 50.474788,113.52802 C 54.779104,115.14608 59.370308,115.74907 63.934888,116.01258 C 69.585691,116.27558 75.223532,115.79477 80.820191,115.05819 C 86.367477,114.29562 91.793594,112.86195 97.169994,111.32954 C 102.42556,109.80264 107.58702,108.001 112.72367,106.12043 C 116.51601,104.63395 120.2044,102.88492 123.82091,101.01364 C 126.83519,99.474449 129.76456,97.767276 132.71269,96.102414 C 135.42977,94.529456 138.28384,93.210961 141.17428,91.992582 C 144.24424,90.715917 147.42348,89.741831 150.58753,88.73278 C 154.03366,87.61699 157.62451,86.995674 161.22478,86.66087 C 164.85515,86.341265 168.47865,86.785561 172.07025,87.283678 C 177.36988,88.027833 182.54434,89.382155 187.62099,91.047861 C 190.93566,92.297822 194.18948,93.755459 197.16351,95.697018 C 198.76412,96.741955 199.83791,97.62809 201.34323,98.800056 C 203.87039,100.91645 206.26718,103.23995 208.26361,105.87349 C 209.44588,107.43304 209.85318,108.19859 210.86625,109.86482 C 212.72019,113.29308 213.98082,117.06757 213.6931,121.01333 C 213.63454,121.81637 213.4597,122.60666 213.343,123.40332 C 211.99401,128.67952 208.50032,132.44219 204.51415,135.92854 C 203.82433,136.45178 203.14895,136.99463 202.44469,137.49827 C 201.20423,138.38535 199.47116,139.49253 198.14882,140.25545 C 191.23861,144.24228 185.81582,148.00379 178.81347,150.67768 C 176.04639,151.58816 173.16818,152.03426 170.25458,151.84151 C 168.21907,151.70686 167.35414,151.46721 165.32955,151.07012 C 161.62153,150.2089 157.96363,148.9736 154.60611,147.15628 C 153.01961,146.29755 151.41831,145.18007 149.9193,144.17921 C 147.46193,142.31968 145.02478,140.33145 142.98221,138.00685 C 142.02036,136.91219 141.64188,136.2655 140.84794,135.07699 C 139.44686,132.65234 138.62368,130.85712 138.87776,128.03179 C 139.27539,126.04252 140.42976,124.25575 142.21238,123.21358 C 147.12487,120.34159 152.10049,117.57896 157.04455,114.76165 C 159.41891,113.87778 162.0342,113.62678 164.55376,113.8996 C 166.27623,114.08612 167.13622,114.4159 168.79523,114.89813 C 169.48948,115.18842 170.18372,115.47872 170.87797,115.76901 L 158.20504,124.27934 C 157.5389,124.04275 156.87277,123.80615 156.20663,123.56955 C 155.52329,123.41812 154.84766,123.22627 154.15661,123.11524 C 150.98175,122.60514 147.7448,123.09036 144.86577,124.51038 C 148.85961,122.17227 152.86088,119.84681 156.84728,117.49604 C 157.22831,117.27136 156.056,117.89488 155.68248,118.13183 C 154.85724,118.65534 154.05043,119.3687 153.57462,120.2378 C 153.43641,120.49027 153.35484,120.76984 153.24495,121.03585 C 152.5421,123.36315 153.24419,125.12005 154.29364,127.24014 C 154.96761,128.36781 155.28501,128.98132 156.11808,130.02506 C 157.96148,132.33461 160.22839,134.29942 162.55609,136.09833 C 164.2535,137.25732 165.20439,137.97594 167.0367,138.94202 C 170.34892,140.68837 173.95971,141.78344 177.63778,142.42646 C 179.69318,142.69045 180.52115,142.87102 182.56386,142.85564 C 185.38881,142.83437 188.16297,142.24014 190.80082,141.25008 C 196.06253,139.03611 203.05847,134.57594 184.09067,145.67268 C 183.35902,146.10072 185.5661,144.83724 186.292,144.39952 C 188.43908,143.10484 188.5249,142.99301 190.58413,141.55369 C 194.531,138.40234 198.03935,134.9822 199.68998,130.07104 C 199.83334,129.34712 200.03353,128.63216 200.12007,127.89927 C 200.55209,124.24062 199.39538,120.69669 197.73217,117.48761 C 196.84107,116.02218 196.29273,115.03914 195.26107,113.66613 C 193.34545,111.1167 191.03653,108.88425 188.60852,106.83045 C 184.53503,103.71758 180.15546,101.07193 175.25748,99.453139 C 170.16779,97.835019 164.96526,96.564212 159.62869,96.109806 C 156.00671,95.787061 152.36044,95.570956 148.73165,95.940966 C 145.2018,96.364449 141.70245,97.027222 138.34438,98.225347 C 135.15563,99.265489 131.97498,100.34289 128.90388,101.69982 C 126.07507,102.96542 123.28429,104.31403 120.60712,105.8803 C 117.6605,107.52139 114.7532,109.23946 111.71254,110.70378 C 108.15569,112.44083 104.55384,114.09764 100.81759,115.41672 C 95.714487,117.22789 90.562132,118.89273 85.363633,120.41019 C 79.932414,121.90554 74.456537,123.30929 68.851853,123.98108 C 63.190109,124.63868 57.48428,125.00259 51.783395,124.72296 C 46.96771,124.38512 42.12046,123.79875 37.537879,122.20401 C 35.275886,121.34823 33.104651,120.33359 31.222624,118.78534 L 45.114234,110.27255 z" />
    <path
       style="opacity:1;fill:#000200;fill-opacity:1;stroke:#fdffff;stroke-width:3;stroke-miterlimit:4;stroke-dasharray:none;stroke-opacity:1"
       id="path3246"
       d="M 23.710376,81.920781 C 24.31774,83.520028 25.372895,84.871722 26.481684,86.15077 C 28.445123,88.049577 30.964934,89.231586 33.621236,89.819414 C 34.434793,89.999451 35.265577,90.090148 36.087748,90.225514 C 43.017508,91.133208 49.997535,90.381026 56.904927,89.662656 C 62.506117,89.132818 68.008956,87.972669 73.470615,86.663366 C 78.40122,85.427144 83.375788,84.380467 88.317987,83.19209 C 94.155596,81.635501 99.962676,79.952354 105.65615,77.927526 C 109.77488,76.513009 113.7016,74.624627 117.70312,72.923118 C 121.89996,71.096775 126.1624,69.415154 130.46043,67.842701 C 135.01532,66.053269 139.67893,64.565738 144.36427,63.16148 C 148.62337,61.975453 152.88128,60.758645 157.19575,59.789366 C 161.28203,58.833057 165.46464,58.223302 169.65786,58.053293 C 174.57153,57.795785 179.45127,58.335317 184.30428,59.037262 C 189.98078,59.860866 195.56404,61.186315 201.08789,62.711777 C 207.08823,64.377775 212.91974,66.544828 218.60248,69.079611 C 222.1737,70.80012 225.69507,72.669239 228.97544,74.904895 C 231.09218,76.347499 231.49598,76.753755 233.46853,78.375933 C 237.80427,82.281906 241.24745,86.992427 244.22624,91.977612 C 246.24178,95.539471 247.68306,99.402452 248.59356,103.39084 C 249.17083,105.91951 249.22911,106.99697 249.53495,109.5717 C 249.97011,114.83188 249.54112,120.16587 248.02739,125.23656 C 247.72025,126.26542 247.3219,127.26482 246.96915,128.27894 C 244.71707,133.91531 241.09015,138.80569 236.6243,142.88995 C 235.5369,143.88445 234.37448,144.79367 233.24956,145.74553 C 231.98415,146.66881 230.74662,147.63155 229.45334,148.51536 C 228.09779,149.44172 226.72308,150.34323 225.30669,151.17359 C 218.19903,155.34045 211.89427,159.31808 204.61095,162.60453 C 200.56747,164.42907 199.17697,164.85427 195.01343,166.38271 C 188.49433,168.73869 181.66355,169.83051 174.82889,170.7626 L 185.65749,162.65569 C 192.45301,161.62243 199.24094,160.41926 205.71143,158.00926 C 209.88221,156.42016 211.20119,156.00699 215.24567,154.10851 C 216.79478,153.38136 221.20899,150.78682 219.83404,151.80564 C 217.54565,153.50131 214.97544,154.7831 212.48073,156.1573 C 209.77003,157.65047 222.82733,149.98935 220.20896,151.01226 C 221.289,150.11894 222.40291,149.26505 223.44909,148.3323 C 227.77991,144.47103 231.34766,139.8496 233.63621,134.49874 C 234.00228,133.52828 234.41434,132.57395 234.73442,131.58738 C 236.31544,126.71423 236.84535,121.51662 236.46881,116.42167 C 236.19973,114.07474 236.1093,112.75068 235.60246,110.4442 C 234.75385,106.58246 233.34824,102.8621 231.39641,99.423576 C 228.42826,94.625159 225.105,90.026006 220.81903,86.302189 C 216.37102,82.683312 211.53711,79.598588 206.28603,77.262174 C 200.65719,74.757207 194.86463,72.643584 188.89666,71.089766 C 183.34981,69.6437 177.73886,68.439334 172.05106,67.693191 C 167.17606,67.094133 162.2773,66.733526 157.36517,67.104039 C 153.21446,67.46325 149.08351,68.076172 145.03163,69.059681 C 140.76627,70.089123 136.52741,71.230053 132.3167,72.464249 C 127.6879,73.861931 123.08634,75.349106 118.59032,77.136139 C 114.23471,78.813913 109.90102,80.550457 105.64096,82.459937 C 101.7677,84.151279 97.888286,85.839547 93.851226,87.111479 C 88.134128,88.973366 82.355181,90.646784 76.543335,92.186459 C 71.497107,93.442653 66.444285,94.673132 61.383286,95.86836 C 56.065413,97.030175 50.69174,97.881052 45.259296,98.292764 C 38.131766,98.899173 30.954307,99.586571 23.807225,98.854366 C 22.890315,98.712302 21.964401,98.619525 21.056497,98.428174 C 18.03532,97.791426 15.20458,96.497643 12.966843,94.350511 C 11.678709,93.008893 10.551833,91.547312 9.5138475,90.00406 L 23.710376,81.920781 z" />
    <path
       style="opacity:1;fill:#000200;fill-opacity:1;stroke:#fdffff;stroke-width:3;stroke-miterlimit:4;stroke-dasharray:none;stroke-opacity:1"
       id="path3252"
       d="M 20.963594,50.607477 C 21.46835,52.024879 22.521897,52.929079 23.770004,53.684027 C 24.175117,53.869405 24.56699,54.086988 24.985344,54.24016 C 25.984037,54.605812 27.831756,55.03942 28.797763,55.248565 C 31.798015,55.898131 34.827458,56.266759 37.869212,56.659796 C 44.260232,57.455889 50.674543,58.068283 57.104308,58.440199 C 62.071397,58.873854 67.012151,58.530668 71.938614,57.881425 C 77.116428,57.225977 82.162033,55.88304 87.192265,54.534664 C 91.298139,53.37857 95.386859,52.162341 99.455789,50.882333 C 103.14229,49.733643 106.78375,48.446201 110.36614,47.006034 C 114.3849,45.378216 118.366,43.662409 122.40079,42.074203 C 126.3611,40.440741 130.41566,39.049324 134.46611,37.659271 C 138.78156,36.229491 143.1158,34.859675 147.45775,33.513085 C 150.73044,32.365583 154.05655,31.390786 157.37532,30.390752 C 160.03617,29.71744 162.75694,29.290655 165.47931,28.94892 C 169.30729,28.521576 173.1444,28.233451 176.991,28.039563 C 180.65328,27.808101 184.32509,27.962656 187.97529,28.298195 C 191.81047,28.55591 195.61465,29.099421 199.41377,29.667808 C 203.76106,30.334532 208.09103,31.075576 212.39614,31.977506 C 216.75437,32.876762 220.99054,34.256401 225.18713,35.716445 C 229.15387,37.046568 232.73388,39.109838 236.02188,41.666238 C 238.61449,43.848498 240.64528,46.635017 241.81748,49.825162 C 242.05804,50.479838 242.22925,51.157946 242.43514,51.824337 L 228.95614,59.203161 C 228.77092,58.588453 228.61881,57.96278 228.40049,57.359036 C 227.33269,54.406141 225.42547,51.857406 223.001,49.881983 C 219.80961,47.468149 216.34119,45.540483 212.52431,44.28561 C 208.38402,42.853734 204.20425,41.502558 199.89228,40.68186 C 195.58226,39.820246 191.247,39.113977 186.89479,38.499681 C 183.06281,37.998554 179.22533,37.567865 175.36882,37.303856 C 171.78275,37.058166 168.18644,36.92643 164.59444,37.144205 C 160.71003,37.349379 156.839,37.71349 152.99281,38.305845 C 150.2832,38.770922 147.56567,39.238075 144.91782,39.990042 C 141.72013,40.879168 138.54818,41.851484 135.38265,42.848561 C 131.03755,44.171342 126.71303,45.558753 122.42007,47.042956 C 118.37804,48.467837 114.32943,49.879804 110.37101,51.527503 C 106.34521,53.132741 102.36611,54.852046 98.340329,56.457432 C 94.697109,57.885293 91.013199,59.211085 87.257189,60.314278 C 83.260028,61.517638 79.248831,62.67777 75.206252,63.719853 C 70.143461,65.007118 65.057825,66.241973 59.86525,66.886796 C 54.896879,67.485868 49.915023,67.719179 44.925191,67.151464 C 38.603549,66.573919 32.312993,65.715313 25.9974,65.076486 C 22.771936,64.739902 19.538345,64.437198 16.336207,63.912283 C 14.898414,63.676591 13.325585,63.39055 11.933441,62.917479 C 11.429233,62.746141 10.954455,62.498059 10.464961,62.288349 C 8.7369763,61.24863 7.8508753,60.359941 6.7670663,58.690756 L 20.963594,50.607477 z" />
    <text
       xml:space="preserve"
       style="font-size:66.92573547000002065px;font-style:normal;font-weight:normal;fill:#000000;fill-opacity:1;stroke:#ffffff;stroke-width:2;stroke-linecap:butt;stroke-linejoin:miter;stroke-opacity:1;font-family:Bitstream Vera Sans;stroke-miterlimit:4;stroke-dasharray:none"
       x="38.559101"
       y="230.93672"
       id="text3256"><tspan
         sodipodi:role="line"
         id="tspan3258"
         x="38.559101"
         y="230.93672">DUST</tspan></text>
  </g>
</svg>
