<?xml version="1.0" encoding="UTF-8" standalone="no"?>
<!-- Created with Inkscape (http://www.inkscape.org/) -->
<svg
   xmlns:dc="http://purl.org/dc/elements/1.1/"
   xmlns:cc="http://creativecommons.org/ns#"
   xmlns:rdf="http://www.w3.org/1999/02/22-rdf-syntax-ns#"
   xmlns:svg="http://www.w3.org/2000/svg"
   xmlns="http://www.w3.org/2000/svg"
   xmlns:xlink="http://www.w3.org/1999/xlink"
   xmlns:sodipodi="http://sodipodi.sourceforge.net/DTD/sodipodi-0.dtd"
   xmlns:inkscape="http://www.inkscape.org/namespaces/inkscape"
   width="256"
   height="256"
   id="svg2"
   sodipodi:version="0.32"
   inkscape:version="0.46"
   version="1.0"
   sodipodi:docname="25.svg"
   inkscape:output_extension="org.inkscape.output.svg.inkscape">
  <defs
     id="defs4">
    <linearGradient
       inkscape:collect="always"
       id="linearGradient3451">
      <stop
         style="stop-color:#fffdff;stop-opacity:1;"
         offset="0"
         id="stop3453" />
      <stop
         style="stop-color:#fffdff;stop-opacity:0;"
         offset="1"
         id="stop3455" />
    </linearGradient>
    <linearGradient
       inkscape:collect="always"
       id="linearGradient3443">
      <stop
         style="stop-color:#fffdff;stop-opacity:1;"
         offset="0"
         id="stop3445" />
      <stop
         style="stop-color:#fffdff;stop-opacity:0;"
         offset="1"
         id="stop3447" />
    </linearGradient>
    <linearGradient
       inkscape:collect="always"
       id="linearGradient3435">
      <stop
         style="stop-color:#fffdff;stop-opacity:1;"
         offset="0"
         id="stop3437" />
      <stop
         style="stop-color:#fffdff;stop-opacity:0;"
         offset="1"
         id="stop3439" />
    </linearGradient>
    <linearGradient
       inkscape:collect="always"
       id="linearGradient3427">
      <stop
         style="stop-color:#fffdff;stop-opacity:1;"
         offset="0"
         id="stop3429" />
      <stop
         style="stop-color:#fffdff;stop-opacity:0;"
         offset="1"
         id="stop3431" />
    </linearGradient>
    <linearGradient
       inkscape:collect="always"
       id="linearGradient3419">
      <stop
         style="stop-color:#fffdff;stop-opacity:1;"
         offset="0"
         id="stop3421" />
      <stop
         style="stop-color:#fffdff;stop-opacity:0;"
         offset="1"
         id="stop3423" />
    </linearGradient>
    <linearGradient
       inkscape:collect="always"
       id="linearGradient3411">
      <stop
         style="stop-color:#fffdff;stop-opacity:1;"
         offset="0"
         id="stop3413" />
      <stop
         style="stop-color:#fffdff;stop-opacity:0;"
         offset="1"
         id="stop3415" />
    </linearGradient>
    <inkscape:perspective
       sodipodi:type="inkscape:persp3d"
       inkscape:vp_x="0 : 526.18109 : 1"
       inkscape:vp_y="0 : 1000 : 0"
       inkscape:vp_z="744.09448 : 526.18109 : 1"
       inkscape:persp3d-origin="372.04724 : 350.78739 : 1"
       id="perspective10" />
    <linearGradient
       inkscape:collect="always"
       xlink:href="#linearGradient3411"
       id="linearGradient3417"
       x1="17.542259"
       y1="76.611622"
       x2="44.673964"
       y2="76.611622"
       gradientUnits="userSpaceOnUse" />
    <linearGradient
       inkscape:collect="always"
       xlink:href="#linearGradient3419"
       id="linearGradient3425"
       x1="46.819306"
       y1="77.33268"
       x2="80.58751"
       y2="77.33268"
       gradientUnits="userSpaceOnUse" />
    <linearGradient
       inkscape:collect="always"
       xlink:href="#linearGradient3427"
       id="linearGradient3433"
       x1="86.414897"
       y1="87.888748"
       x2="115.87611"
       y2="87.888748"
       gradientUnits="userSpaceOnUse" />
    <linearGradient
       inkscape:collect="always"
       xlink:href="#linearGradient3435"
       id="linearGradient3441"
       x1="122.50637"
       y1="84.877043"
       x2="160.94504"
       y2="84.877043"
       gradientUnits="userSpaceOnUse" />
    <linearGradient
       inkscape:collect="always"
       xlink:href="#linearGradient3443"
       id="linearGradient3449"
       x1="172.83528"
       y1="88.975797"
       x2="202.29649"
       y2="88.975797"
       gradientUnits="userSpaceOnUse" />
    <linearGradient
       inkscape:collect="always"
       xlink:href="#linearGradient3451"
       id="linearGradient3457"
       x1="216.39892"
       y1="77.876202"
       x2="250.16712"
       y2="77.876202"
       gradientUnits="userSpaceOnUse" />
  </defs>
  <sodipodi:namedview
     id="base"
     pagecolor="#ffffff"
     bordercolor="#666666"
     borderopacity="1.0"
     gridtolerance="10000"
     guidetolerance="10"
     objecttolerance="10"
     inkscape:pageopacity="0.0"
     inkscape:pageshadow="2"
     inkscape:zoom="1.8398438"
     inkscape:cx="128"
     inkscape:cy="128"
     inkscape:document-units="px"
     inkscape:current-layer="layer1"
     showgrid="false"
     inkscape:window-width="923"
     inkscape:window-height="681"
     inkscape:window-x="206"
     inkscape:window-y="202" />
  <metadata
     id="metadata7">
    <rdf:RDF>
      <cc:Work
         rdf:about="">
        <dc:format>image/svg+xml</dc:format>
        <dc:type
           rdf:resource="http://purl.org/dc/dcmitype/StillImage" />
      </cc:Work>
    </rdf:RDF>
  </metadata>
  <g
     inkscape:label="Layer 1"
     inkscape:groupmode="layer"
     id="layer1">
    <path
       style="fill:url(#linearGradient3417);fill-rule:evenodd;stroke:#000000;stroke-width:1px;stroke-linecap:butt;stroke-linejoin:miter;stroke-opacity:1;fill-opacity:1"
       d="M 23.915074,3.2611465 C 23.915074,3.2611465 20.110403,10.870488 18.47983,19.566879 C 16.849257,28.26327 21.197452,33.154989 25.545648,39.677282 C 29.893843,46.199575 30.437367,47.286624 28.26327,53.808917 C 26.089172,60.33121 26.089172,55.983015 23.915074,64.135881 C 21.740977,72.288747 21.740977,64.679406 20.110403,77.723992 C 18.47983,90.768577 17.392781,89.138004 18.47983,92.399151 C 19.566879,95.660297 22.828025,91.855626 23.915074,98.921444 C 25.002123,105.98726 26.632696,101.09554 26.632696,108.70488 C 26.632696,116.31423 27.176221,111.96603 28.806794,119.03185 C 30.437367,126.09766 30.437367,126.09766 31.524416,130.98938 C 32.611465,135.8811 35.329087,133.70701 34.242038,137.51168 C 33.154989,141.31635 34.785563,140.2293 33.698514,144.03397 C 32.611465,147.83864 33.698514,147.29512 34.242038,149.46921 C 34.785563,151.64331 41.85138,146.20807 41.307856,141.31635 C 40.764331,136.42463 42.938429,134.25053 42.394904,129.90234 C 41.85138,125.55414 42.394904,123.38004 39.677282,118.48832 C 36.95966,113.5966 36.95966,111.96603 36.416136,105.98726 C 35.872611,100.00849 36.416136,102.72611 36.416136,93.4862 C 36.416136,84.246285 38.046709,84.789809 38.046709,76.636943 C 38.046709,68.484076 34.785563,88.050955 38.590234,63.592357 C 42.394904,39.133758 46.199575,41.85138 42.938429,34.785563 C 39.677282,27.719745 37.503185,27.719745 37.503185,22.828025 C 37.503185,17.936306 35.872611,17.936306 38.590234,13.044586 C 41.307856,8.1528662 42.394904,13.044586 41.307856,8.1528662 C 40.220807,3.2611465 40.220807,3.2611465 36.95966,3.2611465 C 33.698514,3.2611465 27.719745,3.2611465 27.719745,3.2611465"
       id="path3385" />
    <path
       style="fill:url(#linearGradient3425);fill-rule:evenodd;stroke:#000000;stroke-width:1px;stroke-linecap:butt;stroke-linejoin:miter;stroke-opacity:1;fill-opacity:1"
       d="M 77.180467,2.7176221 C 77.180467,2.7176221 52.178344,0 51.63482,2.1740977 C 51.091295,4.3481953 45.656051,10.870488 47.830149,17.936306 C 50.004246,25.002123 52.721868,28.26327 55.43949,35.329087 C 58.157113,42.394904 64.679406,46.199575 62.505308,52.721868 C 60.33121,59.244161 59.244161,59.244161 59.244161,65.22293 C 59.244161,71.201699 59.244161,68.484076 59.244161,73.375796 C 59.244161,78.267516 60.33121,76.093418 61.418259,80.441614 C 62.505308,84.789809 60.33121,80.441614 60.874735,88.59448 C 61.418259,96.747346 60.874735,94.573248 60.874735,100.55202 C 60.874735,106.53079 60.33121,109.79193 63.592357,113.05308 C 66.853503,116.31423 70.11465,117.9448 67.940552,124.46709 C 65.766454,130.98938 64.679406,131.53291 65.766454,136.96815 C 66.853503,142.4034 66.853503,141.85987 67.397028,146.20807 C 67.940552,150.55626 70.658174,153.27389 73.919321,153.27389 C 77.180467,153.27389 80.985138,153.81741 79.898089,151.64331 C 78.81104,149.46921 80.985138,151.64331 78.267516,147.29512 C 75.549894,142.94692 77.180467,133.16348 77.180467,133.16348 C 77.180467,133.16348 80.441614,132.07643 79.354565,126.09766 C 78.267516,120.1189 79.354565,120.66242 77.723992,111.96603 C 76.093418,103.26964 77.180467,108.70488 73.375796,97.29087 C 69.571125,85.876858 68.484076,92.399151 70.11465,85.333333 C 71.745223,78.267516 73.919321,80.985138 73.919321,73.375796 C 73.919321,65.766454 72.832272,66.853503 73.919321,59.787686 C 75.006369,52.721868 72.288747,57.613588 72.288747,48.373673 C 72.288747,39.133758 72.288747,39.677282 69.027601,30.980892 C 65.766454,22.284501 69.027601,21.740977 71.745223,17.392781 C 74.462845,13.044586 75.549894,14.131635 76.636943,10.326964 C 77.723992,6.522293 78.81104,3.8046709 77.180467,2.7176221 z"
       id="path3389" />
    <path
       style="fill:url(#linearGradient3433);fill-rule:evenodd;stroke:#000000;stroke-width:1px;stroke-linecap:butt;stroke-linejoin:miter;stroke-opacity:1;fill-opacity:1"
       d="M 88.050955,2.1740977 C 86.963907,4.8917197 86.420382,10.870488 87.507431,17.936306 C 88.59448,25.002123 91.312102,32.067941 89.681529,38.590234 C 88.050955,45.112527 89.138004,48.917197 88.050955,55.43949 C 86.963907,61.961783 90.225053,64.135881 90.225053,71.745223 C 90.225053,79.354565 91.312102,78.81104 92.942675,89.681529 C 94.573248,100.55202 96.203822,97.834395 96.747346,109.79193 C 97.29087,121.74947 94.029724,125.01062 94.029724,125.01062 C 94.029724,125.01062 100.00849,126.09766 100.00849,129.90234 C 100.00849,133.70701 106.53079,135.33758 106.53079,138.0552 C 106.53079,140.77282 103.81316,140.77282 104.90021,144.57749 C 105.98726,148.38217 106.53079,150.55626 105.98726,153.81741 C 105.44374,157.07856 108.16136,160.3397 107.07431,164.6879 C 105.98726,169.03609 108.70488,169.57962 108.70488,172.29724 C 108.70488,175.01486 111.42251,174.47134 110.87898,170.12314 C 110.33546,165.77495 114.68365,167.94904 114.14013,160.88323 C 113.5966,153.81741 114.68365,156.53503 113.05308,148.38217 C 111.42251,140.2293 111.96603,142.4034 110.33546,136.96815 C 108.70488,131.53291 109.79193,133.16348 107.61783,126.64119 C 105.44374,120.1189 103.26964,126.09766 104.35669,114.68365 C 105.44374,103.26964 105.44374,104.35669 107.07431,94.029724 C 108.70488,83.70276 104.35669,90.225053 107.61783,76.636943 C 110.87898,63.048832 111.42251,72.832272 111.42251,60.33121 C 111.42251,47.830149 113.05308,49.460722 111.42251,41.307856 C 109.79193,33.154989 107.07431,36.95966 108.16136,28.26327 C 109.24841,19.566879 110.33546,27.719745 110.87898,15.762208 C 111.42251,3.8046709 119.57537,4.3481953 112.50955,2.7176221 C 105.44374,1.0870488 90.225053,2.1740977 88.050955,2.1740977 z"
       id="path3391" />
    <path
       style="fill:url(#linearGradient3441);fill-opacity:1;fill-rule:evenodd;stroke:#000000;stroke-width:1px;stroke-linecap:butt;stroke-linejoin:miter;stroke-opacity:1"
       d="M 128.27176,3.8046709 C 127.72824,10.326964 133.16348,15.762208 130.44586,20.110403 C 127.72824,24.458599 123.92357,28.26327 123.92357,33.698514 C 123.92357,39.133758 122.29299,45.656051 123.38004,48.373673 C 124.46709,51.091295 126.09766,54.352442 128.27176,57.070064 C 130.44586,59.787686 130.98938,64.135881 129.90234,67.940552 C 128.81529,71.745223 125.55414,71.745223 126.09766,77.723992 C 126.64119,83.70276 126.09766,88.59448 127.72824,93.4862 C 129.35881,98.377919 129.90234,99.464968 131.53291,105.44374 C 133.16348,111.42251 133.16348,113.05308 134.25053,116.31423 C 135.33758,119.57537 134.79406,117.9448 133.16348,122.83652 C 131.53291,127.72824 134.79406,127.18471 133.70701,130.44586 C 132.61996,133.70701 131.53291,134.25053 133.16348,136.42463 C 134.79406,138.59873 136.96815,143.49045 138.0552,140.77282 C 139.14225,138.0552 140.77282,139.68577 140.77282,134.25053 C 140.77282,128.81529 142.94692,131.53291 142.94692,123.38004 C 142.94692,115.22718 143.49045,116.85775 140.77282,110.33546 C 138.0552,103.81316 139.68577,102.18259 140.2293,94.573248 C 140.77282,86.963907 146.20807,89.138004 142.4034,82.072187 C 138.59873,75.006369 140.77282,79.898089 141.31635,72.832272 C 141.85987,65.766454 139.14225,58.157113 144.57749,66.853503 C 150.01274,75.549894 150.01274,82.072187 149.46921,88.59448 C 148.92569,95.116773 151.09979,92.942675 150.55626,99.464968 C 150.01274,105.98726 151.09979,105.44374 150.01274,109.24841 C 148.92569,113.05308 151.09979,113.5966 149.46921,119.57537 C 147.83864,125.55414 151.64331,127.18471 150.01274,134.25053 C 148.38217,141.31635 153.81741,142.94692 149.46921,148.92569 C 145.12102,154.90446 148.38217,155.44798 144.03397,158.16561 C 139.68577,160.88323 138.59873,162.5138 138.59873,162.5138 C 138.59873,162.5138 133.70701,166.862 138.0552,165.77495 C 142.4034,164.6879 144.57749,166.31847 148.38217,163.05732 C 152.18684,159.79618 153.81741,159.79618 154.90446,153.27389 C 155.99151,146.75159 159.79618,145.12102 159.25265,135.33758 C 158.70913,125.55414 157.07856,127.18471 157.62208,118.48832 C 158.16561,109.79193 158.16561,122.83652 157.62208,107.61783 C 157.07856,92.399151 160.3397,95.116773 159.79618,86.963907 C 159.25265,78.81104 155.99151,77.723992 157.62208,70.11465 C 159.25265,62.505308 158.70913,64.135881 155.44798,55.983015 C 152.18684,47.830149 152.18684,50.004246 152.18684,40.764331 C 152.18684,31.524416 150.55626,31.524416 153.27389,27.176221 C 155.99151,22.828025 154.90446,18.47983 157.07856,15.218684 C 159.25265,11.957537 160.88323,12.501062 160.3397,9.2399151 C 159.79618,5.9787686 127.72824,4.8917197 128.27176,3.8046709 z"
       id="path3393" />
    <path
       id="path3399"
       d="M 219.80597,3.2611465 C 219.80597,3.2611465 244.80809,0.54352442 245.35161,2.7176221 C 245.89514,4.8917197 251.33038,11.414012 249.15628,18.47983 C 246.98219,25.545647 244.26456,28.806794 241.54694,35.872611 C 238.82932,42.938428 232.30703,46.743099 234.48112,53.265392 C 236.65522,59.787685 237.74227,59.787685 237.74227,65.766454 C 237.74227,71.745223 237.74227,69.0276 237.74227,73.91932 C 237.74227,78.81104 236.65522,76.636942 235.56817,80.985138 C 234.48112,85.333333 236.65522,80.985138 236.1117,89.138004 C 235.56817,97.29087 236.1117,95.116772 236.1117,101.09554 C 236.1117,107.07431 236.65522,110.33545 233.39408,113.5966 C 230.13293,116.85775 226.87178,118.48832 229.04588,125.01061 C 231.21998,131.5329 232.30703,132.07643 231.21998,137.51167 C 230.13293,142.94692 230.13293,142.40339 229.5894,146.75159 C 229.04588,151.09978 226.32826,153.81741 223.06711,153.81741 C 219.80597,153.81741 216.00129,154.36093 217.08834,152.18683 C 218.17539,150.01273 216.00129,152.18683 218.71892,147.83864 C 221.43654,143.49044 219.80597,133.707 219.80597,133.707 C 219.80597,133.707 216.54482,132.61995 217.63187,126.64118 C 218.71892,120.66242 217.63187,121.20594 219.26244,112.50955 C 220.89301,103.81316 219.80597,109.2484 223.61064,97.834394 C 227.41531,86.420382 228.50236,92.942675 226.87178,85.876857 C 225.24121,78.81104 223.06711,81.528662 223.06711,73.91932 C 223.06711,66.309978 224.15416,67.397027 223.06711,60.33121 C 221.98006,53.265392 224.69769,58.157112 224.69769,48.917197 C 224.69769,39.677282 224.69769,40.220806 227.95883,31.524416 C 231.21998,22.828025 227.95883,22.284501 225.24121,17.936305 C 222.52359,13.58811 221.43654,14.675159 220.34949,10.870488 C 219.26244,7.0658174 218.17539,4.3481953 219.80597,3.2611465 z"
       style="fill:url(#linearGradient3457);fill-rule:evenodd;stroke:#000000;stroke-width:1px;stroke-linecap:butt;stroke-linejoin:miter;stroke-opacity:1;fill-opacity:1" />
    <path
       id="path3401"
       d="M 200.66043,3.2611465 C 201.74748,5.9787685 202.29101,11.957537 201.20396,19.023355 C 200.11691,26.089172 197.39929,33.15499 199.02986,39.677283 C 200.66043,46.199576 199.57338,50.004246 200.66043,56.526539 C 201.74748,63.048832 198.48634,65.22293 198.48634,72.832272 C 198.48634,80.441614 197.39929,79.898089 195.76871,90.768578 C 194.13814,101.63907 192.50757,98.921444 191.96404,110.87898 C 191.42052,122.83652 194.68166,126.09767 194.68166,126.09767 C 194.68166,126.09767 188.7029,127.18471 188.7029,130.98939 C 188.7029,134.79406 182.1806,136.42463 182.1806,139.14225 C 182.1806,141.85987 184.89823,141.85987 183.81118,145.66454 C 182.72413,149.46922 182.1806,151.64331 182.72413,154.90446 C 183.26765,158.16561 180.55003,161.42675 181.63708,165.77495 C 182.72413,170.12314 180.00651,170.66667 180.00651,173.38429 C 180.00651,176.10191 177.28888,175.55839 177.83241,171.21019 C 178.37593,166.862 174.02774,169.03609 174.57126,161.97028 C 175.11479,154.90446 174.02774,157.62208 175.65831,149.46922 C 177.28888,141.31635 176.74536,143.49045 178.37593,138.0552 C 180.00651,132.61996 178.91946,134.25053 181.09356,127.72824 C 183.26765,121.20595 185.44175,127.18471 184.3547,115.7707 C 183.26765,104.35669 183.26765,105.44374 181.63708,95.116773 C 180.00651,84.789809 184.3547,91.312102 181.09356,77.723992 C 177.83241,64.135881 177.28888,73.919321 177.28888,61.418259 C 177.28888,48.917198 175.65831,50.547771 177.28888,42.394905 C 178.91946,34.242038 181.63708,38.046709 180.55003,29.350319 C 179.46298,20.653928 178.37593,28.806794 177.83241,16.849257 C 177.28888,4.8917197 169.13602,5.4352441 176.20184,3.8046709 C 183.26765,2.1740976 198.48634,3.2611465 200.66043,3.2611465 z"
       style="fill:url(#linearGradient3449);fill-rule:evenodd;stroke:#000000;stroke-width:1px;stroke-linecap:butt;stroke-linejoin:miter;stroke-opacity:1;fill-opacity:1" />
    <text
       xml:space="preserve"
       style="font-size:67.76572418000000653px;font-style:normal;font-weight:normal;fill:#000000;fill-opacity:1;stroke:#ffffff;stroke-width:1px;stroke-linecap:butt;stroke-linejoin:miter;stroke-opacity:1;font-family:Bitstream Vera Sans"
       x="11.950106"
       y="239.64772"
       id="text3459"><tspan
         sodipodi:role="line"
         id="tspan3461"
         x="11.950106"
         y="239.64772">FRIGID</tspan></text>
  </g>
</svg>
