<?xml version="1.0" encoding="UTF-8" standalone="no"?>
<!-- Created with Inkscape (http://www.inkscape.org/) -->
<svg
   xmlns:dc="http://purl.org/dc/elements/1.1/"
   xmlns:cc="http://creativecommons.org/ns#"
   xmlns:rdf="http://www.w3.org/1999/02/22-rdf-syntax-ns#"
   xmlns:svg="http://www.w3.org/2000/svg"
   xmlns="http://www.w3.org/2000/svg"
   xmlns:sodipodi="http://sodipodi.sourceforge.net/DTD/sodipodi-0.dtd"
   xmlns:inkscape="http://www.inkscape.org/namespaces/inkscape"
   width="256"
   height="256"
   id="svg2"
   sodipodi:version="0.32"
   inkscape:version="0.46"
   version="1.0"
   sodipodi:docname="28.svg"
   inkscape:output_extension="org.inkscape.output.svg.inkscape">
  <defs
     id="defs4">
    <inkscape:perspective
       sodipodi:type="inkscape:persp3d"
       inkscape:vp_x="0 : 526.18109 : 1"
       inkscape:vp_y="0 : 1000 : 0"
       inkscape:vp_z="744.09448 : 526.18109 : 1"
       inkscape:persp3d-origin="372.04724 : 350.78739 : 1"
       id="perspective10" />
  </defs>
  <sodipodi:namedview
     id="base"
     pagecolor="#ffffff"
     bordercolor="#666666"
     borderopacity="1.0"
     gridtolerance="10000"
     guidetolerance="10"
     objecttolerance="10"
     inkscape:pageopacity="0.0"
     inkscape:pageshadow="2"
     inkscape:zoom="1.8398438"
     inkscape:cx="128"
     inkscape:cy="128"
     inkscape:document-units="px"
     inkscape:current-layer="layer1"
     showgrid="false"
     inkscape:window-width="923"
     inkscape:window-height="681"
     inkscape:window-x="246"
     inkscape:window-y="143" />
  <metadata
     id="metadata7">
    <rdf:RDF>
      <cc:Work
         rdf:about="">
        <dc:format>image/svg+xml</dc:format>
        <dc:type
           rdf:resource="http://purl.org/dc/dcmitype/StillImage" />
      </cc:Work>
    </rdf:RDF>
  </metadata>
  <g
     inkscape:label="Layer 1"
     inkscape:groupmode="layer"
     id="layer1">
    <path
       inkscape:transform-center-x="-10.933466"
       id="path2495"
       d="M 215.34028,124.32769 L 194.93683,113.26198 L 195.04382,137.05582 L 215.34028,124.32769 z"
       style="fill:#000000;fill-opacity:1;stroke:#ffffff;stroke-width:3.17136574;stroke-miterlimit:4;stroke-dasharray:none;stroke-opacity:1"
       inkscape:transform-center-y="0.28992" />
    <path
       inkscape:transform-center-y="-4.3807364"
       style="fill:#000000;fill-opacity:1;stroke:#ffffff;stroke-width:3.17136574;stroke-miterlimit:4;stroke-dasharray:none;stroke-opacity:1"
       d="M 27.445803,165.92699 L 50.644092,165.15975 L 38.523098,144.68445 L 27.445803,165.92699 z"
       id="path3275"
       inkscape:transform-center-x="0.994054" />
    <path
       style="fill:#fbffff;fill-opacity:1;stroke:#fffff8;stroke-width:1.22929883;stroke-miterlimit:4;stroke-dasharray:none;stroke-opacity:1"
       d="M 43.027277,130.78968 C 51.677374,169.91863 90.460262,194.64259 129.5892,185.99249 C 168.71815,177.34239 193.44626,138.57825 184.79617,99.449322 C 176.14607,60.320374 137.37781,35.573503 98.248853,44.223603 L 97.836244,44.314815 C 58.895297,53.151908 34.407956,91.799948 43.027277,130.78968 z M 48.18548,129.11823 C 40.18755,92.939396 62.928919,57.082938 99.062498,48.88294 L 99.418834,48.804166 C 135.72687,40.777677 171.70642,63.729486 179.73292,100.0375 C 187.7594,136.34552 164.80759,172.32509 128.49956,180.35157 C 92.191533,188.37807 56.211967,165.42625 48.18548,129.11823 z"
       id="path3157" />
    <path
       style="fill:#000000;fill-opacity:1;stroke:#ffffff;stroke-width:3.17136574;stroke-miterlimit:4;stroke-dasharray:none;stroke-opacity:1"
       d="M 209.49638,82.798765 L 186.52315,79.484947 L 194.86475,101.76893 L 209.49638,82.798765 z"
       id="path3263"
       inkscape:transform-center-x="-8.1528662" />
    <path
       id="path3273"
       d="M 13.562674,122.26758 L 34.163379,132.96151 L 33.625037,109.17356 L 13.562674,122.26758 z"
       style="fill:#000000;fill-opacity:1;stroke:#ffffff;stroke-width:3.17136574;stroke-miterlimit:4;stroke-dasharray:none;stroke-opacity:1"
       inkscape:transform-center-x="2.4284015"
       inkscape:transform-center-y="-0.556717" />
    <path
       style="fill:#000000;fill-opacity:1;stroke:#ffffff;stroke-width:3.17136574;stroke-miterlimit:4;stroke-dasharray:none;stroke-opacity:1"
       d="M 159.2102,25.601011 L 139.86075,38.420874 L 160.91951,49.497237 L 159.2102,25.601011 z"
       id="path3242" />
    <path
       id="path3261"
       d="M 190.15248,48.724942 L 167.67574,54.516903 L 183.95802,71.867548 L 190.15248,48.724942 z"
       style="fill:#000000;fill-opacity:1;stroke:#ffffff;stroke-width:3.17136574;stroke-miterlimit:4;stroke-dasharray:none;stroke-opacity:1" />
    <path
       id="path3265"
       d="M 116.64289,14.589727 L 105.10039,34.72727 L 128.89014,35.179924 L 116.64289,14.589727 z"
       style="fill:#000000;fill-opacity:1;stroke:#ffffff;stroke-width:3.17136574;stroke-miterlimit:4;stroke-dasharray:none;stroke-opacity:1" />
    <path
       style="fill:#000000;fill-opacity:1;stroke:#ffffff;stroke-width:3.17136574;stroke-miterlimit:4;stroke-dasharray:none;stroke-opacity:1"
       d="M 75.05393,22.481381 L 73.196112,45.617897 L 94.909415,35.887027 L 75.05393,22.481381 z"
       id="path3267" />
    <path
       id="path3269"
       d="M 41.300126,46.357705 L 48.35093,68.471865 L 64.755349,51.236655 L 41.300126,46.357705 z"
       style="fill:#000000;fill-opacity:1;stroke:#ffffff;stroke-width:3.17136574;stroke-miterlimit:4;stroke-dasharray:none;stroke-opacity:1"
       inkscape:transform-center-x="-1.946815"
       inkscape:transform-center-y="2.1324745" />
    <path
       inkscape:transform-center-y="1.981888"
       inkscape:transform-center-x="0.465673"
       style="fill:#000000;fill-opacity:1;stroke:#ffffff;stroke-width:3.17136574;stroke-miterlimit:4;stroke-dasharray:none;stroke-opacity:1"
       d="M 19.023481,79.962888 L 34.192247,97.531552 L 42.510392,75.238834 L 19.023481,79.962888 z"
       id="path3271" />
    <g
       id="g2472"
       transform="matrix(0.8659396,0,0,0.8659396,23.301557,36.182828)">
      <path
         style="fill:#000000;fill-opacity:1;stroke:#ffffff;stroke-width:2.6684134;stroke-miterlimit:4;stroke-dasharray:none;stroke-opacity:1"
         d="M 130.92109,55.373433 C 137.83289,54.588463 144.73482,56.616098 151.17617,59.518033 C 156.0148,61.851222 160.15106,65.948425 163.52849,70.702762 C 168.35962,77.178048 172.39424,84.465532 177.27229,90.890834 C 179.07277,93.184498 181.33152,95.031571 183.9077,95.718524 C 188.97235,97.546635 194.20438,98.584241 199.2561,100.47309 C 204.43977,102.37672 209.61096,104.99386 213.61765,109.543 C 217.66979,114.01118 220.73442,120.02523 221.50656,126.67418 C 221.94368,131.56872 220.67616,136.93557 217.47438,140.14779 C 214.96711,142.65324 211.66306,143.42356 208.50816,143.70509 C 185.36359,146.90428 162.25097,150.43249 139.11445,153.71545 C 114.4322,157.23298 89.738202,160.66704 64.98697,163.39605 C 59.103396,163.97555 53.219171,164.62798 47.318882,164.88303 C 44.978638,164.93917 42.609963,164.97918 40.29696,164.53561 C 37.935274,163.61553 36.718509,160.65128 36.080321,157.94785 C 34.28018,151.22241 33.28398,143.92855 34.526172,136.92645 C 35.821653,129.34221 39.800888,122.60325 45.106197,118.36218 C 48.651177,115.28269 52.953423,113.39011 55.870185,109.31976 C 57.596967,106.60462 57.445726,102.98629 57.442204,99.741658 C 57.418019,96.598853 57.789739,93.386053 59.045148,90.594086 C 61.273619,85.170998 65.55255,81.364826 70.132108,79.224388 C 74.931242,76.930586 80.236782,76.76512 85.286822,77.677364 C 88.056822,78.046309 90.867932,78.686421 93.650994,78.224113 C 96.478034,77.263354 98.222364,74.175062 100.36863,71.977421 C 104.73656,66.98261 109.86702,63.035584 115.34851,60.098971 C 120.29219,57.53922 125.57135,55.969861 130.92109,55.373433 z"
         id="path2386" />
      <path
         id="path2388"
         d="M 135.76853,89.487909 C 127.68607,89.522294 119.62942,92.887813 112.11552,97.224976 C 106.47199,100.66462 101.65833,106.09635 97.734923,112.20079 C 92.121183,120.54715 87.442501,129.74469 81.773653,138.03836 C 79.680892,141.00724 77.05025,143.51092 74.042707,144.68433 C 68.132447,147.55708 62.022536,149.51655 56.127697,152.45946 C 50.078708,155.43828 44.047915,159.26077 39.387998,165.20989 C 34.674546,171.06943 31.123131,178.6228 30.254378,186.60855 C 29.768306,192.46882 31.277011,198.65086 35.035521,202.01008 C 37.978721,204.6288 41.844385,205.08047 45.533237,204.97382 C 72.600728,205.53483 99.632543,206.49015 126.69105,207.15153 C 155.55738,207.87517 184.43702,208.49828 213.37998,208.27801 C 220.2596,208.14365 227.14036,208.09561 234.03788,207.57449 C 236.77343,207.31446 239.54214,207.03135 242.24331,206.18303 C 244.99897,204.76333 246.40608,201.08136 247.13828,197.78915 C 249.20816,189.56934 250.33551,180.78821 248.84812,172.66513 C 247.2955,163.85972 242.61041,156.43032 236.38806,152.14559 C 232.22909,148.99153 227.19105,147.34943 223.7613,142.93368 C 221.72927,139.95761 221.8877,135.64933 221.87534,131.80444 C 221.88767,128.07732 221.43691,124.32251 219.95543,121.18963 C 217.32329,115.07506 212.3028,111.16239 206.93937,109.26532 C 201.31853,107.21717 195.11661,107.76144 189.21877,109.54698 C 185.98309,110.37064 182.70073,111.52134 179.44554,111.36192 C 176.13645,110.61804 174.08201,107.20228 171.56232,104.89789 C 166.43177,99.589293 160.41529,95.628558 153.99365,92.913993 C 148.20252,90.570906 142.02431,89.448095 135.76853,89.487909 z"
         style="fill:#000000;fill-opacity:1;stroke:#ffffff;stroke-width:3.14097571;stroke-miterlimit:4;stroke-dasharray:none;stroke-opacity:1" />
      <path
         id="path3183"
         d="M 114.90611,128.02975 C 106.15079,128.2358 97.748445,131.34324 90.029082,135.28531 C 84.248995,138.40475 79.562598,143.24153 75.906553,148.64496 C 70.63749,156.03828 66.464804,164.15275 61.130893,171.50138 C 59.152737,174.13334 56.546276,176.37177 53.401591,177.45952 C 47.277157,180.09091 40.847246,181.93104 34.746358,184.62322 C 28.481921,187.35005 22.319529,190.81144 17.850204,196.09561 C 13.314124,201.30289 10.202573,207.96046 10.040338,214.93625 C 10.085392,220.05207 12.323518,225.40475 16.724257,228.24928 C 20.169212,230.46647 24.402374,230.77573 28.389443,230.60245 C 57.776296,230.50146 87.162966,230.74473 116.54986,230.73138 C 147.90193,230.73286 179.2586,230.64647 210.60159,229.82399 C 218.0437,229.55705 225.49546,229.36529 232.91922,228.76103 C 235.85827,228.4749 238.83099,228.16794 241.67539,227.37007 C 244.52308,226.07325 245.68866,222.835 246.16089,219.95101 C 247.60192,212.74514 247.9668,205.07082 245.56238,198.02671 C 243.02069,190.38962 237.21871,184.01951 230.05771,180.42239 C 225.24302,177.7653 219.62324,176.44454 215.47569,172.67244 C 212.98327,170.12408 212.73457,166.36743 212.34604,163.01819 C 211.99573,159.77099 211.14089,156.50977 209.22978,153.81281 C 205.78081,148.54338 199.9585,145.24421 193.96124,143.70841 C 187.67029,142.04661 181.00258,142.65588 174.78552,144.33987 C 171.35948,145.12791 167.91478,146.20186 164.37169,146.1339 C 160.71316,145.55796 158.15356,142.62705 155.1982,140.67446 C 149.12043,136.1616 142.21412,132.84225 134.99034,130.61734 C 128.48607,128.70231 121.68139,127.85877 114.90611,128.02975 z"
         style="fill:#000000;fill-opacity:1;stroke:#ffffff;stroke-width:3.0552702;stroke-miterlimit:4;stroke-dasharray:none;stroke-opacity:1" />
    </g>
  </g>
</svg>
