<?xml version="1.0" encoding="UTF-8" standalone="no"?>
<!-- Created with Inkscape (http://www.inkscape.org/) -->
<svg
   xmlns:dc="http://purl.org/dc/elements/1.1/"
   xmlns:cc="http://creativecommons.org/ns#"
   xmlns:rdf="http://www.w3.org/1999/02/22-rdf-syntax-ns#"
   xmlns:svg="http://www.w3.org/2000/svg"
   xmlns="http://www.w3.org/2000/svg"
   xmlns:sodipodi="http://sodipodi.sourceforge.net/DTD/sodipodi-0.dtd"
   xmlns:inkscape="http://www.inkscape.org/namespaces/inkscape"
   width="256"
   height="256"
   id="svg2"
   sodipodi:version="0.32"
   inkscape:version="0.46"
   version="1.0"
   sodipodi:docname="30.svg"
   inkscape:output_extension="org.inkscape.output.svg.inkscape">
  <defs
     id="defs4">
    <inkscape:perspective
       sodipodi:type="inkscape:persp3d"
       inkscape:vp_x="0 : 526.18109 : 1"
       inkscape:vp_y="0 : 1000 : 0"
       inkscape:vp_z="744.09448 : 526.18109 : 1"
       inkscape:persp3d-origin="372.04724 : 350.78739 : 1"
       id="perspective10" />
  </defs>
  <sodipodi:namedview
     id="base"
     pagecolor="#ffffff"
     bordercolor="#666666"
     borderopacity="1.0"
     gridtolerance="10000"
     guidetolerance="10"
     objecttolerance="10"
     inkscape:pageopacity="0.0"
     inkscape:pageshadow="2"
     inkscape:zoom="1.8398438"
     inkscape:cx="128"
     inkscape:cy="128"
     inkscape:document-units="px"
     inkscape:current-layer="layer1"
     showgrid="false"
     inkscape:window-width="923"
     inkscape:window-height="681"
     inkscape:window-x="246"
     inkscape:window-y="143" />
  <metadata
     id="metadata7">
    <rdf:RDF>
      <cc:Work
         rdf:about="">
        <dc:format>image/svg+xml</dc:format>
        <dc:type
           rdf:resource="http://purl.org/dc/dcmitype/StillImage" />
      </cc:Work>
    </rdf:RDF>
  </metadata>
  <g
     inkscape:label="Layer 1"
     inkscape:groupmode="layer"
     id="layer1">
    <path
       inkscape:transform-center-y="-4.5124414"
       style="fill:#000000;fill-opacity:1;stroke:#ffffff;stroke-width:3.17136574;stroke-miterlimit:4;stroke-dasharray:none;stroke-opacity:1"
       d="M 27.330836,164.60235 L 50.539442,164.27089 L 38.805081,143.57158 L 27.330836,164.60235 z"
       id="path3275"
       inkscape:transform-center-x="1.1038625" />
    <path
       style="fill:#fbffff;fill-opacity:1;stroke:#fffff8;stroke-width:1.22929883;stroke-miterlimit:4;stroke-dasharray:none;stroke-opacity:1"
       d="M 43.027277,130.78968 C 51.677374,169.91863 90.460262,194.64259 129.5892,185.99249 C 168.71815,177.34239 193.44626,138.57825 184.79617,99.449322 C 176.14607,60.320374 137.37781,35.573503 98.248853,44.223603 L 97.836244,44.314815 C 58.895297,53.151908 34.407956,91.799948 43.027277,130.78968 z M 48.18548,129.11823 C 40.18755,92.939396 62.928919,57.082938 99.062498,48.88294 L 99.418834,48.804166 C 135.72687,40.777677 171.70642,63.729486 179.73292,100.0375 C 187.7594,136.34552 164.80759,172.32509 128.49956,180.35157 C 92.191533,188.37807 56.211967,165.42625 48.18548,129.11823 z"
       id="path3157" />
    <path
       style="fill:#000000;fill-opacity:1;stroke:#ffffff;stroke-width:3.17136574;stroke-miterlimit:4;stroke-dasharray:none;stroke-opacity:1"
       d="M 211.12695,85.516387 L 188.15372,82.202569 L 196.49532,104.48655 L 211.12695,85.516387 z"
       id="path3263"
       inkscape:transform-center-x="-8.1528662" />
    <path
       id="path3273"
       d="M 13.562674,122.26758 L 34.163379,132.96151 L 33.625037,109.17356 L 13.562674,122.26758 z"
       style="fill:#000000;fill-opacity:1;stroke:#ffffff;stroke-width:3.17136574;stroke-miterlimit:4;stroke-dasharray:none;stroke-opacity:1"
       inkscape:transform-center-x="2.4284015"
       inkscape:transform-center-y="-0.556717" />
    <path
       style="fill:#000000;fill-opacity:1;stroke:#ffffff;stroke-width:3.17136574;stroke-miterlimit:4;stroke-dasharray:none;stroke-opacity:1"
       d="M 159.2102,25.601011 L 139.86075,38.420874 L 160.91951,49.497237 L 159.2102,25.601011 z"
       id="path3242" />
    <path
       id="path3261"
       d="M 190.15248,48.724942 L 167.67574,54.516903 L 183.95802,71.867548 L 190.15248,48.724942 z"
       style="fill:#000000;fill-opacity:1;stroke:#ffffff;stroke-width:3.17136574;stroke-miterlimit:4;stroke-dasharray:none;stroke-opacity:1" />
    <path
       id="path3265"
       d="M 116.64289,14.589727 L 105.10039,34.72727 L 128.89014,35.179924 L 116.64289,14.589727 z"
       style="fill:#000000;fill-opacity:1;stroke:#ffffff;stroke-width:3.17136574;stroke-miterlimit:4;stroke-dasharray:none;stroke-opacity:1" />
    <path
       style="fill:#000000;fill-opacity:1;stroke:#ffffff;stroke-width:3.17136574;stroke-miterlimit:4;stroke-dasharray:none;stroke-opacity:1"
       d="M 75.05393,22.481381 L 73.196112,45.617897 L 94.909415,35.887027 L 75.05393,22.481381 z"
       id="path3267" />
    <path
       id="path3269"
       d="M 41.300126,46.357705 L 48.35093,68.471865 L 64.755349,51.236655 L 41.300126,46.357705 z"
       style="fill:#000000;fill-opacity:1;stroke:#ffffff;stroke-width:3.17136574;stroke-miterlimit:4;stroke-dasharray:none;stroke-opacity:1"
       inkscape:transform-center-x="-1.946815"
       inkscape:transform-center-y="2.1324745" />
    <path
       inkscape:transform-center-y="1.981888"
       inkscape:transform-center-x="0.465673"
       style="fill:#000000;fill-opacity:1;stroke:#ffffff;stroke-width:3.17136574;stroke-miterlimit:4;stroke-dasharray:none;stroke-opacity:1"
       d="M 19.023481,79.962888 L 34.192247,97.531552 L 42.510392,75.238834 L 19.023481,79.962888 z"
       id="path3271" />
    <path
       inkscape:transform-center-x="-0.9346075"
       id="path2484"
       d="M 50.762574,193.0039 L 72.4925,184.84549 L 54.450995,169.33226 L 50.762574,193.0039 z"
       style="fill:#000000;fill-opacity:1;stroke:#ffffff;stroke-width:3.17136574;stroke-miterlimit:4;stroke-dasharray:none;stroke-opacity:1"
       inkscape:transform-center-y="-1.8899264" />
    <path
       style="fill:#000000;fill-opacity:1;stroke:#ffffff;stroke-width:2.84761238;stroke-miterlimit:4;stroke-dasharray:none;stroke-opacity:1"
       d="M 116.85713,139.22238 C 108.69689,139.41443 100.8656,142.31066 93.670913,145.9848 C 88.283677,148.89224 83.915802,153.40027 80.508248,158.43646 C 75.597307,165.32726 71.708225,172.89022 66.736846,179.73938 C 64.893139,182.19245 62.463833,184.27875 59.532882,185.29257 C 53.824708,187.7451 47.831819,189.46017 42.145592,191.96936 C 36.306931,194.51087 30.563378,197.73699 26.397821,202.66203 C 22.170044,207.51537 19.269977,213.72045 19.118768,220.22211 C 19.16076,224.99022 21.246768,229.9791 25.3484,232.63028 C 28.559211,234.69679 32.504659,234.98502 36.220738,234.82352 C 63.61025,234.72939 90.999597,234.95613 118.38917,234.94368 C 147.61033,234.94506 176.83578,234.86455 206.04847,234.09798 C 212.98476,233.84917 219.93004,233.67044 226.84924,233.10727 C 229.58852,232.84057 232.35919,232.55448 235.01028,231.81084 C 237.66441,230.60215 238.75078,227.584 239.19091,224.89603 C 240.53399,218.17992 240.87407,211.02721 238.63308,204.46187 C 236.26415,197.34385 230.85649,191.40669 224.18222,188.05406 C 219.69476,185.57754 214.45694,184.34656 210.5913,180.83085 C 208.26827,178.45569 208.03648,174.95437 207.67437,171.83277 C 207.34785,168.80627 206.55112,165.76671 204.76989,163.25304 C 201.55534,158.34177 196.12876,155.26684 190.5391,153.83541 C 184.67574,152.28657 178.46122,152.85443 172.66671,154.42395 C 169.47353,155.15845 166.26296,156.15938 162.96068,156.09605 C 159.55081,155.55925 157.16518,152.82756 154.41068,151.00768 C 148.746,146.80153 142.3091,143.7078 135.5763,141.6341 C 129.5141,139.84922 123.1719,139.06302 116.85713,139.22238 z"
       id="path3183" />
    <path
       inkscape:transform-center-x="-10.125851"
       id="path2486"
       d="M 214.14089,130.91637 L 195.36978,117.26367 L 192.34691,140.86495 L 214.14089,130.91637 z"
       style="fill:#000000;fill-opacity:1;stroke:#ffffff;stroke-width:3.17136574;stroke-miterlimit:4;stroke-dasharray:none;stroke-opacity:1"
       inkscape:transform-center-y="0.39066" />
  </g>
</svg>
