<?xml version="1.0" encoding="UTF-8" standalone="no"?>
<!-- Created with Inkscape (http://www.inkscape.org/) -->
<svg
   xmlns:dc="http://purl.org/dc/elements/1.1/"
   xmlns:cc="http://creativecommons.org/ns#"
   xmlns:rdf="http://www.w3.org/1999/02/22-rdf-syntax-ns#"
   xmlns:svg="http://www.w3.org/2000/svg"
   xmlns="http://www.w3.org/2000/svg"
   xmlns:sodipodi="http://sodipodi.sourceforge.net/DTD/sodipodi-0.dtd"
   xmlns:inkscape="http://www.inkscape.org/namespaces/inkscape"
   width="256"
   height="256"
   id="svg2"
   sodipodi:version="0.32"
   inkscape:version="0.46"
   version="1.0"
   sodipodi:docname="34.svg"
   inkscape:output_extension="org.inkscape.output.svg.inkscape">
  <defs
     id="defs4">
    <inkscape:perspective
       sodipodi:type="inkscape:persp3d"
       inkscape:vp_x="0 : 526.18109 : 1"
       inkscape:vp_y="0 : 1000 : 0"
       inkscape:vp_z="744.09448 : 526.18109 : 1"
       inkscape:persp3d-origin="372.04724 : 350.78739 : 1"
       id="perspective10" />
  </defs>
  <sodipodi:namedview
     id="base"
     pagecolor="#ffffff"
     bordercolor="#666666"
     borderopacity="1.0"
     gridtolerance="10000"
     guidetolerance="10"
     objecttolerance="10"
     inkscape:pageopacity="0.0"
     inkscape:pageshadow="2"
     inkscape:zoom="1.8398438"
     inkscape:cx="128"
     inkscape:cy="128"
     inkscape:document-units="px"
     inkscape:current-layer="layer1"
     showgrid="false"
     inkscape:window-width="923"
     inkscape:window-height="681"
     inkscape:window-x="290"
     inkscape:window-y="144" />
  <metadata
     id="metadata7">
    <rdf:RDF>
      <cc:Work
         rdf:about="">
        <dc:format>image/svg+xml</dc:format>
        <dc:type
           rdf:resource="http://purl.org/dc/dcmitype/StillImage" />
      </cc:Work>
    </rdf:RDF>
  </metadata>
  <g
     inkscape:label="Layer 1"
     inkscape:groupmode="layer"
     id="layer1">
    <g
       id="g2402"
       transform="matrix(1.0987016,0,0,1.0987016,0.4484254,-2.3705683)">
      <path
         inkscape:transform-center-x="1.1038625"
         id="path3275"
         d="M 27.330836,164.60235 L 50.539442,164.27089 L 38.805081,143.57158 L 27.330836,164.60235 z"
         style="fill:#000000;fill-opacity:1;stroke:#ffffff;stroke-width:3.17136574;stroke-miterlimit:4;stroke-dasharray:none;stroke-opacity:1"
         inkscape:transform-center-y="-4.5124414" />
      <path
         id="path3157"
         d="M 43.027277,130.78968 C 51.677374,169.91863 90.460262,194.64259 129.5892,185.99249 C 168.71815,177.34239 193.44626,138.57825 184.79617,99.449322 C 176.14607,60.320374 137.37781,35.573503 98.248853,44.223603 L 97.836244,44.314815 C 58.895297,53.151908 34.407956,91.799948 43.027277,130.78968 z M 48.18548,129.11823 C 40.18755,92.939396 62.928919,57.082938 99.062498,48.88294 L 99.418834,48.804166 C 135.72687,40.777677 171.70642,63.729486 179.73292,100.0375 C 187.7594,136.34552 164.80759,172.32509 128.49956,180.35157 C 92.191533,188.37807 56.211967,165.42625 48.18548,129.11823 z"
         style="fill:#fbffff;fill-opacity:1;stroke:#fffff8;stroke-width:1.22929883;stroke-miterlimit:4;stroke-dasharray:none;stroke-opacity:1" />
      <path
         inkscape:transform-center-x="-8.1528662"
         id="path3263"
         d="M 211.12695,85.516387 L 188.15372,82.202569 L 196.49532,104.48655 L 211.12695,85.516387 z"
         style="fill:#000000;fill-opacity:1;stroke:#ffffff;stroke-width:3.17136574;stroke-miterlimit:4;stroke-dasharray:none;stroke-opacity:1" />
      <path
         inkscape:transform-center-y="-0.556717"
         inkscape:transform-center-x="2.4284015"
         style="fill:#000000;fill-opacity:1;stroke:#ffffff;stroke-width:3.17136574;stroke-miterlimit:4;stroke-dasharray:none;stroke-opacity:1"
         d="M 13.562674,122.26758 L 34.163379,132.96151 L 33.625037,109.17356 L 13.562674,122.26758 z"
         id="path3273" />
      <path
         id="path3242"
         d="M 159.2102,25.601011 L 139.86075,38.420874 L 160.91951,49.497237 L 159.2102,25.601011 z"
         style="fill:#000000;fill-opacity:1;stroke:#ffffff;stroke-width:3.17136574;stroke-miterlimit:4;stroke-dasharray:none;stroke-opacity:1" />
      <path
         style="fill:#000000;fill-opacity:1;stroke:#ffffff;stroke-width:3.17136574;stroke-miterlimit:4;stroke-dasharray:none;stroke-opacity:1"
         d="M 190.15248,48.724942 L 167.67574,54.516903 L 183.95802,71.867548 L 190.15248,48.724942 z"
         id="path3261" />
      <path
         style="fill:#000000;fill-opacity:1;stroke:#ffffff;stroke-width:3.17136574;stroke-miterlimit:4;stroke-dasharray:none;stroke-opacity:1"
         d="M 116.64289,14.589727 L 105.10039,34.72727 L 128.89014,35.179924 L 116.64289,14.589727 z"
         id="path3265" />
      <path
         id="path3267"
         d="M 75.05393,22.481381 L 73.196112,45.617897 L 94.909415,35.887027 L 75.05393,22.481381 z"
         style="fill:#000000;fill-opacity:1;stroke:#ffffff;stroke-width:3.17136574;stroke-miterlimit:4;stroke-dasharray:none;stroke-opacity:1" />
      <path
         inkscape:transform-center-y="2.1324745"
         inkscape:transform-center-x="-1.946815"
         style="fill:#000000;fill-opacity:1;stroke:#ffffff;stroke-width:3.17136574;stroke-miterlimit:4;stroke-dasharray:none;stroke-opacity:1"
         d="M 41.300126,46.357705 L 48.35093,68.471865 L 64.755349,51.236655 L 41.300126,46.357705 z"
         id="path3269" />
      <path
         id="path3271"
         d="M 19.023481,79.962888 L 34.192247,97.531552 L 42.510392,75.238834 L 19.023481,79.962888 z"
         style="fill:#000000;fill-opacity:1;stroke:#ffffff;stroke-width:3.17136574;stroke-miterlimit:4;stroke-dasharray:none;stroke-opacity:1"
         inkscape:transform-center-x="0.465673"
         inkscape:transform-center-y="1.981888" />
      <path
         inkscape:transform-center-y="-1.8899264"
         style="fill:#000000;fill-opacity:1;stroke:#ffffff;stroke-width:3.17136574;stroke-miterlimit:4;stroke-dasharray:none;stroke-opacity:1"
         d="M 50.762574,193.0039 L 72.4925,184.84549 L 54.450995,169.33226 L 50.762574,193.0039 z"
         id="path2484"
         inkscape:transform-center-x="-0.9346075" />
      <path
         inkscape:transform-center-y="0.39066"
         style="fill:#000000;fill-opacity:1;stroke:#ffffff;stroke-width:3.17136574;stroke-miterlimit:4;stroke-dasharray:none;stroke-opacity:1"
         d="M 214.14089,130.91637 L 195.36978,117.26367 L 192.34691,140.86495 L 214.14089,130.91637 z"
         id="path2486"
         inkscape:transform-center-x="-10.125851" />
      <path
         inkscape:transform-center-x="-5.445831"
         id="path2394"
         d="M 199.64269,172.75821 L 189.67823,151.7949 L 175.74411,171.08216 L 199.64269,172.75821 z"
         style="fill:#000000;fill-opacity:1;stroke:#ffffff;stroke-width:3.17136574;stroke-miterlimit:4;stroke-dasharray:none;stroke-opacity:1"
         inkscape:transform-center-y="1.534965" />
      <path
         inkscape:transform-center-y="6.042745"
         style="fill:#000000;fill-opacity:1;stroke:#ffffff;stroke-width:3.17136574;stroke-miterlimit:4;stroke-dasharray:none;stroke-opacity:1"
         d="M 166.20382,202.28223 L 164.75354,179.11658 L 144.64418,191.83552 L 166.20382,202.28223 z"
         id="path2396"
         inkscape:transform-center-x="-0.896181" />
      <path
         inkscape:transform-center-x="0.281594"
         id="path2398"
         d="M 121.59411,216.11191 L 132.44339,195.59256 L 108.65202,195.95121 L 121.59411,216.11191 z"
         style="fill:#000000;fill-opacity:1;stroke:#ffffff;stroke-width:3.17136574;stroke-miterlimit:4;stroke-dasharray:none;stroke-opacity:1"
         inkscape:transform-center-y="10.868615" />
      <path
         inkscape:transform-center-y="8.49391"
         style="fill:#000000;fill-opacity:1;stroke:#ffffff;stroke-width:3.17136574;stroke-miterlimit:4;stroke-dasharray:none;stroke-opacity:1"
         d="M 86.199623,214.05739 L 103.30303,198.36586 L 80.769656,190.72357 L 86.199623,214.05739 z"
         id="path2400"
         inkscape:transform-center-x="0.529681" />
    </g>
    <path
       style="fill:#000000;fill-opacity:1;stroke:#ffffff;stroke-width:3.3324368;stroke-miterlimit:4;stroke-opacity:1"
       d="M 168.12428,102.64237 C 159.50702,103.62844 150.38082,104.95391 143.27683,110.34126 C 138.93568,113.73019 136.46662,118.79836 133.34197,123.20975 C 129.41901,125.6109 124.07731,123.42994 120.54974,126.73443 C 115.22802,130.82416 113.68649,137.69604 111.21479,143.57789 C 109.13363,147.56284 104.39425,148.63603 100.64265,150.40282 C 95.203178,153.76096 93.105228,161.64759 96.476888,167.15626 C 98.858758,169.21077 102.18617,168.45863 105.06182,168.66416 C 150.46845,168.56072 195.87506,168.45729 241.28168,168.35386 C 243.26717,169.13667 245.94861,167.61383 245.70757,165.33384 C 248.68164,153.47286 242.89016,139.95213 232.11747,134.09224 C 229.11106,132.05704 226.14041,129.95723 222.95328,128.2084 C 222.06229,124.00637 224.33937,119.30074 221.75569,115.45143 C 218.50257,110.38559 212.59848,108.27067 207.80111,105.03756 C 201.15043,102.42728 194.03994,104.84354 187.18164,104.621 C 180.78621,104.38599 174.56317,102.21719 168.12428,102.64237 z"
       id="path3170" />
  </g>
</svg>
