<?xml version="1.0" encoding="UTF-8" standalone="no"?>
<!-- Created with Inkscape (http://www.inkscape.org/) -->
<svg
   xmlns:dc="http://purl.org/dc/elements/1.1/"
   xmlns:cc="http://creativecommons.org/ns#"
   xmlns:rdf="http://www.w3.org/1999/02/22-rdf-syntax-ns#"
   xmlns:svg="http://www.w3.org/2000/svg"
   xmlns="http://www.w3.org/2000/svg"
   xmlns:sodipodi="http://sodipodi.sourceforge.net/DTD/sodipodi-0.dtd"
   xmlns:inkscape="http://www.inkscape.org/namespaces/inkscape"
   width="256"
   height="256"
   id="svg2"
   sodipodi:version="0.32"
   inkscape:version="0.46"
   version="1.0"
   sodipodi:docname="45_6.svg"
   inkscape:output_extension="org.inkscape.output.svg.inkscape">
  <defs
     id="defs4">
    <inkscape:perspective
       sodipodi:type="inkscape:persp3d"
       inkscape:vp_x="0 : 526.18109 : 1"
       inkscape:vp_y="0 : 1000 : 0"
       inkscape:vp_z="744.09448 : 526.18109 : 1"
       inkscape:persp3d-origin="372.04724 : 350.78739 : 1"
       id="perspective10" />
  </defs>
  <sodipodi:namedview
     id="base"
     pagecolor="#ffffff"
     bordercolor="#666666"
     borderopacity="1.0"
     gridtolerance="10000"
     guidetolerance="10"
     objecttolerance="10"
     inkscape:pageopacity="0.0"
     inkscape:pageshadow="2"
     inkscape:zoom="1.8203125"
     inkscape:cx="106.35001"
     inkscape:cy="128"
     inkscape:document-units="px"
     inkscape:current-layer="layer1"
     showgrid="false"
     inkscape:window-width="923"
     inkscape:window-height="681"
     inkscape:window-x="303"
     inkscape:window-y="87" />
  <metadata
     id="metadata7">
    <rdf:RDF>
      <cc:Work
         rdf:about="">
        <dc:format>image/svg+xml</dc:format>
        <dc:type
           rdf:resource="http://purl.org/dc/dcmitype/StillImage" />
      </cc:Work>
    </rdf:RDF>
  </metadata>
  <g
     inkscape:label="Layer 1"
     inkscape:groupmode="layer"
     id="layer1">
    <path
       style="fill:#000000;fill-opacity:1;stroke:#ffffff;stroke-width:2.90286875;stroke-miterlimit:4;stroke-dasharray:none;stroke-opacity:1"
       d="M 117.16469,15.102973 C 73.788487,24.77368 41.327243,63.502076 41.327243,109.77882 C 41.327243,159.39655 78.642026,200.33972 126.71996,206.08754 C 164.04069,191.24581 190.46212,154.81554 190.46212,112.22812 L 190.40164,109.38573 C 189.12992,64.253176 158.55859,26.845144 117.16469,15.102973 z"
       id="path3158" />
    <path
       style="fill:#fbffff;fill-opacity:1;stroke:none;stroke-width:1.64961611999999991;stroke-miterlimit:4;stroke-dasharray:none;stroke-opacity:1"
       d="M 135.12871,12.091615 C 81.206293,12.091615 37.457925,55.627622 37.457925,109.2566 C 37.457925,162.88558 81.206293,206.39588 135.12871,206.39588 C 189.05113,206.39588 232.82534,162.88558 232.82534,109.2566 L 232.82534,108.69109 C 232.52505,55.253757 188.85926,12.091615 135.12871,12.091615 z M 135.82654,19.314727 C 185.68352,19.314727 226.18866,59.38897 226.4673,108.97385 L 226.4673,109.46224 C 226.4673,159.22494 185.86153,199.60976 135.82654,199.60976 C 85.791557,199.60977 45.18578,159.22495 45.18578,109.46224 C 45.18578,59.699531 85.791555,19.314727 135.82654,19.314727 z"
       id="path2968" />
    <rect
       style="opacity:1;fill:#ffffff;fill-opacity:1;stroke:#ffffff;stroke-width:3;stroke-miterlimit:4;stroke-dasharray:none;stroke-opacity:1"
       id="rect3189"
       width="6.5922747"
       height="26.369099"
       x="48.476936"
       y="200.38309"
       transform="matrix(0.8916997,-0.4526275,0.4526275,0.8916997,0,0)" />
    <rect
       style="opacity:1;fill:#ffffff;fill-opacity:1;stroke:#ffffff;stroke-width:3;stroke-miterlimit:4;stroke-dasharray:none;stroke-opacity:1"
       id="rect3191"
       width="6.5922747"
       height="26.369099"
       x="2.6861188"
       y="175.29141"
       transform="matrix(0.8916997,-0.4526275,0.4526275,0.8916997,0,0)" />
    <rect
       style="opacity:1;fill:#ffffff;fill-opacity:1;stroke:#ffffff;stroke-width:3;stroke-miterlimit:4;stroke-dasharray:none;stroke-opacity:1"
       id="rect3193"
       width="6.5922747"
       height="26.369099"
       x="53.122356"
       y="244.6344"
       transform="matrix(0.8916997,-0.4526275,0.4526275,0.8916997,0,0)" />
    <path
       style="fill:#000000;fill-opacity:1;stroke:#ffffff;stroke-width:2.55571437;stroke-miterlimit:4;stroke-dasharray:none;stroke-opacity:1"
       d="M 104.9761,58.971474 C 97.652337,59.143844 90.623818,61.743194 84.166619,65.040707 C 79.331612,67.650107 75.411471,71.696036 72.353212,76.215976 C 67.945673,82.400441 64.455246,89.188148 59.993464,95.335226 C 58.338749,97.536839 56.15846,99.409281 53.527951,100.31917 C 48.4049,102.52031 43.02632,104.05958 37.922964,106.31156 C 32.682801,108.59255 27.528,111.48798 23.789437,115.90815 C 19.995034,120.264 17.392241,125.83302 17.256532,131.66822 C 17.29422,135.94757 19.166398,140.42506 22.847589,142.80448 C 25.729272,144.65916 29.270286,144.91785 32.605445,144.77289 C 57.187364,144.68842 81.769131,144.89191 106.35108,144.88075 C 132.57691,144.88198 158.80656,144.80972 185.02477,144.12172 C 191.25005,143.89843 197.4834,143.73802 203.69334,143.23257 C 206.15183,142.99321 208.63849,142.73645 211.01781,142.06903 C 213.39989,140.98424 214.3749,138.27548 214.76992,135.86304 C 215.97532,129.83537 216.28054,123.41585 214.26926,117.5235 C 212.14315,111.13512 207.28983,105.80657 201.2997,102.7976 C 197.27224,100.57496 192.57133,99.470144 189.10193,96.314813 C 187.01704,94.183128 186.809,91.040708 186.484,88.23909 C 186.19096,85.522827 185.4759,82.794838 183.87727,80.538845 C 180.99222,76.131004 176.1219,73.371275 171.10522,72.086579 C 165.84288,70.696502 160.26539,71.206152 155.06486,72.614788 C 152.19899,73.27399 149.31752,74.172329 146.35375,74.115487 C 143.29342,73.633715 141.15232,71.182029 138.68018,69.548705 C 133.59617,65.773713 127.81908,62.997109 121.77643,61.135978 C 116.33566,59.534066 110.64358,58.82846 104.9761,58.971474 z"
       id="path3183" />
    <rect
       transform="matrix(0.8916997,-0.4526275,0.4526275,0.8916997,0,0)"
       y="221.81946"
       x="99.20359"
       height="26.369099"
       width="6.5922747"
       id="rect3246"
       style="opacity:1;fill:#ffffff;fill-opacity:1;stroke:#ffffff;stroke-width:3;stroke-miterlimit:4;stroke-dasharray:none;stroke-opacity:1" />
    <rect
       transform="matrix(0.8916997,-0.4526275,0.4526275,0.8916997,0,0)"
       y="283.00446"
       x="100.79815"
       height="26.369099"
       width="6.5922747"
       id="rect3248"
       style="opacity:1;fill:#ffffff;fill-opacity:1;stroke:#ffffff;stroke-width:3;stroke-miterlimit:4;stroke-dasharray:none;stroke-opacity:1" />
    <rect
       style="opacity:1;fill:#ffffff;fill-opacity:1;stroke:#ffffff;stroke-width:3;stroke-miterlimit:4;stroke-dasharray:none;stroke-opacity:1"
       id="rect3250"
       width="6.5922747"
       height="26.369099"
       x="-52.468712"
       y="195.34885"
       transform="matrix(0.8916997,-0.4526275,0.4526275,0.8916997,0,0)" />
  </g>
</svg>
