<?xml version="1.0" encoding="UTF-8" standalone="no"?>
<!-- Created with Inkscape (http://www.inkscape.org/) -->

<svg
   xmlns:dc="http://purl.org/dc/elements/1.1/"
   xmlns:cc="http://creativecommons.org/ns#"
   xmlns:rdf="http://www.w3.org/1999/02/22-rdf-syntax-ns#"
   xmlns:svg="http://www.w3.org/2000/svg"
   xmlns="http://www.w3.org/2000/svg"
   xmlns:xlink="http://www.w3.org/1999/xlink"
   xmlns:sodipodi="http://sodipodi.sourceforge.net/DTD/sodipodi-0.dtd"
   xmlns:inkscape="http://www.inkscape.org/namespaces/inkscape"
   width="464"
   height="560"
   id="svg2"
   sodipodi:version="0.32"
   inkscape:version="0.47pre0 r21549"
   sodipodi:docname="alsamixer.svg"
   version="1.0"
   inkscape:output_extension="org.inkscape.output.svg.inkscape">
  <sodipodi:namedview
     id="base"
     pagecolor="#ffffff"
     bordercolor="#666666"
     borderopacity="1.0"
     gridtolerance="10000"
     guidetolerance="10"
     objecttolerance="10"
     inkscape:pageopacity="0.0"
     inkscape:pageshadow="2"
     inkscape:zoom="0.83214286"
     inkscape:cx="232"
     inkscape:cy="280"
     inkscape:document-units="px"
     inkscape:current-layer="layer1"
     showgrid="false"
     inkscape:window-width="1023"
     inkscape:window-height="676"
     inkscape:window-x="254"
     inkscape:window-y="176" />
  <defs
     id="defs4">
    <linearGradient
       inkscape:collect="always"
       id="linearGradient3275">
      <stop
         style="stop-color:#0b0c08;stop-opacity:1;"
         offset="0"
         id="stop3277" />
      <stop
         style="stop-color:#0b0c08;stop-opacity:0.2962963"
         offset="1"
         id="stop3279" />
    </linearGradient>
    <filter
       inkscape:collect="always"
       id="filter3988"
       x="-0.19698875"
       width="1.3939775"
       y="-0.1484981"
       height="1.2969962">
      <feGaussianBlur
         inkscape:collect="always"
         stdDeviation="30.898605"
         id="feGaussianBlur3990" />
    </filter>
    <linearGradient
       inkscape:collect="always"
       id="linearGradient3920-809">
      <stop
         style="stop-color:#737471;stop-opacity:1;"
         offset="0"
         id="stop4578" />
      <stop
         style="stop-color:#737471;stop-opacity:0;"
         offset="1"
         id="stop4580" />
    </linearGradient>
    <linearGradient
       inkscape:collect="always"
       id="linearGradient3651-27">
      <stop
         style="stop-color:#86888d;stop-opacity:1;"
         offset="0"
         id="stop4584" />
      <stop
         style="stop-color:#86888d;stop-opacity:0;"
         offset="1"
         id="stop4586" />
    </linearGradient>
    <linearGradient
       inkscape:collect="always"
       id="linearGradient3956-485">
      <stop
         style="stop-color:#cfcfcf;stop-opacity:1;"
         offset="0"
         id="stop4596" />
      <stop
         style="stop-color:#cfcfcf;stop-opacity:0;"
         offset="1"
         id="stop4598" />
    </linearGradient>
    <linearGradient
       inkscape:collect="always"
       xlink:href="#linearGradient3920-809"
       id="linearGradient6160"
       gradientUnits="userSpaceOnUse"
       x1="-736.93536"
       y1="410.93362"
       x2="-588.77887"
       y2="410.93362" />
    <linearGradient
       inkscape:collect="always"
       xlink:href="#linearGradient3651-27"
       id="linearGradient6162"
       gradientUnits="userSpaceOnUse"
       x1="-60.296066"
       y1="497.17868"
       x2="796.88208"
       y2="449.75574" />
    <radialGradient
       inkscape:collect="always"
       xlink:href="#linearGradient3956-485"
       id="radialGradient2423"
       gradientUnits="userSpaceOnUse"
       gradientTransform="matrix(0.5651935,-1.1975236e-3,-1.3053826e-3,0.9364556,214.62469,27.887266)"
       cx="535.8233"
       cy="510.30014"
       fx="535.8233"
       fy="510.30014"
       r="185.71428" />
    <filter
       inkscape:collect="always"
       id="filter3271"
       x="-0.59353037"
       width="2.1870607"
       y="-0.57021673"
       height="2.1404335">
      <feGaussianBlur
         inkscape:collect="always"
         stdDeviation="9.9443573"
         id="feGaussianBlur3273" />
    </filter>
    <radialGradient
       inkscape:collect="always"
       xlink:href="#linearGradient3275"
       id="radialGradient3281"
       cx="272.40131"
       cy="499.36295"
       fx="272.40131"
       fy="499.36295"
       r="185.71428"
       gradientTransform="matrix(0.7150425,0.1084891,-0.2502275,1.5772245,219.48874,-319.69498)"
       gradientUnits="userSpaceOnUse" />
  </defs>
  <metadata
     id="metadata7">
    <rdf:RDF>
      <cc:Work
         rdf:about="">
        <dc:format>image/svg+xml</dc:format>
        <dc:type
           rdf:resource="http://purl.org/dc/dcmitype/StillImage" />
      </cc:Work>
    </rdf:RDF>
  </metadata>
  <g
     inkscape:label="Layer 1"
     inkscape:groupmode="layer"
     id="layer1">
    <path
       sodipodi:type="arc"
       style="fill:url(#linearGradient6160);fill-opacity:1;stroke:#130c07;stroke-width:5.29940796;stroke-linecap:round;stroke-linejoin:round;stroke-miterlimit:10;stroke-dasharray:none;stroke-opacity:1"
       id="path3918"
       sodipodi:cx="-662.85712"
       sodipodi:cy="410.93362"
       sodipodi:rx="71.428574"
       sodipodi:ry="112.85714"
       d="M -591.42854,410.93362 A 71.428574,112.85714 0 1 1 -734.28569,410.93362 A 71.428574,112.85714 0 1 1 -591.42854,410.93362 z"
       transform="matrix(0.7855657,0.179442,-0.1763918,0.7991495,668.34602,25.76631)" />
    <path
       transform="matrix(0.8962446,8.1686625e-3,-4.1123721e-2,0.8210516,713.8384,-80.763745)"
       d="M -591.42854,410.93362 A 71.428574,112.85714 0 1 1 -734.28569,410.93362 A 71.428574,112.85714 0 1 1 -591.42854,410.93362 z"
       sodipodi:ry="112.85714"
       sodipodi:rx="71.428574"
       sodipodi:cy="410.93362"
       sodipodi:cx="-662.85712"
       id="path3928"
       style="fill:#342b34;fill-opacity:1;stroke:#e6e6e6;stroke-width:3.66774511;stroke-linecap:round;stroke-linejoin:round;stroke-miterlimit:10;stroke-dasharray:none;stroke-opacity:1"
       sodipodi:type="arc" />
    <path
       style="fill:#1e1e17;fill-opacity:1;stroke:none;stroke-width:16.3722496;stroke-linecap:round;stroke-linejoin:round;stroke-miterlimit:10;stroke-dasharray:none;stroke-opacity:1"
       d="M 263.66072,19.14731 C 169.16971,19.00172 81.9999,117.78657 64.06697,250.33481 C 44.93852,391.7196 111.81343,518.24019 213.34822,532.77231 C 314.883,547.30444 412.81351,444.3446 431.94197,302.95981 C 451.07042,161.57502 384.19551,35.05443 282.66072,20.52231 C 276.31479,19.61405 269.96012,19.15702 263.66072,19.14731 z M 237.47322,67.70981 C 242.42663,67.71744 247.38947,68.08937 252.37947,68.80356 C 332.21935,80.23062 384.827,179.72217 369.78572,290.89731 C 354.74444,402.07245 277.71935,483.04311 197.87947,471.61606 C 118.03958,460.18901 65.46319,360.6662 80.50447,249.49106 C 94.60567,145.26435 163.17207,67.59532 237.47322,67.70981 z"
       id="path3669" />
    <path
       transform="matrix(0.9904453,0.1417571,-0.1378244,1.0187063,-87.232949,-294.48481)"
       d="M 594.28572,503.79074 A 185.71428,251.42857 0 1 1 222.85716,503.79074 A 185.71428,251.42857 0 1 1 594.28572,503.79074 z"
       sodipodi:ry="251.42857"
       sodipodi:rx="185.71428"
       sodipodi:cy="503.79074"
       sodipodi:cx="408.57144"
       id="path3665"
       style="fill:none;fill-opacity:1;stroke:url(#linearGradient6162);stroke-width:16.3722496;stroke-linecap:round;stroke-linejoin:round;stroke-miterlimit:10;stroke-dasharray:none;stroke-opacity:1"
       sodipodi:type="arc" />
    <path
       sodipodi:type="arc"
       style="fill:none;fill-opacity:1;stroke:#8c9395;stroke-width:16.3722496;stroke-linecap:round;stroke-linejoin:round;stroke-miterlimit:10;stroke-dasharray:none;stroke-opacity:1"
       id="path2879"
       sodipodi:cx="408.57144"
       sodipodi:cy="503.79074"
       sodipodi:rx="185.71428"
       sodipodi:ry="251.42857"
       d="M 594.28572,503.79074 A 185.71428,251.42857 0 1 1 222.85716,503.79074 A 185.71428,251.42857 0 1 1 594.28572,503.79074 z"
       transform="matrix(0.9904453,0.1417571,-0.1378244,1.0187063,-90.090091,-300.1991)" />
    <path
       sodipodi:type="arc"
       style="fill:#77797b;fill-opacity:1;stroke:none;stroke-width:16.3722496;stroke-linecap:round;stroke-linejoin:round;stroke-miterlimit:10;stroke-dasharray:none;stroke-opacity:1"
       id="path3686"
       sodipodi:cx="408.57144"
       sodipodi:cy="503.79074"
       sodipodi:rx="185.71428"
       sodipodi:ry="251.42857"
       d="M 594.28572,503.79074 A 185.71428,251.42857 0 1 1 222.85716,503.79074 A 185.71428,251.42857 0 1 1 594.28572,503.79074 z"
       transform="matrix(0.793759,0.1484388,-0.146804,0.8109902,-21.2935,-200.79641)" />
    <path
       transform="matrix(0.8847575,0.1484388,-0.163634,0.8109902,-37.376091,-203.19984)"
       d="M 594.28572,503.79074 A 185.71428,251.42857 0 1 1 222.85716,503.79074 A 185.71428,251.42857 0 1 1 594.28572,503.79074 z"
       sodipodi:ry="251.42857"
       sodipodi:rx="185.71428"
       sodipodi:cy="503.79074"
       sodipodi:cx="408.57144"
       id="path3992"
       style="fill:url(#radialGradient3281);fill-opacity:1;stroke:none;stroke-width:16.3722496;stroke-linecap:round;stroke-linejoin:round;stroke-miterlimit:10;stroke-dasharray:none;stroke-opacity:1"
       sodipodi:type="arc" />
    <path
       sodipodi:type="arc"
       style="fill:#000200;fill-opacity:1;stroke:none;stroke-width:16.60400009;stroke-linecap:round;stroke-linejoin:round;stroke-miterlimit:10;stroke-dasharray:none;stroke-opacity:1"
       id="path3698"
       sodipodi:cx="-521.42859"
       sodipodi:cy="446.64789"
       sodipodi:rx="67.14286"
       sodipodi:ry="97.14286"
       d="M -454.28573,446.64789 A 67.14286,97.14286 0 1 1 -588.57145,446.64789 A 67.14286,97.14286 0 1 1 -454.28573,446.64789 z"
       transform="matrix(1.0855334,0.1842435,-0.203486,0.9828806,836.34331,-81.998163)" />
    <path
       sodipodi:type="arc"
       style="fill:#2b2932;fill-opacity:1;stroke:none;stroke-width:16.60400009;stroke-linecap:round;stroke-linejoin:round;stroke-miterlimit:10;stroke-dasharray:none;stroke-opacity:1"
       id="path3700"
       sodipodi:cx="-494.28571"
       sodipodi:cy="463.79074"
       sodipodi:rx="60"
       sodipodi:ry="60"
       d="M -434.28571,463.79074 A 60,60 0 1 1 -554.28571,463.79074 A 60,60 0 1 1 -434.28571,463.79074 z"
       transform="matrix(0.9047619,0,0,1,638.06803,-202.85715)" />
    <path
       sodipodi:type="arc"
       style="opacity:0.72685185;fill:#e6e6e6;fill-opacity:1;stroke:none;stroke-width:16.60400008999999955;stroke-linecap:round;stroke-linejoin:round;stroke-miterlimit:10;stroke-dasharray:none;stroke-opacity:1;filter:url(#filter3271)"
       id="path3702"
       sodipodi:cx="-495.71429"
       sodipodi:cy="353.79074"
       sodipodi:rx="21.428572"
       sodipodi:ry="18.571428"
       d="M -474.28572,353.79074 A 21.428572,18.571428 0 1 1 -517.14287,353.79074 A 21.428572,18.571428 0 1 1 -474.28572,353.79074 z"
       transform="matrix(0.9573576,0.5094699,-0.3866252,0.7464761,780.65391,231.3432)" />
    <path
       transform="matrix(0.793759,0.1484388,-0.146804,0.8109902,-38.411846,-206.08152)"
       d="M 594.28572,503.79074 A 185.71428,251.42857 0 1 1 222.85716,503.79074 A 185.71428,251.42857 0 1 1 594.28572,503.79074 z"
       sodipodi:ry="251.42857"
       sodipodi:rx="185.71428"
       sodipodi:cy="503.79074"
       sodipodi:cx="408.57144"
       id="path3954"
       style="fill:url(#radialGradient2423);fill-opacity:1;stroke:none;stroke-width:16.3722496;stroke-linecap:round;stroke-linejoin:round;stroke-miterlimit:10;stroke-dasharray:none;stroke-opacity:1;filter:url(#filter3988)"
       sodipodi:type="arc" />
  </g>
</svg>
