<?xml version="1.0" encoding="UTF-8" standalone="no"?>
<!-- Generator: Adobe Illustrator 12.0.0, SVG Export Plug-In . SVG Version: 6.00 Build 51448)  -->

<svg
   xmlns:dc="http://purl.org/dc/elements/1.1/"
   xmlns:cc="http://creativecommons.org/ns#"
   xmlns:rdf="http://www.w3.org/1999/02/22-rdf-syntax-ns#"
   xmlns:svg="http://www.w3.org/2000/svg"
   xmlns="http://www.w3.org/2000/svg"
   xmlns:xlink="http://www.w3.org/1999/xlink"
   xmlns:sodipodi="http://sodipodi.sourceforge.net/DTD/sodipodi-0.dtd"
   xmlns:inkscape="http://www.inkscape.org/namespaces/inkscape"
   height="135.788"
   id="Layer_1"
   inkscape:version="0.47pre0 r21549"
   sodipodi:docname="cairo-dock-ok.svg"
   sodipodi:version="0.32"
   space="preserve"
   style="overflow:visible;enable-background:new 0 0 135.828 135.788;"
   version="1.1"
   viewBox="0 0 135.828 135.788"
   width="135.828"
   inkscape:output_extension="org.inkscape.output.svg.inkscape">
  <metadata
     id="metadata3">
    <rdf:RDF>
      <cc:Work
         rdf:about="">
        <dc:title>Tasto 7</dc:title>
        <dc:description />
        <dc:subject>
          <rdf:Bag>
            <rdf:li>unsorted</rdf:li>
          </rdf:Bag>
        </dc:subject>
        <dc:publisher>
          <cc:Agent
             rdf:about="http://www.openclipart.org/">
            <dc:title>Open Clip Art Library</dc:title>
          </cc:Agent>
        </dc:publisher>
        <dc:creator>
          <cc:Agent>
            <dc:title>Architetto Francesco Rollandin</dc:title>
          </cc:Agent>
        </dc:creator>
        <dc:rights>
          <cc:Agent>
            <dc:title>Architetto Francesco Rollandin</dc:title>
          </cc:Agent>
        </dc:rights>
        <dc:date />
        <dc:format>image/svg+xml</dc:format>
        <dc:type
           rdf:resource="http://purl.org/dc/dcmitype/StillImage" />
        <cc:license
           rdf:resource="http://web.resource.org/cc/PublicDomain" />
        <dc:language>en</dc:language>
      </cc:Work>
      <cc:License
         rdf:about="http://web.resource.org/cc/PublicDomain">
        <cc:permits
           rdf:resource="http://web.resource.org/cc/Reproduction" />
        <cc:permits
           rdf:resource="http://web.resource.org/cc/Distribution" />
        <cc:permits
           rdf:resource="http://web.resource.org/cc/DerivativeWorks" />
      </cc:License>
    </rdf:RDF>
  </metadata>
  <defs
     id="defs23">
    <linearGradient
       inkscape:collect="always"
       id="linearGradient3173">
      <stop
         style="stop-color:#ffffff;stop-opacity:1;"
         offset="0"
         id="stop3175" />
      <stop
         style="stop-color:#ffffff;stop-opacity:0;"
         offset="1"
         id="stop3177" />
    </linearGradient>
    <radialGradient
       r="63.1235"
       id="XMLID_2_"
       gradientUnits="userSpaceOnUse"
       cy="67.8696"
       cx="67.9282">
      <stop
         style="stop-color:#D1F593"
         offset="0"
         id="stop8" />
      <stop
         style="stop-color:#81CE09"
         offset="1"
         id="stop10" />
    </radialGradient>
    <radialGradient
       inkscape:collect="always"
       xlink:href="#XMLID_2_"
       id="radialGradient2398"
       gradientUnits="userSpaceOnUse"
       cx="67.9282"
       cy="67.8696"
       r="63.1235" />
    <linearGradient
       inkscape:collect="always"
       xlink:href="#linearGradient3173"
       id="linearGradient3179"
       x1="11.815665"
       y1="46.928371"
       x2="99.942581"
       y2="76.792755"
       gradientUnits="userSpaceOnUse"
       gradientTransform="matrix(0.3046651,0.6817662,-0.8163311,0.2544439,102.82647,-12.872084)" />
  </defs>
  <sodipodi:namedview
     bordercolor="#666666"
     borderopacity="1.0"
     id="base"
     inkscape:current-layer="Layer_1"
     inkscape:cx="67.914001"
     inkscape:cy="67.893997"
     inkscape:pageopacity="0.0"
     inkscape:pageshadow="2"
     inkscape:window-height="510"
     inkscape:window-width="787"
     inkscape:window-x="88"
     inkscape:window-y="116"
     inkscape:zoom="2.6511917"
     pagecolor="#ffffff"
     showgrid="false" />
  <g
     id="g3181"
     transform="scale(0.9972229,1)">
    <path
       d="M 0,67.872 C 0,102.476 27.145,132.339 61.629,135.51 C 96.128,138.682 128.408,114.423 134.722,80.306 C 141.031,46.197 119.74,11.837 86.312,2.462 C 52.872,-6.916 16.737,11.293 4.406,43.753 C 1.485,51.44 0,59.648 0,67.872"
       id="path5"
       style="fill:#5a9908" />
    <path
       d="M 4.805,67.872 C 4.805,102.272 33.528,130.994 67.929,130.994 C 102.329,130.994 131.052,102.272 131.052,67.872 C 131.052,33.471 102.331,4.747 67.929,4.747 C 33.527,4.747 4.805,33.471 4.805,67.872"
       id="path12"
       style="fill:url(#radialGradient2398)" />
    <path
       style="fill:url(#linearGradient3179);fill-opacity:1;stroke:none"
       id="path2401"
       d="M 48.884353,7.6734126 C 20.802562,16.426279 6.1067976,43.316784 16.587583,66.770224 C 27.068063,90.222983 59.265623,102.49721 87.347412,93.744351 C 115.43002,84.99123 130.12802,58.101577 119.64693,34.647457 C 109.16585,11.193336 76.966959,-1.0797087 48.884353,7.6734126" />
    <path
       d="M 91.960846,38.68244 C 82.3314,51.369096 72.697987,64.051479 63.074259,76.741019 C 55.88385,71.28413 48.696377,65.826623 41.506947,60.369529 C 38.648338,58.200244 35.853622,55.529005 32.065677,55.322466 C 25.917399,54.986743 19.502164,61.921221 19.496716,67.992762 C 19.490239,76.184049 32.459454,82.74534 38.052744,86.99045 C 44.457444,91.851517 50.728072,96.988142 57.106864,101.8281 C 65.849887,108.46015 71.463825,104.21258 76.962319,96.967417 C 83.139848,88.82704 89.318562,80.687436 95.495318,72.548244 C 100.35309,66.147304 105.2105,59.749506 110.06652,53.349956 C 118.43851,42.320117 100.27089,27.732078 91.960846,38.68244 M 63.95877,78.538279 C 69.014324,71.877995 74.068128,65.219101 79.123682,58.558816 C 83.875224,52.298802 88.579321,43.150529 94.872536,38.261135 C 100.27403,34.067518 109.77543,39.298127 110.65274,45.713062 C 111.18399,49.592883 108.63073,52.283032 106.49527,55.093636 C 99.968264,63.69496 93.441048,72.295306 86.912853,80.895858 C 81.945558,87.441485 76.976099,93.986546 72.009575,100.53099 C 65.712635,108.82733 57.609511,99.586319 52.096471,95.40197 C 43.53012,88.900294 34.964955,82.399391 26.397832,75.8989 C 22.823875,73.186419 19.843092,69.544692 21.977895,64.737331 C 24.405291,59.276617 30.796067,54.491348 36.456163,58.786767 C 39.934263,61.427468 62.242183,80.271387 63.95877,78.538279"
       id="path18"
       style="fill:#739b07" />
    <path
       d="M 107.93947,39.721938 C 96.002038,29.776835 89.189112,43.691775 82.696347,52.255085 C 76.173428,60.859512 69.64953,69.464145 63.124447,78.068007 C 56.986148,73.412843 50.849035,68.75845 44.710943,64.104265 C 37.05899,58.302099 30.066415,52.15219 22.42166,62.239405 C 15.802666,70.974503 25.706871,76.678186 31.683634,81.21211 C 39.180747,86.89571 46.677296,92.581473 54.176367,98.26466 C 59.982471,102.66803 66.710441,108.92492 72.9423,100.7039 C 77.504064,94.689578 82.065414,88.673296 86.625221,82.659384 C 92.480751,74.93586 98.335715,67.214501 104.1932,59.490564 C 108.3546,54.000269 116.09268,45.903727 107.93947,39.721938"
       id="path20"
       style="fill:#ffffff;stroke:#000000;stroke-width:1.4000001;stroke-miterlimit:4;stroke-dasharray:none;stroke-opacity:1" />
  </g>
</svg>
